<svg width="150" height="130" viewBox="0 0 150 130" fill="none" xmlns="http://www.w3.org/2000/svg">
<path fill-rule="evenodd" clip-rule="evenodd" d="M76.5968 7.2668C87.981 8.03901 99.1306 5.16367 110.241 7.76241C124.156 11.0171 145.052 10.4881 149.039 24.2111C153.505 39.5802 132.628 50.9898 127.173 66.0359C123.99 74.8134 128.984 85.511 123.959 93.3807C118.968 101.199 108.373 102.551 100.614 107.635C92.3038 113.081 86.0676 121.413 76.5968 124.417C65.3361 127.989 52.0973 132.097 41.8099 126.289C31.531 120.486 32.1503 105.286 25.4708 95.5535C18.0463 84.7357 -2.47688 78.8243 0.456701 66.0359C3.74275 51.711 29.5885 55.8533 37.4293 43.4226C44.7575 31.8047 30.1169 12.3292 40.21 3.01211C49.3385 -5.41447 64.2021 6.42605 76.5968 7.2668Z" fill="url(#paint0_linear_3314_20484)"/>
<defs>
<linearGradient id="paint0_linear_3314_20484" x1="0.171875" y1="105.342" x2="149.661" y2="105.342" gradientUnits="userSpaceOnUse">
<stop stop-color="#5C00DB"/>
<stop offset="1" stop-color="#AB74F6"/>
</linearGradient>
</defs>
</svg>
