<svg width="54" height="59" viewBox="0 0 54 59" fill="none" xmlns="http://www.w3.org/2000/svg">
<path fill-rule="evenodd" clip-rule="evenodd" d="M31.4774 0.333072C36.1694 -0.0768055 41.2165 -0.54133 45.2851 1.83118C49.3499 4.20146 52.0519 8.58817 53.3767 13.1032C54.5882 17.2321 52.3645 21.4442 52.3024 25.7467C52.2415 29.97 54.2246 34.1347 53.015 38.1815C51.6782 42.6541 48.6369 46.3553 45.199 49.5132C41.1743 53.2101 36.8435 56.9298 31.4774 57.9649C25.7032 59.0788 19.1379 58.8373 14.3164 55.4706C9.5425 52.137 8.62383 45.6322 6.22093 40.3286C4.04621 35.5286 0.78642 31.0161 0.849536 25.7467C0.912396 20.4988 3.19368 15.3851 6.56786 11.3652C9.70329 7.6297 14.5365 6.10269 18.9957 4.12777C23.0407 2.33629 27.0702 0.718075 31.4774 0.333072Z" fill="url(#paint0_linear_3314_20482)"/>
<defs>
<linearGradient id="paint0_linear_3314_20482" x1="0.271236" y1="43.2455" x2="53.0446" y2="43.2455" gradientUnits="userSpaceOnUse">
<stop stop-color="#DD9A34"/>
<stop offset="1" stop-color="#FFD392"/>
</linearGradient>
</defs>
</svg>
