<svg width="61" height="55" viewBox="0 0 61 55" fill="none" xmlns="http://www.w3.org/2000/svg">
<path fill-rule="evenodd" clip-rule="evenodd" d="M59.1177 26.1987C60.3564 30.7427 61.7122 35.6265 60.1019 40.0525C58.4932 44.4743 54.6577 47.9143 50.4507 50.0218C46.6034 51.9491 42.0628 50.5108 37.8179 51.2158C33.6513 51.9078 29.9062 54.6006 25.7087 54.1309C21.0695 53.6118 16.886 51.278 13.1665 48.4573C8.812 45.1551 4.38071 41.5558 2.40672 36.4598C0.282585 30.9762 -0.648773 24.4727 1.80578 19.1288C4.2361 13.8377 10.4734 11.7756 15.2645 8.46676C19.6006 5.47216 23.4606 1.46103 28.657 0.584962C33.8323 -0.28755 39.2704 1.04682 43.8269 3.65136C48.0609 6.07161 50.4241 10.5557 53.1614 14.5921C55.6444 18.2535 57.9542 21.9305 59.1177 26.1987Z" fill="url(#paint0_linear_3314_20483)"/>
<defs>
<linearGradient id="paint0_linear_3314_20483" x1="11.3348" y1="3.13147" x2="20.7308" y2="55.0616" gradientUnits="userSpaceOnUse">
<stop stop-color="#DD9A34"/>
<stop offset="1" stop-color="#FFD392"/>
</linearGradient>
</defs>
</svg>
