<svg width="218" height="219" viewBox="0 0 218 219" fill="none" xmlns="http://www.w3.org/2000/svg">
<path fill-rule="evenodd" clip-rule="evenodd" d="M27.1775 0.839844H1.33984H0.339844V1.83984V27.6814H1.33984V1.83984H27.1775V0.839844ZM217 27.6814V1.83984H191.163V0.839844H217H218V1.83984V27.6814H217ZM191.163 217.5H217V191.667H218V217.5V218.5H217H191.163V217.5ZM1.33984 191.667V217.5H27.1775V218.5H1.33984H0.339844V217.5V191.667H1.33984Z" fill="black"/>
<path d="M177.642 111.586C176.143 108.921 172.644 107.921 169.812 109.587L150.82 120.582L145.989 123.415V149.737L150.487 152.403C150.653 152.403 150.653 152.569 150.82 152.569L169.479 163.398C170.312 164.064 171.478 164.398 172.644 164.398C175.81 164.398 178.308 161.899 178.308 158.733V136.409L178.475 114.418C178.475 113.419 178.308 112.419 177.642 111.586Z" fill="#5C00DB"/>
<path d="M66.6882 103.09C81.5153 103.09 93.5104 91.0947 93.5104 76.2675C93.5104 61.4403 81.5153 49.4453 66.6882 49.4453C51.861 49.4453 39.8659 61.4403 39.8659 76.2675C39.6994 91.0947 51.861 103.09 66.6882 103.09ZM66.6882 65.2721C72.8523 65.2721 77.6836 70.27 77.6836 76.2675C77.6836 82.4316 72.6857 87.2629 66.6882 87.2629C60.6906 87.2629 55.6927 82.265 55.6927 76.2675C55.5261 70.1034 60.524 65.2721 66.6882 65.2721Z" fill="#5C00DB"/>
<path d="M134.66 104.589C130.328 106.755 125.497 108.088 120.333 108.088C114.002 108.088 108.004 106.255 103.006 102.923H84.0143C79.0164 106.255 73.0189 108.088 66.6882 108.088C61.5236 108.088 56.6923 106.921 52.3608 104.589C48.529 106.755 45.8635 111.086 45.8635 115.751V156.401C45.8635 163.898 52.0276 169.895 59.3579 169.895H127.829C135.326 169.895 141.324 163.731 141.324 156.401V115.751C141.157 111.086 138.492 106.755 134.66 104.589Z" fill="#5C00DB"/>
<path d="M120.333 103.09C135.16 103.09 147.155 91.0947 147.155 76.2675C147.155 61.4403 135.16 49.4453 120.333 49.4453C105.505 49.4453 93.5104 61.4403 93.5104 76.2675C93.5104 91.0947 105.505 103.09 120.333 103.09ZM120.333 65.2721C126.497 65.2721 131.328 70.27 131.328 76.2675C131.328 82.4316 126.33 87.2629 120.333 87.2629C114.335 87.2629 109.337 82.265 109.337 76.2675C109.337 70.1034 114.168 65.2721 120.333 65.2721Z" fill="#5C00DB"/>
</svg>
