<svg width="27px" height="22px" viewBox="0 0 34 26" xmlns="http://www.w3.org/2000/svg">
<path d="M33.3051 3.52634L31.9926 2.21378L19.8343 14.3721C18.3145 15.8919 15.7585 15.8919 14.2387 14.3721L2.08034 2.28287L0.767793 3.59541L9.81746 12.6451L0.767793 21.6948L2.08034 23.0073L11.13 13.9576L12.9261 15.7537C14.0314 16.859 15.4821 17.4808 17.0019 17.4808C18.5217 17.4808 19.9724 16.859 21.0777 15.7537L22.8738 13.9576L31.9235 23.0073L33.2361 21.6948L24.1864 12.6451L33.3051 3.52634Z" fill="#D1D7E1" />
<path d="M30.7491 25.3561H3.46197C1.8731 25.3561 0.560547 24.0435 0.560547 22.4546V2.97368C0.560547 1.38481 1.8731 0.0722656 3.46197 0.0722656H30.7491C32.338 0.0722656 33.6505 1.38481 33.6505 2.97368V22.4546C33.6505 24.0435 32.338 25.3561 30.7491 25.3561ZM3.39288 1.93746C2.84023 1.93746 2.42575 2.35195 2.42575 2.9046V22.3856C2.42575 22.9382 2.84023 23.3527 3.39288 23.3527H30.68C31.2327 23.3527 31.6472 22.9382 31.6472 22.3856V2.9046C31.6472 2.35195 31.2327 1.93746 30.68 1.93746H3.39288Z" fill="#D1D7E1" />
</svg>
