<svg width="18" height="19" viewBox="0 0 18 19" fill="none" xmlns="http://www.w3.org/2000/svg">
<g opacity="0.5">
<path d="M9.33274 0.953125C7.63987 0.953125 5.98502 1.45512 4.57745 2.39563C3.16988 3.33613 2.07281 4.67291 1.42498 6.23692C0.777146 7.80093 0.607644 9.52191 0.937906 11.1823C1.26817 12.8426 2.08336 14.3677 3.2804 15.5648C4.47744 16.7618 6.00256 17.577 7.6629 17.9072C9.32324 18.2375 11.0442 18.068 12.6082 17.4202C14.1722 16.7723 15.509 15.6753 16.4495 14.2677C17.39 12.8601 17.892 11.2053 17.892 9.51242C17.8894 7.24318 16.9867 5.06764 15.3821 3.46304C13.7775 1.85844 11.602 0.955802 9.33274 0.953125ZM9.33274 16.5155C7.94766 16.5155 6.59369 16.1048 5.44204 15.3352C4.2904 14.5657 3.3928 13.472 2.86275 12.1924C2.33271 10.9127 2.19402 9.50465 2.46424 8.14619C2.73445 6.78773 3.40143 5.5399 4.38083 4.56051C5.36022 3.58111 6.60805 2.91414 7.96651 2.64392C9.32497 2.37371 10.733 2.51239 12.0127 3.04244C13.2923 3.57248 14.3861 4.47008 15.1556 5.62173C15.9251 6.77338 16.3358 8.12735 16.3358 9.51242C16.3335 11.3691 15.595 13.149 14.2821 14.4618C12.9693 15.7747 11.1894 16.5132 9.33274 16.5155Z" fill="#4E555E"/>
<path d="M10.1109 9.19028V4.84371C10.1109 4.63734 10.0289 4.43943 9.88295 4.2935C9.73702 4.14758 9.53911 4.0656 9.33274 4.0656C9.12637 4.0656 8.92845 4.14758 8.78252 4.2935C8.6366 4.43943 8.55462 4.63734 8.55462 4.84371V9.51242C8.55466 9.71877 8.63667 9.91666 8.78261 10.0625L11.117 12.3969C11.2637 12.5386 11.4603 12.6171 11.6643 12.6153C11.8683 12.6135 12.0635 12.5317 12.2077 12.3874C12.352 12.2432 12.4338 12.048 12.4356 11.844C12.4374 11.64 12.359 11.4434 12.2172 11.2966L10.1109 9.19028Z" fill="#4E555E"/>
</g>
</svg>
