<svg width="16" height="21" viewBox="0 0 16 21" fill="none" xmlns="http://www.w3.org/2000/svg">
<path opacity="0.5" d="M14.2846 14.4014L15.7536 13.6706L14.2846 10.868V9.20547H13.4252L14.8224 5.34434L13.5093 0.691406L9.52668 3.40918L7.67945 8.51398L4.83242 0.691484L0.0605469 2.42844L2.52707 9.20547H0.907148L0.864844 9.74586C0.854609 9.87633 0.648008 12.8841 2.92711 14.9507L3.25934 20.6914L10.9829 20.682L11.3084 18.3497H14.0794L15.0331 16.2046L14.2846 15.508L14.2846 14.4014ZM12.8241 2.57816L13.4539 4.81035L10.915 3.88086L12.8241 2.57816ZM13.3335 6.01457L12.1788 9.20543H11.0503L12.337 5.64977L13.3335 6.01457ZM10.24 4.88207L11.2365 5.24688L9.80406 9.20547H8.67555L10.24 4.88207ZM1.5627 3.12918L4.13211 2.19395L4.60602 3.49602L3.41094 3.93102L3.81164 5.0327L5.00691 4.59762L5.47207 5.87566L4.27645 6.31086L4.67715 7.41254L5.87301 6.97727L6.68398 9.20551H3.77418L1.5627 3.12918ZM13.1127 13.6751V16.0186L13.6223 16.4929L13.318 17.1774H9.85191L9.06273 16.1508L8.13379 16.8655L9.27484 18.3497H10.1252L9.9632 19.5109L4.36527 19.5177L4.06813 14.3821L3.8723 14.2194C2.40988 13.0038 2.10086 11.2528 2.04184 10.3779H13.1128V11.1568L14.1598 13.1543L13.1127 13.6751Z" fill="#4E555E"/>
</svg>
