<svg width="19" height="19" viewBox="0 0 19 19" fill="none" xmlns="http://www.w3.org/2000/svg">
<g opacity="0.5">
<path fill-rule="evenodd" clip-rule="evenodd" d="M13.9157 8.30542C13.9157 9.61865 13.0991 10.7525 11.9225 11.1992C11.6633 12.8903 10.1971 14.1915 8.43513 14.1915C6.49113 14.1915 4.90713 12.6075 4.90713 10.6635C4.90713 8.88812 6.22833 7.41296 7.93834 7.17048C8.39337 6.01112 9.51847 5.20942 10.8197 5.20942C12.5297 5.20942 13.9157 6.59542 13.9157 8.30542ZM12.1157 8.29642C12.1157 8.67826 11.9455 9.02666 11.6739 9.26565C11.3195 8.44858 10.6645 7.79047 9.84956 7.43202C10.0876 7.16499 10.4357 7.00042 10.8197 7.00042C11.5307 7.00042 12.1157 7.58542 12.1157 8.29642ZM8.54269 8.96242C8.49438 8.95715 8.44735 8.9482 8.40187 8.93586C7.46321 8.9536 6.70713 9.72066 6.70713 10.6635C6.70713 11.6175 7.48113 12.3915 8.43513 12.3915C9.38913 12.3915 10.1631 11.6175 10.1631 10.6635L10.163 10.6411C10.159 10.6188 10.1559 10.5963 10.1537 10.5734C10.1488 10.5289 10.1473 10.4848 10.149 10.4414C10.0529 9.69332 9.47797 9.09463 8.74168 8.96268C8.67738 8.96946 8.61083 8.96959 8.54269 8.96242Z" fill="#4E555E"/>
<path fill-rule="evenodd" clip-rule="evenodd" d="M5.1144 17.7914H13.6981C14.1933 18.343 14.9111 18.6914 15.7063 18.6914C17.1912 18.6914 18.4062 17.4764 18.4062 15.9914C18.4062 15.1962 18.0579 14.4785 17.5063 13.9833V5.39956C18.0579 4.90431 18.4062 4.18656 18.4062 3.39141C18.4062 1.90641 17.1912 0.691406 15.7063 0.691406C14.9111 0.691406 14.1933 1.03977 13.6981 1.59141H5.1144C4.61915 1.03977 3.90141 0.691406 3.10625 0.691406C1.62125 0.691406 0.40625 1.90641 0.40625 3.39141C0.40625 4.18656 0.75461 4.90431 1.30625 5.39955V13.9833C0.75461 14.4785 0.40625 15.1962 0.40625 15.9914C0.40625 17.4764 1.62125 18.6914 3.10625 18.6914C3.90141 18.6914 4.61915 18.343 5.1144 17.7914ZM3.10625 13.2914C4.59125 13.2914 5.80625 14.5064 5.80625 15.9914H13.0062C13.0062 14.5064 14.2212 13.2914 15.7063 13.2914V6.09141C14.2212 6.09141 13.0062 4.87641 13.0062 3.39141H5.80625C5.80625 4.87641 4.59125 6.09141 3.10625 6.09141V13.2914ZM3.8915 16.4298C3.88689 16.4375 3.88239 16.4452 3.878 16.453C3.72023 16.7151 3.43283 16.8914 3.10625 16.8914C2.61125 16.8914 2.20625 16.4864 2.20625 15.9914C2.20625 15.4964 2.61125 15.0914 3.10625 15.0914C3.60125 15.0914 4.00625 15.4964 4.00625 15.9914C4.00625 16.1503 3.96453 16.2999 3.8915 16.4298ZM16.6063 3.39141C16.6063 3.71798 16.43 4.00539 16.1679 4.16315C16.16 4.16754 16.1523 4.17205 16.1446 4.17666C16.0147 4.24969 15.8651 4.29141 15.7063 4.29141C15.2112 4.29141 14.8062 3.88641 14.8062 3.39141C14.8062 2.89641 15.2112 2.49141 15.7063 2.49141C16.2013 2.49141 16.6063 2.89641 16.6063 3.39141ZM3.878 2.9298C3.88239 2.93761 3.88689 2.94535 3.8915 2.95301C3.96453 3.08293 4.00625 3.23253 4.00625 3.39141C4.00625 3.88641 3.60125 4.29141 3.10625 4.29141C2.61125 4.29141 2.20625 3.88641 2.20625 3.39141C2.20625 2.89641 2.61125 2.49141 3.10625 2.49141C3.43283 2.49141 3.72023 2.66769 3.878 2.9298ZM15.7063 15.0914C15.2112 15.0914 14.8062 15.4964 14.8062 15.9914C14.8062 16.4864 15.2112 16.8914 15.7063 16.8914C16.2013 16.8914 16.6063 16.4864 16.6063 15.9914C16.6063 15.4964 16.2013 15.0914 15.7063 15.0914Z" fill="#4E555E"/>
</g>
</svg>
