<svg width="21" height="21" viewBox="0 0 21 21" fill="none" xmlns="http://www.w3.org/2000/svg">
<path d="M4.71155 16.634C4.11408 16.2756 3.55949 15.8438 3.06165 15.346C1.86461 14.149 1.04942 12.6238 0.719156 10.9635C0.388893 9.30316 0.558396 7.58218 1.20623 6.01817C1.85406 4.45416 2.95113 3.11738 4.3587 2.17688C5.76627 1.23637 7.42112 0.734375 9.11399 0.734375C11.3832 0.737052 13.5588 1.63969 15.1634 3.24429C15.5339 3.61482 15.867 4.01578 16.1602 4.44132L15.0671 5.60544C15.0249 5.5373 14.9815 5.4698 14.9368 5.40298C14.1673 4.25133 13.0736 3.35373 11.7939 2.82369C10.5143 2.29364 9.10622 2.15496 7.74776 2.42517C6.3893 2.69539 5.14147 3.36236 4.16208 4.34176C3.18268 5.32115 2.5157 6.56898 2.24549 7.92744C1.97527 9.2859 2.11396 10.694 2.644 11.9736C3.17405 13.2533 4.07165 14.347 5.22329 15.1165C5.41277 15.2431 5.60771 15.36 5.80737 15.4669L4.71155 16.634Z" fill="#F8FBFF"/>
<path d="M10.931 10.0104C10.931 10.0104 11.3743 10.4534 10.8923 11.0073C10.4102 11.5613 9.86533 11.1453 9.86533 11.1453L8.56386 9.8438C8.41792 9.69791 8.33591 9.50002 8.33587 9.29367V4.62496C8.33587 4.41859 8.41785 4.22068 8.56377 4.07475C8.7097 3.92883 8.90762 3.84685 9.11399 3.84685C9.32036 3.84685 9.51827 3.92883 9.6642 4.07475C9.81012 4.22068 9.8921 4.41859 9.8921 4.62496V8.97153L10.931 10.0104Z" fill="#F8FBFF"/>
<path fill-rule="evenodd" clip-rule="evenodd" d="M19.883 4.45843C20.1786 4.73417 20.1947 5.19734 19.919 5.49295L6.336 20.0548C6.06026 20.3504 5.59709 20.3665 5.30148 20.0907C5.00587 19.815 4.98976 19.3518 5.2655 19.0562L18.8484 4.49441C19.1242 4.1988 19.5874 4.18269 19.883 4.45843Z" fill="#F8FBFF"/>
</svg>
