<svg width="18" height="18" viewBox="0 0 18 18" fill="none" xmlns="http://www.w3.org/2000/svg">
<path d="M8.863 10.3957C11.1973 10.3957 13.0896 8.12495 13.0896 5.32383C13.0896 2.52271 11.1973 0.251953 8.863 0.251953C6.52873 0.251953 4.63644 2.52271 4.63644 5.32383C4.63644 8.12495 6.52873 10.3957 8.863 10.3957Z" fill="#D1D7E1"/>
<path d="M17.1471 14.7068C16.3863 13.1852 14.9493 11.9173 13.0896 11.1565C12.5824 10.9874 11.9907 10.9874 11.568 11.241C10.7227 11.7482 9.87738 12.0018 8.863 12.0018C7.84863 12.0018 7.00331 11.7482 6.158 11.241C5.73534 11.072 5.14363 10.9874 4.63644 11.241C2.77675 12.0018 1.33972 13.2698 0.578938 14.7913C-0.0127805 15.8902 0.917063 17.1582 2.18503 17.1582H15.541C16.8089 17.1582 17.7388 15.8902 17.1471 14.7068Z" fill="#D1D7E1"/>
</svg>
