<?xml version="1.0" standalone="no"?>
<!DOCTYPE svg PUBLIC "-//W3C//DTD SVG 20010904//EN"
 "http://www.w3.org/TR/2001/REC-SVG-20010904/DTD/svg10.dtd">
<svg version="1.0" xmlns="http://www.w3.org/2000/svg"
 width="700.000000pt" height="700.000000pt" viewBox="0 0 700.000000 700.000000"
 preserveAspectRatio="xMidYMid meet">
<metadata>
Created by potrace 1.14, written by Peter Selinger 2001-2017
</metadata>
<g transform="translate(0.000000,700.000000) scale(0.100000,-0.100000)"
fill="#000000" stroke="none">
<path d="M1180 6925 c-586 -100 -1044 -553 -1157 -1145 -17 -90 -18 -212 -18
-2225 0 -2038 1 -2134 19 -2230 54 -290 185 -544 386 -745 52 -53 120 -115
151 -138 188 -142 425 -239 664 -272 57 -8 686 -10 2225 -8 l2145 3 105 27
c280 70 503 199 700 405 190 197 305 418 366 703 18 81 19 180 19 2250 l0
2165 -23 104 c-65 289 -190 518 -394 719 -186 185 -415 309 -694 379 -64 16
-225 17 -2244 19 -1728 2 -2190 -1 -2250 -11z m3878 -971 c184 -38 326 -115
462 -253 137 -139 209 -272 246 -450 25 -124 16 -307 -21 -421 -96 -303 -324
-521 -640 -611 l-80 -23 -1322 -3 -1323 -4 0 -214 0 -215 423 0 c252 0 447 -4
483 -11 349 -61 625 -314 715 -654 44 -169 24 -396 -50 -559 -61 -136 -183
-281 -305 -366 -69 -47 -202 -107 -291 -132 -76 -21 -104 -22 -527 -26 l-446
-3 -4 -167 c-4 -149 -7 -176 -31 -249 -91 -274 -357 -463 -652 -463 -441 0
-765 404 -664 828 17 70 82 200 129 257 86 104 192 175 325 221 72 24 98 28
253 32 l172 5 0 417 0 418 -182 4 c-167 3 -189 6 -256 30 -322 116 -512 438
-448 757 44 215 172 381 374 481 98 48 163 61 343 67 l166 5 6 182 c8 209 28
322 80 451 118 288 356 515 652 621 179 64 146 62 1293 63 915 1 1052 -1 1120
-15z"/>
<path d="M2935 5509 c-169 -25 -306 -104 -420 -245 -99 -120 -135 -249 -135
-474 l0 -140 1279 0 c1243 0 1281 1 1342 20 165 50 283 185 309 350 35 231
-131 451 -370 489 -80 13 -1917 13 -2005 0z"/>
<path d="M1616 4175 c-87 -31 -142 -121 -134 -219 6 -70 42 -126 105 -163 45
-26 56 -28 185 -31 l138 -4 0 216 0 216 -127 0 c-83 -1 -142 -6 -167 -15z"/>
<path d="M2388 3304 c-5 -4 -8 -194 -8 -421 l0 -414 428 3 c394 3 430 4 472
22 80 34 152 88 196 148 60 81 79 143 79 253 0 80 -4 97 -32 156 -52 111 -130
183 -248 230 -59 23 -68 23 -470 27 -225 2 -413 0 -417 -4z"/>
<path d="M1605 1991 c-166 -77 -165 -307 2 -386 26 -13 54 -16 104 -13 83 4
140 39 176 107 21 40 23 57 23 178 l0 133 -132 0 c-108 0 -141 -4 -173 -19z"/>
</g>
</svg>
