<svg width="1920" height="439" viewBox="0 0 1920 439" fill="none" xmlns="http://www.w3.org/2000/svg">
<path d="M-142.278 438.703C-142.748 438.571 -143.115 438.164 -143.164 437.618C-143.444 434.196 -143.442 430.853 -143.185 427.683C-143.124 427.016 -142.554 426.518 -141.88 426.555C-141.213 426.616 -140.715 427.186 -140.759 427.883C-141.007 430.929 -140.999 434.148 -140.726 437.417C-140.663 438.093 -141.183 438.681 -141.829 438.728C-141.983 438.735 -142.131 438.719 -142.248 438.686L-142.278 438.703ZM-139.018 414.745C-139.018 414.745 -139.112 414.718 -139.159 414.705C-139.773 414.457 -140.078 413.738 -139.829 413.124C-138.574 410.006 -136.962 407.065 -135.055 404.333C-134.672 403.782 -133.899 403.645 -133.348 404.027C-132.797 404.41 -132.659 405.183 -133.042 405.734C-134.833 408.322 -136.351 411.112 -137.554 414.042C-137.796 414.632 -138.438 414.933 -139.025 414.768L-139.018 414.745ZM-124.176 395.813C-124.434 395.741 -124.666 395.574 -124.831 395.351C-125.235 394.806 -125.095 394.035 -124.557 393.654C-123.252 392.704 -121.889 391.82 -120.523 391.014C-119.042 390.163 -117.545 389.342 -116.015 388.582C-115.42 388.268 -114.675 388.502 -114.367 389.121C-114.053 389.715 -114.311 390.453 -114.906 390.768C-116.383 391.518 -117.85 392.322 -119.3 393.155C-120.6 393.905 -121.903 394.755 -123.118 395.655C-123.432 395.87 -123.83 395.936 -124.159 395.843L-124.176 395.813ZM-102.489 384.707C-102.817 384.614 -103.13 384.374 -103.286 384.027C-103.57 383.415 -103.288 382.684 -102.66 382.43C-99.8247 381.174 -96.8027 379.794 -93.8782 378.311C-93.2834 377.996 -92.5453 378.254 -92.2311 378.849C-91.917 379.444 -92.175 380.182 -92.7699 380.496C-95.7478 381.99 -98.7999 383.387 -101.665 384.659C-101.929 384.788 -102.237 384.803 -102.495 384.73L-102.489 384.707ZM-81.2605 372.888C-81.4952 372.822 -81.7337 372.679 -81.8988 372.456C-82.3098 371.935 -82.2161 371.151 -81.6719 370.746C-79.3785 368.984 -76.9758 366.924 -74.3606 364.467C-73.8736 363.996 -73.0996 364.036 -72.6285 364.523C-72.1574 365.01 -72.1975 365.784 -72.6845 366.255C-75.3665 368.769 -77.8058 370.87 -80.166 372.689C-80.4865 372.928 -80.8848 372.994 -81.237 372.895L-81.2605 372.888ZM-63.4603 356.232C-63.6481 356.179 -63.8462 356.073 -63.9841 355.932C-64.4618 355.469 -64.4687 354.682 -63.9817 354.211C-61.9341 352.152 -59.4795 349.726 -56.9038 347.409C-56.3999 346.968 -55.626 347.008 -55.1783 347.489C-54.7373 347.993 -54.7774 348.767 -55.2578 349.214C-57.8034 351.513 -60.2214 353.899 -62.2389 355.941C-62.5557 356.258 -63.0208 356.38 -63.4434 356.262L-63.4603 356.232ZM-44.7977 340.653C-45.0795 340.574 -45.3583 340.394 -45.5036 340.1C-45.8479 339.522 -45.6603 338.764 -45.0823 338.42C-43.7393 337.607 -42.3626 336.854 -40.9887 336.201C-39.4044 335.43 -37.7694 334.75 -36.1007 334.129C-35.4787 333.899 -34.7603 334.227 -34.5298 334.849C-34.2992 335.471 -34.6277 336.19 -35.2497 336.42C-36.8348 337.013 -38.4097 337.66 -39.9104 338.404C-41.2006 339.029 -42.5172 339.748 -43.8235 340.521C-44.1243 340.69 -44.469 340.745 -44.7742 340.66L-44.7977 340.653ZM-21.8044 333.282C-22.274 333.15 -22.6409 332.743 -22.6968 332.221C-22.7601 331.544 -22.2637 330.949 -21.6108 330.879C-18.4835 330.567 -15.255 330.436 -11.7241 330.491C-11.0441 330.504 -10.5157 331.058 -10.5294 331.738C-10.5432 332.418 -11.0969 332.946 -11.7769 332.933C-15.2073 332.881 -18.3522 332.985 -21.379 333.3C-21.533 333.308 -21.6871 333.315 -21.8279 333.275L-21.8044 333.282ZM2.52791 334.038C1.96446 333.88 1.5667 333.312 1.66115 332.706C1.7453 332.045 2.36285 331.56 3.02313 331.644C5.85863 332.01 8.95235 332.449 12.7101 333.048C13.3806 333.186 13.8188 333.791 13.7111 334.444C13.6035 335.098 12.9925 335.56 12.3154 335.445C8.58115 334.852 5.5175 334.397 2.70549 334.037C2.63506 334.018 2.58807 334.005 2.54112 333.991L2.52791 334.038ZM26.6125 337.841C26.0256 337.676 25.6344 337.085 25.7289 336.478C25.8365 335.824 26.4475 335.363 27.1246 335.477C30.8823 336.077 33.9225 336.525 36.7411 336.861C37.4014 336.945 37.8864 337.563 37.8023 338.223C37.7181 338.883 37.1006 339.368 36.4403 339.284C33.5982 338.942 30.5346 338.486 26.7234 337.897C26.6764 337.884 26.6294 337.871 26.5825 337.857L26.6125 337.841ZM50.8721 340.299C50.3556 340.154 49.985 339.67 49.9892 339.114C50.0029 338.434 50.5567 337.905 51.2132 337.912C54.6502 337.941 57.7782 337.806 60.7881 337.461C61.4476 337.368 62.0661 337.871 62.136 338.524C62.1993 339.2 61.7263 339.802 61.0735 339.872C57.9565 340.237 54.7213 340.392 51.1905 340.338C51.09 340.335 50.966 340.325 50.8721 340.299ZM74.7651 336.398C74.4129 336.299 74.107 336.035 73.9579 335.664C73.7039 335.036 74.0258 334.341 74.6544 334.087C76.9048 333.199 79.0708 332.161 81.112 330.936C81.7802 330.541 82.425 330.14 83.0697 329.738C83.6308 329.364 84.3952 329.528 84.7695 330.089C85.1438 330.65 84.9797 331.415 84.4252 331.766C83.7439 332.208 83.069 332.626 82.3708 333.038C80.2158 334.307 77.9296 335.412 75.5655 336.344C75.308 336.449 75.0299 336.447 74.7952 336.381L74.7651 336.398ZM94.5843 322.562C94.3965 322.51 94.1984 322.403 94.0604 322.263C93.5827 321.8 93.5759 321.013 94.0628 320.542C96.2505 318.344 98.2907 316.131 100.711 313.468C101.157 312.96 101.945 312.953 102.429 313.393C102.937 313.84 102.974 314.61 102.504 315.111C100.567 317.227 98.1598 319.843 95.7888 322.242C95.472 322.559 95.0069 322.681 94.5843 322.562ZM111.419 304.925C111.208 304.866 111.009 304.759 110.855 304.589C110.383 304.102 110.424 303.328 110.911 302.857C111.561 302.255 112.212 301.652 112.886 301.056C114.671 299.481 116.59 297.968 118.537 296.539C119.074 296.158 119.852 296.276 120.233 296.813C120.637 297.357 120.496 298.128 119.959 298.509C118.056 299.874 116.22 301.36 114.478 302.872C113.834 303.451 113.197 304.006 112.57 304.615C112.253 304.932 111.801 305.007 111.402 304.895L111.419 304.925ZM131.46 291.203C131.131 291.111 130.865 290.884 130.703 290.56C130.412 289.971 130.647 289.227 131.265 288.919C134.116 287.516 137.149 286.19 140.319 285.003C140.948 284.749 141.642 285.071 141.896 285.7C142.127 286.322 141.822 287.047 141.2 287.277C138.107 288.46 135.134 289.753 132.374 291.105C132.079 291.25 131.795 291.272 131.513 291.193L131.46 291.203ZM154.348 282.941C153.949 282.829 153.61 282.506 153.504 282.071C153.333 281.415 153.719 280.763 154.375 280.593C157.379 279.816 160.602 279.075 163.952 278.42C164.625 278.28 165.263 278.712 165.38 279.379C165.497 280.045 165.088 280.69 164.422 280.806C161.118 281.474 157.956 282.182 154.975 282.965C154.754 283.03 154.553 283.024 154.342 282.965L154.348 282.941ZM178.285 278.343C177.839 278.218 177.466 277.834 177.403 277.336C177.31 276.676 177.766 276.044 178.449 275.957C181.669 275.494 184.923 275.091 188.147 274.705C188.83 274.618 189.426 275.115 189.495 275.768C189.582 276.451 189.086 277.046 188.433 277.116C185.209 277.502 182.002 277.918 178.788 278.358C178.604 278.382 178.456 278.366 178.292 278.32L178.285 278.343ZM202.498 275.469C202.028 275.337 201.661 274.93 201.622 274.438C201.559 273.761 202.032 273.16 202.708 273.096L212.408 272.022C213.061 271.952 213.686 272.431 213.756 273.084C213.819 273.761 213.346 274.362 212.693 274.432L202.994 275.507C202.84 275.514 202.686 275.522 202.521 275.475L202.498 275.469ZM226.734 272.601C226.287 272.476 225.914 272.092 225.851 271.593C225.758 270.934 226.214 270.302 226.897 270.215C230.111 269.776 233.325 269.336 236.545 268.873C237.205 268.78 237.836 269.236 237.93 269.895C238.023 270.555 237.567 271.186 236.908 271.28C233.687 271.743 230.467 272.206 227.229 272.639C227.069 272.67 226.898 272.647 226.734 272.601ZM250.849 268.99C250.403 268.865 250.053 268.488 249.984 268.013C249.867 267.347 250.346 266.722 250.989 266.598C254.199 266.081 257.399 265.511 260.599 264.941C261.265 264.824 261.903 265.257 262.02 265.923C262.137 266.589 261.704 267.227 261.038 267.344C257.838 267.914 254.615 268.478 251.405 268.995C251.221 269.019 251.043 269.02 250.879 268.974L250.849 268.99ZM274.844 264.637C274.421 264.518 274.065 264.164 273.965 263.706C273.849 263.04 274.258 262.395 274.924 262.278C278.113 261.654 281.286 261 284.465 260.323C285.114 260.176 285.776 260.615 285.9 261.258C286.04 261.93 285.607 262.569 284.965 262.692C281.785 263.37 278.589 264.017 275.4 264.641C275.209 264.688 275.015 264.659 274.827 264.606L274.844 264.637ZM298.688 259.556C298.265 259.438 297.926 259.114 297.826 258.656C297.68 258.007 298.095 257.338 298.744 257.191L300.394 256.819C302.998 256.208 305.601 255.596 308.211 254.962C308.867 254.791 309.535 255.207 309.682 255.856C309.852 256.512 309.437 257.181 308.788 257.328C306.178 257.962 303.544 258.59 300.941 259.201L299.291 259.574C299.077 259.615 298.876 259.609 298.688 259.556ZM322.327 253.583C321.928 253.471 321.605 253.177 321.476 252.736C321.306 252.08 321.668 251.422 322.33 251.228C325.438 250.353 328.559 249.432 331.64 248.473C332.279 248.273 332.967 248.618 333.161 249.281C333.362 249.92 333.016 250.608 332.354 250.802C329.243 251.777 326.122 252.698 322.96 253.583C322.74 253.648 322.515 253.636 322.304 253.576L322.327 253.583ZM345.514 246.064C345.162 245.965 344.856 245.701 344.707 245.33C344.476 244.708 344.781 243.983 345.427 243.759C348.544 242.583 351.566 241.381 354.418 240.155C355.023 239.895 355.755 240.176 356.016 240.781C356.276 241.386 355.995 242.118 355.389 242.379C352.508 243.621 349.425 244.857 346.284 246.027C346.027 246.132 345.772 246.136 345.514 246.064ZM367.776 236.157C367.471 236.071 367.199 235.868 367.036 235.544C366.722 234.949 366.957 234.204 367.552 233.89C370.436 232.37 373.269 230.76 375.962 229.11C376.54 228.765 377.274 228.946 377.648 229.507C377.992 230.085 377.812 230.82 377.25 231.194C374.504 232.854 371.641 234.482 368.697 236.036C368.403 236.181 368.088 236.219 367.806 236.14L367.776 236.157ZM547.846 279.802C547.518 279.71 547.229 279.476 547.066 279.152C545.724 276.267 544.214 273.437 542.537 270.661C542.192 270.083 542.38 269.325 542.958 268.981C543.536 268.636 544.294 268.824 544.638 269.402C546.349 272.238 547.909 275.159 549.279 278.128C549.563 278.739 549.312 279.454 548.694 279.761C548.43 279.89 548.121 279.905 547.84 279.826L547.846 279.802ZM388.359 223.119C388.124 223.053 387.886 222.91 387.721 222.686C387.316 222.142 387.403 221.381 387.948 220.977C390.501 219.009 393.005 216.952 395.38 214.807C395.884 214.366 396.658 214.406 397.106 214.887C397.547 215.39 397.507 216.164 397.026 216.612C394.614 218.797 392.068 220.918 389.454 222.92C389.133 223.159 388.735 223.224 388.383 223.125L388.359 223.119ZM534.758 259.306C534.524 259.24 534.309 259.104 534.16 258.91C532.153 256.497 529.969 254.085 527.681 251.771C527.209 251.284 527.196 250.52 527.683 250.049C528.17 249.578 528.927 249.588 529.405 250.051C531.757 252.409 533.982 254.858 536.039 257.361C536.474 257.888 536.387 258.649 535.883 259.09C535.556 259.353 535.151 259.442 534.775 259.336L534.758 259.306ZM517.308 242.347C517.144 242.301 517.01 242.238 516.889 242.128C514.425 240.169 511.83 238.224 509.115 236.347C508.564 235.964 508.427 235.191 508.809 234.64C509.192 234.089 509.942 233.945 510.516 234.334C513.248 236.242 515.913 238.206 518.417 240.202C518.932 240.625 519.022 241.385 518.616 241.929C518.303 242.322 517.778 242.479 517.332 242.354L517.308 242.347ZM406.065 206.436C405.901 206.39 405.743 206.32 405.605 206.18C405.098 205.733 405.037 204.956 405.484 204.449C407.59 202.001 409.599 199.449 411.46 196.882C411.842 196.331 412.609 196.217 413.16 196.6C413.711 196.982 413.825 197.749 413.442 198.3C411.561 200.938 409.51 203.553 407.343 206.035C407.037 206.405 406.518 206.538 406.095 206.419L406.065 206.436ZM497.099 228.716C497.099 228.716 496.911 228.663 496.831 228.59C494.107 227.014 491.229 225.446 488.302 223.965C487.701 223.67 487.456 222.917 487.775 222.323C488.071 221.722 488.823 221.477 489.418 221.796C492.362 223.307 495.287 224.889 498.057 226.478C498.645 226.82 498.843 227.559 498.5 228.147C498.208 228.648 497.639 228.868 497.123 228.723L497.099 228.716ZM475.291 217.802C475.291 217.802 475.174 217.769 475.127 217.756C472.217 216.483 469.193 215.253 466.163 214.048C465.549 213.799 465.238 213.104 465.469 212.46C465.718 211.845 466.39 211.528 467.057 211.766C470.118 212.955 473.158 214.214 476.115 215.501C476.722 215.773 477.027 216.492 476.755 217.099C476.52 217.666 475.884 217.944 475.321 217.786L475.291 217.802ZM452.538 209.08C452.538 209.08 452.491 209.067 452.467 209.06C449.398 207.995 446.315 206.977 443.232 205.959C442.581 205.751 442.24 205.073 442.448 204.422C442.656 203.771 443.254 203.357 443.985 203.638C447.092 204.663 450.175 205.681 453.244 206.746C453.888 206.977 454.23 207.656 453.998 208.3C453.797 208.927 453.125 209.245 452.514 209.074L452.538 209.08ZM429.354 201.529C429.354 201.529 429.331 201.522 429.307 201.516L420.002 198.572C419.345 198.388 419.01 197.686 419.218 197.035C419.426 196.384 420.135 196.026 420.756 196.251L430.061 199.194C430.718 199.379 431.053 200.081 430.845 200.732C430.667 201.366 429.988 201.707 429.354 201.529ZM406.128 194.042C406.128 194.042 406.081 194.028 406.057 194.022C402.957 192.974 399.888 191.909 396.825 190.82C396.18 190.589 395.869 189.893 396.094 189.272C396.326 188.628 397.092 188.337 397.642 188.542C400.705 189.631 403.751 190.689 406.828 191.73C407.478 191.939 407.813 192.641 407.588 193.261C407.387 193.889 406.738 194.213 406.104 194.035L406.128 194.042ZM383.259 185.641C383.259 185.641 383.165 185.615 383.118 185.602C380.007 184.323 376.98 183.016 374.123 181.733C373.516 181.461 373.241 180.725 373.513 180.117C373.785 179.51 374.521 179.235 375.129 179.507C377.961 180.784 380.965 182.084 384.059 183.333C384.673 183.582 384.978 184.301 384.729 184.915C384.487 185.505 383.852 185.783 383.265 185.618L383.259 185.641ZM361.192 175.288C361.192 175.288 361.027 175.242 360.94 175.192C358.015 173.611 355.141 171.942 352.443 170.272C351.862 169.906 351.688 169.174 352.054 168.592C352.42 168.011 353.153 167.837 353.734 168.203C356.414 169.843 359.219 171.492 362.12 173.067C362.714 173.385 362.935 174.132 362.616 174.726C362.347 175.233 361.749 175.47 361.209 175.318L361.192 175.288ZM419.77 186.323C419.77 186.323 419.606 186.277 419.542 186.234C418.948 185.915 418.72 185.193 419.016 184.592C420.507 181.718 421.841 178.774 422.996 175.831C423.245 175.217 423.964 174.913 424.585 175.138C425.222 175.393 425.533 176.088 425.278 176.726C424.102 179.739 422.719 182.77 421.185 185.708C420.909 186.238 420.31 186.475 419.77 186.323ZM340.71 162.087C340.569 162.048 340.411 161.978 340.29 161.868C337.571 159.736 335.066 157.563 332.839 155.393C332.361 154.929 332.354 154.142 332.817 153.664C333.281 153.187 334.068 153.18 334.546 153.643C336.709 155.771 339.157 157.877 341.789 159.959C342.334 160.365 342.417 161.149 341.994 161.663C341.681 162.056 341.156 162.213 340.71 162.087ZM324.091 144.424C323.809 144.345 323.554 144.172 323.402 143.901C322.632 142.672 321.893 141.426 321.238 140.153C320.363 138.488 319.585 136.75 318.92 134.968C318.69 134.346 319.018 133.627 319.64 133.397C320.262 133.166 320.987 133.471 321.211 134.117C321.831 135.785 322.582 137.44 323.407 139.014C324.028 140.227 324.734 141.413 325.469 142.583C325.844 143.144 325.656 143.902 325.095 144.276C324.788 144.468 324.419 144.517 324.114 144.431L324.091 144.424ZM427.922 163.436C427.312 163.264 426.927 162.649 427.052 162.026C427.688 158.861 428.129 155.667 428.326 152.53C428.364 151.857 428.964 151.342 429.631 151.402C430.298 151.463 430.82 152.04 430.759 152.707C430.529 155.961 430.085 159.256 429.446 162.521C429.308 163.192 428.657 163.617 428.01 163.485C427.986 163.479 427.939 163.466 427.916 163.459L427.922 163.436ZM316.974 121.427C316.458 121.281 316.081 120.821 316.085 120.265C316.049 116.785 316.483 113.436 317.344 110.284C317.528 109.626 318.19 109.255 318.847 109.44C319.481 109.618 319.876 110.286 319.691 110.943C318.867 113.878 318.492 117.015 318.523 120.241C318.533 120.927 318.003 121.462 317.316 121.472C317.192 121.462 317.092 121.459 316.974 121.427ZM428.79 139.16C428.344 139.034 427.97 138.651 427.907 138.152C427.468 134.938 426.754 131.799 425.84 128.832C425.639 128.193 426.008 127.512 426.647 127.311C427.286 127.111 427.967 127.479 428.168 128.118C429.126 131.199 429.854 134.469 430.308 137.813C430.401 138.473 429.945 139.104 429.262 139.191C429.078 139.215 428.93 139.199 428.766 139.153L428.79 139.16ZM325.263 99.1342C325.075 99.0814 324.901 98.9817 324.763 98.8416C324.261 98.3715 324.248 97.6079 324.712 97.1302C326.959 94.7218 329.622 92.6332 332.643 90.898C333.221 90.5538 333.972 90.7648 334.31 91.3662C334.654 91.9442 334.443 92.6955 333.841 93.0332C331.031 94.6502 328.561 96.5905 326.498 98.7971C326.174 99.1369 325.709 99.2596 325.287 99.1408L325.263 99.1342ZM420.445 116.475C420.187 116.403 419.932 116.23 419.773 115.983C418.037 113.418 415.996 110.945 413.725 108.66C413.253 108.173 413.24 107.41 413.727 106.938C414.214 106.467 414.978 106.454 415.449 106.941C417.841 109.335 419.973 111.935 421.8 114.627C422.175 115.188 422.041 115.936 421.48 116.31C421.166 116.526 420.797 116.574 420.469 116.482L420.445 116.475ZM346.613 88.2366C346.19 88.1179 345.834 87.7644 345.741 87.2825C345.624 86.6164 346.057 85.978 346.723 85.8612C349.852 85.2711 353.17 84.9114 356.617 84.8157C357.28 84.7994 357.845 85.3128 357.878 86.006C357.894 86.6692 357.381 87.2342 356.688 87.2674C353.395 87.3557 350.184 87.6949 347.186 88.271C346.995 88.3187 346.801 88.2894 346.636 88.2432L346.613 88.2366ZM402.739 99.9762C402.739 99.9762 402.528 99.9169 402.424 99.837C399.79 98.2106 396.946 96.7025 393.932 95.3492C393.325 95.0772 393.05 94.3415 393.322 93.734C393.594 93.1265 394.33 92.8519 394.937 93.1238C398.039 94.527 400.97 96.085 403.691 97.7612C404.272 98.1271 404.446 98.8599 404.08 99.441C403.794 99.918 403.232 100.115 402.716 99.9697L402.739 99.9762ZM370.878 88.2395C370.291 88.0746 369.9 87.4835 370.001 86.8533C370.109 86.1996 370.743 85.7446 371.397 85.8522C373.888 86.2733 376.375 86.7948 378.807 87.4272C379.394 87.5921 380.004 87.7635 380.614 87.935L381.037 88.0537C381.694 88.2384 382.066 88.9 381.881 89.5574C381.696 90.2148 381.035 90.5861 380.377 90.4015L379.955 90.2828C379.368 90.1179 378.781 89.953 378.194 89.7881C375.833 89.1756 373.422 88.6503 371.002 88.249C370.955 88.2358 370.908 88.2226 370.861 88.2094L370.878 88.2395Z" fill="#4E555E"/>
<path d="M700.905 356.937C700.438 356.795 700.08 356.38 700.042 355.833C699.836 352.406 699.909 349.064 700.234 345.9C700.309 345.234 700.89 344.748 701.562 344.8C702.228 344.875 702.714 345.456 702.655 346.152C702.342 349.192 702.281 352.41 702.484 355.683C702.533 356.361 702 356.938 701.353 356.971C701.199 356.975 701.052 356.956 700.935 356.92L700.905 356.937ZM704.676 333.053C704.676 333.053 704.583 333.025 704.536 333.011C703.927 332.749 703.638 332.024 703.9 331.415C705.222 328.325 706.896 325.419 708.861 322.729C709.255 322.186 710.031 322.065 710.574 322.459C711.117 322.854 711.238 323.63 710.843 324.173C708.998 326.721 707.42 329.478 706.155 332.382C705.9 332.967 705.252 333.254 704.669 333.077L704.676 333.053ZM719.919 314.443C719.662 314.365 719.434 314.194 719.274 313.967C718.881 313.414 719.038 312.646 719.584 312.277C720.909 311.354 722.291 310.5 723.674 309.723C725.172 308.904 726.686 308.115 728.233 307.388C728.834 307.086 729.574 307.337 729.868 307.961C730.17 308.563 729.896 309.295 729.294 309.597C727.802 310.315 726.318 311.087 724.85 311.89C723.535 312.612 722.214 313.433 720.98 314.307C720.662 314.516 720.262 314.573 719.935 314.474L719.919 314.443ZM741.838 303.802C741.512 303.703 741.204 303.456 741.056 303.105C740.785 302.488 741.082 301.762 741.716 301.522C744.577 300.327 747.628 299.012 750.584 297.591C751.185 297.29 751.917 297.564 752.219 298.165C752.52 298.767 752.247 299.499 751.645 299.8C748.636 301.23 745.555 302.562 742.663 303.773C742.396 303.895 742.088 303.904 741.831 303.825L741.838 303.802ZM763.314 292.44C763.081 292.369 762.846 292.221 762.685 291.994C762.286 291.464 762.396 290.682 762.949 290.29C765.279 288.577 767.725 286.568 770.392 284.168C770.889 283.707 771.662 283.764 772.123 284.26C772.584 284.757 772.527 285.53 772.03 285.991C769.295 288.447 766.811 290.496 764.413 292.264C764.087 292.497 763.688 292.553 763.338 292.447L763.314 292.44ZM781.466 276.167C781.279 276.11 781.084 276 780.949 275.857C780.481 275.383 780.491 274.596 780.988 274.135C783.079 272.121 785.585 269.747 788.21 267.487C788.723 267.057 789.496 267.113 789.933 267.603C790.363 268.116 790.306 268.889 789.817 269.327C787.223 271.571 784.754 273.904 782.693 275.903C782.37 276.213 781.902 276.325 781.482 276.198L781.466 276.167ZM800.457 260.991C800.177 260.905 799.902 260.72 799.763 260.423C799.431 259.837 799.635 259.084 800.22 258.752C801.58 257.968 802.973 257.244 804.36 256.621C805.961 255.884 807.61 255.239 809.292 254.654C809.918 254.437 810.629 254.781 810.847 255.407C811.064 256.034 810.72 256.745 810.093 256.963C808.496 257.522 806.908 258.135 805.391 258.846C804.088 259.444 802.756 260.135 801.434 260.88C801.13 261.042 800.784 261.09 800.48 260.998L800.457 260.991ZM823.603 254.112C823.136 253.97 822.778 253.556 822.733 253.032C822.684 252.355 823.193 251.77 823.847 251.714C826.981 251.469 830.211 251.407 833.74 251.537C834.42 251.565 834.936 252.13 834.908 252.809C834.88 253.489 834.315 254.005 833.635 253.977C830.207 253.852 827.06 253.889 824.028 254.14C823.873 254.144 823.719 254.148 823.579 254.105L823.603 254.112ZM847.913 255.388C847.353 255.218 846.968 254.642 847.075 254.037C847.173 253.379 847.801 252.907 848.459 253.005C851.286 253.432 854.37 253.936 858.114 254.616C858.782 254.768 859.207 255.381 859.085 256.033C858.964 256.684 858.343 257.132 857.668 257.004C853.948 256.331 850.894 255.81 848.091 255.391C848.021 255.37 847.974 255.356 847.927 255.341L847.913 255.388ZM871.911 259.704C871.328 259.526 870.949 258.927 871.057 258.322C871.178 257.671 871.799 257.223 872.474 257.351C876.218 258.031 879.247 258.545 882.058 258.941C882.717 259.039 883.188 259.667 883.09 260.325C882.992 260.983 882.364 261.455 881.706 261.357C878.872 260.954 875.818 260.433 872.021 259.763C871.974 259.748 871.927 259.734 871.881 259.72L871.911 259.704ZM896.113 262.68C895.599 262.523 895.239 262.032 895.255 261.476C895.283 260.796 895.848 260.28 896.505 260.301C899.94 260.403 903.07 260.335 906.087 260.054C906.748 259.975 907.356 260.491 907.412 261.145C907.461 261.823 906.975 262.414 906.321 262.47C903.197 262.769 899.959 262.855 896.43 262.725C896.33 262.72 896.206 262.708 896.113 262.68ZM920.083 259.289C919.734 259.183 919.433 258.913 919.292 258.539C919.052 257.905 919.388 257.217 920.022 256.977C922.291 256.137 924.479 255.146 926.546 253.965C927.222 253.584 927.875 253.197 928.528 252.809C929.097 252.447 929.858 252.627 930.22 253.196C930.583 253.765 930.402 254.526 929.84 254.865C929.15 255.292 928.466 255.696 927.759 256.093C925.578 257.315 923.268 258.372 920.885 259.253C920.625 259.352 920.347 259.344 920.114 259.273L920.083 259.289ZM940.194 245.881C940.007 245.824 939.811 245.713 939.676 245.57C939.208 245.097 939.219 244.31 939.715 243.849C941.95 241.699 944.036 239.53 946.513 236.919C946.97 236.421 947.757 236.43 948.232 236.881C948.73 237.338 948.751 238.109 948.27 238.6C946.289 240.674 943.826 243.239 941.405 245.586C941.081 245.896 940.614 246.008 940.194 245.881ZM957.401 228.607C957.191 228.543 956.995 228.432 956.844 228.259C956.383 227.762 956.44 226.989 956.937 226.529C957.6 225.94 958.263 225.352 958.95 224.77C960.768 223.233 962.72 221.762 964.696 220.375C965.242 220.006 966.017 220.139 966.386 220.685C966.779 221.238 966.622 222.006 966.076 222.375C964.144 223.699 962.277 225.145 960.503 226.619C959.847 227.184 959.198 227.726 958.558 228.322C958.235 228.631 957.781 228.697 957.385 228.576L957.401 228.607ZM977.73 215.316C977.404 215.216 977.143 214.984 976.988 214.657C976.71 214.062 976.96 213.323 977.585 213.028C980.465 211.687 983.525 210.425 986.72 209.307C987.354 209.066 988.042 209.403 988.282 210.037C988.499 210.664 988.179 211.382 987.552 211.599C984.434 212.716 981.435 213.945 978.646 215.237C978.349 215.376 978.064 215.392 977.784 215.307L977.73 215.316ZM1000.79 207.545C1000.39 207.424 1000.06 207.094 999.964 206.657C999.808 205.997 1000.21 205.354 1000.87 205.198C1003.89 204.485 1007.12 203.813 1010.49 203.23C1011.16 203.104 1011.79 203.55 1011.9 204.218C1012 204.887 1011.58 205.523 1010.91 205.626C1007.59 206.223 1004.41 206.862 1001.42 207.582C1001.19 207.642 1000.99 207.632 1000.78 207.568L1000.79 207.545ZM1024.82 203.459C1024.38 203.324 1024.01 202.933 1023.96 202.433C1023.88 201.771 1024.35 201.149 1025.03 201.077C1028.26 200.683 1031.53 200.349 1034.76 200.032C1035.44 199.96 1036.03 200.469 1036.08 201.123C1036.15 201.808 1035.65 202.392 1034.99 202.448C1031.76 202.766 1028.54 203.113 1025.32 203.484C1025.14 203.504 1024.99 203.485 1024.83 203.436L1024.82 203.459ZM1049.09 201.102C1048.62 200.96 1048.26 200.546 1048.23 200.053C1048.19 199.375 1048.67 198.784 1049.35 198.735L1059.07 197.867C1059.72 197.812 1060.34 198.304 1060.39 198.959C1060.44 199.636 1059.96 200.228 1059.3 200.284L1049.58 201.151C1049.43 201.155 1049.27 201.159 1049.11 201.109L1049.09 201.102ZM1073.38 198.753C1072.94 198.618 1072.57 198.227 1072.52 197.727C1072.44 197.065 1072.91 196.443 1073.59 196.371C1076.82 196 1080.04 195.629 1083.27 195.235C1083.93 195.156 1084.55 195.625 1084.63 196.287C1084.71 196.948 1084.24 197.57 1083.58 197.649C1080.35 198.043 1077.12 198.438 1073.87 198.801C1073.71 198.829 1073.54 198.803 1073.38 198.753ZM1097.57 195.658C1097.12 195.523 1096.78 195.139 1096.72 194.662C1096.62 193.994 1097.11 193.379 1097.76 193.269C1100.98 192.821 1104.19 192.319 1107.4 191.817C1108.07 191.715 1108.7 192.161 1108.8 192.829C1108.9 193.498 1108.46 194.127 1107.79 194.229C1104.58 194.731 1101.34 195.226 1098.12 195.674C1097.94 195.694 1097.76 195.691 1097.6 195.642L1097.57 195.658ZM1121.65 191.817C1121.23 191.69 1120.88 191.329 1120.79 190.868C1120.69 190.2 1121.11 189.564 1121.78 189.461C1124.98 188.905 1128.17 188.32 1131.36 187.71C1132.01 187.577 1132.66 188.03 1132.77 188.676C1132.9 189.351 1132.45 189.98 1131.81 190.09C1128.62 190.699 1125.41 191.278 1122.2 191.833C1122.01 191.877 1121.82 191.844 1121.63 191.787L1121.65 191.817ZM1145.6 187.248C1145.18 187.12 1144.84 186.789 1144.75 186.329C1144.62 185.677 1145.05 185.017 1145.7 184.884L1147.36 184.547C1149.98 183.992 1152.59 183.436 1155.22 182.857C1155.87 182.701 1156.53 183.131 1156.67 183.783C1156.82 184.443 1156.39 185.102 1155.74 185.235C1153.12 185.814 1150.47 186.385 1147.86 186.941L1146.2 187.278C1145.98 187.314 1145.78 187.304 1145.6 187.248ZM1169.36 181.78C1168.96 181.66 1168.64 181.359 1168.52 180.915C1168.37 180.256 1168.74 179.606 1169.41 179.426C1172.54 178.618 1175.68 177.763 1178.78 176.871C1179.42 176.684 1180.1 177.044 1180.28 177.71C1180.47 178.353 1180.11 179.034 1179.44 179.214C1176.31 180.122 1173.17 180.977 1169.99 181.794C1169.77 181.854 1169.54 181.837 1169.33 181.773L1169.36 181.78ZM1192.7 174.758C1192.35 174.651 1192.05 174.382 1191.91 174.007C1191.69 173.381 1192.01 172.662 1192.66 172.452C1195.8 171.343 1198.85 170.205 1201.73 169.041C1202.34 168.794 1203.06 169.09 1203.31 169.701C1203.56 170.312 1203.26 171.037 1202.65 171.285C1199.74 172.465 1196.64 173.635 1193.47 174.737C1193.21 174.837 1192.96 174.836 1192.7 174.758ZM1215.17 165.329C1214.86 165.237 1214.6 165.028 1214.44 164.7C1214.14 164.099 1214.39 163.359 1214.99 163.058C1217.91 161.599 1220.78 160.05 1223.5 158.458C1224.09 158.126 1224.82 158.323 1225.18 158.892C1225.51 159.477 1225.32 160.207 1224.75 160.569C1221.97 162.171 1219.07 163.736 1216.09 165.227C1215.79 165.366 1215.48 165.398 1215.2 165.312L1215.17 165.329ZM1394.27 212.809C1393.94 212.71 1393.65 212.471 1393.5 212.143C1392.22 209.23 1390.77 206.368 1389.15 203.557C1388.82 202.972 1389.02 202.218 1389.61 201.886C1390.19 201.554 1390.95 201.758 1391.28 202.343C1392.93 205.215 1394.43 208.169 1395.73 211.166C1396 211.783 1395.74 212.493 1395.11 212.787C1394.85 212.91 1394.54 212.918 1394.26 212.833L1394.27 212.809ZM1236.03 152.733C1235.79 152.662 1235.56 152.514 1235.4 152.287C1235 151.734 1235.11 150.976 1235.66 150.583C1238.25 148.67 1240.8 146.667 1243.22 144.573C1243.74 144.143 1244.51 144.2 1244.95 144.69C1245.38 145.203 1245.32 145.976 1244.83 146.413C1242.37 148.546 1239.78 150.613 1237.12 152.558C1236.8 152.79 1236.4 152.847 1236.05 152.74L1236.03 152.733ZM1381.62 192.039C1381.39 191.968 1381.17 191.827 1381.03 191.63C1379.07 189.175 1376.94 186.717 1374.7 184.354C1374.24 183.857 1374.25 183.093 1374.74 182.632C1375.24 182.172 1376 182.198 1376.46 182.672C1378.76 185.079 1380.94 187.575 1382.94 190.121C1383.36 190.658 1383.26 191.417 1382.75 191.847C1382.41 192.102 1382.01 192.183 1381.63 192.069L1381.62 192.039ZM1364.53 174.711C1364.37 174.661 1364.24 174.595 1364.12 174.483C1361.7 172.472 1359.15 170.472 1356.47 168.537C1355.93 168.143 1355.81 167.367 1356.2 166.824C1356.6 166.281 1357.35 166.153 1357.91 166.555C1360.61 168.52 1363.23 170.541 1365.69 172.589C1366.19 173.023 1366.27 173.785 1365.85 174.321C1365.53 174.707 1365 174.853 1364.56 174.718L1364.53 174.711ZM1254.08 136.432C1253.92 136.382 1253.76 136.309 1253.63 136.166C1253.13 135.709 1253.09 134.931 1253.54 134.433C1255.7 132.031 1257.77 129.523 1259.68 126.996C1260.08 126.453 1260.84 126.355 1261.39 126.75C1261.93 127.144 1262.03 127.913 1261.63 128.456C1259.7 131.053 1257.59 133.624 1255.37 136.059C1255.06 136.422 1254.53 136.544 1254.11 136.416L1254.08 136.432ZM1344.62 160.651C1344.62 160.651 1344.43 160.595 1344.35 160.52C1341.67 158.886 1338.82 157.257 1335.93 155.714C1335.33 155.405 1335.1 154.648 1335.44 154.06C1335.74 153.466 1336.5 153.237 1337.09 153.569C1340 155.143 1342.89 156.786 1345.63 158.434C1346.21 158.789 1346.39 159.532 1346.03 160.113C1345.73 160.607 1345.16 160.815 1344.64 160.659L1344.62 160.651ZM1323.05 149.274C1323.05 149.274 1322.93 149.239 1322.89 149.225C1320.01 147.89 1317.01 146.596 1314.01 145.326C1313.4 145.064 1313.1 144.362 1313.35 143.723C1313.61 143.114 1314.29 142.811 1314.95 143.063C1317.98 144.318 1320.99 145.642 1323.92 146.991C1324.52 147.276 1324.81 148.001 1324.53 148.603C1324.28 149.165 1323.64 149.428 1323.08 149.258L1323.05 149.274ZM1300.49 140.068C1300.49 140.068 1300.44 140.054 1300.42 140.047C1297.37 138.917 1294.31 137.833 1291.25 136.749C1290.61 136.528 1290.28 135.842 1290.5 135.196C1290.72 134.549 1291.33 134.148 1292.05 134.445C1295.14 135.535 1298.2 136.619 1301.25 137.749C1301.88 137.995 1302.21 138.68 1301.97 139.319C1301.75 139.942 1301.07 140.246 1300.47 140.061L1300.49 140.068ZM1277.47 132.024C1277.47 132.024 1277.45 132.017 1277.43 132.009L1268.19 128.868C1267.53 128.669 1267.21 127.961 1267.43 127.314C1267.66 126.668 1268.37 126.325 1268.99 126.563L1278.23 129.705C1278.88 129.903 1279.2 130.612 1278.98 131.259C1278.79 131.889 1278.1 132.215 1277.47 132.024ZM1254.41 124.042C1254.41 124.042 1254.36 124.028 1254.34 124.021C1251.26 122.907 1248.22 121.776 1245.18 120.623C1244.54 120.377 1244.24 119.676 1244.48 119.06C1244.73 118.421 1245.5 118.146 1246.04 118.363C1249.08 119.516 1252.11 120.639 1255.16 121.746C1255.81 121.968 1256.13 122.677 1255.89 123.293C1255.67 123.916 1255.02 124.226 1254.39 124.035L1254.41 124.042ZM1231.73 115.155C1231.73 115.155 1231.63 115.127 1231.59 115.113C1228.5 113.767 1225.5 112.397 1222.68 111.052C1222.07 110.768 1221.82 110.026 1222.1 109.425C1222.39 108.823 1223.13 108.564 1223.73 108.849C1226.53 110.186 1229.51 111.55 1232.58 112.865C1233.18 113.126 1233.47 113.852 1233.21 114.46C1232.96 115.046 1232.32 115.309 1231.73 115.132L1231.73 115.155ZM1209.89 104.333C1209.89 104.333 1209.72 104.284 1209.64 104.232C1206.75 102.588 1203.91 100.859 1201.25 99.1317C1200.67 98.7535 1200.51 98.0172 1200.89 97.444C1201.27 96.8708 1202.01 96.7124 1202.58 97.0906C1205.23 98.787 1207.99 100.495 1210.86 102.132C1211.45 102.464 1211.65 103.214 1211.32 103.802C1211.04 104.303 1210.44 104.527 1209.9 104.364L1209.89 104.333ZM1268.21 116.617C1268.21 116.617 1268.05 116.567 1267.99 116.523C1267.4 116.191 1267.19 115.464 1267.5 114.87C1269.05 112.028 1270.45 109.114 1271.66 106.196C1271.93 105.587 1272.65 105.298 1273.27 105.536C1273.9 105.805 1274.2 106.507 1273.93 107.139C1272.69 110.126 1271.24 113.127 1269.64 116.032C1269.36 116.556 1268.75 116.78 1268.21 116.617ZM1189.69 90.6981C1189.55 90.6556 1189.39 90.5826 1189.28 90.47C1186.6 88.2807 1184.14 86.0547 1181.96 83.8369C1181.5 83.3633 1181.51 82.5762 1181.98 82.1085C1182.45 81.6407 1183.24 81.6507 1183.71 82.1243C1185.83 84.2975 1188.23 86.4555 1190.81 88.5931C1191.35 89.0109 1191.42 89.796 1190.98 90.3012C1190.66 90.6878 1190.13 90.8329 1189.69 90.6981ZM1173.45 72.6842C1173.17 72.599 1172.92 72.4206 1172.77 72.1468C1172.03 70.9013 1171.32 69.6397 1170.69 68.3526C1169.85 66.6701 1169.11 64.9154 1168.48 63.1192C1168.27 62.4924 1168.61 61.7813 1169.24 61.564C1169.86 61.3469 1170.58 61.6672 1170.79 62.3173C1171.38 63.999 1172.09 65.6694 1172.88 67.2607C1173.48 68.4869 1174.16 69.6877 1174.87 70.8723C1175.23 71.4412 1175.03 72.1949 1174.46 72.5572C1174.15 72.7429 1173.78 72.7835 1173.48 72.6913L1173.45 72.6842ZM1276.85 93.9084C1276.25 93.724 1275.88 93.1012 1276.01 92.4804C1276.72 89.3298 1277.23 86.1457 1277.49 83.0144C1277.54 82.3419 1278.15 81.8397 1278.82 81.9146C1279.48 81.9895 1279.99 82.5777 1279.92 83.2431C1279.62 86.4911 1279.1 89.7756 1278.4 93.0266C1278.24 93.6941 1277.58 94.105 1276.94 93.9602C1276.92 93.9531 1276.87 93.9389 1276.85 93.9318L1276.85 93.9084ZM1166.83 49.5397C1166.31 49.3836 1165.95 48.9151 1165.96 48.3592C1166 44.879 1166.51 41.5408 1167.44 38.4073C1167.63 37.7541 1168.3 37.3969 1168.96 37.5956C1169.59 37.7871 1169.97 38.4636 1169.77 39.1169C1168.88 42.0333 1168.44 45.1615 1168.4 48.3871C1168.4 49.0738 1167.86 49.5973 1167.17 49.5924C1167.05 49.5802 1166.94 49.5752 1166.83 49.5397ZM1278.24 69.6566C1277.8 69.5218 1277.43 69.1303 1277.38 68.6302C1277.01 65.4078 1276.36 62.2544 1275.51 59.2684C1275.32 58.6254 1275.71 57.9518 1276.35 57.765C1276.99 57.5782 1277.67 57.9615 1277.85 58.6045C1278.75 61.7051 1279.4 64.9894 1279.79 68.3427C1279.87 69.004 1279.4 69.6259 1278.71 69.698C1278.53 69.7184 1278.38 69.6992 1278.22 69.6495L1278.24 69.6566ZM1175.59 27.4295C1175.4 27.3728 1175.23 27.2693 1175.1 27.1263C1174.61 26.6456 1174.61 25.8818 1175.08 25.4141C1177.38 23.0543 1180.09 21.023 1183.15 19.3527C1183.73 19.0209 1184.48 19.248 1184.8 19.8565C1185.13 20.4417 1184.91 21.1883 1184.3 21.513C1181.45 23.0696 1178.94 24.9568 1176.83 27.1188C1176.5 27.4516 1176.03 27.5643 1175.61 27.4366L1175.59 27.4295ZM1270.38 46.7994C1270.12 46.7214 1269.87 46.5429 1269.72 46.2924C1268.04 43.691 1266.05 41.1749 1263.83 38.8425C1263.37 38.3455 1263.37 37.5817 1263.87 37.1211C1264.37 36.6605 1265.13 36.6633 1265.59 37.1603C1267.93 39.6053 1270.01 42.2502 1271.78 44.9804C1272.14 45.5494 1271.99 46.2939 1271.42 46.6561C1271.1 46.8652 1270.73 46.9059 1270.4 46.8065L1270.38 46.7994ZM1197.17 16.9903C1196.75 16.8626 1196.4 16.5016 1196.32 16.0178C1196.21 15.3493 1196.66 14.7204 1197.33 14.6178C1200.47 14.0947 1203.8 13.8059 1207.24 13.7838C1207.91 13.7817 1208.46 14.307 1208.48 15.0007C1208.48 15.6641 1207.96 16.218 1207.26 16.2364C1203.97 16.2544 1200.75 16.525 1197.74 17.0369C1197.55 17.0805 1197.36 17.0471 1197.19 16.9974L1197.17 16.9903ZM1253.03 29.9258C1253.03 29.9258 1252.82 29.862 1252.72 29.7798C1250.12 28.0976 1247.31 26.5291 1244.33 25.1117C1243.72 24.8269 1243.47 24.0854 1243.75 23.4839C1244.04 22.8823 1244.78 22.6235 1245.38 22.9084C1248.45 24.3775 1251.35 25.9977 1254.03 27.7316C1254.6 28.1099 1254.76 28.8462 1254.38 29.4194C1254.09 29.8901 1253.52 30.0748 1253.01 29.9187L1253.03 29.9258ZM1221.43 17.5114C1220.85 17.334 1220.47 16.7346 1220.58 16.1067C1220.7 15.4555 1221.35 15.0141 1222 15.1357C1224.48 15.6099 1226.96 16.1844 1229.37 16.8685C1229.96 17.0459 1230.56 17.2304 1231.17 17.4149L1231.59 17.5426C1232.24 17.7413 1232.6 18.4107 1232.4 19.0639C1232.2 19.7172 1231.53 20.0744 1230.88 19.8757L1230.46 19.748C1229.88 19.5706 1229.29 19.3932 1228.71 19.2159C1226.36 18.553 1223.96 17.9764 1221.55 17.5235C1221.51 17.5093 1221.46 17.4952 1221.41 17.481L1221.43 17.5114Z" fill="#4E555E"/>
<path d="M2073.45 0.662109C2073.93 0.751357 2074.33 1.12383 2074.43 1.663C2075.01 5.04623 2075.31 8.37595 2075.34 11.5562C2075.34 12.2258 2074.81 12.7733 2074.14 12.7967C2073.47 12.7961 2072.92 12.2725 2072.9 11.5745C2072.88 8.51855 2072.58 5.31324 2072.02 2.08274C2071.89 1.41479 2072.36 0.781968 2073 0.677721C2073.15 0.65655 2073.3 0.659354 2073.42 0.681645L2073.45 0.662109ZM2072.35 24.8163C2072.35 24.8163 2072.45 24.8341 2072.49 24.8431C2073.13 25.0355 2073.5 25.7241 2073.3 26.358C2072.33 29.5756 2070.99 32.6499 2069.34 35.5418C2069.01 36.125 2068.25 36.3313 2067.66 35.9995C2067.08 35.6677 2066.88 34.91 2067.21 34.3268C2068.76 31.5893 2070.02 28.6739 2070.96 25.6481C2071.14 25.0382 2071.76 24.6808 2072.35 24.7923L2072.35 24.8163ZM2059.27 45.0036C2059.53 45.0526 2059.78 45.1976 2059.96 45.4056C2060.41 45.9113 2060.34 46.6919 2059.84 47.1195C2058.63 48.1833 2057.35 49.1857 2056.06 50.1118C2054.66 51.0919 2053.24 52.0435 2051.79 52.9383C2051.22 53.3046 2050.46 53.1379 2050.1 52.5496C2049.73 51.9854 2049.92 51.2271 2050.49 50.8609C2051.89 49.9811 2053.28 49.0489 2054.65 48.0883C2055.88 47.2252 2057.1 46.2619 2058.23 45.2567C2058.52 45.0136 2058.91 44.9127 2059.25 44.9752L2059.27 45.0036ZM2038.66 58.012C2039 58.0745 2039.33 58.2852 2039.52 58.6175C2039.86 59.2013 2039.64 59.9552 2039.04 60.2646C2036.33 61.7693 2033.44 63.4151 2030.66 65.1551C2030.1 65.5214 2029.34 65.3306 2028.97 64.7663C2028.61 64.2021 2028.8 63.4438 2029.36 63.0775C2032.19 61.3224 2035.11 59.6572 2037.85 58.133C2038.1 57.9813 2038.41 57.939 2038.67 57.9881L2038.66 58.012ZM2018.58 71.6879C2018.82 71.7325 2019.07 71.8535 2019.26 72.0615C2019.71 72.5432 2019.69 73.3327 2019.18 73.7843C2017.06 75.7451 2014.85 78.0131 2012.47 80.6948C2012.02 81.2077 2011.25 81.2373 2010.74 80.7946C2010.22 80.3519 2010.19 79.5774 2010.64 79.0645C2013.08 76.3198 2015.32 74.0082 2017.51 71.9844C2017.81 71.7174 2018.2 71.6165 2018.56 71.6834L2018.58 71.6879ZM2002.35 89.8751C2002.54 89.9108 2002.75 89.9989 2002.9 90.126C2003.42 90.5447 2003.49 91.3281 2003.05 91.841C2001.2 94.0756 1998.97 96.7122 1996.61 99.2501C1996.15 99.7346 1995.37 99.7641 1994.89 99.3258C1994.4 98.8636 1994.37 98.0891 1994.81 97.6002C1997.14 95.0818 1999.33 92.4887 2001.16 90.2737C2001.45 89.9302 2001.9 89.7663 2002.33 89.8466L2002.35 89.8751ZM1985.16 107.066C1985.45 107.119 1985.74 107.273 1985.91 107.553C1986.31 108.098 1986.19 108.87 1985.64 109.264C1984.38 110.195 1983.08 111.068 1981.77 111.842C1980.26 112.752 1978.69 113.576 1977.08 114.344C1976.48 114.629 1975.74 114.367 1975.45 113.768C1975.17 113.169 1975.43 112.424 1976.03 112.139C1977.56 111.405 1979.07 110.62 1980.49 109.745C1981.72 109.006 1982.97 108.171 1984.2 107.284C1984.49 107.089 1984.82 107.003 1985.14 107.061L1985.16 107.066ZM1962.92 116.471C1963.4 116.56 1963.8 116.932 1963.91 117.448C1964.03 118.116 1963.59 118.753 1962.94 118.881C1959.86 119.473 1956.65 119.893 1953.13 120.156C1952.45 120.203 1951.88 119.699 1951.83 119.021C1951.78 118.342 1952.29 117.766 1952.97 117.719C1956.39 117.462 1959.51 117.076 1962.5 116.491C1962.65 116.47 1962.8 116.448 1962.95 116.475L1962.92 116.471ZM1938.62 117.901C1939.19 118.009 1939.64 118.538 1939.6 119.151C1939.58 119.816 1939.01 120.355 1938.34 120.33C1935.48 120.22 1932.36 120.061 1928.57 119.801C1927.89 119.724 1927.4 119.162 1927.44 118.501C1927.49 117.84 1928.06 117.326 1928.74 117.379C1932.52 117.634 1935.61 117.813 1938.44 117.918C1938.51 117.932 1938.56 117.941 1938.61 117.95L1938.62 117.901ZM1914.29 116.276C1914.89 116.388 1915.33 116.942 1915.29 117.554C1915.24 118.215 1914.68 118.73 1913.99 118.677C1910.2 118.417 1907.13 118.242 1904.29 118.161C1903.63 118.136 1903.09 117.565 1903.11 116.9C1903.14 116.235 1903.71 115.696 1904.37 115.721C1907.23 115.807 1910.33 115.985 1914.18 116.23C1914.22 116.239 1914.27 116.248 1914.32 116.257L1914.29 116.276ZM1889.91 116.005C1890.44 116.104 1890.85 116.552 1890.89 117.107C1890.94 117.785 1890.44 118.361 1889.78 118.413C1886.36 118.693 1883.25 119.108 1880.29 119.722C1879.64 119.874 1878.98 119.428 1878.85 118.784C1878.73 118.116 1879.14 117.475 1879.79 117.346C1882.86 116.703 1886.07 116.258 1889.59 115.995C1889.69 115.989 1889.81 115.988 1889.91 116.005ZM1866.46 122.035C1866.82 122.102 1867.15 122.337 1867.33 122.693C1867.64 123.297 1867.38 124.018 1866.78 124.327C1864.62 125.413 1862.55 126.641 1860.63 128.044C1860 128.498 1859.39 128.955 1858.79 129.413C1858.26 129.836 1857.49 129.742 1857.06 129.216C1856.64 128.691 1856.74 127.915 1857.26 127.516C1857.9 127.015 1858.53 126.537 1859.19 126.065C1861.22 124.607 1863.4 123.301 1865.67 122.161C1865.92 122.033 1866.19 122.01 1866.43 122.055L1866.46 122.035ZM1847.96 137.594C1848.16 137.629 1848.36 137.717 1848.51 137.845C1849.03 138.263 1849.11 139.047 1848.67 139.56C1846.68 141.944 1844.85 144.332 1842.68 147.202C1842.28 147.748 1841.5 147.825 1840.97 147.43C1840.43 147.031 1840.32 146.267 1840.75 145.726C1842.49 143.445 1844.65 140.623 1846.79 138.021C1847.08 137.677 1847.53 137.513 1847.96 137.594ZM1832.78 156.671C1833 156.711 1833.2 156.799 1833.37 156.955C1833.89 157.397 1833.92 158.172 1833.47 158.685C1832.88 159.343 1832.29 160.002 1831.67 160.656C1830.03 162.385 1828.25 164.064 1826.44 165.662C1825.94 166.089 1825.16 166.042 1824.73 165.541C1824.28 165.035 1824.35 164.255 1824.85 163.827C1826.62 162.297 1828.32 160.653 1829.92 158.991C1830.51 158.356 1831.09 157.746 1831.66 157.083C1831.95 156.739 1832.39 156.623 1832.8 156.699L1832.78 156.671ZM1814.05 172.136C1814.39 172.199 1814.67 172.401 1814.86 172.709C1815.21 173.269 1815.04 174.032 1814.45 174.393C1811.74 176.046 1808.84 177.64 1805.79 179.106C1805.18 179.415 1804.46 179.157 1804.15 178.554C1803.87 177.955 1804.11 177.206 1804.7 176.92C1807.68 175.465 1810.52 173.91 1813.15 172.316C1813.43 172.145 1813.71 172.098 1814 172.151L1814.05 172.136ZM1792 182.419C1792.41 182.495 1792.77 182.786 1792.92 183.21C1793.15 183.848 1792.82 184.532 1792.18 184.76C1789.26 185.804 1786.12 186.831 1782.84 187.784C1782.18 187.984 1781.51 187.61 1781.33 186.957C1781.15 186.305 1781.5 185.626 1782.16 185.449C1785.39 184.488 1788.47 183.499 1791.37 182.451C1791.59 182.367 1791.79 182.355 1792 182.395L1792 182.419ZM1768.57 189.147C1769.03 189.232 1769.43 189.58 1769.54 190.071C1769.69 190.72 1769.29 191.39 1768.62 191.538C1765.46 192.288 1762.25 192.982 1759.07 193.656C1758.4 193.803 1757.76 193.362 1757.64 192.718C1757.49 192.046 1757.93 191.408 1758.57 191.28C1761.75 190.606 1764.91 189.904 1768.07 189.178C1768.25 189.137 1768.4 189.14 1768.57 189.171L1768.57 189.147ZM1744.71 194.183C1745.19 194.272 1745.6 194.645 1745.68 195.131C1745.8 195.799 1745.38 196.441 1744.72 196.565L1735.15 198.506C1734.51 198.634 1733.84 198.212 1733.71 197.568C1733.59 196.9 1734.01 196.259 1734.65 196.131L1744.22 194.19C1744.37 194.168 1744.52 194.147 1744.69 194.178L1744.71 194.183ZM1720.83 199.214C1721.29 199.299 1721.69 199.648 1721.8 200.139C1721.95 200.787 1721.56 201.457 1720.88 201.605C1717.72 202.331 1714.56 203.058 1711.4 203.808C1710.75 203.96 1710.08 203.563 1709.92 202.914C1709.77 202.266 1710.17 201.596 1710.82 201.444C1713.98 200.693 1717.15 199.943 1720.34 199.221C1720.49 199.176 1720.66 199.183 1720.83 199.214ZM1697.14 204.975C1697.59 205.06 1697.98 205.404 1698.09 205.871C1698.26 206.524 1697.84 207.19 1697.21 207.37C1694.06 208.173 1690.93 209.028 1687.79 209.883C1687.14 210.059 1686.46 209.686 1686.29 209.033C1686.11 208.38 1686.49 207.705 1687.14 207.529C1690.27 206.674 1693.43 205.823 1696.58 205.021C1696.77 204.98 1696.94 204.963 1697.11 204.995L1697.14 204.975ZM1673.63 211.465C1674.06 211.545 1674.45 211.865 1674.59 212.313C1674.77 212.966 1674.42 213.645 1673.76 213.821C1670.64 214.729 1667.54 215.665 1664.44 216.625C1663.8 216.829 1663.1 216.451 1662.92 215.822C1662.72 215.165 1663.1 214.49 1663.73 214.31C1666.83 213.35 1669.96 212.418 1673.08 211.511C1673.26 211.446 1673.46 211.458 1673.65 211.494L1673.63 211.465ZM1650.34 218.665C1650.77 218.745 1651.14 219.037 1651.28 219.484C1651.48 220.118 1651.13 220.821 1650.5 221.025L1648.89 221.545C1646.35 222.387 1643.81 223.229 1641.27 224.095C1640.63 224.324 1639.93 223.97 1639.72 223.337C1639.49 222.699 1639.85 221.996 1640.48 221.791C1643.02 220.925 1645.59 220.063 1648.13 219.221L1649.74 218.702C1649.95 218.641 1650.15 218.629 1650.34 218.665ZM1627.33 226.736C1627.74 226.812 1628.09 227.075 1628.26 227.503C1628.48 228.141 1628.18 228.829 1627.54 229.082C1624.52 230.232 1621.5 231.43 1618.52 232.661C1617.9 232.918 1617.18 232.636 1616.93 231.993C1616.67 231.375 1616.95 230.658 1617.6 230.406C1620.61 229.156 1623.63 227.957 1626.7 226.792C1626.92 226.708 1627.14 226.7 1627.36 226.74L1627.33 226.736ZM1604.91 236.306C1605.27 236.373 1605.6 236.608 1605.78 236.964C1606.07 237.563 1605.83 238.312 1605.21 238.593C1602.21 240.044 1599.31 241.513 1596.58 242.99C1596 243.303 1595.24 243.089 1594.93 242.509C1594.61 241.93 1594.83 241.176 1595.41 240.862C1598.17 239.367 1601.13 237.859 1604.15 236.412C1604.4 236.284 1604.65 236.257 1604.91 236.306ZM1583.63 248.171C1583.94 248.229 1584.23 248.407 1584.42 248.715C1584.79 249.279 1584.62 250.042 1584.06 250.408C1581.32 252.181 1578.64 254.039 1576.11 255.924C1575.57 256.319 1574.82 256.205 1574.4 255.68C1574 255.135 1574.11 254.387 1574.64 253.964C1577.23 252.064 1579.93 250.186 1582.72 248.374C1583 248.203 1583.31 248.137 1583.6 248.19L1583.63 248.171ZM1400.37 220.864C1400.71 220.927 1401.01 221.133 1401.2 221.441C1402.8 224.194 1404.56 226.877 1406.48 229.492C1406.87 230.037 1406.75 230.808 1406.21 231.203C1405.66 231.598 1404.89 231.479 1404.5 230.934C1402.54 228.263 1400.72 225.494 1399.09 222.66C1398.76 222.077 1398.94 221.342 1399.53 220.981C1399.78 220.829 1400.09 220.787 1400.37 220.84L1400.37 220.864ZM1564.3 263.004C1564.54 263.048 1564.79 263.169 1564.98 263.377C1565.43 263.883 1565.41 264.649 1564.9 265.1C1562.54 267.289 1560.23 269.563 1558.05 271.912C1557.59 272.396 1556.82 272.426 1556.33 271.988C1555.84 271.526 1555.81 270.751 1556.25 270.262C1558.46 267.87 1560.8 265.528 1563.23 263.3C1563.53 263.033 1563.92 262.932 1564.28 262.999L1564.3 263.004ZM1415.24 240.102C1415.48 240.147 1415.71 240.264 1415.88 240.443C1418.09 242.666 1420.48 244.873 1422.97 246.972C1423.48 247.415 1423.57 248.175 1423.12 248.687C1422.68 249.2 1421.92 249.258 1421.41 248.84C1418.85 246.702 1416.42 244.463 1414.14 242.155C1413.66 241.669 1413.68 240.903 1414.14 240.419C1414.45 240.128 1414.84 240.003 1415.22 240.074L1415.24 240.102ZM1434.15 255.427C1434.31 255.458 1434.45 255.509 1434.58 255.608C1437.21 257.337 1439.97 259.041 1442.84 260.667C1443.43 260.999 1443.63 261.757 1443.3 262.34C1442.97 262.923 1442.24 263.134 1441.63 262.798C1438.74 261.143 1435.91 259.426 1433.23 257.663C1432.68 257.288 1432.53 256.539 1432.88 255.961C1433.16 255.541 1433.67 255.338 1434.12 255.423L1434.15 255.427ZM1548.16 281.209C1548.33 281.24 1548.49 281.295 1548.64 281.422C1549.19 281.822 1549.32 282.59 1548.92 283.136C1547.04 285.763 1545.27 288.484 1543.65 291.208C1543.32 291.791 1542.56 291.974 1541.98 291.642C1541.4 291.31 1541.21 290.557 1541.55 289.974C1543.18 287.178 1544.99 284.389 1546.93 281.723C1547.2 281.327 1547.7 281.148 1548.13 281.228L1548.16 281.209ZM1455.5 267.189C1455.5 267.189 1455.69 267.225 1455.78 267.29C1458.63 268.615 1461.64 269.919 1464.69 271.131C1465.31 271.372 1465.62 272.099 1465.36 272.72C1465.12 273.345 1464.39 273.656 1463.77 273.392C1460.7 272.151 1457.65 270.838 1454.74 269.504C1454.13 269.216 1453.86 268.497 1454.15 267.881C1454.4 267.357 1454.95 267.086 1455.47 267.185L1455.5 267.189ZM1478.2 276.101C1478.2 276.101 1478.32 276.124 1478.36 276.133C1481.38 277.14 1484.5 278.093 1487.63 279.022C1488.26 279.214 1488.63 279.879 1488.46 280.541C1488.27 281.175 1487.63 281.552 1486.94 281.374C1483.78 280.465 1480.64 279.484 1477.58 278.467C1476.95 278.251 1476.59 277.563 1476.8 276.933C1476.99 276.347 1477.59 276.014 1478.17 276.121L1478.2 276.101ZM1501.64 282.746C1501.64 282.746 1501.69 282.755 1501.71 282.759C1504.87 283.545 1508.03 284.282 1511.19 285.019C1511.86 285.168 1512.26 285.813 1512.11 286.48C1511.96 287.147 1511.4 287.613 1510.65 287.399C1507.46 286.657 1504.3 285.92 1501.15 285.135C1500.48 284.962 1500.08 284.317 1500.26 283.654C1500.4 283.011 1501.04 282.635 1501.67 282.751L1501.64 282.746ZM1525.41 288.186C1525.41 288.186 1525.43 288.191 1525.46 288.195L1534.99 290.291C1535.66 290.416 1536.06 291.085 1535.91 291.752C1535.76 292.419 1535.08 292.839 1534.45 292.671L1524.91 290.575C1524.24 290.45 1523.85 289.781 1524 289.114C1524.12 288.466 1524.76 288.066 1525.41 288.186ZM1549.21 293.558C1549.21 293.558 1549.26 293.567 1549.29 293.572C1552.47 294.338 1555.62 295.123 1558.77 295.932C1559.43 296.105 1559.8 296.769 1559.63 297.408C1559.46 298.07 1558.73 298.429 1558.16 298.274C1555.01 297.465 1551.88 296.684 1548.72 295.923C1548.06 295.774 1547.66 295.105 1547.83 294.467C1547.97 293.824 1548.59 293.442 1549.24 293.563L1549.21 293.558ZM1572.74 299.872C1572.74 299.872 1572.84 299.89 1572.89 299.899C1576.1 300.894 1579.23 301.923 1582.19 302.945C1582.82 303.162 1583.16 303.87 1582.95 304.499C1582.73 305.129 1582.02 305.468 1581.39 305.252C1578.46 304.234 1575.35 303.209 1572.15 302.243C1571.52 302.05 1571.15 301.362 1571.35 300.728C1571.53 300.118 1572.14 299.785 1572.74 299.896L1572.74 299.872ZM1595.65 308.203C1595.65 308.203 1595.82 308.234 1595.91 308.276C1598.97 309.589 1601.98 310.993 1604.81 312.413C1605.43 312.726 1605.67 313.44 1605.35 314.052C1605.04 314.663 1604.33 314.902 1603.72 314.59C1600.9 313.198 1597.96 311.807 1594.93 310.499C1594.31 310.235 1594.02 309.511 1594.28 308.891C1594.51 308.362 1595.08 308.072 1595.63 308.174L1595.65 308.203ZM1536.32 302.47C1536.32 302.47 1536.49 302.501 1536.55 302.538C1537.17 302.803 1537.47 303.502 1537.23 304.127C1536 307.123 1534.93 310.175 1534.05 313.209C1533.86 313.843 1533.17 314.211 1532.53 314.043C1531.87 313.846 1531.5 313.181 1531.69 312.523C1532.6 309.417 1533.7 306.274 1534.97 303.21C1535.19 302.657 1535.77 302.367 1536.32 302.47ZM1617.24 319.512C1617.38 319.539 1617.54 319.594 1617.67 319.693C1620.57 321.572 1623.26 323.511 1625.68 325.473C1626.19 325.892 1626.27 326.675 1625.85 327.193C1625.43 327.71 1624.65 327.788 1624.13 327.369C1621.79 325.444 1619.16 323.566 1616.35 321.729C1615.77 321.373 1615.62 320.6 1615.99 320.05C1616.27 319.63 1616.78 319.427 1617.24 319.512ZM1635.37 335.612C1635.66 335.666 1635.93 335.815 1636.11 336.071C1636.98 337.226 1637.83 338.401 1638.6 339.611C1639.62 341.19 1640.55 342.851 1641.37 344.567C1641.66 345.166 1641.39 345.91 1640.8 346.196C1640.2 346.481 1639.45 346.243 1639.17 345.62C1638.4 344.014 1637.5 342.433 1636.54 340.939C1635.81 339.787 1635 338.669 1634.17 337.57C1633.74 337.045 1633.86 336.273 1634.39 335.85C1634.68 335.631 1635.04 335.55 1635.35 335.608L1635.37 335.612ZM1530.25 325.997C1530.88 326.113 1531.32 326.691 1531.25 327.323C1530.9 330.532 1530.75 333.753 1530.83 336.894C1530.85 337.569 1530.3 338.136 1529.63 338.135C1528.96 338.134 1528.39 337.606 1528.39 336.937C1528.33 333.676 1528.48 330.354 1528.82 327.045C1528.9 326.365 1529.51 325.883 1530.16 325.955C1530.19 325.96 1530.23 325.969 1530.26 325.973L1530.25 325.997ZM1644.53 357.878C1645.05 357.977 1645.47 358.401 1645.52 358.956C1645.86 362.419 1645.73 365.792 1645.16 369.009C1645.03 369.681 1644.41 370.11 1643.74 369.985C1643.09 369.865 1642.64 369.235 1642.76 368.563C1643.32 365.566 1643.41 362.408 1643.09 359.199C1643.02 358.516 1643.5 357.935 1644.18 357.864C1644.3 357.862 1644.41 357.856 1644.53 357.878ZM1531.57 350.253C1532.02 350.338 1532.43 350.686 1532.54 351.177C1533.26 354.339 1534.26 357.401 1535.43 360.274C1535.69 360.892 1535.39 361.604 1534.77 361.861C1534.15 362.118 1533.44 361.812 1533.18 361.194C1531.95 358.211 1530.93 355.02 1530.18 351.73C1530.03 351.082 1530.42 350.412 1531.1 350.264C1531.28 350.223 1531.43 350.226 1531.59 350.257L1531.57 350.253ZM1638.27 380.825C1638.46 380.86 1638.65 380.944 1638.8 381.071C1639.34 381.494 1639.42 382.254 1639 382.771C1636.98 385.372 1634.51 387.691 1631.66 389.69C1631.11 390.085 1630.35 389.942 1629.96 389.373C1629.56 388.829 1629.71 388.061 1630.27 387.671C1632.93 385.808 1635.21 383.654 1637.07 381.271C1637.36 380.904 1637.81 380.74 1638.25 380.82L1638.27 380.825ZM1541.92 372.097C1542.18 372.146 1542.45 372.295 1542.63 372.527C1544.59 374.926 1546.84 377.206 1549.31 379.277C1549.82 379.72 1549.91 380.479 1549.46 380.992C1549.02 381.505 1548.26 381.587 1547.75 381.144C1545.15 378.974 1542.79 376.576 1540.73 374.059C1540.31 373.534 1540.38 372.777 1540.9 372.354C1541.19 372.111 1541.56 372.03 1541.89 372.092L1541.92 372.097ZM1617.99 393.595C1618.42 393.675 1618.8 393.995 1618.94 394.467C1619.12 395.12 1618.74 395.794 1618.09 395.97C1615.02 396.839 1611.75 397.495 1608.33 397.9C1607.67 397.975 1607.06 397.515 1606.97 396.827C1606.89 396.168 1607.35 395.559 1608.04 395.464C1611.31 395.081 1614.48 394.455 1617.41 393.612C1617.6 393.547 1617.79 393.559 1617.96 393.59L1617.99 393.595ZM1561.03 386.94C1561.03 386.94 1561.25 386.98 1561.36 387.05C1564.13 388.434 1567.09 389.681 1570.22 390.758C1570.85 390.974 1571.19 391.682 1570.97 392.312C1570.75 392.941 1570.05 393.281 1569.42 393.064C1566.2 391.945 1563.14 390.657 1560.28 389.231C1559.67 388.919 1559.43 388.205 1559.74 387.593C1559.99 387.093 1560.53 386.846 1561.06 386.944L1561.03 386.94ZM1593.82 395.77C1594.42 395.881 1594.86 396.435 1594.82 397.072C1594.77 397.732 1594.18 398.242 1593.52 398.194C1591 397.998 1588.47 397.702 1585.99 397.29C1585.39 397.179 1584.77 397.063 1584.15 396.947L1583.72 396.866C1583.04 396.742 1582.62 396.116 1582.74 395.445C1582.87 394.773 1583.49 394.344 1584.16 394.469L1584.59 394.549C1585.19 394.661 1585.79 394.772 1586.39 394.884C1588.8 395.282 1591.25 395.589 1593.69 395.771C1593.74 395.78 1593.79 395.789 1593.84 395.798L1593.82 395.77Z" fill="#4E555E"/>
</svg>
