<svg width="297" height="403" viewBox="0 0 297 403" fill="none" xmlns="http://www.w3.org/2000/svg">
<mask id="mask0_3228_28981" style="mask-type:alpha" maskUnits="userSpaceOnUse" x="0" y="0" width="297" height="403">
<rect x="0.789062" y="0.96875" width="295.401" height="401.973" rx="25" fill="url(#paint0_linear_3228_28981)"/>
</mask>
<g mask="url(#mask0_3228_28981)">
<path d="M-176.229 394.688C-176.696 394.63 -177.105 394.294 -177.231 393.78C-177.993 390.552 -178.473 387.358 -178.685 384.293C-178.724 383.648 -178.251 383.089 -177.602 383.028C-176.956 382.989 -176.398 383.462 -176.339 384.134C-176.136 387.08 -175.664 390.153 -174.932 393.235C-174.774 393.872 -175.186 394.509 -175.796 394.647C-175.942 394.676 -176.086 394.682 -176.202 394.668L-176.229 394.688ZM-176.573 371.334C-176.573 371.334 -176.667 371.322 -176.714 371.316C-177.336 371.168 -177.731 370.525 -177.582 369.903C-176.833 366.744 -175.718 363.701 -174.291 360.817C-174.005 360.235 -173.286 359.992 -172.705 360.279C-172.123 360.565 -171.88 361.283 -172.166 361.865C-173.503 364.595 -174.551 367.479 -175.277 370.451C-175.422 371.05 -175.992 371.43 -176.576 371.357L-176.573 371.334ZM-165.13 351.109C-165.387 351.077 -165.632 350.951 -165.822 350.761C-166.287 350.3 -166.264 349.543 -165.806 349.102C-164.696 348.006 -163.522 346.965 -162.333 345.997C-161.042 344.971 -159.731 343.971 -158.379 343.024C-157.856 342.638 -157.111 342.754 -156.728 343.3C-156.342 343.823 -156.481 344.565 -157.004 344.951C-158.307 345.881 -159.592 346.861 -160.857 347.866C-161.99 348.77 -163.112 349.77 -164.142 350.804C-164.411 351.056 -164.782 351.176 -165.109 351.135L-165.13 351.109ZM-146.019 337.369C-146.346 337.329 -146.679 337.145 -146.878 336.835C-147.238 336.292 -147.075 335.553 -146.511 335.219C-143.984 333.611 -141.297 331.856 -138.718 330.017C-138.195 329.631 -137.453 329.771 -137.067 330.294C-136.681 330.817 -136.821 331.559 -137.344 331.945C-139.973 333.802 -142.686 335.577 -145.239 337.206C-145.473 337.366 -145.765 337.425 -146.022 337.393L-146.019 337.369ZM-127.449 323.017C-127.683 322.988 -127.931 322.886 -128.121 322.696C-128.589 322.258 -128.613 321.495 -128.151 321.03C-126.215 319.016 -124.218 316.701 -122.074 313.977C-121.677 313.457 -120.932 313.383 -120.412 313.78C-119.892 314.177 -119.818 314.922 -120.215 315.443C-122.414 318.231 -124.441 320.59 -126.432 322.669C-126.704 322.943 -127.075 323.063 -127.426 323.02L-127.449 323.017ZM-112.852 304.537C-113.039 304.514 -113.243 304.441 -113.395 304.327C-113.919 303.954 -114.039 303.203 -113.642 302.683C-111.983 300.42 -109.989 297.749 -107.863 295.165C-107.445 294.671 -106.7 294.597 -106.203 294.991C-105.709 295.409 -105.636 296.154 -106.03 296.651C-108.13 299.214 -110.095 301.842 -111.727 304.084C-111.984 304.432 -112.411 304.616 -112.831 304.564L-112.852 304.537ZM-97.2754 286.964C-97.5559 286.929 -97.8481 286.797 -98.0294 286.537C-98.4416 286.035 -98.3719 285.284 -97.8695 284.872C-96.7042 283.901 -95.4979 282.983 -94.2799 282.161C-92.8779 281.196 -91.4145 280.31 -89.9102 279.477C-89.3493 279.167 -88.6158 279.377 -88.3058 279.938C-87.9958 280.499 -88.2059 281.232 -88.7667 281.542C-90.1951 282.338 -91.6059 283.183 -92.932 284.11C-94.074 284.893 -95.2277 285.77 -96.3639 286.697C-96.6267 286.902 -96.9481 287.004 -97.252 286.966L-97.2754 286.964ZM-76.3775 276.604C-76.8451 276.546 -77.2543 276.21 -77.3831 275.719C-77.5412 275.082 -77.1529 274.442 -76.5394 274.281C-73.5975 273.532 -70.5327 272.94 -67.1524 272.482C-66.5008 272.397 -65.9162 272.85 -65.8312 273.501C-65.7461 274.153 -66.1987 274.738 -66.8503 274.823C-70.1342 275.268 -73.123 275.822 -75.9685 276.56C-76.1146 276.589 -76.2607 276.618 -76.4009 276.601L-76.3775 276.604ZM-53.0275 273.814C-53.5885 273.744 -54.0504 273.259 -54.0477 272.666C-54.0627 272.023 -53.5428 271.47 -52.9 271.456C-50.1389 271.396 -47.1206 271.368 -43.4449 271.398C-42.7846 271.433 -42.2788 271.947 -42.2873 272.587C-42.2957 273.227 -42.8126 273.756 -43.4759 273.744C-47.1282 273.717 -50.1202 273.724 -52.858 273.787C-52.9281 273.778 -52.9749 273.773 -53.0216 273.767L-53.0275 273.814ZM-29.4742 273.968C-30.0586 273.896 -30.5176 273.387 -30.515 272.794C-30.5065 272.154 -29.9897 271.625 -29.3264 271.637C-25.6507 271.667 -22.6821 271.657 -19.9414 271.571C-19.2986 271.556 -18.7461 272.075 -18.7312 272.718C-18.7163 273.361 -19.2361 273.914 -19.8789 273.928C-22.6429 274.012 -25.6349 274.019 -29.3602 274.006C-29.407 274 -29.4538 273.995 -29.5005 273.989L-29.4742 273.968ZM-5.94801 272.814C-6.46229 272.75 -6.88614 272.341 -6.96237 271.809C-7.04744 271.158 -6.59484 270.573 -5.96669 270.485C-2.67982 270.016 0.288482 269.436 3.11354 268.672C3.72995 268.488 4.3934 268.879 4.55441 269.493C4.71251 270.129 4.34762 270.772 3.73412 270.933C0.809735 271.733 -2.25792 272.348 -5.63828 272.805C-5.7347 272.817 -5.8545 272.826 -5.94801 272.814ZM16.3101 265.639C15.9594 265.595 15.6292 265.388 15.4332 265.055C15.0999 264.491 15.307 263.781 15.8707 263.447C17.8921 262.275 19.8111 260.971 21.5839 259.506C22.1651 259.032 22.723 258.556 23.2808 258.079C23.7627 257.641 24.5165 257.687 24.955 258.169C25.3936 258.651 25.3472 259.405 24.8682 259.82C24.2812 260.34 23.6971 260.837 23.0896 261.331C21.2145 262.855 19.1904 264.241 17.0668 265.472C16.836 265.609 16.5701 265.647 16.3364 265.618L16.3101 265.639ZM33.243 249.563C33.056 249.54 32.8514 249.467 32.6994 249.353C32.1762 248.979 32.056 248.228 32.4532 247.708C34.2255 245.293 35.8547 242.885 37.7817 239.991C38.135 239.442 38.8858 239.322 39.412 239.672C39.9614 240.025 40.1079 240.756 39.7313 241.302C38.1867 243.603 36.2656 246.45 34.3472 249.083C34.0903 249.431 33.6638 249.615 33.243 249.563ZM46.7762 230.286C46.5658 230.26 46.3612 230.187 46.1888 230.047C45.6685 229.65 45.5951 228.905 45.9922 228.385C46.5265 227.715 47.0609 227.046 47.6187 226.379C49.0962 224.617 50.7112 222.895 52.3641 221.249C52.8226 220.808 53.5823 220.807 54.0238 221.266C54.4886 221.727 54.4655 222.484 54.007 222.926C52.3862 224.504 50.8472 226.188 49.4017 227.883C48.8703 228.529 48.3418 229.152 47.8308 229.824C47.5738 230.172 47.1531 230.31 46.7557 230.26L46.7762 230.286ZM63.9371 214.287C63.6098 214.246 63.3233 214.068 63.1216 213.781C62.759 213.262 62.8755 212.516 63.4218 212.133C65.9424 210.382 68.6472 208.677 71.504 207.086C72.0678 206.753 72.7779 206.96 73.1112 207.524C73.4212 208.084 73.2346 208.821 72.6738 209.131C69.89 210.707 67.2378 212.371 64.7959 214.061C64.536 214.242 64.2672 214.304 63.9867 214.269L63.9371 214.287ZM84.6066 203.091C84.2092 203.042 83.838 202.782 83.6741 202.382C83.4167 201.78 83.691 201.102 84.2928 200.845C87.0504 199.669 90.0214 198.495 93.1268 197.386C93.749 197.155 94.4212 197.476 94.629 198.096C94.8368 198.715 94.539 199.39 93.9197 199.598C90.8611 200.713 87.9427 201.845 85.2084 203.024C85.0069 203.117 84.814 203.141 84.6036 203.115L84.6066 203.091ZM106.806 195.244C106.362 195.188 105.95 194.876 105.818 194.409C105.633 193.792 105.978 193.123 106.618 192.941C109.627 192.034 112.677 191.179 115.7 190.345C116.34 190.164 116.98 190.552 117.141 191.166C117.323 191.805 116.935 192.445 116.321 192.606C113.297 193.441 110.294 194.301 107.288 195.185C107.116 195.235 106.972 195.241 106.809 195.22L106.806 195.244ZM129.517 189.003C129.05 188.945 128.641 188.609 128.532 188.144C128.374 187.508 128.739 186.865 129.376 186.707L138.485 184.28C139.099 184.119 139.765 184.487 139.926 185.1C140.084 185.737 139.719 186.38 139.106 186.541L129.996 188.968C129.85 188.997 129.704 189.026 129.541 189.006L129.517 189.003ZM152.252 182.765C151.808 182.71 151.396 182.397 151.264 181.93C151.08 181.314 151.424 180.644 152.064 180.463C155.07 179.579 158.076 178.695 161.085 177.788C161.702 177.603 162.371 177.948 162.555 178.564C162.74 179.181 162.395 179.85 161.779 180.034C158.77 180.942 155.761 181.849 152.731 182.73C152.582 182.783 152.416 182.786 152.252 182.765ZM174.764 175.835C174.32 175.78 173.932 175.47 173.797 175.026C173.589 174.407 173.957 173.74 174.553 173.53C177.544 172.573 180.518 171.566 183.492 170.56C184.112 170.352 184.784 170.673 184.992 171.292C185.199 171.912 184.878 172.584 184.259 172.792C181.285 173.798 178.288 174.802 175.296 175.759C175.124 175.809 174.954 175.835 174.791 175.815L174.764 175.835ZM197.054 168.212C196.634 168.16 196.242 167.874 196.081 167.45C195.873 166.831 196.171 166.156 196.79 165.948C199.747 164.892 202.683 163.809 205.621 162.703C206.22 162.469 206.916 162.793 207.127 163.389C207.358 164.011 207.037 164.684 206.441 164.894C203.502 166 200.543 167.08 197.586 168.136C197.411 168.209 197.221 168.209 197.034 168.186L197.054 168.212ZM219.096 159.918C218.675 159.866 218.304 159.606 218.143 159.182C217.909 158.583 218.209 157.885 218.808 157.651L220.33 157.057C222.729 156.097 225.127 155.138 227.528 154.155C228.13 153.897 228.829 154.198 229.063 154.797C229.32 155.399 229.019 156.097 228.421 156.331C226.019 157.314 223.595 158.294 221.196 159.254L219.674 159.848C219.476 159.918 219.283 159.941 219.096 159.918ZM240.812 150.8C240.415 150.75 240.064 150.517 239.877 150.114C239.62 149.512 239.87 148.831 240.475 148.55C243.317 147.266 246.166 145.935 248.97 144.575C249.551 144.291 250.258 144.522 250.539 145.126C250.823 145.708 250.592 146.415 249.988 146.696C247.157 148.076 244.309 149.407 241.417 150.709C241.216 150.802 240.999 150.823 240.789 150.797L240.812 150.8ZM261.874 140.27C261.523 140.227 261.193 140.02 260.997 139.687C260.687 139.126 260.873 138.389 261.458 138.082C264.265 136.509 266.978 134.924 269.525 133.342C270.066 133.006 270.805 133.169 271.141 133.709C271.478 134.25 271.314 134.989 270.774 135.325C268.201 136.928 265.435 138.554 262.604 140.124C262.373 140.261 262.131 140.302 261.874 140.27ZM281.707 127.594C281.403 127.556 281.113 127.402 280.912 127.116C280.526 126.593 280.642 125.848 281.165 125.462C283.7 123.593 286.174 121.646 288.508 119.681C289.01 119.269 289.738 119.336 290.176 119.818C290.589 120.32 290.522 121.048 290.04 121.486C287.657 123.469 285.156 125.436 282.569 127.345C282.309 127.527 282.014 127.609 281.733 127.574L281.707 127.594ZM460.001 143.286C459.673 143.245 459.364 143.065 459.162 142.778C457.463 140.217 455.612 137.731 453.61 135.322C453.197 134.819 453.267 134.068 453.769 133.656C454.272 133.244 455.023 133.313 455.435 133.816C457.478 136.278 459.391 138.842 461.128 141.48C461.487 142.023 461.35 142.742 460.804 143.125C460.57 143.286 460.278 143.345 459.998 143.31L460.001 143.286ZM299.484 112.17C299.251 112.141 299.002 112.038 298.812 111.849C298.347 111.387 298.321 110.648 298.782 110.183C300.937 107.935 303.031 105.608 304.991 103.217C305.408 102.723 306.153 102.65 306.65 103.044C307.144 103.462 307.218 104.207 306.823 104.704C304.835 107.138 302.709 109.533 300.501 111.821C300.229 112.096 299.858 112.216 299.508 112.173L299.484 112.17ZM444.541 125.599C444.307 125.57 444.082 125.471 443.913 125.307C441.647 123.292 439.212 121.304 436.693 119.423C436.172 119.026 436.049 118.299 436.446 117.779C436.844 117.258 437.568 117.159 438.091 117.532C440.678 119.445 443.157 121.463 445.484 123.556C445.975 123.997 446.002 124.736 445.584 125.23C445.309 125.529 444.936 125.672 444.562 125.625L444.541 125.599ZM425.425 111.92C425.262 111.899 425.124 111.859 424.993 111.771C422.356 110.256 419.598 108.773 416.733 107.372C416.152 107.086 415.909 106.367 416.195 105.786C416.481 105.204 417.176 104.958 417.781 105.247C420.666 106.675 423.495 108.166 426.175 109.71C426.727 110.04 426.924 110.753 426.614 111.332C426.372 111.753 425.893 111.978 425.449 111.923L425.425 111.92ZM313.988 93.6788C313.824 93.6584 313.664 93.6146 313.512 93.5007C312.962 93.1475 312.792 92.4142 313.146 91.8647C314.804 89.2225 316.354 86.4956 317.761 83.7747C318.047 83.1931 318.763 82.9736 319.345 83.2597C319.926 83.5457 320.146 84.2615 319.859 84.843C318.444 87.6341 316.862 90.4282 315.151 93.1113C314.911 93.5088 314.435 93.7107 314.014 93.6583L313.988 93.6788ZM404.155 101.818C404.155 101.818 403.968 101.795 403.88 101.736C401.051 100.624 398.076 99.5419 395.066 98.5499C394.45 98.3545 394.108 97.6709 394.326 97.0572C394.522 96.4406 395.205 96.0984 395.819 96.3172C398.849 97.3354 401.871 98.4238 404.747 99.5414C405.358 99.7836 405.653 100.461 405.411 101.072C405.204 101.592 404.693 101.885 404.178 101.821L404.155 101.818ZM381.749 94.5419C381.749 94.5419 381.632 94.5274 381.586 94.5216C378.623 93.7254 375.557 92.9877 372.489 92.2733C371.866 92.1246 371.469 91.5054 371.597 90.8567C371.746 90.2343 372.342 89.8337 373.014 89.9648C376.108 90.6587 379.194 91.4227 382.204 92.2247C382.824 92.3968 383.218 93.0394 383.046 93.6589C382.903 94.2346 382.337 94.5913 381.776 94.5215L381.749 94.5419ZM358.758 89.4957C358.758 89.4957 358.711 89.4899 358.688 89.487C355.602 88.9129 352.51 88.3856 349.419 87.8583C348.767 87.7534 348.343 87.1546 348.448 86.503C348.553 85.8514 349.064 85.369 349.803 85.5323C352.918 86.0625 356.01 86.5898 359.095 87.1639C359.744 87.2921 360.168 87.8909 360.04 88.5396C359.938 89.1678 359.342 89.5684 358.734 89.4928L358.758 89.4957ZM335.524 85.63C335.524 85.63 335.501 85.627 335.477 85.6241L326.164 84.1562C325.51 84.0747 325.089 83.4526 325.194 82.8009C325.299 82.1493 325.924 81.7049 326.549 81.8302L335.862 83.2981C336.516 83.3796 336.937 84.0018 336.833 84.6534C336.754 85.2846 336.155 85.7085 335.524 85.63ZM312.258 81.8315C312.258 81.8315 312.212 81.8257 312.188 81.8228C309.076 81.2692 305.99 80.6951 302.907 80.0977C302.259 79.9694 301.861 79.3502 301.986 78.7248C302.115 78.0761 302.804 77.6871 303.359 77.8037C306.442 78.4012 309.504 78.9724 312.593 79.523C313.245 79.6279 313.666 80.2501 313.54 80.8754C313.439 81.5036 312.866 81.9072 312.235 81.8286L312.258 81.8315ZM289.202 77.1096C289.202 77.1096 289.109 77.0979 289.062 77.0921C285.906 76.3194 282.826 75.5086 279.913 74.6949C279.293 74.5228 278.925 73.8598 279.097 73.2402C279.269 72.6207 279.932 72.2522 280.551 72.4243C283.442 73.2352 286.498 74.0429 289.634 74.7894C290.256 74.9381 290.651 75.5807 290.502 76.2031C290.356 76.8022 289.79 77.159 289.205 77.0862L289.202 77.1096ZM266.631 70.4064C266.631 70.4064 266.467 70.386 266.376 70.351C263.355 69.2627 260.368 68.0837 257.551 66.8784C256.943 66.6128 256.671 65.938 256.936 65.3301C257.202 64.7223 257.877 64.4502 258.485 64.7157C261.281 65.8948 264.198 67.065 267.196 68.1504C267.81 68.3693 268.129 69.0499 267.91 69.6636C267.726 70.1867 267.189 70.4996 266.651 70.4327L266.631 70.4064ZM324.175 72.4902C324.175 72.4902 324.011 72.4698 323.944 72.4377C323.33 72.2189 323.008 71.5616 323.204 70.945C324.213 67.9847 325.062 64.9805 325.741 62.0028C325.89 61.3804 326.533 60.9856 327.158 61.111C327.804 61.2626 328.202 61.8818 328.05 62.5276C327.362 65.5755 326.478 68.6702 325.437 71.6977C325.25 72.2442 324.712 72.5571 324.175 72.4902ZM245.162 60.7545C245.022 60.7371 244.861 60.6933 244.729 60.6057C241.824 58.9622 239.118 57.2484 236.677 55.4965C236.154 55.1228 236.034 54.3719 236.407 53.8487C236.781 53.3255 237.532 53.2053 238.055 53.5791C240.429 55.2989 243.071 56.9572 245.885 58.5657C246.464 58.8751 246.657 59.6113 246.327 60.1637C246.085 60.5846 245.606 60.8098 245.162 60.7545ZM226.738 46.283C226.458 46.2481 226.189 46.1196 226.005 45.8831C225.092 44.82 224.207 43.7364 223.397 42.6148C222.321 41.1515 221.326 39.6034 220.434 37.9968C220.124 37.436 220.334 36.7025 220.895 36.3925C221.456 36.0825 222.193 36.2691 222.5 36.8533C223.333 38.3577 224.289 39.8298 225.304 41.2143C226.073 42.2833 226.918 43.3143 227.789 44.3248C228.228 44.8067 228.158 45.5577 227.676 45.9962C227.41 46.2242 227.065 46.3237 226.761 46.2859L226.738 46.283ZM328.657 49.452C328.049 49.3764 327.593 48.8448 327.622 48.2312C327.773 45.1164 327.733 42.0017 327.469 38.9777C327.407 38.3291 327.906 37.7503 328.552 37.712C329.198 37.6737 329.779 38.1497 329.818 38.7954C330.068 41.9363 330.119 45.1474 329.98 48.3586C329.945 49.0189 329.385 49.5189 328.748 49.487C328.724 49.4841 328.678 49.4783 328.654 49.4754L328.657 49.452ZM216.621 25.3441C216.107 25.2801 215.68 24.8946 215.604 24.3629C215.067 21.0439 214.998 17.7832 215.365 14.6479C215.447 13.9933 216.025 13.5431 216.679 13.6245C217.311 13.7031 217.784 14.2843 217.703 14.9389C217.339 17.8609 217.434 20.9113 217.929 23.9877C218.038 24.6422 217.608 25.2297 216.954 25.3381C216.834 25.347 216.738 25.3587 216.621 25.3441ZM325.981 26.1398C325.537 26.0845 325.124 25.7721 324.993 25.3046C324.109 22.2985 322.974 19.4035 321.672 16.7014C321.388 16.1201 321.642 15.4158 322.224 15.1321C322.805 14.8484 323.509 15.1023 323.793 15.6836C325.153 18.4879 326.32 21.5056 327.236 24.6344C327.421 25.2509 327.076 25.9201 326.437 26.1016C326.264 26.1514 326.121 26.1573 325.957 26.1369L325.981 26.1398ZM221.32 2.85517C221.133 2.83189 220.952 2.76183 220.8 2.64796C220.253 2.27131 220.13 1.54383 220.504 1.02063C222.302 -1.6041 224.545 -3.98361 227.179 -6.07697C227.682 -6.48921 228.43 -6.39608 228.839 -5.87035C229.251 -5.36799 229.158 -4.61993 228.633 -4.21061C226.182 -2.26051 224.103 -0.0505509 222.45 2.35497C222.19 2.72617 221.764 2.91047 221.343 2.85809L221.32 2.85517ZM314.736 5.6778C314.479 5.64578 314.21 5.51736 314.023 5.30416C311.994 3.10501 309.688 1.03749 307.188 -0.816643C306.668 -1.21376 306.545 -1.94126 306.942 -2.46155C307.339 -2.98184 308.067 -3.10493 308.587 -2.70782C311.218 -0.766094 313.629 1.4095 315.764 3.71671C316.202 4.19859 316.182 4.93199 315.7 5.37051C315.431 5.62192 315.087 5.72145 314.759 5.68071L314.736 5.6778ZM240.139 -10.6357C239.718 -10.6881 239.326 -10.9742 239.168 -11.4212C238.96 -12.0405 239.281 -12.7127 239.901 -12.9205C242.805 -13.9358 245.922 -14.7584 249.2 -15.3473C249.831 -15.4587 250.445 -15.0499 250.576 -14.3926C250.688 -13.7615 250.279 -13.1477 249.622 -13.0159C246.49 -12.4563 243.472 -11.6688 240.691 -10.6856C240.516 -10.6125 240.326 -10.6124 240.162 -10.6328L240.139 -10.6357ZM295.442 -7.52524C295.442 -7.52524 295.232 -7.55143 295.121 -7.61274C292.371 -8.78596 289.437 -9.81587 286.362 -10.6734C285.743 -10.8454 285.374 -11.5085 285.546 -12.1281C285.719 -12.7476 286.382 -13.1161 287.001 -12.944C290.166 -12.0515 293.191 -10.9865 296.031 -9.77827C296.639 -9.51269 296.911 -8.83788 296.646 -8.23C296.441 -7.73319 295.933 -7.46411 295.419 -7.52814L295.442 -7.52524ZM263.316 -14.136C262.732 -14.2087 262.273 -14.7169 262.278 -15.3334C262.287 -15.9733 262.827 -16.4995 263.467 -16.491C265.906 -16.4484 268.358 -16.3094 270.772 -16.0564C271.356 -15.9837 271.964 -15.908 272.572 -15.8324L272.992 -15.78C273.647 -15.6985 274.097 -15.1202 274.016 -14.4656C273.934 -13.8111 273.356 -13.3609 272.701 -13.4423L272.281 -13.4947C271.696 -13.5675 271.112 -13.6402 270.527 -13.713C268.184 -13.9573 265.805 -14.1109 263.436 -14.1448C263.389 -14.1506 263.342 -14.1564 263.295 -14.1623L263.316 -14.136Z" fill="#5204BF"/>
<path d="M-117.532 -78.9857C-117.543 -79.4568 -117.27 -79.9106 -116.78 -80.1103C-113.697 -81.3349 -110.609 -82.277 -107.607 -82.9342C-106.974 -83.0664 -106.353 -82.68 -106.197 -82.0473C-106.065 -81.4141 -106.451 -80.7927 -107.108 -80.6364C-109.991 -80.0054 -112.963 -79.0896 -115.905 -77.9153C-116.512 -77.6658 -117.203 -77.98 -117.428 -78.564C-117.478 -78.7042 -117.505 -78.845 -117.508 -78.9627L-117.532 -78.9857ZM-94.4785 -82.7378C-94.4785 -82.7378 -94.4806 -82.832 -94.4817 -82.8791C-94.4255 -83.5166 -93.8474 -84.001 -93.2099 -83.9448C-89.9754 -83.6649 -86.8031 -83.0065 -83.741 -82.0158C-83.1238 -81.8177 -82.7786 -81.1423 -82.9766 -80.5251C-83.1747 -79.908 -83.8502 -79.5628 -84.4673 -79.7608C-87.363 -80.6846 -90.3694 -81.2996 -93.4155 -81.5838C-94.0294 -81.6406 -94.4887 -82.1485 -94.5021 -82.7373L-94.4785 -82.7378ZM-72.799 -74.3709C-72.8049 -74.63 -72.7165 -74.8912 -72.5565 -75.1069C-72.1679 -75.6341 -71.4159 -75.7219 -70.9123 -75.3327C-69.6657 -74.395 -68.4646 -73.3855 -67.3336 -72.3509C-66.1298 -71.2237 -64.9491 -70.0724 -63.8144 -68.8729C-63.3562 -68.412 -63.3626 -67.6579 -63.847 -67.1992C-64.3079 -66.741 -65.0625 -66.771 -65.5207 -67.2318C-66.6308 -68.3847 -67.7875 -69.513 -68.9672 -70.6172C-70.0265 -71.6064 -71.1793 -72.5698 -72.3536 -73.4385C-72.6416 -73.6676 -72.8145 -74.0171 -72.822 -74.3468L-72.799 -74.3709ZM-56.4157 -57.4717C-56.4232 -57.8014 -56.2899 -58.1579 -56.0127 -58.3998C-55.5278 -58.835 -54.7725 -58.7814 -54.3603 -58.2724C-52.4003 -56.0078 -50.2721 -53.6056 -48.076 -51.3228C-47.6179 -50.862 -47.6478 -50.1073 -48.1087 -49.6491C-48.5695 -49.1909 -49.3243 -49.2209 -49.7825 -49.6818C-52.0032 -52.0111 -54.1554 -54.4363 -56.1395 -56.724C-56.3328 -56.9316 -56.4334 -57.2121 -56.4393 -57.4712L-56.4157 -57.4717ZM-39.5047 -41.1971C-39.5101 -41.4326 -39.4453 -41.6933 -39.2852 -41.909C-38.9202 -42.4356 -38.1692 -42.5705 -37.642 -42.182C-35.3667 -40.5607 -32.7847 -38.9229 -29.7767 -37.2004C-29.204 -36.8836 -29.0225 -36.1573 -29.3393 -35.5845C-29.6562 -35.0118 -30.3826 -34.8304 -30.9552 -35.1473C-34.0351 -36.9152 -36.6647 -38.5755 -39.0117 -40.2422C-39.3232 -40.4708 -39.4961 -40.8203 -39.5042 -41.1735L-39.5047 -41.1971ZM-19.0915 -29.4555C-19.0958 -29.6439 -19.0535 -29.8569 -18.9631 -30.0239C-18.6698 -30.5961 -17.9445 -30.8246 -17.3718 -30.5078C-14.8915 -29.1975 -11.9573 -27.6148 -9.09052 -25.8892C-8.54082 -25.5482 -8.35938 -24.8219 -8.67679 -24.2727C-9.01772 -23.723 -9.74403 -23.5416 -10.2932 -23.859C-13.1359 -25.5616 -16.0225 -27.1218 -18.4787 -28.4091C-18.8603 -28.6125 -19.1049 -29.0075 -19.1146 -29.4314L-19.0915 -29.4555ZM0.569046 -16.6129C0.562623 -16.8955 0.649822 -17.2038 0.880508 -17.4211C1.31726 -17.9023 2.0704 -17.943 2.55161 -17.5062C3.68202 -16.4951 4.76643 -15.4359 5.75716 -14.3509C6.91648 -13.1049 8.00674 -11.7866 9.05099 -10.4201C9.43957 -9.91058 9.33899 -9.15426 8.82944 -8.76568C8.31992 -8.37709 7.56356 -8.47772 7.17496 -8.98727C6.17941 -10.2842 5.13732 -11.5564 4.02669 -12.7329C3.08467 -13.7483 2.04847 -14.7615 0.965668 -15.7501C0.724811 -15.9802 0.576538 -16.2832 0.56958 -16.5893L0.569046 -16.6129ZM13.8698 2.54775C13.8591 2.07674 14.1316 1.62284 14.5983 1.42373C15.2053 1.17431 15.8952 1.46494 16.1441 2.04836C17.3152 4.84928 18.3482 7.79472 19.2945 11.072C19.4739 11.7041 19.1114 12.3486 18.4793 12.5279C17.8472 12.7072 17.2028 12.3448 17.0235 11.7127C16.1029 8.52908 15.1186 5.65322 13.9732 2.94595C13.9228 2.80573 13.8725 2.6655 13.8693 2.52419L13.8698 2.54775ZM20.0407 25.2399C20.0278 24.6747 20.4399 24.147 21.0271 24.0629C21.6608 23.9543 22.2833 24.3878 22.392 25.0215C22.8545 27.7443 23.3228 30.7261 23.8297 34.3669C23.8918 35.0252 23.4572 35.6006 22.8229 35.6857C22.1886 35.7708 21.5897 35.3367 21.504 34.6789C20.9977 31.0617 20.5535 28.1029 20.0916 25.4037C20.09 25.333 20.0889 25.2859 20.0878 25.2388L20.0407 25.2399ZM23.3276 48.5631C23.3143 47.9744 23.75 47.4461 24.3371 47.3621C24.9714 47.277 25.5703 47.711 25.6559 48.3689C26.1628 52.0096 26.6065 54.9448 27.092 57.6435C27.2006 58.2773 26.7671 58.8997 26.1334 59.0084C25.4997 59.117 24.8771 58.6835 24.7685 58.0498C24.2825 55.3275 23.8383 52.3687 23.3068 48.6815C23.3057 48.6344 23.3046 48.5872 23.3035 48.5401L23.3276 48.5631ZM27.9056 71.6685C27.8938 71.1504 28.2364 70.6714 28.7513 70.5183C29.3834 70.339 30.0278 70.7014 30.2066 71.3099C31.1507 74.493 32.1581 77.3448 33.3266 80.0279C33.599 80.6108 33.3088 81.3243 32.7254 81.5732C32.1185 81.8226 31.4291 81.5555 31.1802 80.9721C29.9625 78.1958 28.9059 75.2509 27.9596 71.9736C27.9339 71.8799 27.9078 71.7627 27.9056 71.6685ZM38.2551 92.6398C38.2471 92.2866 38.4039 91.9296 38.7047 91.6872C39.2137 91.275 39.9465 91.3762 40.3586 91.8852C41.8139 93.7136 43.3843 95.4215 45.0923 96.9614C45.6457 97.4672 46.1986 97.9495 46.7515 98.4317C47.2557 98.8444 47.3199 99.597 46.9073 100.101C46.4946 100.605 45.7421 100.67 45.2614 100.256C44.6609 99.7517 44.0839 99.2464 43.5063 98.7176C41.7256 97.0851 40.0588 95.2851 38.5307 93.3641C38.361 93.1559 38.2845 92.8984 38.2791 92.6629L38.2551 92.6398ZM56.6316 107.043C56.6273 106.855 56.6696 106.642 56.7601 106.475C57.0534 105.903 57.7786 105.674 58.3513 105.991C60.9987 107.392 63.6192 108.652 66.7632 110.135C67.3584 110.405 67.5869 111.13 67.3172 111.701C67.048 112.297 66.3468 112.548 65.7511 112.255C63.2499 111.063 60.1529 109.579 57.2675 108.066C56.8858 107.862 56.6413 107.467 56.6316 107.043ZM77.6779 117.616C77.6731 117.404 77.7154 117.191 77.8289 117C78.1457 116.427 78.8721 116.246 79.4448 116.563C80.185 116.993 80.9252 117.424 81.666 117.879C83.6255 119.083 85.5647 120.429 87.4344 121.824C87.938 122.213 88.0493 122.965 87.6602 123.468C87.2716 123.995 86.5196 124.083 86.016 123.694C84.2175 122.321 82.327 121.045 80.4387 119.862C79.722 119.431 79.0289 118.999 78.2892 118.592C77.9075 118.388 77.7101 117.992 77.701 117.592L77.6779 117.616ZM96.0126 132.256C96.0051 131.926 96.1395 131.617 96.3932 131.375C96.8546 130.941 97.6088 130.947 98.0675 131.432C100.168 133.669 102.25 136.096 104.241 138.69C104.653 139.199 104.552 139.932 104.043 140.344C103.533 140.732 102.778 140.655 102.389 140.146C100.423 137.622 98.3897 135.241 96.3611 133.073C96.1438 132.842 96.0437 132.585 96.0373 132.302L96.0126 132.256ZM110.107 151.069C110.098 150.668 110.3 150.263 110.672 150.043C111.23 149.7 111.941 149.872 112.284 150.43C113.85 152.986 115.444 155.754 116.995 158.664C117.314 159.246 117.095 159.958 116.513 160.254C115.93 160.55 115.219 160.354 114.923 159.772C113.373 156.909 111.827 154.187 110.261 151.654C110.139 151.468 110.088 151.281 110.083 151.069L110.107 151.069ZM121.112 171.884C121.102 171.436 121.351 170.983 121.794 170.784C122.377 170.512 123.09 170.755 123.363 171.361C124.7 174.206 125.991 177.098 127.258 179.967C127.531 180.574 127.24 181.264 126.656 181.513C126.05 181.786 125.36 181.495 125.111 180.912C123.844 178.042 122.554 175.197 121.241 172.352C121.166 172.189 121.14 172.048 121.136 171.883L121.112 171.884ZM130.603 193.44C130.593 192.969 130.865 192.515 131.309 192.34C131.916 192.091 132.605 192.358 132.855 192.965L136.586 201.622C136.835 202.205 136.568 202.918 135.985 203.167C135.378 203.416 134.688 203.149 134.439 202.566L130.708 193.909C130.658 193.769 130.608 193.628 130.604 193.464L130.603 193.44ZM140.095 215.02C140.085 214.572 140.334 214.119 140.777 213.921C141.36 213.648 142.072 213.891 142.345 214.497C143.659 217.342 144.972 220.187 146.309 223.031C146.581 223.614 146.338 224.327 145.756 224.599C145.173 224.872 144.46 224.629 144.188 224.046C142.851 221.201 141.514 218.357 140.2 215.489C140.126 215.349 140.099 215.185 140.095 215.02ZM150.239 236.279C150.229 235.831 150.478 235.401 150.898 235.203C151.48 234.907 152.193 235.174 152.488 235.733C153.872 238.552 155.302 241.347 156.732 244.142C157.028 244.725 156.809 245.437 156.227 245.733C155.644 246.029 154.932 245.809 154.636 245.227C153.206 242.432 151.776 239.613 150.392 236.794C150.318 236.63 150.267 236.467 150.263 236.302L150.239 236.279ZM161.035 257.216C161.026 256.792 161.251 256.363 161.647 256.142C162.229 255.846 162.941 256.042 163.237 256.624C164.713 259.395 166.213 262.141 167.736 264.887C168.055 265.445 167.837 266.181 167.278 266.476C166.696 266.796 165.984 266.576 165.689 266.017C164.165 263.272 162.665 260.502 161.188 257.731C161.09 257.569 161.063 257.381 161.058 257.192L161.035 257.216ZM172.46 277.81C172.45 277.386 172.653 276.981 173.049 276.76C173.607 276.441 174.342 276.636 174.661 277.194L175.471 278.613C176.77 280.846 178.07 283.078 179.393 285.31C179.736 285.868 179.54 286.603 178.982 286.922C178.424 287.264 177.689 287.069 177.37 286.511C176.047 284.279 174.724 282.023 173.424 279.791L172.614 278.372C172.516 278.186 172.464 277.998 172.46 277.81ZM184.652 297.962C184.643 297.561 184.823 297.18 185.195 296.936C185.752 296.594 186.463 296.742 186.829 297.3C188.514 299.924 190.247 302.547 192.002 305.123C192.367 305.656 192.243 306.39 191.685 306.756C191.152 307.121 190.419 306.997 190.052 306.439C188.273 303.841 186.541 301.218 184.831 298.547C184.709 298.361 184.657 298.15 184.652 297.938L184.652 297.962ZM198.145 317.259C198.137 316.906 198.294 316.549 198.594 316.307C199.104 315.918 199.86 315.995 200.249 316.528C202.215 319.075 204.18 321.528 206.117 323.817C206.528 324.303 206.475 325.058 205.989 325.469C205.504 325.881 204.749 325.828 204.337 325.342C202.376 323.03 200.363 320.531 198.396 317.961C198.227 317.752 198.151 317.518 198.145 317.259ZM213.582 335.028C213.575 334.722 213.686 334.413 213.939 334.172C214.4 333.714 215.154 333.72 215.612 334.181C217.831 336.416 220.119 338.579 222.403 340.601C222.884 341.038 222.924 341.767 222.512 342.271C222.075 342.752 221.345 342.793 220.841 342.38C218.532 340.312 216.221 338.126 213.954 335.845C213.736 335.614 213.612 335.334 213.606 335.051L213.582 335.028ZM224.099 513.702C224.091 513.373 224.225 513.04 224.479 512.798C226.765 510.743 228.954 508.549 231.045 506.216C231.482 505.735 232.235 505.694 232.716 506.131C233.197 506.568 233.238 507.321 232.801 507.802C230.664 510.183 228.406 512.45 226.05 514.553C225.565 514.988 224.834 514.958 224.376 514.473C224.182 514.266 224.082 513.985 224.075 513.703L224.099 513.702ZM231.438 350.363C231.432 350.127 231.497 349.866 231.657 349.651C232.045 349.123 232.773 348.989 233.3 349.378C235.839 351.181 238.447 352.913 241.098 354.502C241.648 354.843 241.829 355.569 241.512 356.119C241.171 356.668 240.445 356.85 239.895 356.532C237.196 354.921 234.517 353.167 231.93 351.317C231.619 351.089 231.446 350.739 231.438 350.386L231.438 350.363ZM239.338 495.825C239.333 495.59 239.398 495.352 239.535 495.161C241.198 492.625 242.809 489.926 244.302 487.159C244.619 486.586 245.32 486.358 245.893 486.675C246.466 486.992 246.67 487.694 246.377 488.266C244.863 491.105 243.228 493.852 241.497 496.459C241.132 497.01 240.405 497.144 239.855 496.803C239.52 496.575 239.324 496.226 239.315 495.849L239.338 495.825ZM250.079 474.916C250.075 474.752 250.096 474.61 250.163 474.467C251.277 471.637 252.341 468.691 253.309 465.653C253.507 465.036 254.182 464.691 254.799 464.889C255.416 465.087 255.761 465.739 255.564 466.38C254.573 469.442 253.511 472.458 252.374 475.335C252.129 475.93 251.452 476.228 250.834 476.007C250.383 475.828 250.09 475.387 250.08 474.94L250.079 474.916ZM251.848 362.01C251.845 361.845 251.865 361.68 251.955 361.513C252.224 360.917 252.925 360.642 253.52 360.912C256.376 362.166 259.3 363.301 262.197 364.296C262.815 364.494 263.136 365.17 262.938 365.787C262.74 366.404 262.064 366.726 261.447 366.528C258.479 365.535 255.484 364.378 252.58 363.077C252.151 362.898 251.882 362.457 251.873 362.033L251.848 362.01ZM256.966 452.399C256.966 452.399 256.962 452.21 257.007 452.115C257.693 449.154 258.33 446.053 258.871 442.93C258.975 442.292 259.601 441.853 260.24 441.98C260.879 442.083 261.317 442.71 261.19 443.349C260.625 446.495 259.99 449.644 259.305 452.652C259.154 453.291 258.527 453.683 257.887 453.532C257.342 453.403 256.978 452.94 256.967 452.422L256.966 452.399ZM260.891 429.171C260.891 429.171 260.889 429.053 260.888 429.006C261.243 425.958 261.525 422.818 261.783 419.678C261.839 419.041 262.394 418.557 263.054 418.589C263.692 418.645 264.175 419.176 264.144 419.86C263.909 423.023 263.604 426.187 263.25 429.282C263.171 429.92 262.592 430.404 261.954 430.325C261.364 430.267 260.928 429.759 260.916 429.194L260.891 429.171ZM262.526 405.688C262.526 405.688 262.524 405.641 262.524 405.618C262.641 402.481 262.711 399.346 262.781 396.21C262.79 395.55 263.32 395.043 263.98 395.052C264.64 395.061 265.192 395.496 265.139 396.251C265.069 399.41 264.999 402.545 264.882 405.682C264.85 406.342 264.319 406.849 263.659 406.817C263.022 406.808 262.539 406.277 262.525 405.665L262.526 405.688ZM262.956 382.139C262.956 382.139 262.956 382.116 262.955 382.092L263.047 372.665C263.032 372.006 263.586 371.498 264.246 371.507C264.906 371.515 265.437 372.069 265.405 372.706L265.313 382.133C265.328 382.792 264.774 383.3 264.114 383.291C263.478 383.306 262.971 382.775 262.956 382.139ZM263.316 358.568C263.316 358.568 263.315 358.521 263.314 358.498C263.408 355.338 263.525 352.202 263.666 349.065C263.698 348.404 264.252 347.92 264.889 347.953C265.55 347.985 266.035 348.61 266.001 349.176C265.86 352.313 265.742 355.426 265.649 358.562C265.64 359.222 265.086 359.73 264.449 359.697C263.813 359.688 263.33 359.181 263.315 358.545L263.316 358.568ZM264.62 335.07C264.62 335.07 264.618 334.976 264.617 334.929C264.92 331.694 265.272 328.528 265.652 325.527C265.732 324.889 266.334 324.428 266.972 324.508C267.61 324.587 268.071 325.189 267.991 325.827C267.611 328.805 267.259 331.947 266.978 335.158C266.922 335.795 266.344 336.28 265.706 336.223C265.093 336.167 264.657 335.658 264.643 335.069L264.62 335.07ZM267.954 311.761C267.954 311.761 267.951 311.596 267.972 311.502C268.607 308.353 269.337 305.227 270.118 302.263C270.292 301.623 270.92 301.255 271.56 301.429C272.2 301.603 272.568 302.231 272.394 302.871C271.636 305.81 270.905 308.867 270.269 311.991C270.142 312.63 269.515 313.045 268.876 312.918C268.332 312.813 267.944 312.327 267.931 311.785L267.954 311.761ZM274.298 368.993C274.298 368.993 274.294 368.828 274.316 368.757C274.443 368.118 275.046 367.703 275.684 367.807C278.76 368.373 281.856 368.774 284.901 369.011C285.539 369.067 286.023 369.645 285.991 370.282C285.935 370.943 285.38 371.427 284.719 371.371C281.604 371.136 278.413 370.714 275.266 370.125C274.698 370.02 274.31 369.534 274.298 368.993ZM274.367 289.113C274.364 288.972 274.384 288.806 274.451 288.663C275.653 285.549 276.953 282.622 278.33 279.951C278.623 279.379 279.348 279.15 279.92 279.444C280.492 279.737 280.721 280.462 280.428 281.035C279.073 283.634 277.818 286.49 276.638 289.509C276.417 290.127 275.717 290.425 275.122 290.18C274.67 290.001 274.377 289.56 274.367 289.113ZM285.993 268.773C285.986 268.491 286.074 268.206 286.281 267.989C287.2 266.931 288.142 265.897 289.133 264.932C290.424 263.654 291.81 262.444 293.269 261.327C293.779 260.938 294.535 261.039 294.924 261.548C295.312 262.058 295.235 262.814 294.702 263.203C293.336 264.247 292.019 265.408 290.797 266.614C289.852 267.531 288.956 268.517 288.083 269.527C287.671 270.031 286.917 270.072 286.413 269.659C286.149 269.429 286 269.103 285.993 268.797L285.993 268.773ZM297.743 370.062C297.73 369.45 298.189 368.921 298.8 368.86C301.903 368.554 304.979 368.06 307.932 367.356C308.564 367.201 309.21 367.61 309.342 368.243C309.474 368.876 309.088 369.521 308.455 369.654C305.385 370.36 302.215 370.879 299.018 371.211C298.36 371.273 297.784 370.792 297.722 370.157C297.722 370.133 297.72 370.086 297.72 370.063L297.743 370.062ZM305.229 255.706C305.218 255.188 305.536 254.71 306.051 254.557C309.256 253.541 312.472 252.997 315.627 252.902C316.287 252.887 316.817 253.393 316.832 254.052C316.846 254.688 316.34 255.242 315.681 255.257C312.737 255.324 309.733 255.863 306.762 256.802C306.131 257.005 305.487 256.667 305.284 256.035C305.258 255.918 305.232 255.824 305.229 255.706ZM320.415 364.01C320.405 363.562 320.653 363.109 321.097 362.91C323.941 361.597 326.64 360.051 329.123 358.369C329.656 358.003 330.39 358.151 330.756 358.685C331.121 359.219 330.973 359.952 330.439 360.318C327.864 362.073 325.049 363.669 322.087 365.032C321.504 365.304 320.792 365.061 320.519 364.455C320.445 364.292 320.418 364.151 320.414 363.986L320.415 364.01ZM328.163 257.07C328.159 256.882 328.202 256.692 328.292 256.525C328.585 255.929 329.287 255.701 329.859 255.995C332.718 257.391 335.4 259.262 337.856 261.562C338.337 261.999 338.354 262.753 337.894 263.234C337.457 263.716 336.703 263.733 336.221 263.272C333.934 261.133 331.444 259.399 328.823 258.115C328.418 257.913 328.174 257.518 328.164 257.094L328.163 257.07ZM339.015 349.897C339.009 349.638 339.097 349.353 339.28 349.137C341.16 346.808 342.868 344.225 344.337 341.482C344.654 340.909 345.356 340.681 345.929 340.998C346.501 341.315 346.729 342.016 346.413 342.589C344.876 345.475 343.076 348.179 341.105 350.627C340.692 351.131 339.964 351.218 339.46 350.806C339.172 350.577 339.023 350.25 339.016 349.92L339.015 349.897ZM344.258 273.717C344.249 273.293 344.474 272.863 344.893 272.642C345.476 272.346 346.188 272.565 346.484 273.148C347.912 275.872 349.181 278.836 350.243 281.993C350.445 282.601 350.13 283.267 349.499 283.494C348.891 283.696 348.224 283.381 347.998 282.75C346.987 279.734 345.767 276.863 344.388 274.256C344.29 274.093 344.262 273.905 344.259 273.74L344.258 273.717ZM349.258 328.881C349.258 328.881 349.254 328.67 349.298 328.551C350.057 325.659 350.647 322.606 351.047 319.439C351.126 318.801 351.729 318.34 352.367 318.42C353.005 318.499 353.466 319.101 353.386 319.739C352.966 323.001 352.354 326.149 351.573 329.135C351.399 329.775 350.772 330.143 350.131 329.969C349.61 329.84 349.27 329.376 349.258 328.858L349.258 328.881ZM351.106 296.134C351.093 295.545 351.528 295.017 352.139 294.933C352.773 294.848 353.373 295.305 353.458 295.939C353.772 298.359 353.993 300.805 354.095 303.229C354.108 303.818 354.122 304.43 354.136 305.043L354.146 305.467C354.161 306.126 353.654 306.656 352.995 306.671C352.336 306.686 351.806 306.18 351.791 305.52L351.781 305.096C351.768 304.508 351.754 303.919 351.741 303.33C351.64 300.976 351.445 298.601 351.132 296.251C351.131 296.204 351.13 296.157 351.129 296.11L351.106 296.134Z" fill="#5204BF"/>
</g>
<defs>
<linearGradient id="paint0_linear_3228_28981" x1="0.789063" y1="328.73" x2="296.19" y2="328.73" gradientUnits="userSpaceOnUse">
<stop stop-color="#5C00DB"/>
<stop offset="1" stop-color="#AB74F6"/>
</linearGradient>
</defs>
</svg>
