<?xml version="1.0" encoding="UTF-8" standalone="no"?>
<!DOCTYPE svg PUBLIC "-//W3C//DTD SVG 1.1//EN" "http://www.w3.org/Graphics/SVG/1.1/DTD/svg11.dtd">
<!-- Created with Vectornator (http://vectornator.io/) -->
<svg height="100%" stroke-miterlimit="10" style="fill-rule:nonzero;clip-rule:evenodd;stroke-linecap:round;stroke-linejoin:round;" version="1.1" viewBox="0 0 1920 1080" width="100%" xml:space="preserve" xmlns="http://www.w3.org/2000/svg" xmlns:vectornator="http://vectornator.io" xmlns:xlink="http://www.w3.org/1999/xlink">
<defs/>
<clipPath id="ArtboardFrame">
<rect height="1080" width="1920" x="0" y="0"/>
</clipPath>
<g clip-path="url(#ArtboardFrame)" id="Слой-1" vectornator:layerName="Слой 1">
<g opacity="1">
<path d="M1461.84 390.563C1461.32 390.283 1460.99 389.703 1461.07 389.04C1461.63 384.89 1462.51 380.909 1463.64 377.2C1463.89 376.422 1464.7 375.977 1465.49 376.198C1466.27 376.444 1466.72 377.254 1466.48 378.073C1465.39 381.636 1464.56 385.473 1464.03 389.437C1463.93 390.259 1463.15 390.824 1462.37 390.71C1462.19 390.679 1462.01 390.621 1461.88 390.551L1461.84 390.563ZM1471.99 362.878C1471.99 362.878 1471.88 362.822 1471.83 362.794C1471.17 362.337 1470.99 361.402 1471.45 360.735C1473.76 357.35 1476.45 354.268 1479.43 351.512C1480.03 350.956 1480.99 350.994 1481.55 351.594C1482.1 352.194 1482.06 353.151 1481.46 353.708C1478.65 356.321 1476.12 359.248 1473.92 362.423C1473.48 363.063 1472.63 363.254 1471.98 362.904L1471.99 362.878ZM1494.62 344.208C1494.33 344.054 1494.1 343.795 1493.96 343.486C1493.62 342.732 1493.99 341.85 1494.73 341.537C1496.53 340.746 1498.39 340.05 1500.22 339.446C1502.21 338.82 1504.21 338.234 1506.23 337.728C1507.02 337.509 1507.85 337.983 1508.05 338.8C1508.27 339.591 1507.77 340.403 1506.98 340.621C1505.02 341.129 1503.07 341.703 1501.12 342.317C1499.38 342.87 1497.6 343.542 1495.92 344.296C1495.49 344.471 1495 344.444 1494.63 344.248L1494.62 344.208ZM1523.35 336.648C1522.99 336.452 1522.68 336.085 1522.58 335.63C1522.4 334.827 1522.93 334.029 1523.75 333.891C1527.45 333.137 1531.41 332.283 1535.28 331.281C1536.07 331.062 1536.89 331.562 1537.1 332.353C1537.32 333.143 1536.82 333.955 1536.03 334.174C1532.09 335.175 1528.09 336.041 1524.35 336.807C1524 336.891 1523.63 336.828 1523.34 336.674L1523.35 336.648ZM1551.73 328.121C1551.47 327.981 1551.22 327.748 1551.08 327.438C1550.73 326.711 1551.05 325.801 1551.8 325.462C1554.99 323.962 1558.39 322.136 1562.15 319.893C1562.85 319.459 1563.76 319.709 1564.2 320.412C1564.63 321.116 1564.38 322.027 1563.68 322.461C1559.83 324.754 1556.37 326.619 1553.09 328.169C1552.64 328.371 1552.15 328.344 1551.76 328.135L1551.73 328.121ZM1577.29 312.933C1577.08 312.821 1576.87 312.643 1576.74 312.44C1576.29 311.763 1576.49 310.824 1577.19 310.39C1580.17 308.473 1583.73 306.224 1587.4 304.139C1588.12 303.745 1589.03 303.996 1589.44 304.685C1589.83 305.4 1589.58 306.312 1588.89 306.719C1585.26 308.792 1581.75 311.002 1578.82 312.907C1578.36 313.201 1577.77 313.226 1577.3 312.974L1577.29 312.933ZM1603.59 299.256C1603.27 299.088 1602.99 298.801 1602.89 298.413C1602.63 297.634 1603.06 296.781 1603.83 296.522C1605.65 295.904 1607.48 295.367 1609.29 294.949C1611.38 294.445 1613.5 294.062 1615.65 293.759C1616.45 293.647 1617.22 294.226 1617.34 295.027C1617.45 295.828 1616.87 296.598 1616.07 296.71C1614.03 297.003 1611.98 297.361 1610 297.855C1608.3 298.262 1606.54 298.775 1604.78 299.354C1604.38 299.476 1603.96 299.452 1603.62 299.27L1603.59 299.256ZM1632.9 296.487C1632.38 296.207 1632.05 295.627 1632.12 294.99C1632.22 294.168 1632.97 293.589 1633.76 293.676C1637.57 294.122 1641.45 294.809 1645.64 295.797C1646.45 295.992 1646.93 296.789 1646.74 297.596C1646.54 298.402 1645.75 298.887 1644.94 298.693C1640.87 297.734 1637.09 297.036 1633.41 296.62C1633.22 296.589 1633.04 296.557 1632.88 296.473L1632.9 296.487ZM1661.69 303.749C1661.06 303.413 1660.73 302.633 1661.01 301.935C1661.28 301.171 1662.14 300.754 1662.91 301.027C1666.19 302.204 1669.76 303.535 1674.08 305.232C1674.84 305.571 1675.2 306.406 1674.9 307.156C1674.61 307.907 1673.76 308.297 1672.98 307.984C1668.69 306.301 1665.16 304.958 1661.9 303.795C1661.82 303.753 1661.77 303.725 1661.72 303.697L1661.69 303.749ZM1689.38 314.575C1688.73 314.225 1688.42 313.418 1688.69 312.72C1688.99 311.97 1689.83 311.58 1690.61 311.893C1694.93 313.59 1698.43 314.919 1701.7 316.056C1702.47 316.329 1702.89 317.191 1702.61 317.955C1702.34 318.72 1701.48 319.136 1700.71 318.863C1697.42 317.713 1693.89 316.369 1689.5 314.671C1689.45 314.643 1689.4 314.615 1689.34 314.587L1689.38 314.575ZM1717.64 323.845C1717.06 323.537 1716.75 322.863 1716.9 322.202C1717.09 321.396 1717.89 320.911 1718.67 321.091C1722.75 322.024 1726.52 322.681 1730.19 323.057C1731 323.118 1731.61 323.879 1731.52 324.675C1731.42 325.497 1730.7 326.09 1729.9 326.003C1726.09 325.623 1722.2 324.962 1718.01 323.974C1717.89 323.945 1717.74 323.901 1717.64 323.845ZM1747.12 325.444C1746.72 325.234 1746.43 324.841 1746.35 324.36C1746.21 323.544 1746.77 322.801 1747.59 322.663C1750.5 322.194 1753.35 321.524 1756.11 320.598C1757 320.302 1757.88 319.993 1758.75 319.683C1759.52 319.384 1760.38 319.779 1760.68 320.545C1760.98 321.312 1760.59 322.179 1759.83 322.452C1758.91 322.8 1757.99 323.122 1757.06 323.43C1754.16 324.379 1751.14 325.098 1748.08 325.589C1747.75 325.647 1747.42 325.572 1747.16 325.432L1747.12 325.444ZM1774.34 314.146C1774.13 314.034 1773.92 313.855 1773.8 313.652C1773.35 312.975 1773.55 312.036 1774.25 311.602C1777.43 309.557 1780.44 307.454 1784.02 304.914C1784.68 304.426 1785.62 304.624 1786.08 305.274C1786.57 305.939 1786.41 306.866 1785.72 307.34C1782.86 309.354 1779.31 311.842 1775.86 314.079C1775.4 314.373 1774.81 314.398 1774.34 314.146ZM1799 297.538C1798.77 297.412 1798.56 297.234 1798.42 296.991C1797.99 296.288 1798.24 295.376 1798.94 294.942C1799.87 294.395 1800.8 293.847 1801.76 293.313C1804.3 291.903 1806.98 290.604 1809.68 289.41C1810.42 289.097 1811.31 289.44 1811.62 290.18C1811.96 290.934 1811.59 291.816 1810.85 292.129C1808.23 293.257 1805.66 294.547 1803.19 295.892C1802.27 296.413 1801.36 296.908 1800.46 297.47C1800 297.764 1799.44 297.736 1798.99 297.498L1799 297.538ZM1826.46 286.432C1826.1 286.236 1825.84 285.897 1825.73 285.468C1825.54 284.692 1826.01 283.866 1826.83 283.661C1830.59 282.736 1834.55 281.948 1838.64 281.364C1839.45 281.226 1840.2 281.791 1840.33 282.606C1840.45 283.407 1839.89 284.191 1839.09 284.303C1835.1 284.903 1831.22 285.666 1827.58 286.555C1827.19 286.651 1826.84 286.602 1826.53 286.434L1826.46 286.432ZM1855.89 282.575C1855.44 282.338 1855.12 281.864 1855.11 281.318C1855.08 280.492 1855.71 279.817 1856.53 279.785C1860.31 279.645 1864.35 279.605 1868.51 279.701C1869.35 279.709 1869.99 280.392 1869.96 281.216C1869.92 282.04 1869.27 282.701 1868.44 282.666C1864.33 282.598 1860.38 282.614 1856.63 282.768C1856.35 282.787 1856.11 282.728 1855.87 282.602L1855.89 282.575ZM1885.6 283.356C1885.1 283.09 1884.76 282.536 1884.81 281.925C1884.87 281.115 1885.58 280.482 1886.42 280.557C1890.38 280.847 1894.36 281.218 1898.3 281.601C1899.14 281.676 1899.71 282.423 1899.63 283.219C1899.55 284.055 1898.81 284.634 1898.01 284.547C1894.07 284.164 1890.14 283.821 1886.2 283.505C1885.97 283.486 1885.8 283.428 1885.62 283.33L1885.6 283.356ZM1915.19 286.262C1914.67 285.982 1914.34 285.402 1914.42 284.805C1914.52 283.983 1915.24 283.39 1916.06 283.491L1927.9 284.747C1928.69 284.834 1929.31 285.569 1929.23 286.365C1929.12 287.187 1928.4 287.78 1927.61 287.693L1915.77 286.437C1915.59 286.406 1915.4 286.374 1915.22 286.276L1915.19 286.262ZM1944.81 289.182C1944.31 288.916 1943.97 288.362 1944.02 287.751C1944.08 286.941 1944.79 286.308 1945.63 286.383C1949.57 286.7 1953.52 287.016 1957.47 287.306C1958.28 287.368 1958.92 288.076 1958.85 288.886C1958.79 289.696 1958.08 290.329 1957.27 290.268C1953.32 289.978 1949.36 289.688 1945.39 289.357C1945.19 289.352 1944.99 289.28 1944.81 289.182ZM1974.48 291.186C1973.98 290.92 1973.66 290.379 1973.7 289.795C1973.74 288.971 1974.47 288.352 1975.27 288.373C1979.23 288.596 1983.19 288.754 1987.15 288.911C1987.98 288.946 1988.62 289.628 1988.59 290.452C1988.55 291.276 1987.87 291.923 1987.05 291.888C1983.09 291.731 1979.1 291.56 1975.14 291.336C1974.92 291.317 1974.7 291.271 1974.52 291.173L1974.48 291.186ZM2004.2 292.272C2003.73 292.021 2003.39 291.506 2003.4 290.934C2003.43 290.11 2004.09 289.449 2004.91 289.484C2008.87 289.575 2012.82 289.625 2016.79 289.65C2017.6 289.644 2018.27 290.341 2018.25 291.138C2018.24 291.976 2017.56 292.623 2016.76 292.602C2012.8 292.578 2008.82 292.514 2004.86 292.423C2004.62 292.43 2004.4 292.344 2004.19 292.232L2004.2 292.272ZM2033.93 292.455C2033.46 292.203 2033.14 291.729 2033.14 291.157C2033.13 290.345 2033.8 289.658 2034.61 289.652L2036.68 289.64C2039.94 289.593 2043.2 289.545 2046.47 289.472C2047.3 289.44 2047.99 290.11 2047.99 290.922C2048.02 291.747 2047.35 292.435 2046.54 292.44C2043.27 292.514 2039.97 292.573 2036.7 292.621L2034.64 292.633C2034.38 292.626 2034.14 292.567 2033.93 292.455ZM2063.65 291.519C2063.2 291.281 2062.89 290.848 2062.86 290.288C2062.82 289.462 2063.43 288.773 2064.27 288.715C2068.2 288.486 2072.16 288.204 2076.08 287.868C2076.89 287.796 2077.62 288.387 2077.68 289.227C2077.75 290.041 2077.16 290.77 2076.32 290.828C2072.36 291.176 2068.4 291.458 2064.4 291.685C2064.12 291.705 2063.86 291.631 2063.62 291.505L2063.65 291.519ZM2093.23 288.625C2092.84 288.415 2092.54 288.021 2092.46 287.54C2092.35 286.739 2092.9 285.955 2093.73 285.857C2097.75 285.271 2101.67 284.629 2105.38 283.915C2106.17 283.763 2106.97 284.289 2107.12 285.078C2107.27 285.867 2106.75 286.665 2105.96 286.817C2102.2 287.543 2098.21 288.21 2094.16 288.782C2093.83 288.84 2093.52 288.779 2093.23 288.625ZM2122.34 282.644C2122 282.462 2121.73 282.149 2121.62 281.72C2121.4 280.93 2121.87 280.104 2122.66 279.885C2126.5 278.829 2130.29 277.651 2133.93 276.39C2134.71 276.131 2135.54 276.538 2135.84 277.305C2136.1 278.083 2135.69 278.91 2134.92 279.21C2131.22 280.469 2127.38 281.659 2123.47 282.74C2123.08 282.837 2122.69 282.8 2122.38 282.632L2122.34 282.644ZM2325.42 381.707C2325.05 381.511 2324.77 381.157 2324.66 380.729C2323.81 376.942 2322.76 373.175 2321.48 369.43C2321.22 368.652 2321.65 367.798 2322.42 367.539C2323.2 367.28 2324.06 367.701 2324.32 368.48C2325.61 372.306 2326.71 376.193 2327.56 380.087C2327.74 380.89 2327.25 381.675 2326.44 381.88C2326.09 381.964 2325.72 381.901 2325.4 381.733L2325.42 381.707ZM2150.27 272.495C2150 272.355 2149.76 272.122 2149.62 271.813C2149.28 271.059 2149.58 270.175 2150.34 269.836C2153.89 268.16 2157.41 266.363 2160.8 264.43C2161.52 264.036 2162.43 264.287 2162.84 264.976C2163.23 265.691 2162.98 266.603 2162.29 267.01C2158.85 268.982 2155.26 270.843 2151.62 272.544C2151.18 272.745 2150.69 272.719 2150.29 272.509L2150.27 272.495ZM2315.19 353.872C2314.92 353.732 2314.7 353.513 2314.58 353.244C2312.82 349.845 2308.73 343.045 2308.73 343.045C2308.73 343.045 2308.48 341.429 2309.18 340.995C2309.88 340.561 2310.78 340.771 2311.23 341.448C2313.41 344.872 2315.42 348.37 2317.22 351.89C2317.6 352.631 2317.3 353.515 2316.58 353.908C2316.12 354.136 2315.62 354.136 2315.2 353.912L2315.19 353.872ZM2298.83 329.109C2298.65 329.011 2298.51 328.901 2298.39 328.738C2295.97 325.761 2293.39 322.766 2290.64 319.82C2290.09 319.22 2290.13 318.264 2290.73 317.707C2291.33 317.151 2292.26 317.175 2292.84 317.789C2295.59 320.775 2298.26 323.812 2300.72 326.843C2301.22 327.482 2301.13 328.411 2300.5 328.953C2300.03 329.34 2299.36 329.389 2298.86 329.123L2298.83 329.109ZM2175.72 257.252C2175.53 257.154 2175.36 257.03 2175.24 256.827C2174.75 256.162 2174.88 255.221 2175.54 254.733C2178.69 252.368 2181.75 249.854 2184.64 247.282C2185.24 246.726 2186.18 246.791 2186.74 247.391C2187.3 247.991 2187.23 248.933 2186.63 249.49C2183.7 252.14 2180.57 254.719 2177.34 257.108C2176.88 257.469 2176.23 257.492 2175.76 257.24L2175.72 257.252ZM2278.33 307.59C2278.33 307.59 2278.12 307.478 2278.04 307.369C2275.21 304.78 2272.19 302.16 2269.09 299.631C2268.45 299.122 2268.36 298.161 2268.89 297.537C2269.4 296.898 2270.36 296.804 2270.99 297.339C2274.1 299.908 2277.17 302.557 2280.05 305.174C2280.66 305.735 2280.71 306.668 2280.14 307.278C2279.66 307.798 2278.93 307.911 2278.35 307.604L2278.33 307.59ZM2255.2 288.889C2255.2 288.889 2255.07 288.819 2255.02 288.791C2251.89 286.513 2248.61 284.258 2245.31 282.03C2244.65 281.573 2244.46 280.664 2244.9 279.957C2245.36 279.29 2246.24 279.087 2246.97 279.546C2250.31 281.762 2253.6 284.057 2256.79 286.362C2257.44 286.845 2257.61 287.781 2257.13 288.434C2256.7 289.048 2255.87 289.212 2255.24 288.876L2255.2 288.889ZM2230.38 272.551C2230.38 272.551 2230.33 272.523 2230.3 272.509C2226.92 270.438 2223.52 268.419 2220.11 266.401C2219.39 265.983 2219.16 265.085 2219.58 264.365C2220 263.644 2220.82 263.306 2221.62 263.833C2225.05 265.865 2228.45 267.884 2231.83 269.955C2232.54 270.399 2232.77 271.297 2232.32 272.003C2231.92 272.698 2231.04 272.901 2230.35 272.537L2230.38 272.551ZM2204.74 257.496C2204.74 257.496 2204.71 257.482 2204.69 257.468L2194.37 251.529C2193.64 251.137 2193.42 250.214 2193.84 249.493C2194.26 248.772 2195.2 248.531 2195.88 248.961L2206.19 254.9C2206.93 255.291 2207.14 256.215 2206.72 256.936C2206.35 257.644 2205.45 257.873 2204.74 257.496ZM2179.03 242.505C2179.03 242.505 2178.98 242.477 2178.95 242.463C2175.53 240.404 2172.16 238.333 2168.79 236.236C2168.09 235.792 2167.9 234.882 2168.33 234.201C2168.77 233.495 2169.76 233.348 2170.36 233.736C2173.73 235.833 2177.08 237.89 2180.47 239.935C2181.19 240.353 2181.41 241.277 2180.98 241.957C2180.57 242.652 2179.71 242.869 2179.01 242.491L2179.03 242.505ZM2153.99 226.521C2153.99 226.521 2153.88 226.465 2153.83 226.437C2150.46 224.1 2147.19 221.752 2144.13 219.477C2143.48 218.994 2143.34 218.046 2143.82 217.393C2144.31 216.741 2145.25 216.606 2145.91 217.089C2148.95 219.35 2152.19 221.684 2155.54 223.981C2156.21 224.437 2156.39 225.373 2155.93 226.04C2155.49 226.68 2154.66 226.844 2154 226.494L2153.99 226.521ZM2130.41 208.42C2130.41 208.42 2130.23 208.322 2130.13 208.24C2127.06 205.591 2124.08 202.852 2121.3 200.158C2120.7 199.57 2120.69 198.652 2121.28 198.055C2121.86 197.459 2122.78 197.443 2123.38 198.031C2126.14 200.684 2129.05 203.382 2132.1 206.016C2132.72 206.551 2132.79 207.498 2132.25 208.122C2131.8 208.656 2131.03 208.782 2130.42 208.46L2130.41 208.42ZM2197.3 236.878C2197.3 236.878 2197.12 236.78 2197.05 236.712C2196.43 236.177 2196.34 235.257 2196.85 234.618C2199.38 231.585 2201.74 228.427 2203.89 225.224C2204.34 224.557 2205.28 224.383 2205.96 224.813C2206.65 225.283 2206.84 226.193 2206.37 226.886C2204.18 230.168 2201.74 233.416 2199.15 236.514C2198.68 237.074 2197.9 237.2 2197.3 236.878ZM2109.46 187.342C2109.31 187.258 2109.14 187.134 2109.02 186.971C2106.34 183.721 2103.92 180.478 2101.84 177.31C2101.39 176.633 2101.59 175.693 2102.26 175.245C2102.94 174.797 2103.88 174.995 2104.33 175.672C2106.35 178.772 2108.71 181.921 2111.31 185.088C2111.85 185.715 2111.74 186.67 2111.1 187.172C2110.63 187.559 2109.96 187.608 2109.46 187.342ZM2094.29 161.958C2093.97 161.79 2093.71 161.517 2093.6 161.155C2093.01 159.49 2092.45 157.812 2092 156.124C2091.4 153.913 2090.92 151.639 2090.6 149.342C2090.49 148.541 2091.07 147.771 2091.87 147.659C2092.67 147.547 2093.45 148.1 2093.55 148.927C2093.85 151.077 2094.31 153.244 2094.89 155.335C2095.31 156.942 2095.84 158.54 2096.41 160.124C2096.71 160.891 2096.29 161.744 2095.52 162.043C2095.1 162.192 2094.65 162.154 2094.31 161.972L2094.29 161.958ZM2212.99 211.747C2212.31 211.383 2212.01 210.55 2212.33 209.84C2213.91 206.236 2215.27 202.547 2216.33 198.863C2216.55 198.07 2217.4 197.614 2218.17 197.86C2218.95 198.107 2219.42 198.931 2219.18 199.709C2218.05 203.525 2216.66 207.333 2215.05 211.056C2214.71 211.818 2213.82 212.154 2213.08 211.829C2213.06 211.815 2213.01 211.787 2212.98 211.773L2212.99 211.747ZM2091.82 132.704C2091.24 132.396 2090.91 131.749 2091.07 131.088C2091.93 126.933 2093.32 123.058 2095.17 119.528C2095.57 118.793 2096.45 118.524 2097.19 118.915C2097.89 119.293 2098.19 120.192 2097.8 120.927C2096.05 124.207 2094.78 127.846 2093.98 131.696C2093.81 132.517 2093.04 133.015 2092.22 132.847C2092.07 132.804 2091.95 132.774 2091.82 132.704ZM2220.37 183.058C2219.87 182.792 2219.53 182.237 2219.59 181.627C2219.9 177.684 2219.87 173.758 2219.56 169.985C2219.49 169.172 2220.1 168.456 2220.92 168.384C2221.73 168.313 2222.45 168.93 2222.52 169.744C2222.85 173.664 2222.87 177.749 2222.53 181.851C2222.47 182.661 2221.76 183.294 2220.93 183.219C2220.7 183.2 2220.53 183.142 2220.35 183.044L2220.37 183.058ZM2107.52 108.318C2107.31 108.206 2107.13 108.041 2107 107.838C2106.53 107.147 2106.71 106.234 2107.39 105.786C2110.69 103.505 2114.41 101.714 2118.47 100.436C2119.24 100.177 2120.08 100.625 2120.33 101.43C2120.59 102.208 2120.14 103.048 2119.33 103.293C2115.57 104.484 2112.12 106.15 2109.08 108.239C2108.61 108.559 2108.02 108.583 2107.55 108.332L2107.52 108.318ZM2216.36 153.857C2216.07 153.703 2215.82 153.43 2215.69 153.094C2214.29 149.585 2212.51 146.105 2210.4 142.791C2209.97 142.087 2210.15 141.174 2210.85 140.74C2211.56 140.306 2212.47 140.49 2212.9 141.193C2215.13 144.671 2216.99 148.325 2218.46 152.009C2218.76 152.775 2218.41 153.631 2217.64 153.93C2217.21 154.105 2216.76 154.066 2216.39 153.87L2216.36 153.857ZM2135.8 100.918C2135.33 100.667 2135 100.152 2135.01 99.554C2135.05 98.7301 2135.73 98.0827 2136.55 98.1177C2140.44 98.233 2144.48 98.6719 2148.61 99.4589C2149.41 99.6128 2149.94 100.372 2149.8 101.206C2149.65 102.001 2148.89 102.539 2148.06 102.398C2144.11 101.642 2140.2 101.207 2136.47 101.109C2136.24 101.116 2136.01 101.03 2135.83 100.932L2135.8 100.918ZM2199.59 129.575C2199.59 129.575 2199.35 129.449 2199.25 129.326C2196.54 126.701 2193.54 124.161 2190.31 121.761C2189.65 121.278 2189.52 120.33 2190 119.678C2190.48 119.025 2191.43 118.89 2192.08 119.373C2195.41 121.855 2198.5 124.477 2201.3 127.185C2201.9 127.773 2201.91 128.691 2201.32 129.288C2200.86 129.781 2200.14 129.869 2199.56 129.561L2199.59 129.575ZM2164.7 107.265C2164.05 106.916 2163.74 106.109 2164.02 105.385C2164.32 104.634 2165.2 104.258 2165.95 104.557C2168.8 105.71 2171.63 106.982 2174.36 108.371C2175.02 108.72 2175.7 109.084 2176.38 109.448L2176.85 109.7C2177.59 110.092 2177.86 110.977 2177.47 111.712C2177.07 112.446 2176.19 112.716 2175.45 112.324L2174.98 112.072C2174.33 111.722 2173.67 111.372 2173.01 111.023C2170.36 109.676 2167.63 108.42 2164.85 107.309C2164.8 107.281 2164.74 107.253 2164.69 107.225L2164.7 107.265Z" fill="#e7ebf1" fill-rule="nonzero" opacity="1" stroke="none" vectornator:layerName="path"/>
</g>
<g opacity="1">
<path d="M-299.985 555.857C-300.505 555.566-300.825 554.978-300.725 554.317C-300.075 550.181-299.115 546.219-297.905 542.535C-297.635 541.762-296.815 541.335-296.035 541.573C-295.255 541.836-294.835 542.655-295.085 543.469C-296.245 547.008-297.165 550.825-297.775 554.777C-297.895 555.597-298.685 556.145-299.465 556.015C-299.645 555.98-299.815 555.918-299.945 555.846L-299.985 555.857ZM-289.255 528.395C-289.255 528.395-289.355 528.336-289.405 528.307C-290.065 527.837-290.215 526.897-289.745 526.241C-287.365 522.906-284.615 519.881-281.565 517.19C-280.955 516.647-279.995 516.706-279.455 517.318C-278.915 517.929-278.975 518.885-279.585 519.429C-282.445 521.982-285.045 524.854-287.315 527.981C-287.765 528.612-288.615 528.784-289.265 528.421L-289.255 528.395ZM-266.225 510.212C-266.515 510.052-266.745 509.788-266.875 509.476C-267.195 508.715-266.805 507.841-266.065 507.544C-264.245 506.792-262.375 506.135-260.525 505.571C-258.525 504.987-256.515 504.444-254.485 503.982C-253.685 503.78-252.875 504.272-252.685 505.093C-252.485 505.888-252.995 506.689-253.795 506.89C-255.765 507.356-257.725 507.888-259.685 508.46C-261.445 508.976-263.235 509.61-264.925 510.328C-265.365 510.493-265.855 510.456-266.215 510.253L-266.225 510.212ZM-237.335 503.268C-237.705 503.064-238.005 502.69-238.085 502.233C-238.245 501.427-237.705 500.64-236.885 500.52C-233.165 499.845-229.185 499.076-225.295 498.156C-224.505 497.954-223.705 498.472-223.495 499.267C-223.295 500.062-223.815 500.863-224.615 501.065C-228.565 501.981-232.585 502.762-236.345 503.448C-236.695 503.524-237.065 503.454-237.355 503.293L-237.335 503.268ZM-208.785 495.348C-209.045 495.203-209.285 494.965-209.415 494.652C-209.755 493.917-209.425 493.014-208.665 492.691C-205.435 491.26-201.995 489.507-198.195 487.345C-197.485 486.926-196.575 487.196-196.155 487.908C-195.735 488.62-196.005 489.526-196.715 489.945C-200.615 492.156-204.115 493.946-207.435 495.426C-207.885 495.618-208.375 495.581-208.765 495.362L-208.785 495.348ZM-182.915 480.71C-183.115 480.594-183.325 480.411-183.445 480.205C-183.875 479.519-183.665 478.584-182.945 478.165C-179.935 476.312-176.325 474.14-172.605 472.134C-171.885 471.756-170.985 472.025-170.585 472.723C-170.205 473.447-170.475 474.352-171.175 474.745C-174.855 476.74-178.405 478.875-181.385 480.717C-181.845 481.001-182.435 481.013-182.895 480.751L-182.915 480.71ZM-156.325 467.598C-156.635 467.423-156.915 467.13-157.005 466.74C-157.245 465.956-156.805 465.111-156.015 464.869C-154.195 464.29-152.345 463.793-150.535 463.413C-148.435 462.954-146.295 462.616-144.145 462.36C-143.345 462.265-142.585 462.86-142.485 463.663C-142.395 464.467-142.985 465.224-143.795 465.319C-145.845 465.567-147.895 465.882-149.885 466.333C-151.595 466.705-153.365 467.179-155.135 467.721C-155.535 467.835-155.955 467.801-156.295 467.612L-156.325 467.598ZM-126.955 465.456C-127.475 465.164-127.795 464.577-127.705 463.942C-127.585 463.122-126.835 462.559-126.035 462.663C-122.245 463.19-118.375 463.96-114.205 465.038C-113.405 465.249-112.935 466.057-113.145 466.859C-113.355 467.661-114.165 468.129-114.965 467.917C-119.025 466.872-122.775 466.094-126.455 465.599C-126.645 465.564-126.825 465.528-126.985 465.441L-126.955 465.456ZM-98.3352 473.33C-98.9552 472.981-99.2652 472.194-98.9752 471.502C-98.6852 470.744-97.8152 470.346-97.0552 470.635C-93.8052 471.882-90.2652 473.289-85.9752 475.077C-85.2252 475.433-84.8752 476.275-85.1952 477.019C-85.5052 477.763-86.3652 478.135-87.1352 477.805C-91.3952 476.031-94.8952 474.613-98.1252 473.38C-98.1952 473.337-98.2552 473.308-98.3052 473.279L-98.3352 473.33ZM-70.8752 484.745C-71.5252 484.381-71.8152 483.568-71.5352 482.876C-71.2152 482.132-70.3552 481.76-69.5852 482.09C-65.3052 483.878-61.8352 485.282-58.5852 486.489C-57.8352 486.778-57.4352 487.649-57.7252 488.407C-58.0152 489.166-58.8852 489.564-59.6452 489.275C-62.9152 488.054-66.4152 486.635-70.7552 484.843C-70.8152 484.814-70.8652 484.785-70.9152 484.756L-70.8752 484.745ZM-42.8252 494.616C-43.3952 494.296-43.6952 493.616-43.5352 492.958C-43.3252 492.156-42.5152 491.689-41.7352 491.885C-37.6752 492.905-33.9252 493.642-30.2552 494.097C-29.4452 494.175-28.8652 494.949-28.9652 495.743C-29.0852 496.563-29.8152 497.14-30.6152 497.036C-34.4152 496.575-38.2852 495.831-42.4552 494.753C-42.5752 494.721-42.7252 494.674-42.8252 494.616ZM-13.3852 496.845C-13.7752 496.626-14.0652 496.227-14.1352 495.744C-14.2552 494.926-13.6752 494.195-12.8552 494.074C-9.9352 493.667-7.0652 493.058-4.2952 492.192C-3.3952 491.915-2.5152 491.624-1.6352 491.333C-0.865197 491.051-0.00519729 491.464 0.284803 492.237C0.564803 493.009 0.144803 493.868-0.605197 494.125C-1.5452 494.453-2.4652 494.756-3.4052 495.043C-6.3252 495.93-9.3552 496.584-12.4252 497.011C-12.7552 497.061-13.0852 496.979-13.3452 496.833L-13.3852 496.845ZM14.0748 486.13C13.8648 486.014 13.6648 485.831 13.5348 485.625C13.1048 484.939 13.3248 484.004 14.0348 483.585C17.2548 481.609 20.3148 479.57 23.9448 477.107C24.6148 476.634 25.5548 476.851 26.0048 477.512C26.4748 478.187 26.2948 479.11 25.5948 479.569C22.6948 481.522 19.0948 483.933 15.5948 486.096C15.1248 486.38 14.5348 486.392 14.0748 486.13ZM39.0848 470.053C38.8548 469.922 38.6448 469.739 38.5148 469.493C38.0948 468.781 38.3648 467.875 39.0748 467.456C40.0148 466.929 40.9648 466.401 41.9348 465.888C44.5048 464.533 47.2048 463.29 49.9248 462.155C50.6748 461.858 51.5648 462.22 51.8548 462.966C52.1848 463.727 51.7948 464.601 51.0448 464.898C48.3948 465.97 45.7948 467.204 43.2948 468.497C42.3748 468.998 41.4548 469.474 40.5348 470.016C40.0748 470.3 39.5148 470.26 39.0748 470.013L39.0848 470.053ZM66.7748 459.536C66.4148 459.333 66.1648 458.988 66.0648 458.557C65.8848 457.776 66.3748 456.961 67.1948 456.774C70.9848 455.929 74.9548 455.226 79.0548 454.729C79.8748 454.608 80.6048 455.189 80.7248 456.007C80.8148 456.81 80.2448 457.582 79.4448 457.677C75.4348 458.192 71.5448 458.872 67.8848 459.682C67.4948 459.77 67.1548 459.714 66.8448 459.539L66.7748 459.536ZM96.2748 456.309C95.8348 456.061 95.5248 455.58 95.5248 455.035C95.5048 454.208 96.1548 453.547 96.9748 453.533C100.765 453.473 104.795 453.519 108.955 453.704C109.795 453.731 110.425 454.427 110.375 455.25C110.315 456.073 109.645 456.72 108.825 456.667C104.715 456.511 100.765 456.443 97.0048 456.517C96.7248 456.53 96.4948 456.465 96.2548 456.335L96.2748 456.309ZM125.965 457.724C125.475 457.447 125.135 456.885 125.205 456.276C125.285 455.468 126.005 454.85 126.845 454.943C130.795 455.317 134.765 455.773 138.695 456.24C139.535 456.333 140.095 457.092 139.995 457.886C139.895 458.72 139.135 459.283 138.345 459.179C134.415 458.712 130.495 458.285 126.555 457.885C126.335 457.861 126.165 457.799 125.975 457.698L125.965 457.724ZM155.485 461.261C154.965 460.97 154.655 460.382 154.745 459.788C154.865 458.968 155.595 458.39 156.415 458.509L168.225 460.017C169.015 460.121 169.615 460.869 169.515 461.663C169.395 462.483 168.665 463.061 167.865 462.956L156.065 461.448C155.875 461.413 155.695 461.377 155.515 461.275L155.485 461.261ZM185.035 464.813C184.545 464.536 184.215 463.975 184.275 463.365C184.355 462.557 185.085 461.939 185.915 462.032C189.845 462.433 193.785 462.833 197.735 463.208C198.545 463.286 199.165 464.008 199.085 464.817C199.005 465.625 198.285 466.243 197.475 466.164C193.525 465.79 189.575 465.415 185.615 465C185.415 464.991 185.215 464.915 185.035 464.813ZM214.655 467.449C214.165 467.173 213.855 466.626 213.915 466.042C213.965 465.219 214.715 464.616 215.505 464.654C219.465 464.962 223.415 465.204 227.375 465.446C228.195 465.498 228.825 466.194 228.775 467.017C228.725 467.84 228.025 468.473 227.205 468.42C223.245 468.178 219.265 467.922 215.315 467.614C215.085 467.59 214.875 467.54 214.695 467.438L214.655 467.449ZM244.345 469.171C243.875 468.909 243.555 468.387 243.575 467.815C243.625 466.992 244.295 466.345 245.115 466.398C249.075 466.573 253.025 466.708 256.985 466.817C257.795 466.829 258.455 467.54 258.415 468.337C258.395 469.174 257.695 469.807 256.895 469.769C252.935 469.66 248.965 469.51 245.005 469.335C244.765 469.337 244.545 469.246 244.335 469.13L244.345 469.171ZM274.065 469.988C273.595 469.726 273.285 469.245 273.305 468.673C273.315 467.861 273.995 467.188 274.805 467.201L276.875 467.232C280.135 467.254 283.395 467.277 286.665 467.273C287.495 467.259 288.165 467.944 288.155 468.755C288.175 469.582 287.485 470.255 286.675 470.243C283.395 470.246 280.095 470.235 276.835 470.213L274.775 470.181C274.505 470.169 274.275 470.104 274.065 469.988ZM303.795 469.687C303.355 469.44 303.055 468.999 303.035 468.439C303.015 467.613 303.635 466.937 304.475 466.897C308.415 466.751 312.375 466.554 316.305 466.302C317.115 466.248 317.835 466.854 317.875 467.695C317.925 468.51 317.315 469.226 316.475 469.266C312.515 469.53 308.545 469.727 304.545 469.869C304.265 469.883 304.005 469.803 303.775 469.673L303.795 469.687ZM333.435 467.425C333.045 467.207 332.765 466.807 332.685 466.324C332.595 465.521 333.165 464.749 333.995 464.669C338.025 464.168 341.955 463.61 345.685 462.976C346.475 462.84 347.265 463.384 347.395 464.176C347.535 464.968 346.995 465.754 346.195 465.889C342.425 466.535 338.415 467.116 334.355 467.602C334.025 467.653 333.725 467.585 333.435 467.425ZM362.665 462.067C362.325 461.878 362.065 461.559 361.965 461.129C361.765 460.333 362.255 459.518 363.045 459.316C366.905 458.341 370.725 457.245 374.385 456.062C375.175 455.82 375.985 456.245 376.275 457.017C376.515 457.801 376.085 458.62 375.315 458.902C371.585 460.083 367.725 461.19 363.795 462.187C363.395 462.275 363.015 462.23 362.705 462.056L362.665 462.067ZM563.585 565.444C563.215 565.24 562.945 564.881 562.845 564.45C562.075 560.646 561.105 556.858 559.905 553.086C559.665 552.302 560.105 551.458 560.895 551.216C561.675 550.973 562.515 551.413 562.765 552.197C563.975 556.049 564.985 559.959 565.755 563.87C565.925 564.677 565.415 565.452 564.595 565.639C564.245 565.715 563.875 565.644 563.565 565.47L563.585 565.444ZM390.805 452.517C390.545 452.371 390.295 452.133 390.165 451.821C389.845 451.06 390.165 450.183 390.925 449.86C394.515 448.26 398.075 446.539 401.505 444.679C402.225 444.3 403.135 444.57 403.525 445.268C403.905 445.992 403.635 446.897 402.935 447.29C399.455 449.188 395.825 450.972 392.155 452.595C391.705 452.786 391.215 452.75 390.825 452.531L390.805 452.517ZM553.945 537.397C553.685 537.251 553.475 537.028 553.355 536.756C551.665 533.32 549.765 529.835 547.715 526.435C547.295 525.723 547.505 524.814 548.215 524.395C548.925 523.976 549.825 524.205 550.255 524.892C552.365 528.361 554.305 531.902 556.025 535.459C556.385 536.208 556.065 537.085 555.345 537.463C554.875 537.681 554.375 537.67 553.955 537.437L553.945 537.397ZM538.125 512.291C537.945 512.189 537.805 512.075 537.695 511.91C535.335 508.882 532.815 505.833 530.135 502.829C529.595 502.217 529.655 501.262 530.265 500.718C530.875 500.175 531.805 500.219 532.375 500.845C535.065 503.89 537.665 506.982 540.055 510.066C540.545 510.715 540.435 511.642 539.795 512.17C539.315 512.547 538.645 512.582 538.155 512.305L538.125 512.291ZM416.575 437.821C416.395 437.719 416.225 437.591 416.105 437.386C415.625 436.711 415.775 435.772 416.455 435.299C419.655 433.001 422.765 430.553 425.705 428.044C426.315 427.5 427.255 427.585 427.805 428.197C428.345 428.809 428.265 429.75 427.645 430.293C424.665 432.881 421.485 435.392 418.205 437.712C417.735 438.063 417.075 438.071 416.615 437.809L416.575 437.821ZM518.085 490.338C518.085 490.338 517.875 490.222 517.805 490.112C515.025 487.463 512.065 484.779 509.015 482.184C508.395 481.661 508.315 480.699 508.865 480.086C509.385 479.458 510.345 479.384 510.965 479.933C514.015 482.568 517.035 485.282 519.865 487.96C520.455 488.534 520.485 489.467 519.905 490.066C519.415 490.575 518.675 490.673 518.105 490.353L518.085 490.338ZM495.365 471.148C495.365 471.148 495.235 471.075 495.185 471.046C492.095 468.702 488.865 466.378 485.625 464.079C484.965 463.609 484.795 462.695 485.255 461.998C485.725 461.341 486.615 461.157 487.335 461.631C490.625 463.918 493.865 466.283 497.005 468.656C497.645 469.152 497.795 470.092 497.305 470.734C496.855 471.339 496.025 471.485 495.405 471.136L495.365 471.148ZM470.895 454.284C470.895 454.284 470.845 454.254 470.815 454.24C467.485 452.097 464.125 450.006 460.765 447.916C460.045 447.482 459.835 446.58 460.275 445.868C460.705 445.157 461.535 444.837 462.325 445.38C465.705 447.486 469.075 449.576 472.405 451.719C473.105 452.178 473.315 453.08 472.855 453.778C472.435 454.463 471.545 454.647 470.875 454.269L470.895 454.284ZM445.585 438.684C445.585 438.684 445.555 438.67 445.535 438.655L435.345 432.498C434.625 432.09 434.425 431.162 434.855 430.451C435.295 429.739 436.235 429.518 436.905 429.962L447.095 436.12C447.815 436.527 448.015 437.455 447.575 438.167C447.185 438.867 446.285 439.077 445.585 438.684ZM420.205 423.148C420.205 423.148 420.145 423.119 420.125 423.104C416.745 420.973 413.415 418.83 410.095 416.662C409.405 416.202 409.235 415.289 409.675 414.618C410.135 413.921 411.125 413.795 411.715 414.196C415.035 416.364 418.345 418.493 421.695 420.609C422.405 421.043 422.605 421.971 422.155 422.642C421.735 423.328 420.875 423.526 420.175 423.133L420.205 423.148ZM395.505 406.632C395.505 406.632 395.395 406.574 395.345 406.545C392.025 404.137 388.815 401.72 385.795 399.379C385.155 398.883 385.045 397.932 385.535 397.29C386.035 396.648 386.985 396.533 387.625 397.03C390.615 399.356 393.805 401.758 397.115 404.126C397.775 404.597 397.925 405.536 397.455 406.193C396.995 406.824 396.165 406.97 395.515 406.607L395.505 406.632ZM372.315 388.032C372.315 388.032 372.135 387.93 372.045 387.846C369.035 385.133 366.105 382.33 363.385 379.578C362.805 378.977 362.805 378.059 363.405 377.475C364.005 376.891 364.925 376.895 365.505 377.495C368.215 380.207 371.065 382.966 374.055 385.665C374.665 386.214 374.715 387.161 374.165 387.774C373.705 388.298 372.925 388.407 372.325 388.073L372.315 388.032ZM438.585 417.913C438.585 417.913 438.405 417.811 438.335 417.741C437.725 417.193 437.665 416.271 438.185 415.644C440.775 412.665 443.205 409.558 445.415 406.402C445.885 405.745 446.825 405.59 447.495 406.035C448.185 406.52 448.355 407.434 447.865 408.116C445.605 411.35 443.095 414.546 440.435 417.588C439.955 418.138 439.185 418.247 438.585 417.913ZM351.825 366.511C351.675 366.424 351.505 366.296 351.395 366.131C348.775 362.824 346.435 359.53 344.415 356.319C343.985 355.632 344.205 354.697 344.885 354.264C345.575 353.831 346.505 354.048 346.945 354.735C348.895 357.877 351.195 361.075 353.715 364.298C354.245 364.935 354.115 365.888 353.475 366.376C352.985 366.753 352.315 366.788 351.825 366.511ZM337.195 340.809C336.885 340.634 336.625 340.356 336.525 339.992C335.965 338.314 335.445 336.625 335.035 334.928C334.475 332.704 334.055 330.42 333.775 328.117C333.685 327.314 334.275 326.557 335.085 326.462C335.885 326.367 336.655 326.936 336.735 327.765C336.995 329.921 337.405 332.098 337.935 334.2C338.325 335.817 338.815 337.425 339.355 339.021C339.635 339.794 339.195 340.638 338.425 340.921C338.005 341.061 337.555 341.013 337.215 340.824L337.195 340.809ZM454.815 393.122C454.135 392.744 453.855 391.905 454.185 391.201C455.845 387.632 457.285 383.973 458.415 380.312C458.655 379.525 459.515 379.086 460.285 379.349C461.065 379.613 461.515 380.446 461.255 381.219C460.045 385.01 458.575 388.788 456.875 392.475C456.525 393.23 455.635 393.547 454.905 393.206C454.875 393.192 454.825 393.162 454.795 393.148L454.815 393.122ZM335.355 311.509C334.785 311.189 334.465 310.535 334.635 309.877C335.585 305.742 337.065 301.898 338.985 298.408C339.395 297.681 340.285 297.431 341.015 297.838C341.715 298.231 341.985 299.136 341.585 299.863C339.765 303.105 338.415 306.715 337.535 310.548C337.345 311.364 336.565 311.846 335.745 311.661C335.605 311.614 335.485 311.582 335.355 311.509ZM462.805 364.597C462.305 364.32 461.975 363.759 462.045 363.149C462.445 359.214 462.495 355.289 462.265 351.51C462.215 350.695 462.845 349.993 463.655 349.938C464.475 349.884 465.175 350.517 465.235 351.331C465.485 355.258 465.405 359.342 464.985 363.436C464.905 364.245 464.185 364.863 463.355 364.769C463.125 364.745 462.955 364.684 462.775 364.582L462.805 364.597ZM351.575 287.464C351.365 287.347 351.185 287.179 351.065 286.973C350.605 286.272 350.805 285.363 351.495 284.93C354.845 282.72 358.605 281.008 362.685 279.818C363.465 279.576 364.295 280.041 364.525 280.851C364.765 281.635 364.305 282.465 363.495 282.692C359.695 283.803 356.215 285.395 353.135 287.418C352.655 287.728 352.065 287.74 351.595 287.478L351.575 287.464ZM459.415 335.316C459.135 335.156 458.875 334.878 458.765 334.54C457.435 331.001 455.725 327.485 453.695 324.126C453.275 323.413 453.475 322.504 454.185 322.086C454.905 321.667 455.815 321.87 456.225 322.582C458.375 326.106 460.155 329.8 461.555 333.514C461.835 334.287 461.465 335.134 460.695 335.417C460.255 335.583 459.805 335.535 459.445 335.331L459.415 335.316ZM380.005 280.67C379.535 280.408 379.215 279.887 379.245 279.289C379.295 278.466 379.995 277.833 380.815 277.886C384.695 278.084 388.725 278.609 392.845 279.484C393.635 279.655 394.155 280.426 393.995 281.257C393.825 282.048 393.055 282.57 392.225 282.411C388.295 281.571 384.395 281.052 380.675 280.875C380.435 280.877 380.215 280.786 380.025 280.685L380.005 280.67ZM443.165 310.682C443.165 310.682 442.925 310.551 442.825 310.426C440.175 307.743 437.235 305.14 434.055 302.672C433.405 302.175 433.295 301.224 433.795 300.582C434.285 299.94 435.235 299.826 435.885 300.322C439.155 302.875 442.185 305.562 444.925 308.329C445.505 308.93 445.505 309.848 444.905 310.432C444.425 310.915 443.705 310.988 443.135 310.667L443.165 310.682ZM408.765 287.633C408.115 287.269 407.825 286.456 408.125 285.738C408.435 284.994 409.315 284.637 410.065 284.952C412.895 286.165 415.695 287.497 418.395 288.944C419.045 289.308 419.715 289.686 420.395 290.064L420.855 290.326C421.585 290.734 421.835 291.624 421.425 292.351C421.025 293.077 420.125 293.327 419.405 292.92L418.935 292.658C418.285 292.294 417.635 291.93 416.995 291.567C414.365 290.163 411.665 288.849 408.905 287.68C408.855 287.65 408.805 287.621 408.755 287.592L408.765 287.633Z" fill="#e7ebf1" fill-rule="nonzero" opacity="1" stroke="none" vectornator:layerName="path"/>
<path d="M1428.04 490.303C1428.58 490.534 1428.97 491.083 1428.94 491.751C1428.75 495.934 1428.24 499.978 1427.44 503.774C1427.27 504.571 1426.5 505.086 1425.69 504.938C1424.89 504.762 1424.38 503.995 1424.54 503.159C1425.3 499.512 1425.79 495.616 1425.96 491.621C1425.99 490.793 1426.71 490.161 1427.5 490.204C1427.68 490.218 1427.86 490.261 1428 490.318L1428.04 490.303ZM1420.42 518.787C1420.42 518.787 1420.52 518.833 1420.58 518.856C1421.28 519.251 1421.54 520.168 1421.15 520.873C1419.15 524.451 1416.75 527.763 1414.02 530.775C1413.48 531.383 1412.52 531.43 1411.91 530.883C1411.3 530.335 1411.26 529.379 1411.8 528.771C1414.37 525.915 1416.63 522.773 1418.54 519.413C1418.92 518.736 1419.74 518.47 1420.43 518.76L1420.42 518.787ZM1399.55 539.412C1399.86 539.54 1400.11 539.777 1400.28 540.073C1400.68 540.793 1400.39 541.705 1399.68 542.083C1397.96 543.032 1396.17 543.892 1394.4 544.658C1392.48 545.461 1390.54 546.223 1388.57 546.909C1387.8 547.197 1386.94 546.799 1386.66 546.004C1386.37 545.236 1386.8 544.383 1387.57 544.094C1389.47 543.413 1391.37 542.666 1393.25 541.88C1394.94 541.173 1396.64 540.344 1398.25 539.442C1398.66 539.229 1399.15 539.211 1399.54 539.374L1399.55 539.412ZM1371.61 549.521C1372 549.683 1372.34 550.022 1372.47 550.466C1372.72 551.25 1372.27 552.091 1371.47 552.302C1367.85 553.386 1363.98 554.592 1360.21 555.938C1359.45 556.227 1358.59 555.801 1358.3 555.033C1358.02 554.265 1358.44 553.412 1359.21 553.123C1363.04 551.773 1366.95 550.551 1370.61 549.452C1370.95 549.337 1371.32 549.367 1371.62 549.494L1371.61 549.521ZM1344.12 560.561C1344.39 560.677 1344.66 560.887 1344.82 561.182C1345.24 561.876 1345.01 562.81 1344.29 563.216C1341.24 564.996 1338.02 567.12 1334.48 569.691C1333.82 570.186 1332.89 570.019 1332.39 569.357C1331.9 568.696 1332.06 567.766 1332.72 567.271C1336.35 564.64 1339.63 562.473 1342.76 560.634C1343.19 560.394 1343.68 560.376 1344.09 560.55L1344.12 560.561ZM1320.03 577.981C1320.25 578.073 1320.47 578.233 1320.61 578.423C1321.12 579.057 1321.01 580.011 1320.35 580.506C1317.55 582.683 1314.21 585.241 1310.74 587.648C1310.06 588.104 1309.13 587.937 1308.67 587.287C1308.21 586.61 1308.38 585.679 1309.03 585.212C1312.46 582.821 1315.75 580.306 1318.5 578.144C1318.94 577.81 1319.52 577.733 1320.01 577.942L1320.03 577.981ZM1295.06 593.964C1295.39 594.103 1295.7 594.363 1295.83 594.741C1296.15 595.493 1295.81 596.381 1295.06 596.709C1293.31 597.487 1291.53 598.187 1289.77 598.765C1287.73 599.455 1285.65 600.027 1283.54 600.521C1282.75 600.705 1281.93 600.197 1281.75 599.41C1281.56 598.622 1282.07 597.803 1282.86 597.619C1284.87 597.145 1286.87 596.604 1288.8 595.935C1290.46 595.376 1292.16 594.708 1293.86 593.974C1294.25 593.816 1294.67 593.802 1295.03 593.952L1295.06 593.964ZM1266.11 599.353C1266.66 599.584 1267.04 600.133 1267.03 600.773C1267 601.601 1266.31 602.245 1265.51 602.23C1261.68 602.127 1257.75 601.791 1253.49 601.183C1252.67 601.062 1252.11 600.311 1252.23 599.49C1252.35 598.67 1253.1 598.115 1253.92 598.236C1258.07 598.825 1261.89 599.182 1265.6 599.265C1265.79 599.28 1265.97 599.295 1266.14 599.364L1266.11 599.353ZM1236.79 594.704C1237.45 594.982 1237.84 595.729 1237.63 596.449C1237.43 597.235 1236.61 597.727 1235.82 597.524C1232.45 596.646 1228.77 595.641 1224.32 594.339C1223.53 594.069 1223.09 593.271 1223.32 592.496C1223.55 591.722 1224.36 591.257 1225.16 591.499C1229.59 592.79 1233.23 593.811 1236.57 594.677C1236.66 594.712 1236.71 594.735 1236.77 594.758L1236.79 594.704ZM1208.23 586.408C1208.92 586.697 1209.3 587.472 1209.09 588.192C1208.86 588.966 1208.05 589.431 1207.25 589.189C1202.8 587.887 1199.19 586.877 1195.83 586.038C1195.04 585.835 1194.55 585.014 1194.76 584.228C1194.96 583.442 1195.78 582.95 1196.57 583.153C1199.95 584.003 1203.59 585.024 1208.11 586.322C1208.16 586.346 1208.22 586.369 1208.27 586.392L1208.23 586.408ZM1179.26 579.711C1179.87 579.966 1180.24 580.608 1180.15 581.28C1180.03 582.101 1179.28 582.655 1178.48 582.546C1174.33 581.984 1170.53 581.667 1166.83 581.622C1166.02 581.634 1165.35 580.93 1165.36 580.13C1165.39 579.302 1166.05 578.646 1166.86 578.662C1170.68 578.698 1174.62 579.007 1178.88 579.615C1179 579.634 1179.15 579.664 1179.26 579.711ZM1149.76 580.764C1150.17 580.938 1150.5 581.303 1150.62 581.775C1150.83 582.574 1150.34 583.366 1149.54 583.576C1146.68 584.305 1143.9 585.228 1141.24 586.397C1140.37 586.772 1139.53 587.159 1138.69 587.546C1137.95 587.913 1137.05 587.597 1136.69 586.86C1136.32 586.124 1136.64 585.225 1137.36 584.885C1138.25 584.455 1139.13 584.053 1140.04 583.662C1142.84 582.457 1145.78 581.47 1148.78 580.706C1149.11 580.619 1149.45 580.664 1149.72 580.78L1149.76 580.764ZM1123.66 594.46C1123.88 594.553 1124.1 594.712 1124.25 594.903C1124.75 595.537 1124.64 596.49 1123.98 596.985C1120.99 599.307 1118.19 601.672 1114.85 604.523C1114.23 605.069 1113.28 604.956 1112.76 604.35C1112.21 603.731 1112.29 602.794 1112.93 602.26C1115.6 599.997 1118.91 597.201 1122.15 594.663C1122.58 594.329 1123.16 594.252 1123.66 594.46ZM1100.58 613.214C1100.83 613.318 1101.05 613.478 1101.22 613.707C1101.71 614.369 1101.54 615.299 1100.88 615.794C1100 616.423 1099.12 617.052 1098.22 617.67C1095.82 619.302 1093.26 620.837 1090.69 622.267C1089.98 622.645 1089.06 622.384 1088.68 621.675C1088.27 620.955 1088.56 620.044 1089.27 619.666C1091.78 618.306 1094.23 616.791 1096.57 615.229C1097.44 614.628 1098.29 614.053 1099.15 613.413C1099.58 613.079 1100.14 613.056 1100.6 613.253L1100.58 613.214ZM1074.23 626.74C1074.62 626.902 1074.9 627.217 1075.05 627.634C1075.31 628.39 1074.91 629.255 1074.12 629.533C1070.45 630.792 1066.58 631.932 1062.56 632.881C1061.77 633.091 1060.97 632.595 1060.76 631.796C1060.58 631.008 1061.06 630.178 1061.85 629.994C1065.77 629.038 1069.57 627.93 1073.11 626.718C1073.49 626.587 1073.84 626.605 1074.17 626.744L1074.23 626.74ZM1045.28 633.222C1045.74 633.419 1046.1 633.862 1046.16 634.405C1046.27 635.224 1045.7 635.954 1044.88 636.059C1041.13 636.538 1037.12 636.94 1032.96 637.218C1032.13 637.285 1031.42 636.663 1031.38 635.84C1031.34 635.016 1031.94 634.298 1032.76 634.259C1036.86 633.958 1040.79 633.588 1044.52 633.097C1044.8 633.053 1045.04 633.091 1045.29 633.195L1045.28 633.222ZM1015.61 635.112C1016.13 635.332 1016.52 635.853 1016.52 636.466C1016.54 637.278 1015.89 637.973 1015.05 637.973C1011.08 638.039 1007.08 638.027 1003.12 638C1002.28 638 1001.64 637.308 1001.65 636.507C1001.65 635.668 1002.35 635.024 1003.15 635.039C1007.11 635.067 1011.05 635.056 1015.01 635.017C1015.23 635.016 1015.41 635.058 1015.6 635.139L1015.61 635.112ZM985.885 634.873C986.435 635.105 986.815 635.654 986.785 636.255C986.755 637.083 986.095 637.739 985.265 637.711L973.365 637.523C972.565 637.508 971.885 636.831 971.895 636.031C971.925 635.203 972.585 634.547 973.385 634.563L985.285 634.751C985.475 634.766 985.665 634.781 985.855 634.862L985.885 634.873ZM956.125 634.623C956.645 634.843 957.035 635.365 957.035 635.978C957.045 636.79 956.395 637.484 955.555 637.485C951.605 637.523 947.645 637.562 943.685 637.628C942.865 637.64 942.175 636.991 942.165 636.179C942.155 635.367 942.795 634.673 943.615 634.661C947.575 634.595 951.545 634.528 955.525 634.501C955.725 634.489 955.935 634.542 956.125 634.623ZM926.395 635.291C926.915 635.511 927.275 636.021 927.295 636.607C927.325 637.43 926.655 638.113 925.855 638.164C921.895 638.296 917.935 638.495 913.975 638.694C913.155 638.733 912.445 638.112 912.405 637.288C912.365 636.464 912.995 635.758 913.815 635.719C917.775 635.52 921.755 635.333 925.725 635.201C925.945 635.199 926.165 635.226 926.355 635.307L926.395 635.291ZM896.695 636.876C897.185 637.085 897.565 637.567 897.615 638.137C897.655 638.961 897.065 639.678 896.235 639.717C892.285 639.982 888.345 640.287 884.395 640.618C883.585 640.696 882.855 640.063 882.805 639.267C882.735 638.432 883.355 637.726 884.155 637.675C888.105 637.344 892.065 637.051 896.025 636.786C896.265 636.757 896.495 636.823 896.715 636.915L896.695 636.876ZM867.075 639.363C867.565 639.571 867.925 640.015 867.975 640.585C868.055 641.393 867.445 642.138 866.635 642.216L864.585 642.413C861.345 642.753 858.095 643.093 854.845 643.46C854.025 643.565 853.275 642.96 853.205 642.152C853.095 641.333 853.705 640.588 854.505 640.51C857.765 640.142 861.045 639.787 864.295 639.447L866.345 639.249C866.605 639.232 866.855 639.27 867.075 639.363ZM837.555 642.962C838.025 643.159 838.365 643.563 838.455 644.117C838.565 644.937 838.025 645.678 837.185 645.811C833.295 646.392 829.375 647.028 825.505 647.714C824.705 647.859 823.925 647.335 823.785 646.504C823.645 645.701 824.165 644.921 824.995 644.788C828.915 644.086 832.825 643.45 836.785 642.864C837.065 642.82 837.335 642.869 837.585 642.974L837.555 642.962ZM808.345 648.501C808.765 648.674 809.095 649.04 809.215 649.512C809.395 650.299 808.915 651.13 808.105 651.302C804.155 652.246 800.305 653.237 796.675 654.282C795.895 654.504 795.055 654.051 794.835 653.279C794.615 652.507 795.065 651.665 795.835 651.443C799.515 650.383 803.435 649.36 807.415 648.427C807.735 648.339 808.045 648.373 808.345 648.501ZM779.895 657.069C780.255 657.22 780.555 657.507 780.695 657.925C780.985 658.692 780.585 659.557 779.825 659.846C776.095 661.243 772.425 662.756 768.915 664.339C768.165 664.667 767.295 664.335 766.935 663.599C766.605 662.847 766.935 661.986 767.675 661.619C771.255 660.032 774.965 658.503 778.765 657.075C779.145 656.944 779.525 656.946 779.855 657.085L779.895 657.069ZM568.745 576.634C569.125 576.796 569.445 577.123 569.595 577.54C570.775 581.236 572.165 584.892 573.765 588.508C574.095 589.26 573.755 590.148 572.995 590.476C572.245 590.804 571.355 590.46 571.035 589.708C569.395 586.014 567.955 582.241 566.755 578.44C566.505 577.656 566.915 576.83 567.715 576.553C568.055 576.438 568.425 576.468 568.755 576.607L568.745 576.634ZM752.995 669.684C753.265 669.8 753.535 670.009 753.705 670.305C754.105 671.026 753.885 671.933 753.165 672.338C749.775 674.327 746.425 676.432 743.225 678.662C742.545 679.118 741.615 678.951 741.155 678.301C740.695 677.624 740.865 676.694 741.515 676.226C744.765 673.953 748.175 671.777 751.645 669.757C752.065 669.517 752.555 669.499 752.965 669.672L752.995 669.684ZM581.435 603.438C581.705 603.554 581.945 603.752 582.095 604.009C584.155 607.236 586.425 610.49 588.845 613.641C589.335 614.302 589.235 615.228 588.575 615.724C587.915 616.219 586.995 616.091 586.495 615.456C584.005 612.243 581.695 608.939 579.585 605.595C579.145 604.89 579.365 603.983 580.045 603.527C580.475 603.259 580.985 603.214 581.415 603.399L581.435 603.438ZM599.945 626.633C600.135 626.715 600.285 626.811 600.415 626.963C603.095 629.711 605.935 632.462 608.935 635.149C609.545 635.697 609.595 636.653 609.045 637.261C608.495 637.869 607.565 637.928 606.935 637.369C603.915 634.643 600.995 631.857 598.275 629.059C597.715 628.468 597.725 627.535 598.295 626.938C598.735 626.51 599.395 626.402 599.915 626.622L599.945 626.633ZM729.015 687.15C729.205 687.231 729.385 687.339 729.535 687.53C730.075 688.148 730.035 689.097 729.415 689.643C726.485 692.282 723.665 695.06 721.025 697.88C720.475 698.488 719.525 698.508 718.925 697.961C718.315 697.413 718.295 696.468 718.845 695.86C721.525 692.958 724.405 690.109 727.405 687.439C727.835 687.039 728.485 686.957 728.975 687.166L729.015 687.15ZM622.305 646.225C622.305 646.225 622.515 646.318 622.605 646.419C625.655 648.743 628.895 651.082 632.215 653.323C632.895 653.773 633.075 654.721 632.595 655.391C632.145 656.072 631.205 656.253 630.535 655.776C627.205 653.496 623.905 651.134 620.795 648.786C620.135 648.282 620.015 647.357 620.515 646.698C620.945 646.138 621.675 645.959 622.275 646.214L622.305 646.225ZM647.005 662.775C647.005 662.775 647.145 662.833 647.205 662.856C650.525 664.843 653.995 666.795 657.475 668.718C658.185 669.113 658.455 670.002 658.075 670.746C657.675 671.451 656.815 671.732 656.045 671.342C652.525 669.434 649.035 667.443 645.655 665.433C644.965 665.011 644.705 664.095 645.135 663.401C645.505 662.751 646.315 662.513 646.975 662.791L647.005 662.775ZM673.195 676.819C673.195 676.819 673.255 676.842 673.275 676.854C676.825 678.613 680.405 680.318 683.975 682.023C684.735 682.374 685.045 683.248 684.685 684.003C684.335 684.758 683.555 685.168 682.705 684.715C679.105 682.999 675.535 681.295 671.985 679.535C671.245 679.156 670.935 678.283 671.315 677.539C671.655 676.811 672.515 676.53 673.225 676.831L673.195 676.819ZM700.085 689.512C700.085 689.512 700.115 689.524 700.145 689.535L710.945 694.524C711.715 694.849 712.015 695.749 711.655 696.504C711.305 697.26 710.395 697.584 709.675 697.217L698.875 692.228C698.105 691.904 697.805 691.003 698.165 690.248C698.475 689.508 699.345 689.2 700.085 689.512ZM727.035 702.135C727.035 702.135 727.095 702.158 727.115 702.17C730.705 703.913 734.255 705.673 737.795 707.46C738.545 707.839 738.815 708.728 738.445 709.444C738.065 710.188 737.095 710.423 736.455 710.09C732.915 708.303 729.395 706.556 725.835 704.823C725.075 704.472 724.785 703.571 725.145 702.855C725.485 702.127 726.325 701.834 727.065 702.146L727.035 702.135ZM753.415 715.807C753.415 715.807 753.525 715.853 753.575 715.876C757.145 717.901 760.605 719.946 763.865 721.938C764.555 722.36 764.775 723.292 764.355 723.985C763.935 724.678 763.005 724.898 762.305 724.475C759.075 722.496 755.645 720.462 752.095 718.476C751.385 718.081 751.125 717.165 751.525 716.46C751.905 715.783 752.715 715.545 753.405 715.834L753.415 715.807ZM778.525 731.718C778.525 731.718 778.715 731.8 778.815 731.873C782.105 734.235 785.325 736.695 788.335 739.129C788.985 739.661 789.085 740.574 788.545 741.221C788.015 741.868 787.105 741.966 786.455 741.434C783.465 739.04 780.325 736.614 777.055 734.264C776.385 733.787 776.235 732.85 776.715 732.18C777.115 731.608 777.875 731.413 778.505 731.68L778.525 731.718ZM709.345 709.378C709.345 709.378 709.535 709.46 709.605 709.522C710.275 709.999 710.445 710.908 709.995 711.589C707.745 714.838 705.685 718.194 703.835 721.577C703.435 722.282 702.525 722.54 701.805 722.172C701.075 721.766 700.805 720.877 701.215 720.145C703.095 716.68 705.235 713.225 707.545 709.907C707.955 709.307 708.715 709.112 709.345 709.378ZM801.275 750.832C801.435 750.901 801.615 751.01 801.745 751.162C804.715 754.158 807.405 757.171 809.775 760.139C810.275 760.773 810.165 761.726 809.535 762.233C808.895 762.74 807.945 762.628 807.435 761.993C805.145 759.088 802.505 756.164 799.645 753.241C799.045 752.666 799.065 751.706 799.655 751.148C800.095 750.72 800.755 750.612 801.275 750.832ZM818.675 774.751C818.995 774.89 819.285 775.138 819.425 775.489C820.165 777.094 820.865 778.715 821.465 780.356C822.265 782.504 822.945 784.727 823.475 786.985C823.655 787.773 823.145 788.592 822.365 788.775C821.575 788.959 820.745 788.478 820.575 787.663C820.075 785.549 819.425 783.432 818.665 781.401C818.105 779.838 817.425 778.295 816.715 776.768C816.355 776.031 816.695 775.143 817.435 774.776C817.835 774.591 818.285 774.589 818.645 774.739L818.675 774.751ZM695.975 735.817C696.685 736.118 697.055 736.921 696.805 737.656C695.555 741.388 694.525 745.184 693.815 748.948C693.665 749.757 692.855 750.288 692.055 750.113C691.265 749.937 690.715 749.158 690.895 748.361C691.675 744.46 692.715 740.542 693.985 736.69C694.255 735.9 695.115 735.486 695.875 735.743C695.905 735.755 695.955 735.778 695.985 735.79L695.975 735.817ZM823.755 803.666C824.355 803.92 824.735 804.536 824.645 805.208C824.155 809.423 823.115 813.408 821.595 817.09C821.265 817.856 820.415 818.204 819.645 817.88C818.905 817.567 818.535 816.698 818.855 815.931C820.305 812.507 821.235 808.77 821.695 804.863C821.785 804.031 822.515 803.465 823.345 803.558C823.495 803.589 823.615 803.608 823.755 803.666ZM691.195 765.053C691.715 765.273 692.115 765.794 692.115 766.408C692.145 770.363 692.535 774.27 693.185 778C693.325 778.804 692.775 779.572 691.975 779.716C691.165 779.861 690.405 779.31 690.255 778.506C689.565 774.632 689.195 770.565 689.155 766.449C689.145 765.637 689.795 764.943 690.635 764.943C690.855 764.941 691.035 764.984 691.225 765.065L691.195 765.053ZM810.305 829.363C810.525 829.455 810.715 829.603 810.865 829.794C811.395 830.439 811.295 831.365 810.665 831.872C807.575 834.441 804.025 836.559 800.105 838.194C799.355 838.522 798.485 838.152 798.165 837.372C797.835 836.62 798.205 835.744 798.985 835.427C802.635 833.902 805.925 831.934 808.755 829.581C809.195 829.22 809.785 829.143 810.275 829.351L810.305 829.363ZM697.815 793.777C698.115 793.904 698.395 794.153 698.545 794.476C700.255 797.845 702.345 801.151 704.745 804.263C705.235 804.924 705.135 805.85 704.475 806.346C703.815 806.841 702.885 806.74 702.395 806.078C699.865 802.814 697.685 799.342 695.885 795.805C695.525 795.069 695.795 794.185 696.535 793.818C696.945 793.605 697.405 793.603 697.785 793.765L697.815 793.777ZM782.805 839.27C783.295 839.479 783.675 839.961 783.705 840.558C783.745 841.382 783.125 842.088 782.305 842.127C778.425 842.361 774.355 842.287 770.175 841.874C769.365 841.792 768.765 841.084 768.825 840.24C768.915 839.435 769.615 838.831 770.465 838.897C774.455 839.295 778.395 839.378 782.115 839.141C782.355 839.112 782.585 839.178 782.775 839.259L782.805 839.27ZM716.705 816.455C716.705 816.455 716.945 816.559 717.065 816.672C719.995 819.043 723.205 821.304 726.645 823.404C727.335 823.826 727.555 824.758 727.135 825.452C726.715 826.145 725.785 826.364 725.085 825.942C721.555 823.768 718.245 821.434 715.205 818.988C714.565 818.456 714.465 817.543 714.995 816.896C715.415 816.363 716.125 816.211 716.725 816.466L716.705 816.455ZM753.445 835.543C754.125 835.833 754.515 836.608 754.295 837.355C754.065 838.129 753.225 838.582 752.455 838.352C749.505 837.46 746.575 836.447 743.725 835.309C743.045 835.02 742.335 834.718 741.615 834.417L741.125 834.209C740.355 833.885 740.015 833.027 740.335 832.26C740.655 831.493 741.515 831.145 742.285 831.47L742.775 831.678C743.465 831.968 744.145 832.257 744.835 832.547C747.595 833.65 750.425 834.656 753.295 835.513C753.355 835.536 753.405 835.559 753.465 835.582L753.445 835.543Z" fill="#e7ebf1" fill-rule="nonzero" opacity="1" stroke="none" vectornator:layerName="path"/>
</g>
</g>
</svg>
