<svg width="2756" height="779" viewBox="0 0 2756 779" fill="none" xmlns="http://www.w3.org/2000/svg">
<path d="M2.31489 778.232C1.70931 778.114 1.20516 777.638 1.08743 776.955C0.386282 772.667 0.0484708 768.451 0.0503004 764.427C0.0589623 763.58 0.727841 762.894 1.58093 762.872C2.42809 762.881 3.11454 763.55 3.13023 764.433C3.12776 768.3 3.46495 772.358 4.1411 776.452C4.28976 777.299 3.69393 778.094 2.88361 778.218C2.69008 778.243 2.50249 778.238 2.35111 778.208L2.31489 778.232ZM3.98809 747.687C3.98809 747.687 3.86696 747.663 3.8064 747.651C3.00667 747.4 2.54933 746.525 2.80022 745.725C4.06654 741.666 5.79951 737.792 7.92676 734.153C8.3534 733.419 9.31446 733.167 10.0484 733.594C10.7822 734.02 11.0342 734.982 10.6076 735.715C8.61269 739.16 6.98174 742.834 5.76285 746.651C5.51789 747.42 4.73912 747.865 3.98216 747.717L3.98809 747.687ZM20.7792 722.302C20.4461 722.237 20.1368 722.05 19.9058 721.785C19.3404 721.14 19.4393 720.153 20.0785 719.618C21.6282 718.287 23.2568 717.033 24.898 715.877C26.678 714.654 28.4824 713.466 30.3355 712.352C31.0537 711.895 32.0167 712.115 32.4675 712.863C32.9242 713.582 32.674 714.539 31.9558 714.995C30.1692 716.092 28.401 717.255 26.6571 718.454C25.0943 719.531 23.5381 720.735 22.097 721.994C21.7231 722.298 21.2274 722.421 20.8035 722.338L20.7792 722.302ZM46.9985 706.088C46.5746 706.005 46.1559 705.734 45.9243 705.312C45.5038 704.569 45.7843 703.618 46.5512 703.234C49.9987 701.362 53.6693 699.314 57.2063 697.146C57.9246 696.689 58.8816 696.939 59.3383 697.657C59.7951 698.376 59.5448 699.333 58.8266 699.789C55.2231 701.976 51.5162 704.049 48.0326 705.945C47.7126 706.133 47.3256 706.183 46.9925 706.118L46.9985 706.088ZM72.5668 689.024C72.264 688.964 71.9488 688.808 71.7178 688.543C71.1465 687.928 71.1848 686.929 71.8299 686.364C74.5429 683.909 77.3631 681.065 80.4112 677.701C80.9774 677.057 81.9576 677.029 82.6013 677.595C83.245 678.161 83.2731 679.141 82.707 679.785C79.5805 683.229 76.7181 686.126 73.9268 688.661C73.547 688.995 73.0513 689.118 72.5971 689.029L72.5668 689.024ZM93.3196 666.206C93.0774 666.159 92.8167 666.045 92.6285 665.882C91.9789 665.346 91.8901 664.354 92.4563 663.711C94.829 660.906 97.6776 657.596 100.69 654.413C101.281 653.806 102.261 653.778 102.874 654.338C103.482 654.928 103.51 655.909 102.95 656.522C99.9733 659.68 97.1668 662.935 94.8303 665.716C94.463 666.147 93.889 666.349 93.3439 666.242L93.3196 666.206ZM115.27 644.661C114.906 644.589 114.536 644.391 114.323 644.035C113.83 643.341 113.99 642.366 114.683 641.873C116.294 640.711 117.954 639.621 119.62 638.659C121.54 637.525 123.532 636.501 125.573 635.549C126.334 635.195 127.274 635.536 127.628 636.297C127.982 637.058 127.641 637.997 126.88 638.351C124.941 639.26 123.021 640.236 121.204 641.327C119.641 642.247 118.053 643.288 116.485 644.395C116.123 644.639 115.693 644.744 115.3 644.667L115.27 644.661ZM143.516 633.025C142.911 632.907 142.407 632.431 142.283 631.778C142.134 630.931 142.7 630.13 143.516 629.975C147.428 629.264 151.486 628.769 155.944 628.479C156.803 628.427 157.526 629.072 157.578 629.931C157.63 630.79 156.985 631.512 156.126 631.564C151.795 631.848 147.84 632.3 144.055 633.005C143.861 633.03 143.668 633.055 143.486 633.019L143.516 633.025ZM174.279 631.503C173.552 631.36 172.993 630.685 173.05 629.91C173.089 629.069 173.818 628.394 174.66 628.433C178.273 628.606 182.219 628.844 187.019 629.218C187.878 629.323 188.493 630.041 188.423 630.876C188.354 631.712 187.631 632.356 186.765 632.281C181.995 631.913 178.085 631.65 174.503 631.483C174.412 631.466 174.351 631.454 174.291 631.442L174.279 631.503ZM205.039 633.847C204.282 633.698 203.729 632.993 203.786 632.218C203.855 631.383 204.579 630.738 205.444 630.813C210.244 631.187 214.124 631.444 217.712 631.581C218.554 631.62 219.228 632.349 219.189 633.19C219.15 634.031 218.421 634.706 217.58 634.667C213.961 634.524 210.051 634.262 205.184 633.906C205.124 633.895 205.063 633.883 205.003 633.871L205.039 633.847ZM235.883 634.478C235.217 634.347 234.7 633.775 234.649 633.073C234.597 632.214 235.242 631.491 236.07 631.433C240.407 631.119 244.339 630.631 248.099 629.89C248.921 629.705 249.753 630.277 249.907 631.093C250.056 631.939 249.521 632.746 248.704 632.901C244.811 633.679 240.747 634.204 236.288 634.494C236.161 634.501 236.004 634.501 235.883 634.478ZM265.617 627.126C265.163 627.037 264.751 626.737 264.525 626.284C264.141 625.517 264.476 624.608 265.243 624.223C267.99 622.875 270.616 621.346 273.066 619.593C273.868 619.027 274.64 618.455 275.413 617.883C276.082 617.354 277.063 617.483 277.592 618.153C278.121 618.822 277.992 619.803 277.328 620.302C276.514 620.928 275.706 621.525 274.867 622.115C272.279 623.935 269.508 625.561 266.621 626.977C266.307 627.136 265.956 627.161 265.654 627.102L265.617 627.126ZM289.203 607.662C288.961 607.614 288.701 607.5 288.512 607.338C287.863 606.802 287.774 605.81 288.34 605.166C290.875 602.173 293.223 599.174 296.004 595.569C296.516 594.883 297.508 594.794 298.163 595.3C298.849 595.811 298.974 596.779 298.432 597.459C296.205 600.324 293.436 603.869 290.69 607.135C290.323 607.566 289.749 607.768 289.203 607.662ZM308.639 583.706C308.366 583.653 308.105 583.539 307.893 583.34C307.249 582.774 307.221 581.794 307.787 581.15C308.546 580.324 309.305 579.498 310.095 578.678C312.185 576.509 314.452 574.406 316.761 572.406C317.401 571.871 318.393 571.94 318.928 572.579C319.494 573.224 319.395 574.211 318.756 574.746C316.494 576.661 314.33 578.721 312.288 580.805C311.534 581.601 310.787 582.366 310.058 583.198C309.691 583.629 309.129 583.771 308.614 583.67L308.639 583.706ZM332.516 564.361C332.092 564.278 331.734 564.02 331.496 563.627C331.07 562.915 331.29 561.952 332.038 561.501C335.491 559.442 339.18 557.46 343.057 555.641C343.824 555.257 344.733 555.592 345.117 556.359C345.471 557.12 345.161 558.066 344.4 558.42C340.619 560.226 337.002 562.159 333.658 564.145C333.302 564.358 332.945 564.414 332.582 564.343L332.516 564.361ZM360.54 551.613C360.025 551.513 359.564 551.139 359.386 550.602C359.105 549.792 359.525 548.931 360.334 548.649C364.044 547.364 368.033 546.101 372.191 544.934C373.025 544.689 373.874 545.17 374.089 545.998C374.304 546.826 373.854 547.681 373.026 547.896C368.928 549.074 365.012 550.288 361.332 551.58C361.061 551.684 360.807 551.697 360.534 551.644L360.54 551.613ZM390.259 543.379C389.684 543.266 389.173 542.82 389.044 542.198C388.859 541.375 389.37 540.532 390.222 540.353C394.236 539.441 398.299 538.602 402.326 537.787C403.178 537.608 403.979 538.174 404.134 538.99C404.313 539.842 403.747 540.643 402.931 540.798C398.904 541.613 394.902 542.464 390.894 543.346C390.664 543.395 390.477 543.39 390.265 543.348L390.259 543.379ZM420.501 537.29C419.895 537.171 419.391 536.695 419.292 536.078C419.143 535.232 419.678 534.425 420.525 534.276L432.647 531.934C433.464 531.779 434.301 532.32 434.455 533.137C434.604 533.983 434.069 534.79 433.252 534.945L421.13 537.287C420.936 537.312 420.743 537.337 420.531 537.296L420.501 537.29ZM450.773 531.207C450.197 531.094 449.687 530.648 449.558 530.026C449.373 529.204 449.884 528.36 450.736 528.181C454.744 527.3 458.753 526.418 462.767 525.507C463.589 525.322 464.432 525.833 464.617 526.655C464.802 527.477 464.291 528.32 463.469 528.505C459.455 529.417 455.44 530.329 451.402 531.204C451.203 531.259 450.985 531.248 450.773 531.207ZM480.817 524.199C480.242 524.086 479.762 523.647 479.627 523.054C479.411 522.226 479.953 521.389 480.75 521.168C484.746 520.189 488.723 519.145 492.701 518.1C493.529 517.885 494.378 518.365 494.593 519.193C494.808 520.021 494.327 520.871 493.499 521.086C489.522 522.131 485.515 523.169 481.519 524.148C481.289 524.197 481.065 524.216 480.853 524.175L480.817 524.199ZM510.634 516.266C510.089 516.16 509.603 515.75 509.432 515.182C509.216 514.354 509.667 513.499 510.495 513.284C514.454 512.172 518.388 511.025 522.329 509.847C523.132 509.596 524.012 510.082 524.233 510.88C524.478 511.714 523.998 512.563 523.2 512.784C519.259 513.962 515.295 515.104 511.336 516.215C511.1 516.295 510.852 516.277 510.61 516.23L510.634 516.266ZM540.187 507.433C539.642 507.326 539.181 506.953 539.009 506.385C538.758 505.581 539.214 504.696 540.018 504.445L542.06 503.807C545.281 502.771 548.502 501.736 551.729 500.67C552.539 500.388 553.424 500.844 553.675 501.648C553.957 502.458 553.501 503.343 552.697 503.594C549.47 504.66 546.213 505.72 542.992 506.756L540.949 507.394C540.683 507.467 540.429 507.481 540.187 507.433ZM569.391 497.494C568.876 497.393 568.439 497.056 568.231 496.512C567.949 495.703 568.339 494.836 569.155 494.524C572.985 493.105 576.828 491.625 580.615 490.103C581.401 489.785 582.304 490.15 582.616 490.966C582.933 491.751 582.568 492.654 581.752 492.966C577.928 494.513 574.086 495.992 570.189 497.43C569.917 497.534 569.633 497.541 569.36 497.488L569.391 497.494ZM597.867 485.652C597.412 485.563 597 485.262 596.774 484.809C596.42 484.048 596.731 483.103 597.522 482.755C601.333 480.954 605.022 479.13 608.494 477.295C609.231 476.905 610.182 477.185 610.572 477.922C610.963 478.658 610.682 479.609 609.945 480C606.437 481.859 602.675 483.732 598.834 485.527C598.52 485.686 598.2 485.717 597.867 485.652ZM624.933 470.893C624.539 470.816 624.175 470.587 623.938 470.195C623.481 469.477 623.701 468.514 624.419 468.057C627.902 465.846 631.311 463.527 634.539 461.172C635.232 460.679 636.177 460.833 636.706 461.503C637.199 462.196 637.046 463.141 636.376 463.67C633.082 466.043 629.636 468.387 626.082 470.646C625.725 470.859 625.332 470.94 624.969 470.868L624.933 470.893ZM856.462 507.608C856.038 507.525 855.649 507.261 855.412 506.868C853.425 503.367 851.233 499.951 848.835 496.62C848.342 495.927 848.502 494.952 849.196 494.459C849.89 493.966 850.864 494.125 851.357 494.819C853.804 498.222 856.069 501.746 858.098 505.351C858.519 506.093 858.275 507.02 857.526 507.471C857.206 507.66 856.819 507.71 856.456 507.638L856.462 507.608ZM649.563 452.356C649.261 452.297 648.945 452.141 648.714 451.875C648.149 451.23 648.181 450.262 648.826 449.696C651.847 446.955 654.794 444.105 657.572 441.159C658.162 440.552 659.142 440.524 659.756 441.084C660.363 441.675 660.391 442.655 659.831 443.268C657.012 446.269 654.016 449.203 650.923 451.993C650.543 452.328 650.048 452.451 649.594 452.362L649.563 452.356ZM837.871 483.093C837.568 483.034 837.283 482.883 837.076 482.654C834.299 479.816 831.299 476.996 828.178 474.31C827.534 473.744 827.439 472.782 828.006 472.138C828.572 471.495 829.528 471.43 830.177 471.966C833.383 474.7 836.438 477.562 839.288 480.509C839.89 481.13 839.857 482.098 839.267 482.706C838.881 483.07 838.38 483.224 837.895 483.129L837.871 483.093ZM814.138 463.481C813.926 463.44 813.751 463.374 813.587 463.248C810.28 461.028 806.81 458.84 803.195 456.749C802.461 456.322 802.209 455.361 802.636 454.627C803.062 453.893 803.993 453.635 804.758 454.068C808.397 456.195 811.957 458.401 815.319 460.663C816.011 461.144 816.202 462.093 815.745 462.821C815.39 463.349 814.744 463.6 814.169 463.487L814.138 463.481ZM670.195 429.515C669.983 429.473 669.777 429.401 669.589 429.239C668.903 428.727 668.748 427.754 669.259 427.068C671.666 423.766 673.94 420.345 676.025 416.917C676.452 416.183 677.407 415.962 678.141 416.388C678.875 416.815 679.097 417.77 678.67 418.504C676.566 422.022 674.245 425.529 671.766 428.879C671.417 429.377 670.776 429.597 670.231 429.49L670.195 429.515ZM787.265 448.348C787.265 448.348 787.023 448.301 786.914 448.216C783.319 446.507 779.53 444.822 775.687 443.252C774.9 442.94 774.515 442.016 774.856 441.234C775.168 440.446 776.092 440.061 776.874 440.403C780.741 442.009 784.59 443.706 788.246 445.428C789.022 445.8 789.346 446.712 788.974 447.488C788.656 448.149 787.962 448.484 787.296 448.354L787.265 448.348ZM758.652 436.804C758.652 436.804 758.501 436.774 758.44 436.763C754.641 435.453 750.703 434.21 746.759 432.998C745.959 432.747 745.496 431.902 745.722 431.066C745.973 430.266 746.788 429.797 747.654 430.029C751.635 431.217 755.597 432.496 759.457 433.818C760.251 434.099 760.708 434.975 760.427 435.768C760.188 436.507 759.415 436.922 758.688 436.78L758.652 436.804ZM729.071 428.12C729.071 428.12 729.01 428.108 728.98 428.102C725 427.072 721.009 426.102 717.017 425.132C716.175 424.935 715.676 424.114 715.872 423.272C716.068 422.431 716.78 421.847 717.731 422.127C721.753 423.103 725.744 424.073 729.724 425.104C730.56 425.331 731.059 426.152 730.833 426.988C730.643 427.799 729.827 428.268 729.04 428.114L729.071 428.12ZM699.065 420.957C699.065 420.957 699.035 420.951 699.005 420.945L686.97 418.18C686.123 418.014 685.629 417.163 685.825 416.321C686.022 415.479 686.879 414.955 687.684 415.176L699.719 417.941C700.567 418.107 701.06 418.958 700.864 419.8C700.704 420.617 699.883 421.117 699.065 420.957ZM669.012 413.878C669.012 413.878 668.952 413.866 668.921 413.86C664.906 412.854 660.926 411.823 656.952 410.762C656.116 410.536 655.653 409.691 655.873 408.885C656.1 408.049 657.036 407.603 657.751 407.806C661.725 408.867 665.674 409.892 669.66 410.892C670.501 411.089 670.995 411.94 670.774 412.745C670.584 413.557 669.799 414.032 668.982 413.872L669.012 413.878ZM639.317 405.612C639.317 405.612 639.196 405.588 639.135 405.576C635.082 404.28 631.132 402.94 627.399 401.612C626.605 401.331 626.184 400.431 626.465 399.637C626.746 398.844 627.646 398.422 628.44 398.704C632.142 400.026 636.063 401.359 640.092 402.62C640.891 402.871 641.349 403.746 641.098 404.546C640.853 405.315 640.08 405.73 639.323 405.582L639.317 405.612ZM610.435 394.801C610.435 394.801 610.223 394.76 610.108 394.706C606.258 393.009 602.463 391.197 598.892 389.366C598.122 388.964 597.828 388.057 598.23 387.287C598.632 386.517 599.539 386.223 600.309 386.625C603.856 388.42 607.56 390.214 611.379 391.905C612.161 392.247 612.516 393.165 612.174 393.947C611.886 394.614 611.156 394.974 610.459 394.837L610.435 394.801ZM685.432 402.756C685.432 402.756 685.22 402.715 685.135 402.667C684.353 402.325 683.992 401.437 684.303 400.649C685.892 396.873 687.274 393.025 688.432 389.196C688.683 388.397 689.559 387.939 690.364 388.16C691.194 388.417 691.658 389.262 691.401 390.092C690.225 394.012 688.789 397.975 687.152 401.836C686.859 402.533 686.128 402.893 685.432 402.756ZM583.262 380.238C583.08 380.203 582.874 380.131 582.71 380.004C579.064 377.593 575.683 375.107 572.654 372.596C572.004 372.061 571.915 371.069 572.451 370.419C572.987 369.769 573.979 369.681 574.629 370.216C577.573 372.679 580.875 375.086 584.406 377.444C585.134 377.901 585.319 378.88 584.838 379.572C584.483 380.1 583.837 380.351 583.262 380.238ZM560.505 359.654C560.142 359.583 559.803 359.391 559.583 359.065C558.488 357.593 557.429 356.097 556.473 354.558C555.2 352.548 554.042 350.435 553.023 348.255C552.669 347.494 553.01 346.554 553.771 346.2C554.532 345.846 555.477 346.157 555.825 346.948C556.777 348.99 557.893 351 559.092 352.901C560 354.368 561.01 355.792 562.057 357.192C562.586 357.861 562.426 358.836 561.757 359.365C561.389 359.639 560.929 359.737 560.536 359.66L560.505 359.654ZM693.383 373.063C692.596 372.909 692.048 372.173 692.142 371.373C692.621 367.317 692.853 363.244 692.782 359.269C692.761 358.416 693.466 357.705 694.313 357.714C695.16 357.723 695.877 358.397 695.868 359.244C695.909 363.371 695.684 367.571 695.211 371.754C695.106 372.614 694.328 373.216 693.498 373.117C693.468 373.111 693.407 373.099 693.377 373.093L693.383 373.063ZM549.19 331.376C548.524 331.246 548.002 330.703 547.951 330.002C547.552 325.616 547.758 321.35 548.522 317.286C548.688 316.439 549.485 315.903 550.333 316.069C551.15 316.229 551.716 317.031 551.55 317.879C550.809 321.664 550.656 325.658 551.023 329.723C551.105 330.588 550.491 331.316 549.626 331.399C549.469 331.399 549.342 331.406 549.19 331.376ZM692.006 342.36C691.431 342.247 690.92 341.802 690.791 341.179C689.909 337.171 688.689 333.285 687.234 329.636C686.917 328.851 687.312 327.954 688.098 327.636C688.883 327.318 689.78 327.714 690.098 328.499C691.62 332.287 692.871 336.336 693.783 340.507C693.968 341.329 693.457 342.173 692.605 342.352C692.375 342.401 692.187 342.396 691.976 342.354L692.006 342.36ZM557.375 302.42C557.133 302.372 556.902 302.264 556.714 302.102C556.034 301.56 555.939 300.598 556.475 299.949C559.064 296.683 562.211 293.778 565.843 291.282C566.537 290.789 567.506 290.979 567.993 291.703C568.486 292.397 568.296 293.366 567.572 293.853C564.193 296.178 561.275 298.876 558.897 301.869C558.524 302.33 557.95 302.532 557.405 302.426L557.375 302.42ZM679.174 314.602C678.841 314.537 678.501 314.345 678.276 314.049C675.826 310.991 673 308.08 669.903 305.43C669.26 304.864 669.165 303.902 669.731 303.259C670.297 302.615 671.259 302.52 671.903 303.087C675.163 305.863 678.116 308.925 680.695 312.133C681.224 312.803 681.131 313.759 680.462 314.288C680.088 314.592 679.628 314.691 679.204 314.608L679.174 314.602ZM583.19 286.504C582.645 286.397 582.159 285.988 581.993 285.389C581.778 284.561 582.259 283.712 583.087 283.497C586.973 282.435 591.121 281.643 595.458 281.172C596.292 281.084 597.057 281.674 597.17 282.544C597.258 283.379 596.668 284.144 595.797 284.256C591.654 284.703 587.639 285.457 583.916 286.489C583.68 286.569 583.432 286.551 583.22 286.51L583.19 286.504ZM655.166 295.597C655.166 295.597 654.893 295.544 654.754 295.453C651.267 293.67 647.527 292.058 643.589 290.658C642.795 290.377 642.374 289.477 642.655 288.683C642.936 287.889 643.836 287.468 644.63 287.749C648.684 289.203 652.539 290.87 656.14 292.707C656.911 293.109 657.205 294.015 656.802 294.786C656.49 295.416 655.802 295.721 655.136 295.591L655.166 295.597ZM613.791 284.038C613.034 283.89 612.481 283.184 612.544 282.379C612.613 281.544 613.367 280.906 614.203 280.975C617.386 281.252 620.577 281.657 623.707 282.207C624.464 282.355 625.252 282.509 626.039 282.663L626.584 282.77C627.432 282.936 627.967 283.733 627.801 284.58C627.635 285.428 626.839 285.964 625.991 285.798L625.446 285.691C624.689 285.543 623.932 285.395 623.175 285.247C620.135 284.714 617.042 284.297 613.949 284.038C613.888 284.026 613.828 284.014 613.767 284.002L613.791 284.038Z" fill="#C4CDDD"/>
<path d="M1057.33 589.306C1056.73 589.175 1056.24 588.688 1056.13 588.002C1055.52 583.701 1055.28 579.479 1055.36 575.456C1055.39 574.609 1056.07 573.937 1056.93 573.934C1057.78 573.96 1058.45 574.644 1058.44 575.527C1058.36 579.393 1058.61 583.458 1059.2 587.565C1059.33 588.415 1058.72 589.197 1057.9 589.304C1057.71 589.325 1057.52 589.315 1057.37 589.282L1057.33 589.306ZM1059.66 558.803C1059.66 558.803 1059.54 558.777 1059.48 558.764C1058.68 558.496 1058.25 557.611 1058.51 556.816C1059.87 552.785 1061.68 548.95 1063.89 545.357C1064.33 544.632 1065.29 544.401 1066.02 544.843C1066.74 545.285 1066.98 546.251 1066.53 546.976C1064.46 550.378 1062.76 554.015 1061.46 557.805C1061.19 558.569 1060.41 558.998 1059.65 558.833L1059.66 558.803ZM1076.99 533.782C1076.66 533.71 1076.35 533.517 1076.13 533.247C1075.57 532.59 1075.69 531.606 1076.35 531.084C1077.92 529.786 1079.58 528.568 1081.24 527.447C1083.05 526.262 1084.88 525.114 1086.76 524.039C1087.48 523.597 1088.44 523.838 1088.88 524.596C1089.32 525.324 1089.05 526.275 1088.32 526.716C1086.51 527.774 1084.72 528.899 1082.95 530.061C1081.36 531.105 1079.78 532.275 1078.31 533.503C1077.93 533.799 1077.43 533.911 1077.01 533.819L1076.99 533.782ZM1103.55 518.132C1103.13 518.04 1102.71 517.761 1102.49 517.333C1102.09 516.582 1102.39 515.637 1103.16 515.269C1106.65 513.471 1110.36 511.502 1113.94 509.41C1114.67 508.969 1115.62 509.239 1116.07 509.967C1116.51 510.695 1116.24 511.646 1115.51 512.088C1111.86 514.197 1108.11 516.19 1104.59 518.011C1104.26 518.193 1103.87 518.235 1103.54 518.162L1103.55 518.132ZM1129.48 501.618C1129.17 501.552 1128.86 501.389 1128.64 501.119C1128.08 500.492 1128.14 499.495 1128.8 498.943C1131.56 496.546 1134.44 493.764 1137.56 490.465C1138.14 489.834 1139.12 489.826 1139.75 490.406C1140.38 490.986 1140.39 491.966 1139.81 492.598C1136.61 495.974 1133.69 498.81 1130.84 501.284C1130.46 501.61 1129.96 501.723 1129.51 501.624L1129.48 501.618ZM1150.71 479.249C1150.47 479.196 1150.21 479.077 1150.03 478.91C1149.39 478.36 1149.32 477.367 1149.9 476.735C1152.33 473.981 1155.25 470.734 1158.33 467.616C1158.93 467.021 1159.91 467.014 1160.52 467.587C1161.11 468.19 1161.12 469.171 1160.55 469.772C1157.5 472.867 1154.63 476.061 1152.23 478.791C1151.85 479.214 1151.28 479.404 1150.73 479.285L1150.71 479.249ZM1173.12 458.177C1172.75 458.098 1172.39 457.892 1172.18 457.531C1171.7 456.827 1171.88 455.856 1172.59 455.378C1174.22 454.25 1175.91 453.196 1177.59 452.269C1179.54 451.177 1181.55 450.195 1183.61 449.287C1184.38 448.949 1185.31 449.31 1185.65 450.079C1185.99 450.847 1185.63 451.779 1184.86 452.116C1182.9 452.984 1180.96 453.919 1179.12 454.97C1177.54 455.857 1175.93 456.864 1174.34 457.938C1173.97 458.173 1173.54 458.269 1173.15 458.183L1173.12 458.177ZM1201.6 447.147C1201 447.016 1200.51 446.529 1200.4 445.874C1200.27 445.024 1200.85 444.235 1201.67 444.098C1205.6 443.47 1209.66 443.062 1214.13 442.867C1214.99 442.834 1215.7 443.494 1215.73 444.354C1215.76 445.214 1215.1 445.922 1214.24 445.956C1209.91 446.147 1205.94 446.514 1202.14 447.138C1201.95 447.159 1201.75 447.18 1201.57 447.141L1201.6 447.147ZM1232.39 446.282C1231.67 446.124 1231.12 445.437 1231.2 444.664C1231.25 443.823 1232 443.165 1232.84 443.221C1236.45 443.471 1240.39 443.794 1245.18 444.27C1246.04 444.394 1246.63 445.124 1246.55 445.958C1246.46 446.792 1245.72 447.42 1244.86 447.327C1240.1 446.857 1236.19 446.511 1232.62 446.268C1232.53 446.248 1232.47 446.235 1232.41 446.222L1232.39 446.282ZM1263.1 449.282C1262.34 449.118 1261.8 448.401 1261.88 447.627C1261.96 446.793 1262.7 446.165 1263.57 446.259C1268.36 446.735 1272.23 447.074 1275.81 447.287C1276.65 447.344 1277.31 448.088 1277.26 448.928C1277.2 449.768 1276.46 450.427 1275.62 450.37C1272 450.15 1268.1 449.804 1263.24 449.345C1263.18 449.332 1263.12 449.319 1263.06 449.306L1263.1 449.282ZM1293.92 450.572C1293.26 450.427 1292.75 449.844 1292.71 449.141C1292.68 448.281 1293.34 447.572 1294.17 447.532C1298.51 447.311 1302.45 446.907 1306.23 446.246C1307.06 446.079 1307.88 446.668 1308.01 447.487C1308.14 448.337 1307.59 449.132 1306.77 449.269C1302.86 449.964 1298.79 450.402 1294.32 450.597C1294.2 450.601 1294.04 450.598 1293.92 450.572ZM1323.8 443.857C1323.35 443.759 1322.95 443.449 1322.73 442.991C1322.36 442.216 1322.72 441.315 1323.49 440.947C1326.27 439.658 1328.92 438.185 1331.41 436.485C1332.23 435.936 1333.01 435.381 1333.79 434.825C1334.47 434.311 1335.45 434.461 1335.97 435.141C1336.48 435.822 1336.33 436.8 1335.66 437.284C1334.83 437.893 1334.01 438.472 1333.16 439.045C1330.53 440.809 1327.73 442.376 1324.81 443.729C1324.49 443.881 1324.14 443.899 1323.84 443.834L1323.8 443.857ZM1347.8 424.901C1347.56 424.848 1347.3 424.729 1347.12 424.562C1346.48 424.012 1346.41 423.019 1346.99 422.387C1349.59 419.449 1352 416.501 1354.86 412.956C1355.38 412.281 1356.38 412.213 1357.02 412.733C1357.7 413.259 1357.8 414.229 1357.24 414.897C1354.96 417.714 1352.11 421.199 1349.3 424.406C1348.92 424.829 1348.34 425.019 1347.8 424.901ZM1367.74 401.366C1367.47 401.306 1367.21 401.187 1367 400.984C1366.37 400.404 1366.37 399.423 1366.95 398.792C1367.72 397.982 1368.5 397.173 1369.31 396.37C1371.44 394.246 1373.75 392.192 1376.1 390.242C1376.75 389.721 1377.75 389.81 1378.27 390.461C1378.82 391.118 1378.7 392.102 1378.05 392.624C1375.75 394.49 1373.54 396.503 1371.45 398.543C1370.68 399.323 1369.92 400.072 1369.17 400.888C1368.8 401.311 1368.23 401.441 1367.72 401.329L1367.74 401.366ZM1392.03 382.535C1391.6 382.443 1391.25 382.177 1391.02 381.779C1390.61 381.058 1390.85 380.1 1391.61 379.665C1395.11 377.68 1398.84 375.778 1402.75 374.042C1403.53 373.675 1404.43 374.029 1404.8 374.804C1405.13 375.572 1404.8 376.511 1404.03 376.849C1400.22 378.574 1396.56 380.429 1393.17 382.343C1392.81 382.549 1392.46 382.597 1392.09 382.518L1392.03 382.535ZM1420.32 370.388C1419.8 370.277 1419.35 369.894 1419.19 369.352C1418.92 368.537 1419.36 367.685 1420.17 367.421C1423.91 366.214 1427.93 365.037 1432.11 363.96C1432.95 363.732 1433.79 364.231 1433.98 365.063C1434.18 365.896 1433.71 366.741 1432.88 366.939C1428.76 368.029 1424.82 369.159 1421.11 370.372C1420.84 370.47 1420.58 370.478 1420.31 370.419L1420.32 370.388ZM1450.2 362.79C1449.63 362.665 1449.13 362.209 1449.02 361.584C1448.85 360.758 1449.38 359.926 1450.23 359.765C1454.27 358.939 1458.35 358.186 1462.39 357.458C1463.24 357.297 1464.03 357.879 1464.17 358.699C1464.33 359.555 1463.75 360.344 1462.93 360.481C1458.89 361.21 1454.87 361.975 1450.84 362.771C1450.61 362.815 1450.42 362.806 1450.21 362.76L1450.2 362.79ZM1480.57 357.349C1479.97 357.217 1479.47 356.73 1479.39 356.112C1479.26 355.262 1479.81 354.467 1480.66 354.336L1492.83 352.253C1493.65 352.116 1494.47 352.675 1494.61 353.494C1494.74 354.344 1494.19 355.139 1493.37 355.276L1481.2 357.359C1481 357.38 1480.81 357.401 1480.6 357.355L1480.57 357.349ZM1510.96 351.914C1510.39 351.789 1509.89 351.332 1509.78 350.707C1509.61 349.881 1510.14 349.049 1510.99 348.888C1515.02 348.092 1519.05 347.297 1523.08 346.471C1523.9 346.303 1524.74 346.832 1524.9 347.658C1525.07 348.484 1524.54 349.316 1523.72 349.483C1519.68 350.309 1515.65 351.135 1511.59 351.924C1511.39 351.975 1511.18 351.96 1510.96 351.914ZM1541.15 345.549C1540.58 345.424 1540.11 344.974 1539.99 344.379C1539.79 343.546 1540.35 342.721 1541.15 342.517C1545.17 341.624 1549.16 340.665 1553.16 339.705C1554 339.508 1554.83 340.006 1555.03 340.839C1555.23 341.671 1554.73 342.51 1553.9 342.707C1549.9 343.667 1545.87 344.62 1541.85 345.513C1541.62 345.557 1541.4 345.571 1541.19 345.525L1541.15 345.549ZM1571.13 338.255C1570.59 338.136 1570.11 337.717 1569.95 337.145C1569.76 336.313 1570.22 335.467 1571.06 335.27C1575.04 334.243 1579 333.18 1582.96 332.087C1583.77 331.853 1584.64 332.358 1584.84 333.16C1585.07 333.999 1584.57 334.838 1583.77 335.042C1579.8 336.135 1575.82 337.192 1571.83 338.218C1571.6 338.293 1571.35 338.271 1571.11 338.218L1571.13 338.255ZM1600.87 330.055C1600.32 329.936 1599.87 329.553 1599.71 328.982C1599.48 328.173 1599.95 327.297 1600.76 327.063L1602.82 326.469C1606.06 325.503 1609.3 324.536 1612.55 323.539C1613.37 323.275 1614.24 323.75 1614.48 324.559C1614.74 325.375 1614.26 326.25 1613.46 326.484C1610.21 327.481 1606.93 328.471 1603.69 329.438L1601.63 330.032C1601.36 330.1 1601.11 330.107 1600.87 330.055ZM1630.28 320.741C1629.76 320.63 1629.33 320.283 1629.14 319.735C1628.87 318.92 1629.28 318.062 1630.1 317.767C1633.96 316.43 1637.84 315.032 1641.66 313.592C1642.45 313.291 1643.34 313.675 1643.64 314.497C1643.94 315.289 1643.55 316.184 1642.73 316.479C1638.88 317.943 1635 319.341 1631.08 320.695C1630.8 320.793 1630.52 320.794 1630.25 320.735L1630.28 320.741ZM1659 309.51C1658.55 309.412 1658.14 309.102 1657.92 308.644C1657.59 307.876 1657.92 306.938 1658.72 306.606C1662.56 304.888 1666.29 303.143 1669.8 301.382C1670.55 301.008 1671.49 301.308 1671.87 302.053C1672.24 302.798 1671.94 303.743 1671.19 304.117C1667.65 305.902 1663.85 307.694 1659.97 309.406C1659.65 309.558 1659.33 309.582 1659 309.51ZM1686.37 295.333C1685.98 295.247 1685.62 295.011 1685.39 294.614C1684.95 293.886 1685.19 292.928 1685.92 292.486C1689.45 290.351 1692.91 288.105 1696.18 285.819C1696.89 285.341 1697.83 285.515 1698.34 286.196C1698.82 286.9 1698.65 287.841 1697.97 288.356C1694.62 290.658 1691.13 292.927 1687.53 295.11C1687.17 295.316 1686.77 295.388 1686.41 295.309L1686.37 295.333ZM1917.07 336.984C1916.64 336.892 1916.26 336.619 1916.03 336.221C1914.12 332.678 1912 329.216 1909.68 325.836C1909.2 325.131 1909.38 324.16 1910.08 323.682C1910.79 323.204 1911.76 323.384 1912.24 324.089C1914.61 327.543 1916.8 331.115 1918.75 334.762C1919.15 335.513 1918.89 336.434 1918.13 336.869C1917.81 337.051 1917.42 337.093 1917.06 337.014L1917.07 336.984ZM1711.39 277.326C1711.09 277.26 1710.78 277.097 1710.56 276.827C1710 276.17 1710.06 275.203 1710.71 274.651C1713.79 271.975 1716.8 269.189 1719.64 266.303C1720.24 265.708 1721.22 265.701 1721.82 266.274C1722.42 266.877 1722.43 267.858 1721.85 268.459C1718.97 271.399 1715.91 274.269 1712.76 276.992C1712.37 277.318 1711.88 277.431 1711.42 277.332L1711.39 277.326ZM1899 312.077C1898.7 312.011 1898.42 311.855 1898.22 311.622C1895.5 308.724 1892.56 305.841 1889.5 303.089C1888.87 302.509 1888.79 301.546 1889.37 300.914C1889.95 300.283 1890.91 300.239 1891.55 300.789C1894.69 303.59 1897.69 306.517 1900.47 309.524C1901.06 310.158 1901.01 311.125 1900.41 311.72C1900.01 312.076 1899.51 312.219 1899.03 312.114L1899 312.077ZM1875.69 291.963C1875.48 291.917 1875.31 291.848 1875.15 291.718C1871.89 289.428 1868.47 287.166 1864.9 284.998C1864.17 284.556 1863.94 283.59 1864.38 282.865C1864.83 282.141 1865.76 281.903 1866.52 282.352C1870.11 284.556 1873.62 286.838 1876.93 289.171C1877.62 289.666 1877.79 290.62 1877.31 291.338C1876.95 291.858 1876.3 292.095 1875.72 291.97L1875.69 291.963ZM1732.51 254.93C1732.3 254.884 1732.09 254.808 1731.91 254.642C1731.23 254.116 1731.1 253.139 1731.63 252.464C1734.1 249.215 1736.45 245.842 1738.61 242.46C1739.05 241.736 1740.01 241.535 1740.73 241.977C1741.46 242.419 1741.66 243.379 1741.22 244.103C1739.04 247.576 1736.64 251.032 1734.09 254.328C1733.73 254.818 1733.09 255.025 1732.55 254.907L1732.51 254.93ZM1849.15 276.26C1849.15 276.26 1848.91 276.207 1848.8 276.12C1845.24 274.334 1841.49 272.569 1837.68 270.917C1836.9 270.589 1836.54 269.657 1836.9 268.882C1837.22 268.101 1838.16 267.736 1838.93 268.094C1842.76 269.783 1846.57 271.561 1850.19 273.361C1850.96 273.749 1851.27 274.668 1850.88 275.436C1850.55 276.09 1849.84 276.411 1849.18 276.266L1849.15 276.26ZM1820.79 264.107C1820.79 264.107 1820.64 264.074 1820.58 264.061C1816.81 262.671 1812.9 261.344 1808.98 260.048C1808.19 259.78 1807.74 258.925 1807.99 258.094C1808.25 257.3 1809.08 256.848 1809.94 257.099C1813.89 258.372 1817.83 259.735 1821.66 261.139C1822.45 261.437 1822.88 262.322 1822.59 263.109C1822.33 263.843 1821.55 264.241 1820.83 264.084L1820.79 264.107ZM1791.4 254.793C1791.4 254.793 1791.34 254.78 1791.31 254.774C1787.35 253.658 1783.38 252.603 1779.41 251.548C1778.58 251.334 1778.09 250.502 1778.31 249.665C1778.52 248.827 1779.25 248.259 1780.19 248.56C1784.19 249.622 1788.16 250.677 1792.12 251.792C1792.95 252.036 1793.43 252.868 1793.19 253.699C1792.98 254.506 1792.15 254.958 1791.37 254.787L1791.4 254.793ZM1761.56 246.991C1761.56 246.991 1761.53 246.984 1761.49 246.978L1749.52 243.956C1748.68 243.772 1748.2 242.911 1748.42 242.073C1748.63 241.236 1749.5 240.73 1750.3 240.968L1762.27 243.989C1763.12 244.173 1763.59 245.035 1763.38 245.872C1763.2 246.686 1762.37 247.168 1761.56 246.991ZM1731.66 239.272C1731.66 239.272 1731.6 239.259 1731.57 239.252C1727.58 238.16 1723.62 237.045 1719.67 235.899C1718.84 235.655 1718.39 234.8 1718.63 233.999C1718.88 233.168 1719.82 232.743 1720.53 232.961C1724.48 234.107 1728.41 235.215 1732.37 236.301C1733.21 236.515 1733.68 237.376 1733.45 238.177C1733.24 238.985 1732.44 239.443 1731.63 239.265L1731.66 239.272ZM1702.15 230.374C1702.15 230.374 1702.03 230.347 1701.97 230.334C1697.94 228.951 1694.02 227.528 1690.32 226.12C1689.53 225.822 1689.13 224.914 1689.43 224.126C1689.72 223.338 1690.63 222.937 1691.42 223.235C1695.09 224.636 1698.99 226.052 1702.99 227.399C1703.78 227.666 1704.22 228.552 1703.95 229.346C1703.69 230.11 1702.91 230.508 1702.15 230.343L1702.15 230.374ZM1673.5 218.949C1673.5 218.949 1673.29 218.903 1673.18 218.846C1669.37 217.068 1665.61 215.175 1662.08 213.268C1661.32 212.849 1661.04 211.937 1661.46 211.176C1661.88 210.414 1662.79 210.14 1663.55 210.558C1667.06 212.428 1670.73 214.301 1674.51 216.073C1675.28 216.432 1675.62 217.357 1675.26 218.132C1674.96 218.792 1674.22 219.137 1673.53 218.985L1673.5 218.949ZM1748.31 228.503C1748.31 228.503 1748.1 228.458 1748.02 228.408C1747.24 228.049 1746.9 227.154 1747.23 226.373C1748.9 222.631 1750.36 218.814 1751.6 215.011C1751.87 214.216 1752.76 213.778 1753.56 214.016C1754.38 214.29 1754.83 215.145 1754.55 215.969C1753.29 219.863 1751.77 223.795 1750.05 227.62C1749.74 228.31 1749.01 228.655 1748.31 228.503ZM1646.65 203.809C1646.47 203.769 1646.26 203.693 1646.1 203.563C1642.51 201.074 1639.18 198.517 1636.21 195.942C1635.57 195.392 1635.5 194.399 1636.05 193.761C1636.6 193.123 1637.59 193.055 1638.23 193.605C1641.12 196.13 1644.37 198.607 1647.85 201.039C1648.57 201.512 1648.73 202.495 1648.24 203.176C1647.87 203.697 1647.22 203.933 1646.65 203.809ZM1624.34 182.744C1623.97 182.665 1623.64 182.465 1623.43 182.135C1622.36 180.64 1621.34 179.121 1620.41 177.562C1619.18 175.526 1618.07 173.388 1617.1 171.187C1616.76 170.418 1617.12 169.487 1617.89 169.149C1618.66 168.811 1619.6 169.142 1619.93 169.941C1620.84 172.002 1621.91 174.036 1623.07 175.962C1623.94 177.448 1624.92 178.893 1625.94 180.314C1626.45 180.995 1626.27 181.966 1625.59 182.481C1625.22 182.747 1624.76 182.836 1624.37 182.75L1624.34 182.744ZM1756.9 198.986C1756.11 198.815 1755.58 198.068 1755.69 197.271C1756.26 193.226 1756.58 189.159 1756.59 185.183C1756.59 184.33 1757.31 183.634 1758.15 183.661C1759 183.688 1759.7 184.378 1759.68 185.224C1759.63 189.351 1759.31 193.545 1758.75 197.717C1758.63 198.575 1757.84 199.16 1757.01 199.043C1756.98 199.036 1756.92 199.023 1756.89 199.017L1756.9 198.986ZM1613.63 154.23C1612.96 154.086 1612.45 153.532 1612.42 152.829C1612.11 148.437 1612.41 144.175 1613.26 140.129C1613.44 139.285 1614.25 138.767 1615.1 138.951C1615.91 139.128 1616.46 139.943 1616.27 140.787C1615.45 144.555 1615.21 148.545 1615.5 152.616C1615.56 153.483 1614.93 154.198 1614.06 154.262C1613.91 154.259 1613.78 154.263 1613.63 154.23ZM1756.18 168.261C1755.6 168.136 1755.1 167.68 1754.99 167.055C1754.19 163.028 1753.05 159.118 1751.68 155.438C1751.38 154.647 1751.79 153.758 1752.58 153.457C1753.37 153.156 1754.26 153.571 1754.56 154.363C1756.01 158.182 1757.17 162.257 1757.99 166.447C1758.16 167.273 1757.63 168.105 1756.77 168.266C1756.54 168.31 1756.36 168.301 1756.15 168.255L1756.18 168.261ZM1622.43 125.455C1622.19 125.403 1621.96 125.29 1621.77 125.123C1621.11 124.567 1621.03 123.603 1621.58 122.965C1624.24 119.755 1627.45 116.918 1631.13 114.501C1631.84 114.023 1632.8 114.233 1633.27 114.967C1633.75 115.672 1633.54 116.636 1632.81 117.108C1629.38 119.36 1626.4 121.996 1623.96 124.937C1623.58 125.39 1623 125.58 1622.46 125.462L1622.43 125.455ZM1743.94 140.236C1743.61 140.163 1743.27 139.964 1743.05 139.664C1740.67 136.554 1737.91 133.583 1734.87 130.868C1734.24 130.288 1734.16 129.325 1734.74 128.693C1735.32 128.062 1736.28 127.988 1736.92 128.568C1740.12 131.413 1743 134.537 1745.51 137.8C1746.03 138.481 1745.91 139.435 1745.23 139.95C1744.85 140.246 1744.39 140.334 1743.97 140.242L1743.94 140.236ZM1648.58 110.094C1648.03 109.976 1647.56 109.556 1647.41 108.954C1647.21 108.122 1647.71 107.283 1648.54 107.086C1652.45 106.107 1656.61 105.404 1660.96 105.025C1661.79 104.955 1662.54 105.561 1662.64 106.434C1662.71 107.271 1662.1 108.023 1661.23 108.116C1657.08 108.474 1653.05 109.143 1649.3 110.095C1649.07 110.169 1648.82 110.147 1648.61 110.101L1648.58 110.094ZM1720.34 120.722C1720.34 120.722 1720.07 120.663 1719.93 120.57C1716.49 118.713 1712.78 117.021 1708.87 115.537C1708.09 115.239 1707.68 114.33 1707.98 113.543C1708.28 112.755 1709.19 112.353 1709.98 112.651C1714 114.192 1717.82 115.94 1721.38 117.853C1722.14 118.272 1722.41 119.185 1722 119.946C1721.67 120.57 1720.98 120.86 1720.31 120.716L1720.34 120.722ZM1679.22 108.283C1678.47 108.118 1677.93 107.401 1678.01 106.597C1678.1 105.764 1678.87 105.142 1679.7 105.229C1682.88 105.574 1686.06 106.047 1689.18 106.663C1689.93 106.828 1690.71 106.999 1691.5 107.17L1692.04 107.288C1692.89 107.472 1693.4 108.28 1693.22 109.124C1693.04 109.968 1692.23 110.486 1691.38 110.302L1690.84 110.184C1690.09 110.02 1689.33 109.855 1688.58 109.691C1685.55 109.094 1682.47 108.611 1679.38 108.285C1679.32 108.272 1679.26 108.259 1679.2 108.246L1679.22 108.283Z" fill="#C4CDDD"/>
<path d="M2751.99 0.324219C2752.61 0.387941 2753.15 0.816788 2753.33 1.48673C2754.41 5.69374 2755.13 9.86247 2755.49 13.8702C2755.55 14.7147 2754.95 15.4584 2754.1 15.5566C2753.26 15.624 2752.51 15.0194 2752.42 14.141C2752.07 10.2899 2751.37 6.27782 2750.33 2.26132C2750.11 1.43157 2750.63 0.586171 2751.43 0.389627C2751.62 0.347383 2751.81 0.335805 2751.96 0.351741L2751.99 0.324219ZM2753.07 30.8967C2753.07 30.8967 2753.19 30.9095 2753.25 30.9159C2754.07 31.094 2754.61 31.925 2754.43 32.744C2753.53 36.9005 2752.15 40.9139 2750.36 44.7294C2750 45.4986 2749.07 45.8358 2748.3 45.4767C2747.53 45.1177 2747.19 44.1831 2747.55 43.4139C2749.23 39.8037 2750.52 35.9987 2751.39 32.0877C2751.57 31.2994 2752.3 30.7864 2753.07 30.866L2753.07 30.8967ZM2738.62 57.6864C2738.96 57.7215 2739.29 57.8793 2739.54 58.1228C2740.16 58.7146 2740.15 59.7062 2739.56 60.2964C2738.14 61.7616 2736.63 63.1559 2735.1 64.4548C2733.43 65.8331 2731.74 67.1774 2730 68.4541C2729.32 68.9735 2728.35 68.8408 2727.83 68.1358C2727.31 67.4615 2727.47 66.4859 2728.15 65.9666C2729.83 64.7142 2731.48 63.3972 2733.11 62.0464C2734.57 60.8332 2736.02 59.494 2737.34 58.1114C2737.68 57.775 2738.17 57.608 2738.6 57.6526L2738.62 57.6864ZM2713.96 76.1881C2714.39 76.2327 2714.84 76.4647 2715.1 76.8648C2715.59 77.5666 2715.4 78.5391 2714.67 78.9907C2711.4 81.1642 2707.93 83.5334 2704.6 86.0106C2703.93 86.5299 2702.95 86.3666 2702.43 85.6923C2701.91 85.018 2702.08 84.0422 2702.75 83.5229C2706.14 81.0214 2709.65 78.6247 2712.95 76.4237C2713.25 76.2069 2713.63 76.1224 2713.97 76.1574L2713.96 76.1881ZM2690.03 95.4785C2690.34 95.5104 2690.67 95.6375 2690.92 95.881C2691.54 96.4421 2691.6 97.4401 2691 98.0611C2688.52 100.75 2685.97 103.835 2683.23 107.46C2682.73 108.152 2681.75 108.268 2681.06 107.762C2680.37 107.255 2680.25 106.282 2680.76 105.59C2683.57 101.88 2686.16 98.7365 2688.71 95.9617C2689.06 95.5946 2689.54 95.4275 2690 95.4753L2690.03 95.4785ZM2671.41 120.067C2671.66 120.092 2671.93 120.182 2672.13 120.327C2672.82 120.803 2673 121.783 2672.49 122.474C2670.38 125.481 2667.84 129.033 2665.13 132.473C2664.59 133.131 2663.62 133.247 2662.96 132.744C2662.3 132.211 2662.19 131.237 2662.69 130.576C2665.37 127.163 2667.87 123.67 2669.95 120.69C2670.28 120.228 2670.83 119.975 2671.38 120.033L2671.41 120.067ZM2651.48 143.495C2651.85 143.533 2652.24 143.698 2652.48 144.033C2653.03 144.68 2652.96 145.665 2652.32 146.218C2650.82 147.521 2649.26 148.755 2647.69 149.863C2645.88 151.164 2643.99 152.364 2642.04 153.495C2641.31 153.916 2640.35 153.661 2639.93 152.935C2639.5 152.209 2639.76 151.242 2640.49 150.822C2642.33 149.742 2644.16 148.597 2645.87 147.348C2647.35 146.292 2648.83 145.112 2650.3 143.868C2650.63 143.593 2651.05 143.451 2651.45 143.492L2651.48 143.495ZM2624.39 157.619C2625.01 157.683 2625.55 158.112 2625.73 158.751C2625.96 159.581 2625.47 160.429 2624.67 160.656C2620.84 161.716 2616.84 162.573 2612.42 163.262C2611.57 163.391 2610.8 162.814 2610.67 161.963C2610.54 161.112 2611.12 160.335 2611.97 160.206C2616.25 159.535 2620.15 158.73 2623.86 157.688C2624.05 157.645 2624.24 157.603 2624.42 157.622L2624.39 157.619ZM2593.89 161.896C2594.63 161.973 2595.25 162.595 2595.26 163.372C2595.3 164.214 2594.63 164.951 2593.79 164.988C2590.17 165.14 2586.22 165.257 2581.41 165.315C2580.54 165.287 2579.87 164.628 2579.86 163.79C2579.86 162.952 2580.52 162.245 2581.39 162.242C2586.17 162.18 2590.09 162.091 2593.67 161.936C2593.76 161.945 2593.82 161.952 2593.89 161.958L2593.89 161.896ZM2563.05 162.323C2563.81 162.403 2564.43 163.056 2564.44 163.833C2564.45 164.671 2563.78 165.377 2562.91 165.38C2558.1 165.439 2554.21 165.531 2550.63 165.717C2549.79 165.754 2549.05 165.088 2549.01 164.247C2548.97 163.405 2549.64 162.668 2550.48 162.631C2554.1 162.449 2558.02 162.359 2562.9 162.276C2562.96 162.283 2563.02 162.289 2563.08 162.295L2563.05 162.323ZM2532.27 164.463C2532.94 164.533 2533.51 165.057 2533.62 165.751C2533.75 166.602 2533.18 167.38 2532.36 167.511C2528.07 168.214 2524.19 169.052 2520.51 170.128C2519.71 170.386 2518.83 169.892 2518.61 169.093C2518.38 168.263 2518.84 167.411 2519.64 167.184C2523.45 166.059 2527.45 165.172 2531.86 164.483C2531.99 164.465 2532.15 164.45 2532.27 164.463ZM2503.32 174.453C2503.78 174.501 2504.21 174.764 2504.48 175.194C2504.93 175.924 2504.68 176.859 2503.95 177.311C2501.33 178.9 2498.86 180.659 2496.57 182.625C2495.82 183.26 2495.11 183.899 2494.39 184.538C2493.77 185.125 2492.78 185.085 2492.19 184.465C2491.61 183.846 2491.65 182.858 2492.26 182.301C2493.02 181.604 2493.77 180.938 2494.55 180.275C2496.97 178.23 2499.58 176.361 2502.33 174.692C2502.63 174.506 2502.97 174.449 2503.28 174.481L2503.32 174.453ZM2481.57 195.956C2481.82 195.982 2482.09 196.072 2482.29 196.217C2482.98 196.692 2483.16 197.672 2482.66 198.364C2480.4 201.573 2478.33 204.77 2475.88 208.611C2475.44 209.34 2474.46 209.517 2473.76 209.073C2473.03 208.625 2472.82 207.672 2473.3 206.946C2475.26 203.893 2477.7 200.114 2480.14 196.614C2480.47 196.152 2481.02 195.899 2481.57 195.956ZM2464.36 221.56C2464.64 221.588 2464.91 221.678 2465.14 221.857C2465.83 222.363 2465.95 223.337 2465.44 224.029C2464.76 224.92 2464.08 225.811 2463.37 226.698C2461.48 229.046 2459.41 231.343 2457.29 233.543C2456.7 234.133 2455.71 234.154 2455.12 233.565C2454.49 232.973 2454.5 231.982 2455.09 231.392C2457.17 229.281 2459.14 227.035 2460.99 224.777C2461.67 223.916 2462.35 223.087 2463 222.193C2463.32 221.731 2463.87 221.539 2464.39 221.594L2464.36 221.56ZM2442.32 242.969C2442.75 243.014 2443.13 243.24 2443.4 243.609C2443.89 244.28 2443.76 245.259 2443.05 245.775C2439.8 248.136 2436.3 250.441 2432.6 252.6C2431.87 253.052 2430.94 252.799 2430.49 252.07C2430.07 251.344 2430.29 250.375 2431.02 249.954C2434.62 247.815 2438.05 245.566 2441.2 243.287C2441.54 243.043 2441.89 242.955 2442.26 242.994L2442.32 242.969ZM2415.55 258.181C2416.08 258.235 2416.57 258.566 2416.79 259.085C2417.15 259.867 2416.81 260.762 2416.02 261.115C2412.44 262.728 2408.59 264.344 2404.55 265.879C2403.74 266.198 2402.85 265.796 2402.56 264.99C2402.27 264.185 2402.65 263.293 2403.45 263.004C2407.43 261.463 2411.22 259.902 2414.77 258.286C2415.03 258.158 2415.28 258.122 2415.56 258.151L2415.55 258.181ZM2386.69 269.05C2387.28 269.111 2387.82 269.509 2388.01 270.117C2388.27 270.92 2387.83 271.805 2387 272.06C2383.09 273.328 2379.11 274.529 2375.18 275.702C2374.34 275.957 2373.5 275.466 2373.27 274.667C2373.01 273.834 2373.51 272.985 2374.3 272.758C2378.24 271.585 2382.15 270.378 2386.06 269.14C2386.29 269.07 2386.48 269.059 2386.69 269.081L2386.69 269.05ZM2357.12 277.829C2357.73 277.893 2358.28 278.321 2358.43 278.927C2358.66 279.757 2358.2 280.608 2357.37 280.832L2345.5 284.253C2344.7 284.481 2343.82 284.017 2343.59 283.218C2343.37 282.388 2343.83 281.536 2344.63 281.309L2356.49 277.888C2356.68 277.846 2356.88 277.803 2357.09 277.826L2357.12 277.829ZM2327.52 286.604C2328.1 286.665 2328.65 287.063 2328.83 287.672C2329.09 288.474 2328.66 289.359 2327.82 289.614C2323.91 290.852 2320 292.09 2316.08 293.358C2315.28 293.616 2314.39 293.183 2314.14 292.38C2313.88 291.578 2314.31 290.693 2315.11 290.435C2319.03 289.166 2322.95 287.898 2326.89 286.663C2327.08 286.59 2327.3 286.582 2327.52 286.604ZM2298.22 296.28C2298.81 296.341 2299.32 296.736 2299.51 297.314C2299.8 298.119 2299.34 299.002 2298.56 299.293C2294.67 300.626 2290.8 302.024 2286.93 303.422C2286.13 303.71 2285.24 303.308 2284.95 302.502C2284.66 301.697 2285.07 300.808 2285.87 300.519C2289.74 299.122 2293.64 297.727 2297.53 296.395C2297.75 296.325 2297.97 296.286 2298.19 296.308L2298.22 296.28ZM2269.24 306.857C2269.79 306.915 2270.31 307.279 2270.53 307.829C2270.82 308.635 2270.45 309.527 2269.64 309.815C2265.8 311.278 2261.99 312.773 2258.17 314.3C2257.39 314.623 2256.47 314.217 2256.18 313.442C2255.86 312.634 2256.26 311.745 2257.04 311.453C2260.85 309.926 2264.7 308.434 2268.54 306.971C2268.77 306.871 2269.02 306.866 2269.27 306.891L2269.24 306.857ZM2240.6 318.307C2241.15 318.365 2241.64 318.695 2241.86 319.246C2242.19 320.024 2241.81 320.946 2241.03 321.269L2239.06 322.087C2235.94 323.408 2232.83 324.728 2229.71 326.079C2228.93 326.433 2228 326.058 2227.68 325.28C2227.33 324.499 2227.7 323.576 2228.48 323.253C2231.6 321.902 2234.75 320.554 2237.86 319.233L2239.84 318.415C2240.1 318.318 2240.35 318.282 2240.6 318.307ZM2212.4 330.828C2212.92 330.882 2213.39 331.178 2213.65 331.701C2214 332.482 2213.69 333.381 2212.9 333.764C2209.22 335.522 2205.52 337.341 2201.89 339.197C2201.13 339.584 2200.2 339.301 2199.82 338.516C2199.43 337.763 2199.71 336.83 2200.5 336.447C2204.17 334.563 2207.86 332.745 2211.61 330.963C2211.88 330.835 2212.16 330.802 2212.43 330.831L2212.4 330.828ZM2185.11 345.178C2185.57 345.226 2186 345.488 2186.27 345.919C2186.69 346.645 2186.47 347.614 2185.71 348.032C2182.07 350.167 2178.56 352.315 2175.27 354.455C2174.57 354.91 2173.6 354.716 2173.14 354.017C2172.69 353.319 2172.88 352.346 2173.58 351.891C2176.91 349.724 2180.49 347.521 2184.15 345.389C2184.45 345.203 2184.77 345.143 2185.11 345.178ZM2159.47 362.307C2159.87 362.348 2160.25 362.543 2160.53 362.912C2161.05 363.587 2160.91 364.566 2160.24 365.085C2156.97 367.599 2153.78 370.215 2150.78 372.85C2150.13 373.403 2149.18 373.335 2148.59 372.716C2148.04 372.069 2148.1 371.114 2148.72 370.527C2151.79 367.868 2155.01 365.225 2158.35 362.655C2158.69 362.411 2159.07 362.296 2159.44 362.334L2159.47 362.307ZM1925.58 346.52C1926.01 346.565 1926.42 346.794 1926.7 347.163C1928.99 350.472 1931.48 353.678 1934.16 356.779C1934.72 357.426 1934.65 358.411 1934 358.964C1933.35 359.518 1932.37 359.446 1931.81 358.8C1929.07 355.63 1926.5 352.323 1924.16 348.916C1923.67 348.214 1923.83 347.269 1924.54 346.753C1924.84 346.536 1925.22 346.451 1925.59 346.49L1925.58 346.52ZM2136.61 382.98C2136.91 383.011 2137.24 383.138 2137.49 383.382C2138.12 383.974 2138.17 384.941 2137.58 385.562C2134.82 388.563 2132.14 391.666 2129.63 394.849C2129.1 395.508 2128.13 395.624 2127.47 395.121C2126.81 394.587 2126.69 393.613 2127.19 392.952C2129.73 389.711 2132.45 386.519 2135.28 383.463C2135.63 383.096 2136.11 382.929 2136.57 382.976L2136.61 382.98ZM1946.3 369.268C1946.61 369.3 1946.9 369.424 1947.13 369.634C1950.15 372.212 1953.39 374.751 1956.74 377.146C1957.43 377.652 1957.61 378.601 1957.11 379.293C1956.6 379.985 1955.66 380.135 1954.96 379.659C1951.52 377.224 1948.22 374.648 1945.12 371.968C1944.46 371.404 1944.41 370.437 1944.94 369.779C1945.3 369.381 1945.78 369.183 1946.27 369.234L1946.3 369.268ZM1971.7 386.67C1971.91 386.693 1972.09 386.742 1972.27 386.854C1975.76 388.767 1979.41 390.635 1983.2 392.394C1983.97 392.753 1984.31 393.687 1983.95 394.456C1983.59 395.226 1982.68 395.566 1981.88 395.204C1978.07 393.412 1974.32 391.534 1970.77 389.583C1970.04 389.166 1969.77 388.238 1970.16 387.472C1970.46 386.914 1971.08 386.607 1971.67 386.667L1971.7 386.67ZM2118.11 407.58C2118.32 407.602 2118.53 407.656 2118.74 407.801C2119.46 408.248 2119.71 409.204 2119.26 409.933C2117.16 413.437 2115.2 417.049 2113.43 420.65C2113.07 421.419 2112.14 421.726 2111.37 421.367C2110.6 421.008 2110.3 420.076 2110.65 419.307C2112.43 415.615 2114.43 411.913 2116.6 408.354C2116.9 407.827 2117.52 407.55 2118.07 407.608L2118.11 407.58ZM1999.82 399.33C1999.82 399.33 2000.06 399.356 2000.18 399.43C2003.92 400.81 2007.84 402.148 2011.81 403.367C2012.62 403.606 2013.09 404.492 2012.82 405.302C2012.58 406.115 2011.69 406.581 2010.88 406.311C2006.89 405.058 2002.9 403.714 1999.1 402.327C1998.3 402.026 1997.89 401.147 1998.19 400.34C1998.45 399.654 1999.11 399.257 1999.79 399.327L1999.82 399.33ZM2029.35 408.26C2029.35 408.26 2029.51 408.276 2029.57 408.282C2033.47 409.245 2037.5 410.13 2041.54 410.983C2042.36 411.161 2042.9 411.961 2042.75 412.814C2042.57 413.633 2041.8 414.174 2040.91 414.02C2036.84 413.194 2032.78 412.276 2028.82 411.306C2028 411.097 2027.47 410.266 2027.68 409.451C2027.85 408.693 2028.58 408.211 2029.32 408.287L2029.35 408.26ZM2059.59 414.254C2059.59 414.254 2059.66 414.26 2059.69 414.263C2063.74 414.932 2067.81 415.54 2071.87 416.148C2072.72 416.268 2073.29 417.041 2073.18 417.897C2073.06 418.753 2072.4 419.398 2071.43 419.204C2067.33 418.593 2063.27 417.985 2059.21 417.316C2058.36 417.165 2057.79 416.393 2057.94 415.54C2058.06 414.714 2058.83 414.174 2059.63 414.257L2059.59 414.254ZM2090.12 418.695C2090.12 418.695 2090.15 418.698 2090.18 418.701L2102.42 420.375C2103.28 420.464 2103.84 421.268 2103.72 422.124C2103.6 422.98 2102.8 423.578 2101.98 423.431L2089.74 421.758C2088.88 421.668 2088.31 420.865 2088.43 420.009C2088.52 419.18 2089.29 418.609 2090.12 418.695ZM2120.69 423.048C2120.69 423.048 2120.75 423.054 2120.78 423.057C2124.87 423.699 2128.93 424.368 2132.98 425.068C2133.83 425.219 2134.37 426.019 2134.22 426.841C2134.07 427.694 2133.18 428.222 2132.45 428.084C2128.4 427.384 2124.37 426.718 2120.31 426.079C2119.46 425.96 2118.89 425.156 2119.04 424.334C2119.15 423.508 2119.89 422.965 2120.72 423.051L2120.69 423.048ZM2151.01 428.615C2151.01 428.615 2151.13 428.628 2151.19 428.634C2155.34 429.562 2159.4 430.541 2163.24 431.529C2164.05 431.738 2164.55 432.596 2164.34 433.412C2164.13 434.228 2163.28 434.728 2162.46 434.519C2158.65 433.535 2154.63 432.559 2150.5 431.665C2149.68 431.487 2149.15 430.656 2149.33 429.837C2149.5 429.048 2150.24 428.566 2151 428.646L2151.01 428.615ZM2180.74 436.79C2180.74 436.79 2180.96 436.812 2181.08 436.856C2185.06 438.2 2189 439.664 2192.73 441.167C2193.53 441.499 2193.9 442.375 2193.57 443.178C2193.24 443.981 2192.36 444.355 2191.56 444.024C2187.87 442.555 2184.02 441.1 2180.06 439.759C2179.25 439.489 2178.82 438.606 2179.09 437.797C2179.31 437.107 2180.01 436.683 2180.71 436.756L2180.74 436.79ZM2105.33 435.598C2105.33 435.598 2105.55 435.62 2105.64 435.661C2106.45 435.931 2106.89 436.783 2106.65 437.596C2105.4 441.499 2104.37 445.455 2103.56 449.373C2103.38 450.192 2102.55 450.726 2101.73 450.579C2100.88 450.397 2100.34 449.597 2100.53 448.747C2101.35 444.738 2102.42 440.662 2103.7 436.669C2103.93 435.949 2104.63 435.525 2105.33 435.598ZM2209.11 448.855C2209.3 448.874 2209.51 448.927 2209.68 449.039C2213.53 451.113 2217.12 453.285 2220.36 455.514C2221.06 455.989 2221.24 456.969 2220.76 457.664C2220.29 458.36 2219.31 458.537 2218.61 458.062C2215.46 455.873 2211.95 453.772 2208.22 451.741C2207.46 451.351 2207.19 450.392 2207.6 449.66C2207.91 449.102 2208.53 448.795 2209.11 448.855ZM2233.62 467.313C2233.99 467.352 2234.35 467.513 2234.6 467.817C2235.82 469.185 2237.01 470.58 2238.1 472.027C2239.55 473.915 2240.89 475.915 2242.1 477.995C2242.52 478.722 2242.27 479.688 2241.54 480.109C2240.81 480.529 2239.84 480.305 2239.43 479.548C2238.3 477.6 2237 475.698 2235.64 473.912C2234.6 472.533 2233.47 471.206 2232.3 469.906C2231.71 469.286 2231.78 468.301 2232.4 467.714C2232.75 467.408 2233.19 467.269 2233.59 467.31L2233.62 467.313ZM2100.08 465.886C2100.88 465.968 2101.49 466.652 2101.47 467.457C2101.35 471.539 2101.49 475.617 2101.92 479.57C2102.01 480.417 2101.38 481.189 2100.53 481.256C2099.69 481.323 2098.91 480.716 2098.84 479.871C2098.43 475.765 2098.28 471.562 2098.38 467.353C2098.4 466.487 2099.13 465.818 2099.96 465.842C2099.99 465.845 2100.05 465.852 2100.08 465.855L2100.08 465.886ZM2247.43 494.462C2248.11 494.532 2248.68 495.025 2248.79 495.72C2249.58 500.051 2249.76 504.319 2249.36 508.435C2249.27 509.294 2248.53 509.899 2247.67 509.81C2246.84 509.724 2246.2 508.975 2246.29 508.116C2246.69 504.28 2246.49 500.288 2245.75 496.273C2245.6 495.419 2246.14 494.638 2247 494.479C2247.15 494.464 2247.28 494.446 2247.43 494.462ZM2104.21 496.341C2104.79 496.401 2105.34 496.799 2105.52 497.408C2106.76 501.321 2108.32 505.081 2110.1 508.585C2110.49 509.339 2110.17 510.268 2109.42 510.655C2108.67 511.042 2107.74 510.728 2107.35 509.974C2105.5 506.339 2103.89 502.418 2102.6 498.346C2102.34 497.543 2102.78 496.658 2103.61 496.403C2103.84 496.333 2104.02 496.322 2104.24 496.344L2104.21 496.341ZM2241.88 524.036C2242.13 524.062 2242.36 524.148 2242.57 524.294C2243.29 524.772 2243.47 525.721 2243 526.417C2240.71 529.902 2237.84 533.077 2234.45 535.889C2233.8 536.442 2232.82 536.34 2232.27 535.663C2231.71 535.016 2231.81 534.034 2232.49 533.484C2235.65 530.865 2238.31 527.915 2240.41 524.721C2240.74 524.228 2241.3 523.975 2241.85 524.033L2241.88 524.036ZM2119.48 522.835C2119.82 522.87 2120.17 523.031 2120.42 523.305C2123.14 526.131 2126.21 528.776 2129.54 531.138C2130.23 531.644 2130.41 532.593 2129.9 533.285C2129.4 533.977 2128.45 534.157 2127.75 533.651C2124.26 531.179 2121.04 528.395 2118.19 525.43C2117.6 524.811 2117.6 523.85 2118.22 523.263C2118.57 522.927 2119.02 522.787 2119.45 522.832L2119.48 522.835ZM2217.6 542.205C2218.15 542.262 2218.67 542.626 2218.89 543.207C2219.18 544.013 2218.78 544.901 2217.97 545.19C2214.19 546.597 2210.13 547.758 2205.86 548.616C2205.03 548.779 2204.22 548.26 2204.03 547.403C2203.87 546.58 2204.39 545.765 2205.24 545.575C2209.33 544.758 2213.26 543.646 2216.88 542.285C2217.1 542.184 2217.35 542.179 2217.57 542.201L2217.6 542.205ZM2145.1 539.609C2145.1 539.609 2145.37 539.637 2145.52 539.715C2149.15 541.177 2153.02 542.448 2157.07 543.488C2157.89 543.697 2158.39 544.556 2158.18 545.372C2157.97 546.187 2157.11 546.688 2156.29 546.479C2152.13 545.395 2148.14 544.081 2144.38 542.575C2143.58 542.243 2143.21 541.367 2143.54 540.564C2143.79 539.908 2144.45 539.542 2145.13 539.612L2145.1 539.609ZM2187.34 547.407C2188.11 547.487 2188.72 548.14 2188.73 548.947C2188.74 549.786 2188.04 550.489 2187.21 550.495C2184.01 550.504 2180.8 550.388 2177.63 550.121C2176.86 550.041 2176.06 549.959 2175.27 549.876L2174.71 549.818C2173.85 549.729 2173.25 548.984 2173.34 548.125C2173.43 547.265 2174.17 546.66 2175.03 546.749L2175.58 546.807C2176.35 546.886 2177.12 546.966 2177.89 547.046C2180.96 547.303 2184.08 547.441 2187.18 547.422C2187.25 547.428 2187.31 547.435 2187.37 547.441L2187.34 547.407Z" fill="#C4CDDD"/>
</svg>
