<svg width="27" height="21" viewBox="0 0 27 21" fill="none" xmlns="http://www.w3.org/2000/svg">
<path d="M26.4223 3.45312L25.3921 2.42296L15.8496 11.9654C14.6568 13.1582 12.6507 13.1582 11.4579 11.9654L1.91547 2.47718L0.885314 3.50733L7.98795 10.61L0.885314 17.7126L1.91547 18.7428L9.0181 11.6401L10.4278 13.0498C11.2953 13.9173 12.4339 14.4053 13.6267 14.4053C14.8195 14.4053 15.9581 13.9173 16.8256 13.0498L18.2353 11.6401L25.3379 18.7428L26.368 17.7126L19.2654 10.61L26.4223 3.45312Z" fill="#5C00DB"/>
<path d="M24.4162 20.5862H2.99984C1.75281 20.5862 0.722656 19.556 0.722656 18.309V3.01937C0.722656 1.77234 1.75281 0.742188 2.99984 0.742188H24.4162C25.6632 0.742188 26.6934 1.77234 26.6934 3.01937V18.309C26.6934 19.556 25.6632 20.5862 24.4162 20.5862ZM2.94562 2.20609C2.51187 2.20609 2.18656 2.5314 2.18656 2.96514V18.2548C2.18656 18.6885 2.51187 19.0138 2.94562 19.0138H24.362C24.7957 19.0138 25.121 18.6885 25.121 18.2548V2.96514C25.121 2.5314 24.7957 2.20609 24.362 2.20609H2.94562Z" fill="#5C00DB"/>
</svg>
