<svg width="210" height="210" viewBox="0 0 210 210" fill="none" xmlns="http://www.w3.org/2000/svg">
<path fill-rule="evenodd" clip-rule="evenodd" d="M210 0H0V210H210V0ZM5.04492 179.848C5.04492 194.891 17.5615 207.16 32.9502 207.16C43.6719 207.16 53.542 201.047 58.1631 191.547C58.9971 189.742 59.665 187.848 60.1201 185.906C60.375 184.82 60.5625 183.723 60.6748 182.617H60.8545V169.688H93.8291C114.107 169.688 130.572 153.5 130.572 133.664C130.572 113.828 114.107 97.6836 93.8291 97.6836H60.8545V77.3633H167.584C188.221 77.3633 205 60.9141 205 40.6836C205 20.4492 188.221 4 167.584 4H89.2529C76.0186 4 63.457 9.58594 54.708 19.3516C47.3506 27.6211 43.3135 38.1328 43.3135 49.0391V60.168H32.9053C17.5166 60.168 5 72.4375 5 87.5234C5 102.613 17.5166 114.883 32.9053 114.883H43.3135V152.488H32.9502C17.5615 152.488 5.04492 164.805 5.04492 179.848ZM22.5859 179.848C22.5859 174.262 27.252 169.688 32.9502 169.688H43.2686V179.848C43.2686 185.434 38.6475 189.965 32.9502 189.965C30.2129 189.965 27.6113 188.906 25.6367 186.973C23.708 185.082 22.5859 182.484 22.5859 179.848ZM113.03 133.664C113.03 144.043 104.417 152.488 93.8291 152.488H60.8545V114.883H93.8291C104.417 114.883 113.03 123.285 113.03 133.664ZM22.541 87.5234C22.541 81.9375 27.207 77.3633 32.9053 77.3633H43.3135V97.6836H32.9053C27.207 97.6836 22.541 93.1094 22.541 87.5234ZM187.458 40.6836C187.458 51.4141 178.53 60.168 167.584 60.168H60.8545V49.0391C60.8545 33.6875 73.5957 21.1992 89.2529 21.1992H167.584C178.53 21.1992 187.458 29.9492 187.458 40.6836Z" fill="#0F0C1E"/>
</svg>
