<svg width="38" height="54" viewBox="0 0 38 54" fill="none" xmlns="http://www.w3.org/2000/svg">
<path d="M21.5039 2.84375C21.5039 1.46304 20.3846 0.34375 19.0039 0.34375C17.6232 0.34375 16.5039 1.46304 16.5039 2.84375L21.5039 2.84375ZM17.2361 52.9357C18.2124 53.912 19.7954 53.912 20.7717 52.9357L36.6816 37.0258C37.6579 36.0495 37.6579 34.4666 36.6816 33.4903C35.7053 32.514 34.1224 32.514 33.146 33.4903L19.0039 47.6324L4.86177 33.4903C3.88546 32.514 2.30255 32.514 1.32624 33.4903C0.349925 34.4666 0.349925 36.0495 1.32624 37.0258L17.2361 52.9357ZM16.5039 2.84375L16.5039 51.168L21.5039 51.168L21.5039 2.84375L16.5039 2.84375Z" fill="url(#paint0_linear_5205_6699)"/>
<defs>
<linearGradient id="paint0_linear_5205_6699" x1="18.1885" y1="2.84375" x2="18.1885" y2="51.168" gradientUnits="userSpaceOnUse">
<stop stop-color="#5C00DB"/>
<stop offset="1" stop-color="#AB74F6"/>
</linearGradient>
</defs>
</svg>
