<svg width="19" height="12" viewBox="0 0 19 12" fill="none" xmlns="http://www.w3.org/2000/svg">
<path d="M1 5.25C0.585786 5.25 0.25 5.58579 0.25 6C0.25 6.41421 0.585786 6.75 1 6.75L1 5.25ZM18.0743 6.53033C18.3672 6.23744 18.3672 5.76256 18.0743 5.46967L13.3013 0.6967C13.0084 0.403807 12.5335 0.403807 12.2406 0.6967C11.9478 0.989594 11.9478 1.46447 12.2406 1.75736L16.4833 6L12.2406 10.2426C11.9478 10.5355 11.9478 11.0104 12.2406 11.3033C12.5335 11.5962 13.0084 11.5962 13.3013 11.3033L18.0743 6.53033ZM1 6.75L17.5439 6.75L17.5439 5.25L1 5.25L1 6.75Z" fill="#F8FBFF"/>
</svg>
