<svg width="71" height="74" viewBox="0 0 71 74" fill="none" xmlns="http://www.w3.org/2000/svg">
<path fill-rule="evenodd" clip-rule="evenodd" d="M39.4136 2.25334C46.0647 2.45842 53.728 -0.734249 59.0076 3.31617C64.3818 7.43913 63.2889 15.8035 65.4455 22.2246C67.1543 27.3124 70.0041 31.9021 70.4063 37.2541C70.8281 42.8668 69.3653 48.2386 67.8072 53.6471C65.8455 60.4563 66.6774 70.4561 60.0894 73.0657C53.0801 75.8421 46.6234 67.098 39.4136 64.8942C34.6464 63.4371 29.635 63.9988 24.9406 62.3221C19.4837 60.3729 13.8587 58.5019 9.83726 54.33C5.2878 49.6104 0.638544 43.808 0.776431 37.2541C0.914232 30.7043 7.5188 26.3974 10.5472 20.5881C13.7429 14.4575 13.2734 5.79263 19.1092 2.08595C24.9216 -1.6058 32.5312 2.04113 39.4136 2.25334Z" fill="url(#paint0_linear_3314_20486)"/>
<defs>
<linearGradient id="paint0_linear_3314_20486" x1="0.0124397" y1="54.4698" x2="69.5667" y2="54.4698" gradientUnits="userSpaceOnUse">
<stop stop-color="#DD9A34"/>
<stop offset="1" stop-color="#FFD392"/>
</linearGradient>
</defs>
</svg>
