<svg width="93" height="84" viewBox="0 0 93 84" fill="none" xmlns="http://www.w3.org/2000/svg">
<path fill-rule="evenodd" clip-rule="evenodd" d="M81.9611 36.4178C87.0035 43.2702 94.3233 51.2255 92.0002 59.4099C89.6466 67.7019 78.975 70.2585 71.263 74.1082C65.4795 76.9953 59.2938 78.9309 52.8298 78.9634C47.3388 78.991 42.8062 73.8778 37.3298 74.2787C28.2413 74.944 18.0724 88.3825 11.5851 81.9826C5.00601 75.4921 20.5469 64.5785 18.3884 55.5923C16.4337 47.4545 -0.500652 46.2745 1.03176 38.0468C2.52419 30.0337 18.1875 35.3947 23.3283 29.0694C29.1487 21.908 22.4808 8.24764 29.8093 2.639C36.2144 -2.26303 46.4012 1.98952 53.341 6.09988C59.7546 9.89856 60.8798 18.652 65.9967 24.0724C70.6945 29.0489 77.905 30.9058 81.9611 36.4178Z" fill="url(#paint0_linear_3314_20481)"/>
<defs>
<linearGradient id="paint0_linear_3314_20481" x1="11.6195" y1="6.51043" x2="35.1951" y2="84.6749" gradientUnits="userSpaceOnUse">
<stop stop-color="#DD9A34"/>
<stop offset="1" stop-color="#FFD392"/>
</linearGradient>
</defs>
</svg>
