<svg width="92" height="102" viewBox="0 0 92 102" fill="none" xmlns="http://www.w3.org/2000/svg">
<path fill-rule="evenodd" clip-rule="evenodd" d="M41.9383 1.4595C49.9544 -2.36091 59.4999 4.106 67.1074 8.68646C74.6352 13.219 80.9375 19.6259 85.0271 27.4033C89.032 35.0196 93.271 44.3091 90.0303 52.2807C86.6633 60.5628 75.1023 61.5163 68.6453 67.6999C64.4416 71.7256 62.8825 77.5482 59.0611 81.9382C53.7755 88.0102 49.4721 95.5439 41.9383 98.3807C33.4852 101.564 22.8585 103.364 15.3024 98.4152C7.70056 93.4363 7.19625 82.566 4.5288 73.879C2.35251 66.7916 0.107442 59.623 1.13619 52.2807C2.09839 45.4134 5.06375 38.6518 10.1282 33.9151C14.7452 29.597 23.2064 32.015 27.6313 27.5003C34.684 20.3045 32.8427 5.79433 41.9383 1.4595Z" fill="url(#paint0_linear_3314_20479)"/>
<defs>
<linearGradient id="paint0_linear_3314_20479" x1="0.878906" y1="82.805" x2="91.1789" y2="82.805" gradientUnits="userSpaceOnUse">
<stop stop-color="#5C00DB"/>
<stop offset="1" stop-color="#AB74F6"/>
</linearGradient>
</defs>
</svg>
