<svg width="19" height="19" viewBox="0 0 19 19" fill="none" xmlns="http://www.w3.org/2000/svg">
<path d="M8.87891 5.83378L4.66016 3.72423V8.99784L8.87891 11.1072V5.83378Z" fill="#F8FBFF"/>
<path d="M9.40625 4.91817L13.6248 2.80873L9.40625 0.691406L5.18768 2.80873L9.40625 4.91817Z" fill="#F8FBFF"/>
<path d="M9.93359 5.83378V11.1072L14.1523 8.99784V3.72423L9.93359 5.83378Z" fill="#F8FBFF"/>
<path d="M10.5279 15.3759L12.7974 13.8634L11.5976 12.6636L10.0848 14.9329L10.5279 15.3759Z" fill="#F8FBFF"/>
<path d="M8.28463 15.3759L8.7277 14.9329L7.21493 12.6636L6.01508 13.8634L8.28463 15.3759Z" fill="#F8FBFF"/>
<path d="M9.40625 14.0493L11.2333 11.3086H7.57922L9.40625 14.0493Z" fill="#F8FBFF"/>
<path d="M18.4062 15V18.6914H0.40625V15C0.40625 12.9648 2.06246 11.3086 4.09766 11.3086H7.07855L4.35992 14.0272L8.41836 16.7336L9.40625 15.7457L10.3941 16.7336L14.4526 14.0272L11.7339 11.3086H14.7148C16.75 11.3086 18.4062 12.9648 18.4062 15Z" fill="#F8FBFF"/>
</svg>
