<svg width="31" height="14" viewBox="0 0 31 14" fill="none" xmlns="http://www.w3.org/2000/svg">
<g opacity="0.5">
<path d="M18.9492 11.3353C18.6689 11.3353 18.3971 11.2249 18.1976 11.0254L14.6008 7.42856C14.1846 7.01241 14.1846 6.34146 14.6008 5.9253L18.1678 2.35824C18.584 1.94209 19.2549 1.94209 19.6711 2.35824C20.0873 2.7744 20.0873 3.44535 19.6711 3.8615L16.8557 6.67693L19.7008 9.52209C20.117 9.93825 20.117 10.6092 19.7008 11.0254C19.5055 11.2249 19.2337 11.3353 18.9492 11.3353Z" fill="#4E555E"/>
<path d="M21.5013 11.9001C21.4037 11.9001 21.3102 11.8874 21.2168 11.8619C20.652 11.7048 20.3166 11.1188 20.4737 10.554L22.6904 2.51112C22.8475 1.94633 23.4335 1.61086 23.9983 1.76798C24.5631 1.9251 24.8985 2.51112 24.7414 3.0759L22.5247 11.1188C22.3974 11.5816 21.9769 11.9001 21.5013 11.9001Z" fill="#4E555E"/>
<path d="M26.2022 11.3353C25.6162 11.3353 25.1406 10.8597 25.1406 10.2695C25.1406 9.9892 25.251 9.71743 25.4506 9.51784L28.2957 6.67269L25.4803 3.8615C25.0641 3.44535 25.0641 2.7744 25.4803 2.35824C25.8965 1.94209 26.5674 1.94209 26.9836 2.35824L30.5506 5.9253C30.9668 6.33721 30.9668 7.01241 30.5549 7.42856C30.5549 7.42856 30.5549 7.42856 30.5506 7.43281L26.9538 11.0254C26.7543 11.2249 26.4825 11.3353 26.2022 11.3353Z" fill="#4E555E"/>
<path d="M10.2226 13.0608C9.63655 13.0608 9.16094 12.5852 9.16094 11.9991C9.16094 11.9991 9.16094 11.9991 9.16094 11.9949C9.16094 10.292 7.78083 8.91193 6.07374 8.91193C4.37089 8.91193 2.99078 10.292 2.99078 11.9949C2.99078 12.5809 2.51517 13.0565 1.92915 13.0565C1.34314 13.0565 0.863281 12.5852 0.863281 11.9991C0.863281 9.12001 3.19886 6.78868 6.07798 6.78868C8.95711 6.78868 11.2884 9.12426 11.2884 11.9991C11.2884 12.5852 10.8171 13.0608 10.2311 13.065C10.2311 13.065 10.2268 13.065 10.2226 13.0608Z" fill="#4E555E"/>
<path d="M6.07804 6.08511C4.4856 6.08511 3.19467 4.79417 3.19467 3.20173C3.19467 1.6093 4.4856 0.318359 6.07804 0.318359C7.67048 0.318359 8.96141 1.6093 8.96141 3.20173C8.95717 4.79417 7.66623 6.08511 6.07804 6.08511ZM6.07804 2.44586C5.66188 2.44586 5.32216 2.78558 5.32216 3.20173C5.32216 3.61789 5.66188 3.95761 6.07804 3.95761C6.4942 3.95761 6.83392 3.61789 6.83392 3.20173C6.83392 2.78558 6.4942 2.44586 6.07804 2.44586Z" fill="#4E555E"/>
</g>
</svg>
