<svg width="125" height="36" viewBox="0 0 125 36" fill="none" xmlns="http://www.w3.org/2000/svg">
<path d="M27.4682 6.81896C27.4479 6.63634 27.2855 6.55518 27.1638 6.53489C27.0421 6.5146 24.6071 6.49431 24.6071 6.49431C24.6071 6.49431 22.5578 4.5058 22.3549 4.30289C22.152 4.09999 21.7664 4.16086 21.6041 4.20144C21.6041 4.20144 21.2186 4.32318 20.5693 4.52609C20.4678 4.18115 20.3055 3.75504 20.0823 3.32893C19.3518 1.92886 18.2967 1.19839 16.9981 1.19839C16.9169 1.19839 16.8155 1.19839 16.7343 1.21868C16.6937 1.1781 16.6531 1.13752 16.6125 1.07665C16.0444 0.46792 15.3342 0.183848 14.482 0.204139C12.8182 0.244721 11.1746 1.44188 9.81511 3.59271C8.86144 5.09424 8.15126 6.98129 7.94835 8.44223C6.04101 9.03067 4.70181 9.43648 4.68152 9.45677C3.72785 9.76114 3.68727 9.78143 3.56552 10.6945C3.46407 11.3641 0.947998 30.8636 0.947998 30.8636L22.0708 34.516L31.222 32.2434C31.222 32.2434 27.4885 6.98129 27.4682 6.81896ZM19.5141 4.85075C19.0272 4.99278 18.4793 5.1754 17.8706 5.35802C17.8503 4.52609 17.7488 3.34922 17.3633 2.33468C18.6416 2.57817 19.2504 3.99853 19.5141 4.85075ZM16.7749 5.70296C15.6589 6.04791 14.4617 6.41314 13.2443 6.79867C13.5892 5.50005 14.2385 4.20144 15.0299 3.34922C15.3342 3.02457 15.74 2.67962 16.227 2.47672C16.6937 3.43039 16.7749 4.78988 16.7749 5.70296ZM14.5023 1.32014C14.8878 1.32014 15.2125 1.4013 15.4965 1.58392C15.0501 1.80712 14.6038 2.15206 14.1979 2.59846C13.1428 3.73475 12.3312 5.47976 12.0065 7.1842C10.992 7.48856 10.018 7.79292 9.10493 8.077C9.71365 5.3986 11.9456 1.4013 14.5023 1.32014Z" fill="#D1D7E1"/>
<path d="M27.1638 6.53489C27.0421 6.5146 24.6071 6.49431 24.6071 6.49431C24.6071 6.49431 22.5578 4.5058 22.3549 4.30289C22.2737 4.22173 22.1722 4.18115 22.0708 4.18115V34.516L31.222 32.2434C31.222 32.2434 27.4885 7.00158 27.4682 6.81896C27.4276 6.63634 27.2855 6.55518 27.1638 6.53489Z" fill="#D1D7E1"/>
<path d="M16.9981 11.2424L15.9429 15.2194C15.9429 15.2194 14.7661 14.6715 13.3457 14.773C11.276 14.8947 11.2558 16.1933 11.276 16.5383C11.3978 18.3239 16.0647 18.7094 16.3285 22.869C16.5314 26.1562 14.5835 28.3882 11.7833 28.5708C8.41504 28.7737 6.56857 26.8055 6.56857 26.8055L7.27875 23.7821C7.27875 23.7821 9.14551 25.1822 10.6267 25.101C11.6007 25.0402 11.9456 24.2488 11.9051 23.6807C11.763 21.3675 7.94835 21.4893 7.70486 17.6949C7.50195 14.4889 9.6122 11.2424 14.2588 10.938C16.085 10.7757 16.9981 11.2424 16.9981 11.2424Z" fill="#F8FBFF"/>
<path d="M43.6197 19.724C42.5646 19.1558 42.0167 18.6688 42.0167 17.9992C42.0167 17.147 42.7675 16.5992 43.9646 16.5992C45.3444 16.5992 46.5619 17.1673 46.5619 17.1673L47.5358 14.2048C47.5358 14.2048 46.643 13.5149 44.0255 13.5149C40.3732 13.5149 37.8368 15.6049 37.8368 18.5471C37.8368 20.2109 39.0137 21.4893 40.5964 22.4023C41.8747 23.1328 42.3211 23.6401 42.3211 24.4111C42.3211 25.2025 41.6921 25.8315 40.4949 25.8315C38.7296 25.8315 37.0657 24.9184 37.0657 24.9184L36.0309 27.8809C36.0309 27.8809 37.573 28.9157 40.15 28.9157C43.9038 28.9157 46.6025 27.0692 46.6025 23.7415C46.6227 21.9357 45.2633 20.6573 43.6197 19.724ZM58.5944 13.4744C56.7479 13.4744 55.2869 14.3469 54.1709 15.6861L54.1101 15.6658L55.713 7.26536H51.5331L47.475 28.6316H51.6549L53.0549 21.3269C53.6028 18.5674 55.0232 16.8629 56.3624 16.8629C57.2957 16.8629 57.661 17.492 57.661 18.405C57.661 18.9732 57.6001 19.6834 57.4784 20.2515L55.8957 28.6114H60.0756L61.7191 19.9674C61.9018 19.0544 62.0235 17.9586 62.0235 17.2485C62.0235 14.915 60.7655 13.4744 58.5944 13.4744ZM71.4791 13.4744C66.4469 13.4744 63.1192 18.0195 63.1192 23.0922C63.1192 26.3388 65.128 28.936 68.8818 28.936C73.8125 28.936 77.1605 24.5126 77.1605 19.3181C77.1402 16.3354 75.3749 13.4744 71.4791 13.4744ZM69.4094 25.7301C67.989 25.7301 67.3803 24.5126 67.3803 23.0111C67.3803 20.6168 68.618 16.7006 70.8906 16.7006C72.3719 16.7006 72.8588 17.9789 72.8588 19.2167C72.8588 21.7936 71.6211 25.7301 69.4094 25.7301ZM87.8335 13.4744C85.0131 13.4744 83.4101 15.9499 83.4101 15.9499H83.3492L83.5927 13.6976H79.8998C79.7171 15.2194 79.3925 17.5122 79.0475 19.237L76.146 34.5363H80.3259L81.4824 28.3476H81.5636C81.5636 28.3476 82.4158 28.8954 84.0188 28.8954C88.9292 28.8954 92.1352 23.8633 92.1352 18.7703C92.1554 15.9904 90.8974 13.4744 87.8335 13.4744ZM83.8362 25.7909C82.7405 25.7909 82.1115 25.1822 82.1115 25.1822L82.8014 21.2661C83.2883 18.6688 84.6478 16.9238 86.1088 16.9238C87.3871 16.9238 87.7726 18.1007 87.7726 19.237C87.7726 21.9357 86.1696 25.7909 83.8362 25.7909ZM98.121 7.48856C96.7818 7.48856 95.7266 8.54368 95.7266 9.92346C95.7266 11.1612 96.518 12.0134 97.6949 12.0134H97.7557C99.0543 12.0134 100.191 11.1409 100.211 9.57852C100.211 8.36107 99.3993 7.48856 98.121 7.48856ZM92.2772 28.6316H96.4571L99.2978 13.8193H95.0773L92.2772 28.6316ZM109.93 13.7787H107.029L107.171 13.0888C107.414 11.6685 108.266 10.3902 109.646 10.3902C110.397 10.3902 110.985 10.5931 110.985 10.5931L111.797 7.32623C111.797 7.32623 111.067 6.961 109.524 6.961C108.043 6.961 106.562 7.38711 105.426 8.36107C104.005 9.57852 103.336 11.3235 102.991 13.0888L102.869 13.7787H100.921L100.312 16.9238H102.26L100.049 28.6316H104.229L106.44 16.9238H109.322L109.93 13.7787ZM119.995 13.8193C119.995 13.8193 117.377 20.4138 116.2 24.0053H116.139C116.058 22.8487 115.104 13.8193 115.104 13.8193H110.722L113.238 27.4345C113.299 27.7388 113.258 27.9215 113.156 28.1244C112.67 29.0578 111.858 29.9708 110.884 30.6404C110.093 31.2086 109.22 31.5738 108.51 31.8173L109.666 35.3682C110.519 35.1856 112.264 34.4957 113.765 33.0956C115.673 31.31 117.438 28.5505 119.244 24.7967L124.357 13.8193H119.995Z" fill="#D1D7E1"/>
</svg>
