<svg width="92" height="93" viewBox="0 0 92 93" fill="none" xmlns="http://www.w3.org/2000/svg">
<path d="M13.5761 91.9699C6.68337 91.9699 1.07674 86.4729 1.07674 79.7347C1.07674 72.9965 6.68337 67.4799 13.5761 67.4799H18.2182V50.6344H13.556C6.66328 50.6344 1.05664 45.1375 1.05664 38.3796C1.05664 31.6217 6.66328 26.1247 13.556 26.1247H18.2182V21.14C18.2182 16.2538 20.0268 11.545 23.3224 7.84096C27.241 3.46704 32.8678 0.964844 38.7959 0.964844H73.8826C83.1266 0.964844 90.6423 8.33351 90.6423 17.3966C90.6423 26.4597 83.1266 33.8283 73.8826 33.8283H26.0755V42.9308H40.8457C49.9288 42.9308 57.3039 50.1615 57.3039 59.0473C57.3039 67.933 49.9288 75.1835 40.8457 75.1835H26.0755V80.976H25.9951C25.8545 82.3551 25.4525 83.7146 24.8698 84.9756C22.7999 89.2313 18.3789 91.9699 13.5761 91.9699ZM13.5761 75.1835C11.024 75.1835 8.93407 77.2325 8.93407 79.7347C8.93407 80.9169 9.43645 82.0793 10.3006 82.9265C11.1848 83.7934 12.3503 84.2663 13.5761 84.2663C16.1282 84.2663 18.1981 82.2369 18.1981 79.7347V75.1835H13.556H13.5761ZM40.8457 67.4799C45.5882 67.4799 49.4465 63.697 49.4465 59.0473C49.4465 54.3976 45.5882 50.6344 40.8457 50.6344H26.0755V67.4799H40.8457ZM13.556 33.8283C11.0039 33.8283 8.91397 35.8774 8.91397 38.3796C8.91397 40.8818 11.0039 42.9308 13.556 42.9308H18.2182V33.8283H13.556ZM73.8826 26.1247C78.7859 26.1247 82.7849 22.204 82.7849 17.3966C82.7849 12.5892 78.7859 8.66845 73.8826 8.66845H38.7959C31.7826 8.66845 26.0755 14.2639 26.0755 21.14V26.1247H73.8826Z" fill="#F8FBFF"/>
<path d="M73.8811 1.46168C82.8437 1.46168 90.1384 8.61362 90.1384 17.4009C90.1384 26.1881 82.8437 33.34 73.8811 33.34H25.5716V43.4276H40.8442C49.646 43.4276 56.8 50.4417 56.8 59.0516C56.8 67.6615 49.646 74.6952 40.8442 74.6952H25.5716V80.4877H25.5314C25.4309 82.0048 25.029 83.4628 24.4061 84.7631C22.4769 88.743 18.3372 91.4816 13.5746 91.4816C6.9431 91.4816 1.5776 86.2211 1.5776 79.739C1.5776 73.2569 6.9431 67.9767 13.5746 67.9767H18.719V50.1461H13.5545C6.9431 50.1461 1.55751 44.8659 1.55751 38.3838C1.55751 31.9018 6.9431 26.6215 13.5545 26.6215H18.719V21.1443C18.719 16.1793 20.608 11.6478 23.7027 8.18017C27.3802 4.06239 32.7859 1.46168 38.7944 1.46168H73.8811ZM25.5716 26.6215H73.8811C79.0658 26.6215 83.2858 22.4841 83.2858 17.4009C83.2858 12.3177 79.0658 8.18017 73.8811 8.18017H38.7944C31.4998 8.18017 25.5716 13.9924 25.5716 21.1443V26.6215ZM13.5545 43.4276H18.719V33.34H13.5545C10.721 33.34 8.41007 35.6058 8.41007 38.3838C8.41007 41.1619 10.721 43.4276 13.5545 43.4276ZM25.5716 67.9767H40.8442C45.868 67.9767 49.9474 63.9772 49.9474 59.0516C49.9474 54.126 45.868 50.1461 40.8442 50.1461H25.5716V67.9767ZM13.5746 84.7631C16.4081 84.7631 18.6989 82.4973 18.6989 79.739V78.9706H18.719V74.6952H13.5746C10.721 74.6952 8.43016 76.9413 8.43016 79.739C8.43016 81.1182 9.01293 82.3791 9.93732 83.2854C10.8617 84.1917 12.1478 84.7631 13.5746 84.7631ZM73.8811 0.476562H38.7944C32.7256 0.476562 26.9582 3.05757 22.9391 7.52999C19.5631 11.3128 17.7143 16.1399 17.7143 21.1443V25.6364H13.5545C6.38042 25.6364 0.552734 31.3501 0.552734 38.3838C0.552734 45.4176 6.38042 51.1312 13.5545 51.1312H17.7143V66.9916H13.5746C6.40052 66.9916 0.57283 72.7053 0.57283 79.739C0.57283 86.7727 6.40052 92.4667 13.5746 92.4667C18.5583 92.4667 23.1601 89.6099 25.3104 85.1769C25.873 84.0144 26.2548 82.7338 26.4357 81.4728H26.5362L26.5764 80.4877V75.6803H40.8442C50.1886 75.6803 57.8048 68.2132 57.8048 59.0516C57.8048 49.89 50.1886 42.4425 40.8442 42.4425H26.5764V34.3252H73.8811C83.4064 34.3252 91.1432 26.7398 91.1432 17.4009C91.1432 8.06196 83.4064 0.476562 73.8811 0.476562ZM26.5764 25.6364V21.1443C26.5764 14.544 32.0624 9.16529 38.7944 9.16529H73.8811C78.5031 9.16529 82.281 12.8693 82.281 17.4009C82.281 21.9324 78.5031 25.6364 73.8811 25.6364H26.5764ZM13.5545 42.4425C11.2636 42.4425 9.41484 40.6299 9.41484 38.3838C9.41484 36.1378 11.2636 34.3252 13.5545 34.3252H17.7143V42.4425H13.5545ZM26.5764 51.1312H40.8442C45.3054 51.1312 48.9426 54.6777 48.9426 59.0516C48.9426 63.4255 45.3054 66.9916 40.8442 66.9916H26.5764V51.1312ZM13.5746 83.778C12.4694 83.778 11.4244 83.3643 10.6407 82.5959C9.85694 81.8275 9.43494 80.8226 9.43494 79.739C9.43494 77.4929 11.2837 75.6803 13.5746 75.6803H17.7143V79.739C17.6942 81.9654 15.8454 83.778 13.5746 83.778Z" fill="#F8FBFF"/>
</svg>
