<svg width="1921" height="685" viewBox="0 0 1921 685" fill="none" xmlns="http://www.w3.org/2000/svg">
<path d="M-1493.34 513.446C-1494.09 513.166 -1494.64 512.45 -1494.65 511.549C-1494.64 505.907 -1494.18 500.434 -1493.33 495.278C-1493.14 494.194 -1492.14 493.456 -1491.04 493.608C-1489.95 493.799 -1489.22 494.801 -1489.38 495.936C-1490.2 500.89 -1490.63 506.162 -1490.63 511.55C-1490.61 512.666 -1491.55 513.559 -1492.61 513.548C-1492.86 513.539 -1493.1 513.492 -1493.29 513.422L-1493.34 513.446ZM-1484.75 474.658C-1484.75 474.658 -1484.9 474.603 -1484.97 474.575C-1485.94 474.084 -1486.34 472.866 -1485.85 471.894C-1483.37 466.96 -1480.34 462.362 -1476.84 458.149C-1476.14 457.298 -1474.85 457.178 -1474 457.88C-1473.15 458.582 -1473.03 459.867 -1473.74 460.717C-1477.02 464.71 -1479.89 469.072 -1482.25 473.706C-1482.73 474.64 -1483.82 475.046 -1484.76 474.696L-1484.75 474.658ZM-1457.87 445.677C-1458.28 445.523 -1458.64 445.219 -1458.88 444.83C-1459.47 443.884 -1459.13 442.641 -1458.2 442.09C-1455.93 440.712 -1453.58 439.45 -1451.23 438.315C-1448.69 437.123 -1446.13 435.983 -1443.52 434.946C-1442.5 434.512 -1441.32 434.998 -1440.9 436.052C-1440.46 437.069 -1440.99 438.242 -1442 438.676C-1444.52 439.703 -1447.04 440.82 -1449.52 441.988C-1451.75 443.038 -1454 444.253 -1456.11 445.561C-1456.66 445.872 -1457.32 445.925 -1457.84 445.729L-1457.87 445.677ZM-1420.85 430.439C-1421.37 430.244 -1421.85 429.808 -1422.06 429.218C-1422.44 428.178 -1421.88 427.018 -1420.82 426.688C-1416 425.018 -1410.87 423.169 -1405.88 421.137C-1404.86 420.704 -1403.69 421.226 -1403.25 422.243C-1402.82 423.26 -1403.34 424.434 -1404.36 424.867C-1409.44 426.908 -1414.63 428.781 -1419.49 430.474C-1419.94 430.649 -1420.45 430.631 -1420.86 430.477L-1420.85 430.439ZM-1384.48 413.974C-1384.85 413.834 -1385.22 413.568 -1385.46 413.179C-1386.07 412.271 -1385.81 410.999 -1384.86 410.411C-1380.87 407.837 -1376.65 404.79 -1372.03 401.122C-1371.17 400.417 -1369.91 400.588 -1369.21 401.45C-1368.5 402.311 -1368.67 403.573 -1369.53 404.278C-1374.27 408.03 -1378.55 411.139 -1382.66 413.797C-1383.22 414.145 -1383.88 414.198 -1384.44 413.988L-1384.48 413.974ZM-1353.07 389.12C-1353.37 389.008 -1353.68 388.807 -1353.88 388.559C-1354.6 387.735 -1354.51 386.445 -1353.65 385.74C-1350.01 382.647 -1345.66 379.008 -1341.13 375.566C-1340.25 374.912 -1338.98 375.083 -1338.32 375.93C-1337.66 376.815 -1337.83 378.077 -1338.68 378.745C-1343.16 382.164 -1347.45 385.741 -1351.03 388.811C-1351.59 389.286 -1352.37 389.423 -1353.04 389.172L-1353.07 389.12ZM-1320.39 366.148C-1320.84 365.981 -1321.27 365.649 -1321.47 365.147C-1321.95 364.154 -1321.54 362.938 -1320.55 362.453C-1318.24 361.304 -1315.88 360.258 -1313.55 359.377C-1310.85 358.33 -1308.08 357.438 -1305.26 356.649C-1304.21 356.356 -1303.08 356.992 -1302.79 358.041C-1302.49 359.091 -1303.13 360.223 -1304.18 360.516C-1306.85 361.272 -1309.52 362.116 -1312.08 363.13C-1314.28 363.979 -1316.53 364.977 -1318.78 366.065C-1319.29 366.301 -1319.86 366.344 -1320.35 366.162L-1320.39 366.148ZM-1281.74 357.206C-1282.49 356.926 -1283.03 356.209 -1283.05 355.346C-1283.06 354.23 -1282.17 353.323 -1281.09 353.298C-1275.93 353.212 -1270.62 353.436 -1264.85 354.005C-1263.74 354.12 -1262.95 355.099 -1263.06 356.211C-1263.18 357.322 -1264.16 358.112 -1265.27 357.997C-1270.88 357.446 -1276.04 357.189 -1281.04 357.293C-1281.29 357.284 -1281.55 357.276 -1281.77 357.192L-1281.74 357.206ZM-1241.99 361.753C-1242.9 361.417 -1243.47 360.433 -1243.23 359.453C-1243.01 358.383 -1241.93 357.673 -1240.86 357.9C-1236.27 358.885 -1231.26 360.024 -1225.19 361.517C-1224.11 361.833 -1223.47 362.883 -1223.74 363.938C-1224 364.994 -1225.07 365.667 -1226.16 365.388C-1232.19 363.909 -1237.15 362.746 -1241.7 361.776C-1241.82 361.734 -1241.89 361.706 -1241.97 361.678L-1241.99 361.753ZM-1203.07 371.254C-1204.01 370.904 -1204.57 369.883 -1204.34 368.902C-1204.07 367.847 -1203.01 367.174 -1201.91 367.453C-1195.84 368.946 -1190.93 370.094 -1186.36 371.027C-1185.29 371.255 -1184.58 372.332 -1184.8 373.402C-1185.03 374.472 -1186.11 375.182 -1187.18 374.954C-1191.79 374.007 -1196.74 372.845 -1202.9 371.362C-1202.98 371.334 -1203.05 371.305 -1203.13 371.278L-1203.07 371.254ZM-1163.68 378.578C-1164.51 378.27 -1165.05 377.427 -1164.97 376.517C-1164.85 375.406 -1163.88 374.616 -1162.8 374.717C-1157.18 375.231 -1152.04 375.436 -1147.06 375.28C-1145.97 375.217 -1145.02 376.125 -1145 377.203C-1144.99 378.319 -1145.84 379.24 -1146.92 379.266C-1152.08 379.441 -1157.39 379.255 -1163.17 378.685C-1163.33 378.667 -1163.53 378.634 -1163.68 378.578ZM-1124.03 375.439C-1124.59 375.229 -1125.06 374.757 -1125.25 374.129C-1125.58 373.065 -1124.96 371.971 -1123.9 371.64C-1120.09 370.493 -1116.4 369.088 -1112.89 367.359C-1111.75 366.804 -1110.64 366.234 -1109.53 365.664C-1108.56 365.128 -1107.33 365.5 -1106.79 366.47C-1106.25 367.44 -1106.63 368.669 -1107.58 369.168C-1108.76 369.799 -1109.92 370.392 -1111.12 370.972C-1114.82 372.757 -1118.71 374.256 -1122.71 375.46C-1123.15 375.597 -1123.6 375.556 -1123.98 375.416L-1124.03 375.439ZM-1089.7 355.48C-1090 355.368 -1090.31 355.167 -1090.51 354.919C-1091.23 354.095 -1091.14 352.805 -1090.27 352.1C-1086.39 348.799 -1082.75 345.453 -1078.43 341.42C-1077.63 340.65 -1076.34 340.745 -1075.6 341.532C-1074.83 342.332 -1074.88 343.598 -1075.71 344.355C-1079.17 347.556 -1083.47 351.514 -1087.68 355.119C-1088.24 355.594 -1089.02 355.731 -1089.7 355.48ZM-1059.73 328.888C-1060.07 328.763 -1060.38 328.562 -1060.61 328.262C-1061.31 327.4 -1061.14 326.138 -1060.28 325.433C-1059.14 324.535 -1057.99 323.637 -1056.8 322.753C-1053.67 320.416 -1050.32 318.2 -1046.94 316.125C-1046 315.574 -1044.75 315.872 -1044.2 316.804C-1043.61 317.75 -1043.94 318.994 -1044.87 319.544C-1048.18 321.521 -1051.38 323.703 -1054.44 325.942C-1055.58 326.802 -1056.69 327.625 -1057.8 328.538C-1058.37 329.012 -1059.12 329.075 -1059.75 328.837L-1059.73 328.888ZM-1025.05 309.144C-1025.57 308.948 -1025.98 308.541 -1026.2 307.988C-1026.6 306.985 -1026.11 305.798 -1025.06 305.378C-1020.2 303.469 -1015.05 301.709 -1009.7 300.197C-1008.64 299.867 -1007.54 300.488 -1007.21 301.552C-1006.92 302.602 -1007.52 303.748 -1008.57 304.041C-1013.79 305.557 -1018.83 307.27 -1023.54 309.108C-1024.04 309.306 -1024.51 309.302 -1024.96 309.134L-1025.05 309.144ZM-986.446 298.729C-987.084 298.491 -987.597 297.915 -987.711 297.188C-987.9 296.091 -987.18 295.077 -986.083 294.887C-981.058 294.023 -975.68 293.248 -970.105 292.631C-968.985 292.493 -967.998 293.288 -967.898 294.395C-967.797 295.501 -968.555 296.502 -969.661 296.603C-975.161 297.247 -980.435 297.975 -985.423 298.853C-985.794 298.929 -986.122 298.892 -986.46 298.766L-986.446 298.729ZM-946.625 294.454C-947.338 294.189 -947.898 293.51 -947.932 292.684C-947.996 291.592 -947.163 290.619 -946.033 290.57C-940.696 290.25 -935.313 290.032 -929.981 289.838C-928.851 289.789 -927.944 290.683 -927.919 291.762C-927.869 292.892 -928.763 293.799 -929.842 293.824C-935.174 294.018 -940.482 294.264 -945.804 294.547C-946.109 294.561 -946.348 294.515 -946.611 294.417L-946.625 294.454ZM-906.587 293.04C-907.338 292.761 -907.884 292.044 -907.881 291.233C-907.892 290.117 -907.036 289.196 -905.92 289.184L-889.891 288.743C-888.813 288.717 -887.854 289.588 -887.829 290.666C-887.817 291.782 -888.673 292.704 -889.752 292.729L-905.78 293.17C-906.034 293.161 -906.287 293.152 -906.55 293.054L-906.587 293.04ZM-866.512 291.64C-867.225 291.375 -867.785 290.696 -867.819 289.87C-867.882 288.778 -867.05 287.805 -865.92 287.756C-860.597 287.473 -855.275 287.19 -849.939 286.87C-848.846 286.807 -847.874 287.639 -847.811 288.732C-847.747 289.824 -848.58 290.797 -849.673 290.86C-855.009 291.181 -860.345 291.501 -865.705 291.77C-865.972 291.799 -866.249 291.738 -866.512 291.64ZM-826.533 289.007C-827.246 288.741 -827.768 288.076 -827.817 287.289C-827.917 286.182 -827.047 285.224 -825.978 285.109C-820.651 284.699 -815.334 284.201 -810.017 283.702C-808.911 283.601 -807.924 284.396 -807.823 285.503C-807.723 286.61 -808.518 287.596 -809.624 287.697C-814.942 288.196 -820.296 288.68 -825.623 289.09C-825.928 289.104 -826.218 289.081 -826.481 288.984L-826.533 289.007ZM-786.65 285.141C-787.326 284.889 -787.862 284.262 -787.962 283.497C-788.063 282.391 -787.305 281.39 -786.198 281.29C-780.891 280.702 -775.607 280.063 -770.309 279.386C-769.226 279.233 -768.202 280.043 -768.087 281.112C-767.949 282.232 -768.744 283.219 -769.813 283.333C-775.111 284.01 -780.433 284.636 -785.74 285.223C-786.059 285.275 -786.373 285.201 -786.674 285.089L-786.65 285.141ZM-746.915 280.065C-747.591 279.813 -748.103 279.237 -748.204 278.473C-748.356 277.39 -747.584 276.352 -746.501 276.199L-743.749 275.814C-739.403 275.167 -735.057 274.521 -730.697 273.836C-729.6 273.646 -728.562 274.418 -728.41 275.501C-728.22 276.598 -728.991 277.636 -730.075 277.788C-734.435 278.473 -738.832 279.143 -743.178 279.79L-745.93 280.175C-746.287 280.213 -746.615 280.177 -746.915 280.065ZM-707.394 273.498C-708.033 273.26 -708.522 272.736 -708.673 271.995C-708.863 270.898 -708.18 269.869 -707.069 269.642C-701.861 268.633 -696.625 267.548 -691.45 266.398C-690.377 266.156 -689.297 266.815 -689.069 267.926C-688.828 269 -689.487 270.08 -690.598 270.307C-695.824 271.481 -701.061 272.565 -706.358 273.585C-706.728 273.66 -707.094 273.61 -707.432 273.484L-707.394 273.498ZM-668.404 264.338C-668.967 264.128 -669.433 263.656 -669.626 263.028C-669.919 261.978 -669.321 260.832 -668.234 260.553C-662.97 259.051 -657.857 257.493 -653.021 255.875C-651.994 255.53 -650.835 256.091 -650.49 257.117C-650.146 258.143 -650.706 259.303 -651.733 259.647C-656.621 261.289 -661.837 262.895 -667.138 264.383C-667.574 264.52 -667.991 264.492 -668.404 264.338ZM-630.604 251.144C-631.092 250.962 -631.511 250.592 -631.732 250.039C-632.166 249.022 -631.68 247.835 -630.663 247.401C-625.734 245.304 -620.876 243.053 -616.242 240.717C-615.249 240.232 -614.071 240.628 -613.535 241.598C-613.049 242.591 -613.446 243.769 -614.415 244.306C-619.138 246.651 -624.048 248.926 -629.08 251.07C-629.582 251.268 -630.102 251.288 -630.553 251.12L-630.604 251.144ZM-341.681 347.098C-342.206 346.902 -342.648 346.481 -342.87 345.928C-344.676 341.022 -346.763 336.181 -349.132 331.407C-349.617 330.414 -349.207 329.199 -348.214 328.714C-347.221 328.228 -346.005 328.639 -345.52 329.632C-343.104 334.509 -340.946 339.504 -339.107 344.551C-338.725 345.591 -339.234 346.727 -340.288 347.147C-340.738 347.321 -341.244 347.303 -341.695 347.135L-341.681 347.098ZM-595.127 232.593C-595.503 232.453 -595.874 232.187 -596.114 231.798C-596.702 230.852 -596.456 229.618 -595.51 229.03C-591.06 226.156 -586.682 223.126 -582.5 219.938C-581.615 219.285 -580.353 219.455 -579.686 220.303C-579.032 221.188 -579.203 222.45 -580.05 223.117C-584.297 226.367 -588.756 229.495 -593.308 232.416C-593.865 232.764 -594.526 232.817 -595.09 232.607L-595.127 232.593ZM-360.325 311.757C-360.7 311.617 -361.034 311.365 -361.25 311.027C-364.208 306.803 -367.458 302.556 -370.89 298.455C-371.595 297.594 -371.513 296.341 -370.652 295.636C-369.79 294.931 -368.552 295.05 -367.833 295.874C-364.302 300.055 -360.992 304.367 -357.962 308.746C-357.323 309.669 -357.569 310.903 -358.454 311.556C-359.025 311.942 -359.7 312.032 -360.301 311.809L-360.325 311.757ZM-386.592 281.614C-386.855 281.516 -387.067 281.394 -387.25 281.198C-391.018 277.655 -395.002 274.118 -399.193 270.675C-400.043 269.974 -400.163 268.689 -399.461 267.839C-398.76 266.988 -397.512 266.854 -396.624 267.57C-392.411 271.065 -388.314 274.644 -384.484 278.252C-383.7 279.015 -383.655 280.271 -384.394 281.108C-384.96 281.709 -385.842 281.894 -386.555 281.628L-386.592 281.614ZM-563.865 207.683C-564.128 207.585 -564.377 207.45 -564.584 207.202C-565.354 206.401 -565.348 205.121 -564.547 204.35C-560.766 200.628 -557.13 196.724 -553.733 192.773C-553.031 191.922 -551.761 191.84 -550.91 192.542C-550.06 193.244 -549.978 194.514 -550.679 195.365C-554.118 199.428 -557.833 203.431 -561.718 207.201C-562.27 207.764 -563.138 207.912 -563.814 207.66L-563.865 207.683ZM-417.831 256.546C-417.831 256.546 -418.131 256.434 -418.253 256.303C-422.499 253.352 -426.997 250.393 -431.59 247.57C-432.534 247.004 -432.832 245.739 -432.229 244.809C-431.663 243.865 -430.397 243.567 -429.468 244.17C-424.852 247.045 -420.278 250.032 -415.957 253.011C-415.041 253.651 -414.818 254.889 -415.459 255.805C-416.006 256.584 -416.967 256.868 -417.793 256.56L-417.831 256.546ZM-452.057 235.709C-452.057 235.709 -452.244 235.639 -452.319 235.611C-456.911 233.131 -461.695 230.706 -466.493 228.32C-467.464 227.829 -467.879 226.648 -467.413 225.625C-466.922 224.653 -465.779 224.224 -464.718 224.705C-459.869 227.068 -455.061 229.544 -450.395 232.053C-449.437 232.581 -449.036 233.799 -449.564 234.757C-450.026 235.654 -451.104 236.022 -452.005 235.686L-452.057 235.709ZM-488.128 218.333C-488.128 218.333 -488.203 218.305 -488.241 218.291C-493.122 216.13 -498.032 214.043 -502.942 211.957C-503.979 211.528 -504.446 210.37 -504.016 209.333C-503.587 208.296 -502.552 207.698 -501.392 208.259C-496.445 210.359 -491.535 212.445 -486.654 214.606C-485.63 215.073 -485.164 216.231 -485.631 217.254C-486.046 218.254 -487.189 218.683 -488.166 218.319L-488.128 218.333ZM-525.063 202.815C-525.063 202.815 -525.101 202.801 -525.138 202.787L-539.975 196.703C-541.026 196.311 -541.479 195.116 -541.049 194.079C-540.62 193.041 -539.411 192.551 -538.425 193.004L-523.589 199.089C-522.537 199.481 -522.085 200.676 -522.514 201.713C-522.892 202.727 -524.049 203.193 -525.063 202.815ZM-562.078 187.397C-562.078 187.397 -562.153 187.369 -562.19 187.355C-567.124 185.217 -572.005 183.056 -576.873 180.857C-577.896 180.39 -578.312 179.209 -577.859 178.223C-577.392 177.2 -576.098 176.827 -575.225 177.238C-570.357 179.436 -565.513 181.584 -560.617 183.708C-559.58 184.137 -559.127 185.332 -559.58 186.318C-559.996 187.317 -561.101 187.76 -562.115 187.383L-562.078 187.397ZM-598.382 170.532C-598.382 170.532 -598.533 170.476 -598.608 170.448C-603.528 167.93 -608.307 165.379 -612.81 162.889C-613.767 162.361 -614.117 161.119 -613.589 160.161C-613.061 159.203 -611.819 158.854 -610.861 159.382C-606.396 161.858 -601.654 164.395 -596.758 166.861C-595.786 167.352 -595.385 168.57 -595.876 169.542C-596.352 170.476 -597.43 170.844 -598.369 170.494L-598.382 170.532ZM-633.109 150.578C-633.109 150.578 -633.371 150.48 -633.508 150.387C-638.082 147.399 -642.562 144.276 -646.751 141.175C-647.653 140.497 -647.839 139.273 -647.161 138.371C-646.482 137.47 -645.259 137.284 -644.357 137.962C-640.191 141.012 -635.823 144.093 -631.287 147.067C-630.357 147.67 -630.096 148.921 -630.699 149.851C-631.209 150.645 -632.221 150.952 -633.085 150.63L-633.109 150.578ZM-538.689 176.614C-538.689 176.614 -538.952 176.516 -539.05 176.436C-539.98 175.833 -540.255 174.619 -539.689 173.676C-536.856 169.172 -534.272 164.534 -531.979 159.872C-531.489 158.9 -530.27 158.499 -529.285 158.952C-528.275 159.456 -527.86 160.637 -528.365 161.647C-530.7 166.421 -533.377 171.196 -536.289 175.798C-536.813 176.629 -537.825 176.936 -538.689 176.614ZM-664.852 126.177C-665.077 126.093 -665.326 125.958 -665.509 125.761C-669.672 121.901 -673.479 118.002 -676.83 114.144C-677.55 113.32 -677.454 112.031 -676.63 111.311C-675.806 110.592 -674.516 110.688 -673.797 111.512C-670.544 115.29 -666.822 119.071 -662.795 122.838C-661.959 123.578 -661.928 124.872 -662.691 125.657C-663.257 126.258 -664.138 126.443 -664.852 126.177ZM-689.663 94.9944C-690.114 94.8266 -690.508 94.5085 -690.72 94.0446C-691.813 91.9271 -692.853 89.7861 -693.754 87.6119C-694.96 84.7677 -695.998 81.8153 -696.844 78.8063C-697.136 77.7564 -696.501 76.6249 -695.451 76.332C-694.401 76.0391 -693.256 76.6369 -692.977 77.7244C-692.188 80.5413 -691.183 83.3531 -690.047 86.0426C-689.194 88.1137 -688.2 90.1517 -687.155 92.1662C-686.619 93.1358 -687.029 94.3513 -687.999 94.8879C-688.528 95.161 -689.138 95.1904 -689.626 95.0085L-689.663 94.9944ZM-522.228 140.244C-523.204 139.881 -523.75 138.822 -523.461 137.818C-521.99 132.721 -520.833 127.551 -520.083 122.442C-519.931 121.345 -518.877 120.583 -517.794 120.773C-516.71 120.963 -515.934 121.979 -516.124 123.063C-516.943 128.359 -518.119 133.694 -519.609 138.954C-519.925 140.033 -521.05 140.641 -522.091 140.338C-522.129 140.324 -522.204 140.296 -522.241 140.282L-522.228 140.244ZM-698.189 56.3688C-699.015 56.061 -699.57 55.2555 -699.487 54.3455C-699.072 48.6419 -697.906 43.2183 -696.069 38.1731C-695.677 37.1218 -694.543 36.6036 -693.492 36.9954C-692.478 37.3731 -691.922 38.521 -692.314 39.5723C-694.063 44.2656 -695.103 49.3513 -695.491 54.6374C-695.568 55.7631 -696.509 56.567 -697.635 56.4896C-697.837 56.4572 -698.001 56.4387 -698.189 56.3688ZM-517.507 100.611C-518.22 100.345 -518.779 99.6665 -518.814 98.8412C-519.097 93.519 -519.839 88.2821 -520.933 83.2992C-521.174 82.2258 -520.478 81.1597 -519.404 80.9183C-518.331 80.677 -517.265 81.3736 -517.023 82.447C-515.873 87.6221 -515.126 93.0747 -514.837 98.6127C-514.774 99.7052 -515.607 100.678 -516.737 100.727C-517.042 100.742 -517.281 100.695 -517.544 100.597L-517.507 100.611ZM-681.585 20.9931C-681.885 20.8811 -682.157 20.6941 -682.364 20.446C-683.121 19.6081 -683.039 18.3558 -682.215 17.6366C-678.208 13.9985 -673.562 10.9407 -668.381 8.51014C-667.387 8.02503 -666.186 8.47282 -665.715 9.50357C-665.23 10.4968 -665.677 11.6983 -666.708 12.1694C-671.529 14.4351 -675.838 17.2764 -679.517 20.609C-680.093 21.1213 -680.871 21.259 -681.547 21.0072L-681.585 20.9931ZM-528.085 62.3321C-528.498 62.1782 -528.893 61.8601 -529.119 61.4338C-531.614 56.9978 -534.619 52.6707 -538.028 48.621C-538.733 47.7596 -538.651 46.5072 -537.789 45.8021C-536.928 45.0968 -535.676 45.1787 -534.97 46.0401C-531.379 50.2863 -528.241 54.8336 -525.615 59.4898C-525.078 60.4595 -525.399 61.6654 -526.369 62.202C-526.913 62.5126 -527.522 62.542 -528.048 62.3461L-528.085 62.3321ZM-645.143 6.05197C-645.819 5.80012 -646.355 5.17277 -646.441 4.37097C-646.542 3.26441 -645.747 2.27795 -644.64 2.1772C-639.436 1.63655 -633.954 1.49872 -628.297 1.81072C-627.209 1.87414 -626.354 2.7916 -626.394 3.93124C-626.457 5.01942 -627.375 5.87477 -628.514 5.83491C-633.917 5.53176 -639.221 5.65058 -644.21 6.18606C-644.529 6.2383 -644.843 6.1639 -645.106 6.06595L-645.143 6.05197ZM-554.835 32.9074C-554.835 32.9074 -555.173 32.7816 -555.333 32.6365C-559.423 29.6153 -563.875 26.7591 -568.627 24.1332C-569.584 23.6052 -569.934 22.3632 -569.406 21.4054C-568.878 20.4476 -567.636 20.098 -566.678 20.626C-561.791 23.3454 -557.203 26.2952 -552.976 29.4098C-552.074 30.088 -551.888 31.3117 -552.566 32.2134C-553.1 32.9555 -554.046 33.2014 -554.872 32.8935L-554.835 32.9074ZM-605.41 9.35638C-606.349 9.0066 -606.909 7.98536 -606.658 6.96721C-606.393 5.91147 -605.292 5.2527 -604.236 5.51788C-600.215 6.54604 -596.212 7.73827 -592.317 9.10438C-591.378 9.45416 -590.402 9.818 -589.426 10.1818L-588.75 10.4336C-587.699 10.8254 -587.18 11.9593 -587.572 13.0106C-587.964 14.0619 -589.098 14.58 -590.149 14.1883L-590.825 13.9364C-591.764 13.5866 -592.702 13.2368 -593.641 12.8871C-597.424 11.5629 -601.3 10.375 -605.208 9.3888C-605.284 9.36078 -605.359 9.33283 -605.434 9.30487L-605.41 9.35638Z" fill="url(#paint0_linear_3314_20201)"/>
<path d="M-101.542 494.217C-102.287 493.921 -102.817 493.193 -102.804 492.292C-102.677 486.652 -102.102 481.189 -101.14 476.053C-100.927 474.974 -99.9094 474.257 -98.8152 474.433C-97.7357 474.646 -97.019 475.663 -97.2097 476.795C-98.1352 481.73 -98.673 486.992 -98.7864 492.379C-98.7985 493.495 -99.7488 494.368 -100.813 494.334C-101.066 494.319 -101.304 494.268 -101.49 494.194L-101.542 494.217ZM-92.1196 455.621C-92.1196 455.621 -92.2686 455.562 -92.343 455.533C-93.3041 455.022 -93.6791 453.795 -93.168 452.834C-90.5832 447.954 -87.4468 443.422 -83.863 439.284C-83.1433 438.449 -81.8564 438.357 -81.0213 439.076C-80.1862 439.796 -80.0937 441.083 -80.8134 441.918C-84.1819 445.84 -87.1403 450.141 -89.6068 454.722C-90.1032 455.646 -91.2035 456.028 -92.1345 455.659L-92.1196 455.621ZM-64.6286 427.221C-65.0382 427.058 -65.3887 426.746 -65.6204 426.353C-66.1881 425.394 -65.8266 424.158 -64.8829 423.628C-62.587 422.298 -60.2089 421.086 -57.838 420.002C-55.2738 418.864 -52.6872 417.779 -50.0556 416.798C-49.0298 416.387 -47.8528 416.897 -47.4559 417.96C-47.0442 418.986 -47.592 420.148 -48.6177 420.56C-51.1601 421.533 -53.6948 422.596 -56.207 423.711C-58.459 424.713 -60.733 425.879 -62.8728 427.142C-63.4227 427.441 -64.0849 427.48 -64.6062 427.273L-64.6286 427.221ZM-27.2896 412.777C-27.8109 412.57 -28.2808 412.125 -28.4756 411.53C-28.8354 410.482 -28.2503 409.334 -27.1797 409.027C-22.3322 407.46 -17.1577 405.721 -12.1251 403.796C-11.0993 403.385 -9.93729 403.933 -9.52554 404.958C-9.11379 405.984 -9.66157 407.146 -10.6874 407.558C-15.8092 409.49 -21.0357 411.251 -25.9353 412.841C-26.3888 413.006 -26.8947 412.977 -27.3043 412.814L-27.2896 412.777ZM9.4214 397.092C9.04905 396.944 8.68384 396.67 8.45219 396.276C7.8696 395.355 8.15673 394.089 9.11514 393.521C13.1642 391.034 17.4428 388.077 22.1366 384.509C23.013 383.823 24.2709 384.02 24.9576 384.897C25.6442 385.773 25.4464 387.031 24.57 387.718C19.7574 391.368 15.4121 394.384 11.244 396.954C10.6794 397.29 10.0173 397.329 9.45869 397.107L9.4214 397.092ZM41.3573 372.915C41.0594 372.796 40.7538 372.589 40.5523 372.336C39.8509 371.497 39.9742 370.21 40.8506 369.523C44.5486 366.508 48.9746 362.963 53.5796 359.618C54.4784 358.984 55.7363 359.181 56.3857 360.043C57.0204 360.942 56.8227 362.2 55.9612 362.849C51.4082 366.171 47.0489 369.657 43.4027 372.649C42.831 373.112 42.0501 373.233 41.3798 372.967L41.3573 372.915ZM74.518 350.646C74.0713 350.468 73.6462 350.127 73.459 349.622C72.9952 348.618 73.4312 347.412 74.4346 346.948C76.7683 345.849 79.1469 344.853 81.5036 344.022C84.2244 343.033 87.0126 342.2 89.8457 341.472C90.9016 341.201 92.0194 341.861 92.2899 342.917C92.5602 343.973 91.9008 345.09 90.8448 345.361C88.153 346.059 85.4689 346.847 82.8893 347.806C80.674 348.607 78.3994 349.558 76.1326 350.597C75.6122 350.822 75.0395 350.853 74.5554 350.661L74.518 350.646ZM113.353 342.531C112.608 342.235 112.078 341.507 112.076 340.644C112.088 339.528 113.001 338.64 114.08 338.637C119.244 338.662 124.543 338.999 130.303 339.692C131.412 339.83 132.181 340.826 132.043 341.935C131.904 343.044 130.909 343.812 129.8 343.674C124.203 343.003 119.046 342.636 114.045 342.633C113.792 342.619 113.539 342.605 113.316 342.516L113.353 342.531ZM152.988 347.925C152.094 347.57 151.541 346.575 151.799 345.599C152.049 344.535 153.141 343.848 154.206 344.098C158.777 345.181 163.758 346.426 169.796 348.048C170.868 348.388 171.481 349.45 171.193 350.5C170.906 351.55 169.829 352.2 168.742 351.898C162.74 350.29 157.812 349.022 153.278 347.954C153.166 347.91 153.092 347.881 153.017 347.851L152.988 347.925ZM191.696 358.256C190.765 357.886 190.227 356.853 190.485 355.878C190.773 354.828 191.85 354.178 192.937 354.48C198.975 356.103 203.867 357.355 208.416 358.386C209.48 358.637 210.167 359.729 209.917 360.793C209.667 361.858 208.575 362.545 207.51 362.295C202.924 361.249 197.995 359.981 191.868 358.367C191.793 358.337 191.719 358.308 191.644 358.278L191.696 358.256ZM230.921 366.419C230.102 366.094 229.579 365.24 229.681 364.332C229.819 363.223 230.814 362.454 231.886 362.578C237.498 363.211 242.633 363.526 247.61 363.477C248.704 363.437 249.629 364.365 249.632 365.444C249.619 366.56 248.744 367.462 247.665 367.465C242.509 367.53 237.195 367.23 231.434 366.537C231.271 366.515 231.07 366.479 230.921 366.419ZM270.633 364.128C270.075 363.906 269.62 363.424 269.44 362.792C269.132 361.721 269.777 360.64 270.847 360.333C274.677 359.267 278.394 357.941 281.939 356.288C283.098 355.757 284.22 355.211 285.343 354.665C286.324 354.149 287.545 354.548 288.061 355.529C288.576 356.51 288.177 357.731 287.211 358.209C286.022 358.815 284.848 359.383 283.637 359.937C279.898 361.643 275.973 363.058 271.95 364.177C271.512 364.304 271.058 364.253 270.685 364.105L270.633 364.128ZM305.386 344.906C305.088 344.788 304.783 344.58 304.581 344.328C303.88 343.489 304.003 342.201 304.88 341.514C308.83 338.298 312.542 335.03 316.953 331.091C317.769 330.337 319.057 330.46 319.773 331.262C320.526 332.079 320.455 333.344 319.601 334.083C316.075 337.209 311.694 341.074 307.409 344.589C306.837 345.051 306.057 345.172 305.386 344.906ZM335.912 318.961C335.576 318.828 335.271 318.62 335.047 318.316C334.36 317.439 334.558 316.181 335.434 315.495C336.6 314.621 337.766 313.748 338.97 312.889C342.156 310.62 345.551 308.476 348.977 306.474C349.92 305.943 351.171 306.267 351.702 307.211C352.269 308.169 351.908 309.405 350.964 309.936C347.621 311.842 344.367 313.955 341.262 316.128C340.111 316.964 338.974 317.763 337.845 318.651C337.274 319.114 336.522 319.16 335.889 318.909L335.912 318.961ZM371.007 299.962C370.486 299.755 370.091 299.339 369.881 298.781C369.506 297.77 370.017 296.593 371.08 296.196C375.979 294.391 381.161 292.742 386.545 291.345C387.615 291.037 388.696 291.682 389.004 292.752C389.274 293.808 388.652 294.941 387.596 295.211C382.339 296.616 377.261 298.22 372.518 299.958C372.012 300.145 371.543 300.131 371.097 299.954L371.007 299.962ZM409.824 290.373C409.191 290.121 408.691 289.535 408.593 288.806C408.426 287.705 409.168 286.706 410.269 286.54C415.311 285.784 420.704 285.123 426.291 284.626C427.414 284.512 428.384 285.328 428.461 286.436C428.538 287.545 427.759 288.529 426.65 288.606C421.138 289.133 415.849 289.748 410.844 290.519C410.472 290.587 410.144 290.543 409.809 290.41L409.824 290.373ZM449.727 286.95C449.02 286.669 448.475 285.978 448.458 285.153C448.418 284.059 449.271 283.104 450.402 283.079C455.744 282.873 461.131 282.77 466.466 282.69C467.596 282.665 468.484 283.578 468.487 284.657C468.512 285.788 467.599 286.676 466.52 286.679C461.185 286.759 455.873 286.89 450.546 287.06C450.241 287.068 450.003 287.016 449.742 286.913L449.727 286.95ZM489.786 286.391C489.041 286.095 488.511 285.368 488.532 284.557C488.544 283.44 489.419 282.538 490.536 282.55L506.57 282.452C507.649 282.449 508.589 283.34 508.591 284.418C508.579 285.535 507.703 286.437 506.624 286.44L490.59 286.538C490.337 286.524 490.084 286.51 489.823 286.406L489.786 286.391ZM529.882 285.847C529.174 285.566 528.63 284.876 528.613 284.05C528.573 282.956 529.426 282.002 530.557 281.977C535.884 281.807 541.211 281.638 546.553 281.432C547.647 281.392 548.601 282.245 548.641 283.339C548.681 284.433 547.828 285.387 546.734 285.427C541.392 285.633 536.05 285.84 530.686 285.994C530.418 286.017 530.143 285.951 529.882 285.847ZM569.908 284.069C569.201 283.788 568.693 283.112 568.661 282.323C568.584 281.214 569.475 280.275 570.546 280.183C575.88 279.887 581.207 279.502 586.533 279.117C587.642 279.04 588.611 279.856 588.688 280.965C588.765 282.073 587.949 283.043 586.841 283.12C581.514 283.505 576.15 283.875 570.816 284.17C570.511 284.179 570.221 284.15 569.96 284.046L569.908 284.069ZM609.864 281.055C609.194 280.788 608.672 280.15 608.588 279.384C608.511 278.275 609.29 277.291 610.398 277.214C615.717 276.74 621.013 276.214 626.325 275.65C627.411 275.521 628.417 276.352 628.509 277.423C628.624 278.546 627.807 279.515 626.736 279.607C621.425 280.171 616.091 280.682 610.772 281.157C610.452 281.202 610.14 281.121 609.842 281.003L609.864 281.055ZM649.699 276.828C649.028 276.562 648.528 275.975 648.445 275.209C648.315 274.123 649.109 273.102 650.195 272.973L652.955 272.646C657.314 272.092 661.673 271.539 666.046 270.948C667.147 270.781 668.168 271.575 668.297 272.661C668.464 273.762 667.67 274.783 666.584 274.912C662.211 275.503 657.8 276.079 653.441 276.633L650.681 276.96C650.324 276.991 649.997 276.947 649.699 276.828ZM689.351 271.107C688.718 270.855 688.24 270.321 688.104 269.577C687.938 268.476 688.642 267.463 689.758 267.259C694.986 266.361 700.245 265.388 705.443 264.349C706.521 264.13 707.587 264.812 707.791 265.928C708.009 267.006 707.327 268.072 706.212 268.276C700.961 269.337 695.703 270.31 690.385 271.216C690.013 271.284 689.648 271.225 689.313 271.092L689.351 271.107ZM728.528 262.782C727.969 262.56 727.514 262.078 727.334 261.446C727.063 260.39 727.685 259.257 728.779 259.002C734.073 257.612 739.218 256.164 744.088 254.649C745.122 254.327 746.269 254.911 746.591 255.945C746.914 256.978 746.329 258.126 745.295 258.448C740.373 259.985 735.124 261.479 729.793 262.854C729.354 262.981 728.937 262.945 728.528 262.782ZM766.601 250.398C766.117 250.206 765.707 249.827 765.497 249.27C765.085 248.244 765.596 247.067 766.621 246.655C771.594 244.664 776.5 242.516 781.182 240.28C782.185 239.817 783.355 240.238 783.87 241.219C784.334 242.222 783.913 243.391 782.932 243.907C778.16 246.151 773.203 248.321 768.126 250.357C767.62 250.544 767.1 250.553 766.653 250.375L766.601 250.398ZM1053.41 352.5C1052.89 352.293 1052.46 351.862 1052.25 351.305C1050.54 346.361 1048.56 341.477 1046.29 336.654C1045.83 335.651 1046.27 334.444 1047.27 333.98C1048.27 333.517 1049.48 333.953 1049.94 334.956C1052.25 339.884 1054.31 344.923 1056.04 350.008C1056.4 351.057 1055.86 352.182 1054.8 352.578C1054.35 352.743 1053.84 352.715 1053.39 352.537L1053.41 352.5ZM802.466 232.609C802.093 232.461 801.728 232.187 801.497 231.793C800.929 230.835 801.201 229.607 802.16 229.039C806.669 226.26 811.111 223.325 815.36 220.227C816.259 219.592 817.517 219.79 818.166 220.651C818.801 221.55 818.603 222.808 817.742 223.457C813.426 226.615 808.902 229.647 804.288 232.471C803.724 232.807 803.062 232.846 802.503 232.624L802.466 232.609ZM1035.52 316.769C1035.15 316.621 1034.82 316.362 1034.61 316.02C1031.75 311.734 1028.59 307.418 1025.25 303.245C1024.56 302.368 1024.67 301.118 1025.54 300.431C1026.42 299.745 1027.66 299.891 1028.36 300.73C1031.8 304.985 1035.02 309.367 1037.95 313.809C1038.57 314.745 1038.3 315.974 1037.4 316.608C1036.82 316.982 1036.14 317.058 1035.55 316.821L1035.52 316.769ZM1009.91 286.072C1009.65 285.968 1009.44 285.842 1009.26 285.642C1005.57 282.02 1001.66 278.398 997.542 274.867C996.707 274.147 996.615 272.86 997.334 272.025C998.054 271.19 999.304 271.082 1000.18 271.817C1004.31 275.401 1008.33 279.067 1012.09 282.755C1012.85 283.535 1012.87 284.792 1012.11 285.613C1011.54 286.202 1010.65 286.368 1009.94 286.087L1009.91 286.072ZM834.253 208.372C833.992 208.269 833.746 208.128 833.545 207.876C832.791 207.059 832.825 205.779 833.642 205.026C837.502 201.385 841.221 197.559 844.701 193.682C845.421 192.847 846.693 192.791 847.528 193.511C848.363 194.231 848.418 195.503 847.698 196.338C844.174 200.327 840.374 204.25 836.409 207.936C835.845 208.488 834.975 208.616 834.305 208.35L834.253 208.372ZM979.21 260.342C979.21 260.342 978.913 260.224 978.793 260.09C974.612 257.05 970.177 253.995 965.646 251.075C964.715 250.489 964.444 249.217 965.066 248.301C965.652 247.369 966.924 247.098 967.84 247.721C972.394 250.694 976.903 253.778 981.159 256.848C982.061 257.508 982.257 258.75 981.597 259.652C981.034 260.42 980.067 260.683 979.248 260.357L979.21 260.342ZM945.437 238.78C945.437 238.78 945.251 238.706 945.177 238.676C940.639 236.098 935.908 233.572 931.162 231.084C930.201 230.573 929.812 229.383 930.3 228.37C930.811 227.409 931.963 227.004 933.014 227.508C937.811 229.974 942.565 232.552 947.177 235.159C948.123 235.708 948.498 236.935 947.95 237.881C947.469 238.767 946.383 239.112 945.489 238.757L945.437 238.78ZM909.745 220.637C909.745 220.637 909.671 220.607 909.633 220.593C904.799 218.328 899.935 216.137 895.071 213.947C894.043 213.495 893.601 212.328 894.052 211.3C894.504 210.272 895.552 209.697 896.699 210.282C901.6 212.487 906.464 214.678 911.299 216.943C912.312 217.431 912.754 218.598 912.265 219.612C911.829 220.602 910.676 221.007 909.708 220.622L909.745 220.637ZM873.15 204.334C873.15 204.334 873.113 204.32 873.075 204.305L858.372 197.904C857.329 197.49 856.902 196.286 857.354 195.258C857.805 194.23 859.024 193.766 860 194.24L874.703 200.64C875.746 201.054 876.173 202.259 875.722 203.286C875.322 204.292 874.155 204.734 873.15 204.334ZM836.473 188.129C836.473 188.129 836.399 188.099 836.361 188.084C831.475 185.842 826.64 183.577 821.82 181.274C820.808 180.786 820.418 179.596 820.891 178.62C821.38 177.607 822.681 177.262 823.546 177.691C828.365 179.993 833.162 182.244 838.012 184.472C839.04 184.923 839.467 186.127 838.993 187.103C838.556 188.094 837.441 188.513 836.436 188.114L836.473 188.129ZM800.536 170.492C800.536 170.492 800.388 170.433 800.313 170.404C795.448 167.781 790.724 165.129 786.276 162.543C785.33 161.995 785.007 160.746 785.555 159.8C786.103 158.853 787.352 158.53 788.299 159.079C792.71 161.65 797.397 164.287 802.239 166.857C803.2 167.368 803.575 168.595 803.064 169.556C802.568 170.48 801.482 170.825 800.551 170.455L800.536 170.492ZM766.245 149.802C766.245 149.802 765.984 149.698 765.85 149.602C761.341 146.517 756.928 143.299 752.806 140.109C751.918 139.412 751.759 138.185 752.456 137.298C753.154 136.411 754.381 136.251 755.268 136.949C759.368 140.086 763.669 143.26 768.141 146.33C769.058 146.952 769.291 148.209 768.669 149.126C768.142 149.909 767.124 150.194 766.267 149.854L766.245 149.802ZM860.087 177.848C860.087 177.848 859.826 177.744 859.729 177.663C858.813 177.04 858.564 175.82 859.15 174.889C862.078 170.447 864.76 165.864 867.152 161.253C867.663 160.292 868.89 159.917 869.866 160.391C870.864 160.916 871.254 162.106 870.728 163.104C868.292 167.828 865.513 172.544 862.503 177.083C861.962 177.903 860.943 178.188 860.087 177.848ZM735.03 124.728C734.806 124.639 734.56 124.499 734.381 124.298C730.302 120.35 726.579 116.371 723.311 112.443C722.609 111.603 722.733 110.316 723.572 109.614C724.411 108.913 725.698 109.036 726.4 109.875C729.571 113.722 733.212 117.582 737.157 121.434C737.978 122.191 737.981 123.486 737.201 124.254C736.622 124.843 735.737 125.009 735.03 124.728ZM710.89 93.023C710.443 92.8454 710.055 92.519 709.853 92.0508C708.806 89.9104 707.811 87.7476 706.958 85.5547C705.812 82.6854 704.838 79.7115 704.057 76.6851C703.786 75.6292 704.446 74.5115 705.502 74.2411C706.558 73.9707 707.69 74.5929 707.946 75.686C708.674 78.5192 709.619 81.3517 710.697 84.0649C711.505 86.1538 712.455 88.2125 713.457 90.2488C713.973 91.2297 713.537 92.4361 712.556 92.952C712.021 93.2137 711.411 93.23 710.927 93.0378L710.89 93.023ZM877.321 141.838C876.353 141.453 875.829 140.383 876.139 139.385C877.719 134.322 878.987 129.178 879.845 124.086C880.021 122.992 881.09 122.253 882.17 122.466C883.249 122.679 884.003 123.711 883.79 124.791C882.858 130.068 881.569 135.377 879.967 140.604C879.627 141.676 878.49 142.259 877.455 141.934C877.418 141.92 877.343 141.89 877.306 141.875L877.321 141.838ZM703.191 54.224C702.372 53.8986 701.834 53.0814 701.936 52.1734C702.473 46.4801 703.754 41.0826 705.699 36.0777C706.113 35.035 707.258 34.5412 708.301 34.9553C709.306 35.3547 709.837 36.5141 709.423 37.5568C707.574 42.2117 706.426 47.2741 705.925 52.5507C705.824 53.6745 704.866 54.458 703.742 54.3566C703.541 54.3199 703.377 54.2979 703.191 54.224ZM882.887 102.315C882.18 102.034 881.635 101.343 881.618 100.517C881.449 95.1902 880.818 89.9387 879.831 84.9335C879.613 83.8551 880.332 82.8043 881.411 82.5859C882.489 82.3675 883.54 83.0867 883.758 84.1651C884.798 89.3635 885.428 94.8308 885.598 100.374C885.638 101.467 884.785 102.422 883.654 102.447C883.349 102.455 883.111 102.404 882.85 102.3L882.887 102.315ZM720.547 19.211C720.249 19.0927 719.981 18.8998 719.779 18.6473C719.04 17.7934 719.149 16.5432 719.988 15.8417C724.072 12.2901 728.782 9.33214 734.014 7.01283C735.018 6.54909 736.209 7.02236 736.658 8.06296C737.122 9.0663 736.649 10.258 735.608 10.707C730.74 12.8691 726.371 15.6178 722.622 18.8711C722.035 19.371 721.254 19.492 720.584 19.2258L720.547 19.211ZM873.128 63.8185C872.719 63.6558 872.331 63.3294 872.114 62.8983C869.715 58.4101 866.802 54.0198 863.481 49.8983C862.794 49.022 862.903 47.7716 863.779 47.085C864.656 46.3983 865.906 46.5068 866.593 47.3832C870.093 51.7051 873.132 56.3184 875.659 61.0296C876.175 62.0105 875.828 63.2093 874.847 63.7251C874.297 64.024 873.687 64.0404 873.166 63.8333L873.128 63.8185ZM757.299 5.05143C756.629 4.78516 756.106 4.14655 756.037 3.34313C755.96 2.23467 756.776 1.26543 757.884 1.18827C763.1 0.75898 768.583 0.738242 774.232 1.17093C775.318 1.25759 776.154 2.19304 776.09 3.3316C776.003 4.41814 775.067 5.25373 773.929 5.18953C768.533 4.77112 763.228 4.7766 758.229 5.20546C757.909 5.25082 757.597 5.16971 757.336 5.06616L757.299 5.05143ZM847.013 33.8294C847.013 33.8294 846.678 33.6962 846.521 33.5478C842.496 30.44 838.106 27.4893 833.412 24.7626C832.466 24.2142 832.143 22.965 832.691 22.0187C833.239 21.0724 834.489 20.7495 835.435 21.2978C840.263 24.1209 844.787 27.168 848.947 30.3723C849.834 31.0695 849.993 32.2968 849.296 33.1839C848.747 33.9145 847.795 34.14 846.976 33.8146L847.013 33.8294ZM796.952 9.20359C796.021 8.83384 795.483 7.80094 795.756 6.78831C796.044 5.7385 797.158 5.10335 798.208 5.39098C802.206 6.50479 806.183 7.78231 810.048 9.23123C810.979 9.60102 811.947 9.98563 812.915 10.3701L813.586 10.6364C814.628 11.0506 815.122 12.1952 814.708 13.2379C814.294 14.2806 813.149 14.7745 812.107 14.3603L811.436 14.094C810.505 13.7243 809.574 13.3545 808.643 12.9848C804.89 11.5802 801.04 10.3098 797.153 9.2403C797.079 9.21068 797.004 9.18116 796.93 9.15157L796.952 9.20359Z" fill="url(#paint1_linear_3314_20201)"/>
<path d="M2194.39 97.4751C2195.17 97.6864 2195.77 98.3511 2195.86 99.2472C2196.36 104.867 2196.4 110.36 2196.01 115.571C2195.92 116.667 2194.98 117.493 2193.88 117.439C2192.78 117.347 2191.96 116.416 2192.02 115.27C2192.39 110.262 2192.34 104.973 2191.86 99.6069C2191.75 98.4963 2192.59 97.5233 2193.65 97.4395C2193.91 97.4256 2194.15 97.4504 2194.34 97.5032L2194.39 97.4751ZM2189.31 136.878C2189.31 136.878 2189.47 136.92 2189.54 136.941C2190.56 137.342 2191.06 138.52 2190.66 139.532C2188.64 144.668 2186.02 149.52 2182.92 154.031C2182.3 154.94 2181.03 155.175 2180.12 154.552C2179.21 153.93 2178.97 152.661 2179.6 151.751C2182.51 147.48 2184.97 142.877 2186.91 138.05C2187.31 137.077 2188.36 136.575 2189.32 136.839L2189.31 136.878ZM2165.14 168.154C2165.57 168.271 2165.95 168.541 2166.23 168.907C2166.9 169.797 2166.67 171.065 2165.8 171.697C2163.66 173.274 2161.43 174.741 2159.2 176.083C2156.77 177.497 2154.32 178.863 2151.82 180.13C2150.84 180.653 2149.62 180.276 2149.1 179.264C2148.58 178.29 2149 177.075 2149.97 176.552C2152.39 175.302 2154.79 173.964 2157.16 172.578C2159.29 171.331 2161.42 169.92 2163.41 168.427C2163.92 168.069 2164.57 167.957 2165.12 168.105L2165.14 168.154ZM2129.64 186.654C2130.18 186.801 2130.7 187.192 2130.96 187.761C2131.43 188.763 2130.98 189.968 2129.95 190.393C2125.3 192.488 2120.35 194.791 2115.56 197.262C2114.59 197.785 2113.38 197.37 2112.85 196.396C2112.33 195.422 2112.74 194.206 2113.72 193.683C2118.59 191.194 2123.59 188.864 2128.29 186.741C2128.72 186.526 2129.22 186.499 2129.65 186.615L2129.64 186.654ZM2094.9 206.316C2095.28 206.422 2095.68 206.654 2095.95 207.02C2096.63 207.871 2096.49 209.16 2095.6 209.831C2091.85 212.753 2087.92 216.166 2083.66 220.233C2082.86 221.013 2081.59 220.956 2080.81 220.161C2080.03 219.367 2080.09 218.095 2080.88 217.315C2085.26 213.153 2089.24 209.673 2093.1 206.656C2093.62 206.259 2094.28 206.147 2094.86 206.306L2094.9 206.316ZM2065.84 233.89C2066.15 233.974 2066.48 234.147 2066.7 234.375C2067.5 235.131 2067.52 236.425 2066.72 237.204C2063.38 240.611 2059.38 244.626 2055.17 248.461C2054.35 249.191 2053.07 249.134 2052.33 248.35C2051.6 247.527 2051.66 246.255 2052.44 245.514C2056.6 241.707 2060.55 237.759 2063.84 234.381C2064.35 233.857 2065.12 233.65 2065.81 233.841L2065.84 233.89ZM2035.36 259.702C2035.82 259.828 2036.28 260.12 2036.52 260.602C2037.1 261.548 2036.8 262.795 2035.85 263.367C2033.65 264.719 2031.4 265.972 2029.15 267.06C2026.56 268.345 2023.88 269.482 2021.14 270.521C2020.12 270.907 2018.94 270.375 2018.55 269.356C2018.17 268.337 2018.7 267.153 2019.72 266.767C2022.32 265.774 2024.9 264.693 2027.35 263.454C2029.47 262.411 2031.62 261.214 2033.76 259.929C2034.25 259.648 2034.82 259.554 2035.32 259.691L2035.36 259.702ZM1997.66 272.078C1998.44 272.289 1999.04 272.954 1999.14 273.811C1999.25 274.922 1998.44 275.905 1997.37 276.028C1992.24 276.576 1986.93 276.83 1981.13 276.781C1980.01 276.766 1979.14 275.862 1979.15 274.745C1979.17 273.627 1980.07 272.753 1981.19 272.767C1986.83 272.813 1991.99 272.605 1996.96 272.053C1997.22 272.039 1997.47 272.025 1997.7 272.088L1997.66 272.078ZM1957.67 271.116C1958.6 271.369 1959.26 272.297 1959.11 273.295C1958.98 274.381 1957.97 275.186 1956.89 275.055C1952.23 274.486 1947.14 273.802 1940.96 272.86C1939.85 272.641 1939.13 271.653 1939.3 270.578C1939.46 269.503 1940.46 268.737 1941.58 268.917C1947.72 269.848 1952.76 270.561 1957.38 271.119C1957.5 271.151 1957.58 271.172 1957.65 271.193L1957.67 271.116ZM1918.06 265.146C1919.02 265.41 1919.67 266.377 1919.53 267.375C1919.36 268.45 1918.36 269.216 1917.24 269.036C1911.06 268.094 1906.06 267.392 1901.43 266.872C1900.34 266.742 1899.54 265.733 1899.67 264.647C1899.8 263.561 1900.81 262.757 1901.89 262.888C1906.57 263.417 1911.61 264.13 1917.88 265.055C1917.95 265.076 1918.03 265.097 1918.11 265.118L1918.06 265.146ZM1878.17 261.387C1879.02 261.62 1879.63 262.411 1879.63 263.324C1879.62 264.442 1878.72 265.316 1877.64 265.312C1871.99 265.305 1866.85 265.562 1861.91 266.164C1860.83 266.325 1859.81 265.505 1859.68 264.434C1859.57 263.323 1860.34 262.329 1861.41 262.206C1866.53 261.57 1871.84 261.278 1877.65 261.327C1877.81 261.331 1878.01 261.345 1878.17 261.387ZM1838.96 268.073C1839.54 268.231 1840.04 268.66 1840.29 269.268C1840.72 270.298 1840.2 271.444 1839.17 271.868C1835.48 273.352 1831.93 275.083 1828.59 277.119C1827.5 277.776 1826.44 278.443 1825.39 279.11C1824.47 279.731 1823.21 279.471 1822.59 278.553C1821.97 277.635 1822.23 276.378 1823.14 275.795C1824.25 275.061 1825.36 274.366 1826.5 273.681C1830.03 271.571 1833.77 269.728 1837.64 268.17C1838.06 267.995 1838.52 267.995 1838.91 268.101L1838.96 268.073ZM1806.55 291.033C1806.86 291.118 1807.19 291.29 1807.42 291.519C1808.21 292.275 1808.23 293.568 1807.43 294.348C1803.86 297.983 1800.54 301.643 1796.59 306.047C1795.86 306.887 1794.57 306.907 1793.77 306.19C1792.93 305.462 1792.86 304.197 1793.63 303.368C1796.78 299.869 1800.71 295.542 1804.58 291.573C1805.09 291.05 1805.86 290.843 1806.55 291.033ZM1779.1 320.207C1779.44 320.302 1779.77 320.474 1780.03 320.752C1780.81 321.547 1780.75 322.819 1779.95 323.598C1778.89 324.596 1777.83 325.593 1776.73 326.58C1773.82 329.189 1770.68 331.697 1767.5 334.067C1766.62 334.699 1765.34 334.516 1764.71 333.637C1764.04 332.747 1764.26 331.479 1765.14 330.847C1768.25 328.582 1771.25 326.12 1774.09 323.616C1775.14 322.657 1776.19 321.737 1777.21 320.729C1777.73 320.206 1778.47 320.076 1779.12 320.256L1779.1 320.207ZM1746.33 342.984C1746.87 343.132 1747.31 343.501 1747.58 344.032C1748.06 344.995 1747.68 346.222 1746.67 346.734C1742 349.072 1737.04 351.287 1731.84 353.273C1730.81 353.697 1729.67 353.176 1729.24 352.146C1728.86 351.127 1729.35 349.932 1730.37 349.547C1735.44 347.567 1740.3 345.409 1744.83 343.156C1745.31 342.913 1745.77 342.875 1746.24 343.002L1746.33 342.984ZM1708.81 356.822C1709.47 357.002 1710.03 357.529 1710.21 358.243C1710.5 359.318 1709.87 360.394 1708.8 360.681C1703.87 361.992 1698.58 363.247 1693.09 364.362C1691.98 364.6 1690.93 363.897 1690.73 362.803C1690.53 361.71 1691.19 360.646 1692.29 360.446C1697.71 359.311 1702.89 358.112 1707.78 356.79C1708.15 356.681 1708.48 356.689 1708.82 356.784L1708.81 356.822ZM1669.54 364.654C1670.27 364.854 1670.89 365.48 1671 366.299C1671.16 367.382 1670.42 368.425 1669.3 368.575C1664.01 369.373 1658.67 370.073 1653.37 370.745C1652.25 370.895 1651.27 370.086 1651.15 369.014C1651 367.893 1651.81 366.91 1652.88 366.787C1658.17 366.116 1663.44 365.395 1668.71 364.635C1669.01 364.593 1669.26 364.618 1669.53 364.692L1669.54 364.654ZM1629.79 369.656C1630.56 369.867 1631.17 370.531 1631.24 371.34C1631.35 372.45 1630.58 373.444 1629.47 373.556L1613.55 375.434C1612.47 375.556 1611.44 374.776 1611.32 373.704C1611.21 372.593 1611.98 371.599 1613.05 371.476L1628.97 369.599C1629.23 369.585 1629.48 369.571 1629.75 369.645L1629.79 369.656ZM1590 374.647C1590.73 374.847 1591.35 375.474 1591.46 376.292C1591.62 377.375 1590.88 378.418 1589.76 378.569C1584.48 379.328 1579.21 380.088 1573.92 380.886C1572.84 381.047 1571.8 380.305 1571.64 379.222C1571.47 378.14 1572.22 377.096 1573.3 376.935C1578.58 376.137 1583.87 375.339 1589.18 374.59C1589.45 374.537 1589.73 374.573 1590 374.647ZM1550.42 380.858C1551.15 381.059 1551.73 381.674 1551.85 382.454C1552.05 383.547 1551.27 384.58 1550.22 384.79C1544.95 385.676 1539.7 386.65 1534.45 387.624C1533.35 387.823 1532.3 387.12 1532.1 386.027C1531.9 384.934 1532.6 383.88 1533.7 383.68C1538.95 382.706 1544.24 381.743 1549.5 380.857C1549.81 380.815 1550.1 380.812 1550.37 380.886L1550.42 380.858ZM1511.04 388.288C1511.74 388.478 1512.33 389.055 1512.5 389.807C1512.7 390.9 1512.03 391.965 1510.94 392.164C1505.71 393.226 1500.5 394.337 1495.29 395.487C1494.22 395.736 1493.13 395.022 1492.92 393.967C1492.68 392.864 1493.38 391.81 1494.44 391.6C1499.65 390.45 1504.9 389.349 1510.13 388.288C1510.44 388.207 1510.76 388.253 1511.07 388.338L1511.04 388.288ZM1471.93 396.91C1472.62 397.1 1473.18 397.628 1473.35 398.38C1473.6 399.445 1472.92 400.548 1471.86 400.797L1469.15 401.428C1464.88 402.462 1460.61 403.496 1456.33 404.569C1455.26 404.857 1454.15 404.181 1453.9 403.116C1453.62 402.041 1454.29 400.938 1455.36 400.689C1459.64 399.616 1463.96 398.554 1468.23 397.52L1470.93 396.889C1471.29 396.819 1471.62 396.826 1471.93 396.91ZM1433.15 406.998C1433.81 407.178 1434.34 407.656 1434.56 408.38C1434.85 409.455 1434.26 410.541 1433.18 410.867C1428.08 412.34 1422.96 413.89 1417.91 415.5C1416.86 415.837 1415.73 415.278 1415.4 414.192C1415.06 413.144 1415.62 412.009 1416.71 411.683C1421.81 410.045 1426.93 408.495 1432.11 407.004C1432.47 406.896 1432.84 406.913 1433.19 407.008L1433.15 406.998ZM1395.14 419.62C1395.72 419.778 1396.23 420.207 1396.48 420.815C1396.86 421.835 1396.37 423.029 1395.31 423.405C1390.2 425.373 1385.25 427.384 1380.58 429.43C1379.59 429.865 1378.38 429.411 1377.95 428.42C1377.51 427.429 1377.97 426.224 1378.96 425.788C1383.68 423.714 1388.73 421.647 1393.88 419.689C1394.3 419.514 1394.72 419.504 1395.14 419.62ZM1358.68 436.154C1359.18 436.291 1359.63 436.622 1359.9 437.153C1360.42 438.126 1360.05 439.353 1359.07 439.876C1354.35 442.407 1349.72 445.085 1345.31 447.827C1344.37 448.4 1343.16 448.111 1342.54 447.193C1341.96 446.248 1342.25 445.039 1343.17 444.417C1347.66 441.658 1352.35 438.951 1357.17 436.364C1357.65 436.122 1358.17 436.055 1358.63 436.182L1358.68 436.154ZM1062.31 366.519C1062.85 366.667 1063.33 367.047 1063.6 367.578C1065.84 372.302 1068.35 376.936 1071.14 381.478C1071.71 382.424 1071.41 383.671 1070.47 384.243C1069.52 384.815 1068.27 384.516 1067.7 383.57C1064.86 378.93 1062.26 374.149 1059.97 369.287C1059.5 368.285 1059.91 367.108 1060.92 366.596C1061.35 366.382 1061.86 366.354 1062.32 366.481L1062.31 366.519ZM1325.01 457.814C1325.4 457.919 1325.79 458.151 1326.06 458.517C1326.73 459.406 1326.6 460.658 1325.71 461.328C1321.54 464.59 1317.45 468.001 1313.57 471.551C1312.75 472.282 1311.48 472.225 1310.73 471.441C1310 470.618 1310.06 469.346 1310.84 468.605C1314.78 464.987 1318.94 461.472 1323.21 458.153C1323.74 457.757 1324.39 457.645 1324.97 457.803L1325.01 457.814ZM1084.05 400.044C1084.44 400.15 1084.79 400.372 1085.04 400.688C1088.36 404.629 1091.98 408.568 1095.77 412.344C1096.55 413.139 1096.58 414.393 1095.78 415.173C1094.99 415.953 1093.74 415.945 1092.95 415.189C1089.06 411.342 1085.38 407.344 1081.97 403.255C1081.25 402.394 1081.38 401.143 1082.2 400.412C1082.74 399.977 1083.4 399.826 1084.02 399.995L1084.05 400.044ZM1112.92 427.708C1113.19 427.782 1113.41 427.884 1113.61 428.064C1117.68 431.253 1121.97 434.419 1126.45 437.472C1127.36 438.094 1127.59 439.363 1126.97 440.273C1126.35 441.183 1125.12 441.428 1124.17 440.795C1119.66 437.693 1115.26 434.496 1111.12 431.246C1110.27 430.557 1110.11 429.309 1110.77 428.41C1111.28 427.76 1112.14 427.497 1112.88 427.698L1112.92 427.708ZM1296.11 485.429C1296.38 485.503 1296.64 485.616 1296.87 485.844C1297.71 486.572 1297.82 487.848 1297.09 488.687C1293.66 492.734 1290.39 496.949 1287.36 501.189C1286.73 502.099 1285.48 502.295 1284.57 501.672C1283.66 501.05 1283.46 499.792 1284.08 498.882C1287.14 494.526 1290.48 490.205 1294.02 486.103C1294.51 485.492 1295.37 485.267 1296.06 485.457L1296.11 485.429ZM1146.28 449.871C1146.28 449.871 1146.59 449.956 1146.72 450.075C1151.22 452.633 1155.96 455.176 1160.79 457.576C1161.78 458.055 1162.19 459.288 1161.67 460.268C1161.19 461.259 1159.96 461.67 1158.98 461.153C1154.12 458.704 1149.3 456.139 1144.73 453.56C1143.76 453.004 1143.43 451.792 1143.98 450.822C1144.46 449.997 1145.39 449.628 1146.24 449.861L1146.28 449.871ZM1182.24 467.552C1182.24 467.552 1182.43 467.604 1182.51 467.626C1187.3 469.684 1192.29 471.669 1197.28 473.616C1198.29 474.017 1198.81 475.156 1198.44 476.217C1198.04 477.229 1196.93 477.759 1195.84 477.375C1190.79 475.457 1185.78 473.423 1180.91 471.343C1179.91 470.903 1179.4 469.725 1179.84 468.724C1180.22 467.789 1181.26 467.326 1182.19 467.58L1182.24 467.552ZM1219.72 481.62C1219.72 481.62 1219.8 481.641 1219.84 481.652C1224.89 483.366 1229.97 485.004 1235.05 486.641C1236.12 486.975 1236.69 488.086 1236.35 489.158C1236.02 490.229 1235.04 490.918 1233.84 490.463C1228.72 488.816 1223.65 487.179 1218.59 485.464C1217.53 485.091 1216.96 483.98 1217.33 482.919C1217.66 481.886 1218.76 481.356 1219.76 481.631L1219.72 481.62ZM1257.9 493.76C1257.9 493.76 1257.94 493.771 1257.98 493.781L1273.3 498.51C1274.38 498.806 1274.94 499.955 1274.61 501.027C1274.27 502.099 1273.11 502.695 1272.09 502.333L1256.77 497.604C1255.69 497.308 1255.13 496.159 1255.46 495.087C1255.75 494.043 1256.86 493.475 1257.9 493.76ZM1296.15 505.794C1296.15 505.794 1296.23 505.816 1296.27 505.826C1301.37 507.512 1306.43 509.227 1311.47 510.98C1312.53 511.353 1313.05 512.492 1312.69 513.514C1312.32 514.575 1311.06 515.063 1310.16 514.732C1305.11 512.979 1300.09 511.275 1295.03 509.6C1293.96 509.265 1293.4 508.116 1293.76 507.093C1294.08 506.06 1295.15 505.52 1296.19 505.805L1296.15 505.794ZM1333.82 519.333C1333.82 519.333 1333.98 519.375 1334.05 519.396C1339.18 521.462 1344.17 523.573 1348.88 525.65C1349.88 526.089 1350.34 527.295 1349.9 528.296C1349.46 529.298 1348.25 529.757 1347.25 529.317C1342.58 527.252 1337.63 525.151 1332.53 523.134C1331.52 522.733 1331.01 521.555 1331.41 520.544C1331.81 519.57 1332.85 519.107 1333.81 519.371L1333.82 519.333ZM1370.2 536.089C1370.2 536.089 1370.47 536.163 1370.61 536.244C1375.44 538.809 1380.18 541.517 1384.63 544.229C1385.59 544.824 1385.88 546.026 1385.29 546.985C1384.7 547.944 1383.49 548.239 1382.53 547.644C1378.11 544.981 1373.49 542.304 1368.7 539.75C1367.72 539.233 1367.35 538.01 1367.87 537.029C1368.3 536.193 1369.28 535.797 1370.17 536.04L1370.2 536.089ZM1273.82 518.633C1273.82 518.633 1274.09 518.707 1274.2 518.777C1275.18 519.294 1275.56 520.479 1275.08 521.47C1272.67 526.209 1270.51 531.061 1268.64 535.91C1268.24 536.921 1267.07 537.43 1266.04 537.068C1264.99 536.656 1264.47 535.517 1264.88 534.466C1266.78 529.502 1269.02 524.506 1271.51 519.661C1271.95 518.786 1272.94 518.39 1273.82 518.633ZM1404 557.542C1404.24 557.606 1404.5 557.718 1404.7 557.898C1409.19 561.369 1413.33 564.91 1417.01 568.451C1417.81 569.207 1417.83 570.501 1417.07 571.291C1416.31 572.081 1415.02 572.101 1414.23 571.345C1410.65 567.875 1406.6 564.442 1402.26 561.052C1401.36 560.391 1401.21 559.105 1401.9 558.255C1402.41 557.605 1403.27 557.342 1404 557.542ZM1431.52 586.372C1431.98 586.499 1432.4 586.78 1432.65 587.223C1433.93 589.234 1435.16 591.273 1436.25 593.358C1437.71 596.082 1439.01 598.93 1440.12 601.85C1440.51 602.87 1439.97 604.054 1438.95 604.44C1437.93 604.826 1436.74 604.333 1436.37 603.275C1435.33 600.54 1434.07 597.83 1432.7 595.253C1431.67 593.267 1430.49 591.327 1429.27 589.414C1428.65 588.497 1428.95 587.249 1429.87 586.628C1430.37 586.308 1430.97 586.224 1431.48 586.362L1431.52 586.372ZM1260.69 556.333C1261.7 556.608 1262.34 557.613 1262.14 558.639C1261.13 563.847 1260.44 569.1 1260.16 574.256C1260.1 575.363 1259.12 576.216 1258.03 576.124C1256.93 576.032 1256.06 575.09 1256.16 573.993C1256.5 568.645 1257.19 563.226 1258.2 557.853C1258.42 556.75 1259.48 556.044 1260.55 556.252C1260.59 556.263 1260.67 556.284 1260.7 556.295L1260.69 556.333ZM1443.47 624.077C1444.32 624.309 1444.95 625.062 1444.95 625.975C1445.05 631.693 1444.37 637.2 1442.99 642.389C1442.7 643.471 1441.62 644.089 1440.53 643.794C1439.49 643.508 1438.83 642.415 1439.13 641.333C1440.45 636.501 1441.03 631.343 1440.94 626.043C1440.92 624.915 1441.78 624.03 1442.91 624.006C1443.11 624.02 1443.28 624.024 1443.47 624.077ZM1259.55 596.23C1260.28 596.431 1260.9 597.057 1261.01 597.876C1261.77 603.151 1262.98 608.3 1264.52 613.165C1264.85 614.212 1264.25 615.336 1263.21 615.673C1262.16 616.01 1261.03 615.412 1260.7 614.364C1259.09 609.313 1257.85 603.95 1257.07 598.46C1256.91 597.378 1257.65 596.334 1258.77 596.184C1259.07 596.142 1259.32 596.167 1259.59 596.241L1259.55 596.23ZM1430.11 660.8C1430.42 660.884 1430.71 661.046 1430.94 661.275C1431.77 662.041 1431.8 663.296 1431.04 664.086C1427.38 668.069 1423.02 671.532 1418.08 674.418C1417.13 674.99 1415.9 674.652 1415.34 673.667C1414.76 672.722 1415.1 671.485 1416.09 670.923C1420.68 668.234 1424.72 665.017 1428.09 661.368C1428.61 660.806 1429.38 660.599 1430.07 660.789L1430.11 660.8ZM1273.52 633.405C1273.95 633.521 1274.37 633.803 1274.63 634.207C1277.51 638.401 1280.9 642.441 1284.65 646.168C1285.43 646.963 1285.46 648.218 1284.67 648.997C1283.87 649.777 1282.62 649.808 1281.84 649.013C1277.88 645.107 1274.35 640.859 1271.32 636.458C1270.69 635.54 1270.91 634.31 1271.82 633.689C1272.34 633.331 1272.94 633.247 1273.48 633.394L1273.52 633.405ZM1395.16 678.952C1395.85 679.142 1396.44 679.718 1396.6 680.509C1396.8 681.602 1396.1 682.656 1395 682.856C1389.87 683.861 1384.42 684.491 1378.76 684.688C1377.67 684.722 1376.74 683.885 1376.67 682.747C1376.64 681.657 1377.48 680.723 1378.62 680.66C1384.02 680.477 1389.3 679.883 1394.22 678.902C1394.53 678.821 1394.85 678.867 1395.12 678.941L1395.16 678.952ZM1302.8 660.31C1302.8 660.31 1303.15 660.405 1303.32 660.535C1307.67 663.177 1312.36 665.622 1317.33 667.811C1318.33 668.251 1318.79 669.457 1318.35 670.458C1317.91 671.459 1316.7 671.919 1315.7 671.479C1310.59 669.209 1305.75 666.683 1301.27 663.96C1300.31 663.366 1300.01 662.164 1300.61 661.205C1301.07 660.418 1301.99 660.088 1302.84 660.321L1302.8 660.31ZM1355.29 679.227C1356.25 679.491 1356.9 680.458 1356.75 681.494C1356.58 682.57 1355.54 683.325 1354.46 683.155C1350.37 682.492 1346.27 681.664 1342.27 680.653C1341.3 680.389 1340.3 680.114 1339.29 679.839L1338.6 679.649C1337.52 679.353 1336.9 678.271 1337.19 677.188C1337.49 676.106 1338.57 675.488 1339.66 675.784L1340.35 675.974C1341.32 676.238 1342.28 676.503 1343.25 676.767C1347.14 677.746 1351.1 678.581 1355.08 679.213C1355.16 679.234 1355.24 679.255 1355.32 679.276L1355.29 679.227Z" fill="url(#paint2_linear_3314_20201)"/>
<defs>
<linearGradient id="paint0_linear_3314_20201" x1="-1436.01" y1="274.644" x2="1928.41" y2="1148.86" gradientUnits="userSpaceOnUse">
<stop stop-color="#5C00DB"/>
<stop offset="1" stop-color="#AB74F6"/>
</linearGradient>
<linearGradient id="paint1_linear_3314_20201" x1="-1436.01" y1="274.644" x2="1928.41" y2="1148.86" gradientUnits="userSpaceOnUse">
<stop stop-color="#5C00DB"/>
<stop offset="1" stop-color="#AB74F6"/>
</linearGradient>
<linearGradient id="paint2_linear_3314_20201" x1="-1436.01" y1="274.644" x2="1928.41" y2="1148.86" gradientUnits="userSpaceOnUse">
<stop stop-color="#5C00DB"/>
<stop offset="1" stop-color="#AB74F6"/>
</linearGradient>
</defs>
</svg>
