<svg width="694" height="383" viewBox="0 0 694 383" fill="none" xmlns="http://www.w3.org/2000/svg">
<g opacity="0.75">
<path fill-rule="evenodd" clip-rule="evenodd" d="M-1170.98 598.366C-1151.65 598.366 -1135.98 582.696 -1135.98 563.366L-1135.98 157.679C-1135.98 110.384 -1173.72 71.8887 -1220.09 71.8887C-1266.46 71.8887 -1304.2 110.385 -1304.2 157.679L-1304.2 477.745C-1304.2 544.288 -1251.18 598.366 -1185.95 598.366H-1170.98ZM-1144.97 554.2C-1144.97 573.53 -1160.64 589.2 -1179.97 589.2H-1185.95C-1246.15 589.2 -1295.22 539.156 -1295.22 477.745L-1295.22 157.679C-1295.22 115.517 -1261.43 81.0544 -1220.09 81.0544C-1178.76 81.0544 -1144.97 115.517 -1144.97 157.679L-1144.97 554.2Z" fill="#5C00DB"/>
<path fill-rule="evenodd" clip-rule="evenodd" d="M-982.682 707.988V695.876C-982.682 676.546 -998.352 660.876 -1017.68 660.876H-1039.7C-1059.03 660.876 -1074.7 676.546 -1074.7 695.876V707.988C-1074.7 733.835 -1054.03 754.916 -1028.69 754.916C-1003.35 754.916 -982.682 733.835 -982.682 707.988ZM-991.668 707.988C-991.668 728.885 -1008.2 745.75 -1028.69 745.75C-1049.18 745.75 -1065.71 728.885 -1065.71 707.988V705.042C-1065.71 685.712 -1050.04 670.042 -1030.71 670.042H-1026.67C-1007.34 670.042 -991.668 685.712 -991.668 705.042V707.988Z" fill="#5C00DB"/>
<path fill-rule="evenodd" clip-rule="evenodd" d="M842.178 349.804H424.011C404.681 349.804 389.011 334.133 389.011 314.803V298.426C389.011 231.34 444.62 176.821 513.048 176.821H842.178C890.812 176.821 930.399 215.631 930.399 263.312C930.399 310.993 890.812 349.804 842.178 349.804ZM398.437 298.426V305.563C398.437 324.893 414.107 340.563 433.437 340.563H842.178C885.534 340.563 920.973 305.819 920.973 263.312C920.973 220.806 885.534 186.062 842.178 186.062H513.048C449.899 186.062 398.437 236.515 398.437 298.426Z" fill="#5C00DB"/>
<path fill-rule="evenodd" clip-rule="evenodd" d="M324.731 472.447C324.731 491.777 309.061 507.447 289.731 507.447H276.285C249.706 507.447 228.028 486.193 228.028 460.135C228.028 434.077 249.706 412.824 276.285 412.824H289.731C309.061 412.824 324.731 428.494 324.731 447.824V472.447ZM237.453 460.135C237.453 481.204 254.796 498.206 276.285 498.206H280.306C299.636 498.206 315.306 482.536 315.306 463.206V457.064C315.306 437.734 299.636 422.064 280.306 422.064H276.285C254.796 422.064 237.453 439.067 237.453 460.135Z" fill="#5C00DB"/>
<path fill-rule="evenodd" clip-rule="evenodd" d="M532.275 737.72H424.011C404.681 737.72 389.011 722.05 389.011 702.72V605.467C389.011 586.137 404.681 570.467 424.011 570.467H532.275C579.402 570.467 617.668 607.799 617.668 654.001C617.668 700.204 579.402 737.72 532.275 737.72ZM532.275 579.707H433.437C414.107 579.707 398.437 595.377 398.437 614.707V693.48C398.437 712.81 414.107 728.48 433.437 728.48H532.275C574.124 728.48 608.243 695.029 608.243 654.001C608.243 612.973 574.124 579.707 532.275 579.707Z" fill="#5C00DB"/>
<path fill-rule="evenodd" clip-rule="evenodd" d="M324.543 848.052C324.543 873.925 303.053 895.178 276.474 895.178C263.09 895.178 251.026 889.819 242.354 881.318C233.683 872.816 228.216 860.988 228.216 848.052C228.216 821.809 249.706 800.74 276.474 800.74H304.679C315.754 800.74 324.731 809.718 324.731 820.792V840.75C324.731 840.802 324.689 840.844 324.637 840.844C324.585 840.844 324.543 840.886 324.543 840.938V848.052ZM248.952 874.849C256.304 882.057 266.106 885.938 276.474 885.938C297.775 885.938 315.117 868.935 315.306 848.052V844.981C315.306 825.651 299.636 809.981 280.306 809.981H276.474C254.984 809.981 237.642 826.983 237.642 848.052C237.642 858.216 241.6 867.642 248.952 874.849Z" fill="#5C00DB"/>
<path fill-rule="evenodd" clip-rule="evenodd" d="M-688.48 459.047V517.51C-688.48 532.972 -674.103 544.398 -658.641 544.398H-642.048C-622.718 544.398 -607.048 528.728 -607.048 509.398V489.238C-607.048 435.168 -587.034 383.061 -550.563 342.072C-507.199 293.671 -444.932 265.982 -379.329 265.982H8.95068C66.9269 265.982 118.76 292.174 152.791 333.126C169.767 353.554 205.231 359.515 229.852 349.552C244.168 343.76 259.85 340.563 276.285 340.563H280.306C299.636 340.563 315.306 324.893 315.306 305.563V298.426C315.306 251.485 332.648 206.206 364.317 170.722C402.018 128.771 456.119 104.56 513.048 104.56H842.178C931.53 104.56 1004.1 175.712 1004.1 263.312C1004.1 350.912 931.53 422.064 842.178 422.064H433.437C414.107 422.064 398.437 437.734 398.437 457.064V463.206C398.437 482.536 414.107 498.206 433.437 498.206H532.275C619.93 498.206 691.374 568.064 691.374 654.001C691.374 739.938 619.93 809.981 532.275 809.981H433.437C414.107 809.981 398.437 825.651 398.437 844.981V855.075L398.08 863.82C398.069 864.097 397.841 864.315 397.564 864.315C397.308 864.315 397.09 864.503 397.053 864.757C395.331 876.442 391.773 888.292 386.561 899.059C366.391 940.642 323.223 967.439 276.474 967.439C209.177 967.439 154.511 914.029 154.511 848.052C154.511 782.075 209.177 728.48 276.474 728.48H280.306C299.636 728.48 315.306 712.81 315.306 693.48V614.707C315.306 595.377 299.636 579.707 280.306 579.707H276.285C255.773 579.707 236.433 574.728 219.458 565.936C195.896 553.733 160.087 556.317 141.32 575.076C107.644 608.738 60.7493 629.645 8.95068 629.645H-485.097C-504.427 629.645 -520.097 645.315 -520.097 664.645V695.372C-520.097 714.702 -504.427 730.372 -485.097 730.372H-356.646C-256.129 730.372 -174.515 810.386 -174.515 908.715C-174.515 1007.04 -256.129 1087.28 -356.646 1087.28H-488.047C-505.748 1087.28 -520.097 1101.62 -520.097 1119.33V1150.91C-520.097 1151.17 -520.306 1151.37 -520.564 1151.37C-520.804 1151.37 -521.005 1151.56 -521.03 1151.79C-522.625 1166.91 -527.05 1181.81 -533.44 1195.63C-556.345 1242.73 -605.269 1273.03 -658.419 1273.03C-734.696 1273.03 -796.74 1212.2 -796.74 1137.64C-796.74 1063.08 -734.696 1002.03 -658.419 1002.03H-642.048C-622.718 1002.03 -607.048 986.359 -607.048 967.029V863.036C-607.048 841.396 -629.817 826.408 -651.457 826.408C-679.063 826.408 -704.439 816.567 -724.394 800.141C-726.27 798.596 -728.257 797.187 -730.344 795.942C-770.256 772.129 -796.963 729.072 -796.963 680.008C-796.963 674.623 -801.184 670.042 -806.569 670.042H-877.411C-896.741 670.042 -912.411 685.712 -912.411 705.042V707.988C-912.411 773.431 -964.53 826.592 -1028.69 826.592C-1092.85 826.592 -1144.97 773.431 -1144.97 707.988V705.042C-1144.97 685.712 -1160.64 670.042 -1179.97 670.042H-1185.95C-1231.59 670.042 -1275.63 653.177 -1310.13 622.38C-1350.93 585.717 -1374.47 533.106 -1374.47 477.745L-1374.47 157.679C-1374.47 70.7887 -1305.28 0.212894 -1220.09 0.212891C-1134.91 0.212887 -1065.71 70.7887 -1065.71 157.679V554.2C-1065.71 573.53 -1050.04 589.2 -1030.71 589.2H-1026.67C-1007.34 589.2 -991.668 573.53 -991.668 554.2V459.047C-991.668 373.806 -923.734 304.331 -840.164 304.331C-756.594 304.331 -688.48 373.806 -688.48 459.047ZM-1365.49 157.679C-1365.49 75.9215 -1300.25 9.37859 -1220.09 9.37858C-1139.94 9.37858 -1074.7 75.9215 -1074.7 157.679L-1074.7 563.366C-1074.7 582.696 -1059.03 598.366 -1039.7 598.366H-1017.68C-998.352 598.366 -982.682 582.696 -982.682 563.366V459.047C-982.682 378.756 -918.702 313.496 -840.164 313.496C-761.626 313.496 -697.466 378.756 -697.466 459.047L-697.466 532.917C-697.466 542.933 -704.421 551.648 -713.634 555.576C-732.178 563.483 -758.75 551.357 -758.75 531.197V459.047C-758.75 413.219 -795.234 376.006 -840.164 376.006C-885.094 376.006 -921.397 413.219 -921.397 459.047V563.366C-921.397 582.696 -905.727 598.366 -886.397 598.366H-817.197C-797.536 598.366 -785.186 621.828 -791.011 640.606C-794.498 651.847 -804.324 660.876 -816.093 660.876H-886.397C-905.727 660.876 -921.397 676.546 -921.397 695.876V707.988C-921.397 768.298 -969.562 817.426 -1028.69 817.426C-1087.82 817.426 -1135.98 768.298 -1135.98 707.988V695.876C-1135.98 676.546 -1151.65 660.876 -1170.98 660.876H-1185.95C-1231.24 660.876 -1272.57 643.644 -1304.2 615.414C-1341.76 581.868 -1365.49 532.556 -1365.49 477.745L-1365.49 157.679ZM186.502 500.451C183.131 511.365 183.571 523.588 191.123 532.158C211.781 555.6 242.307 570.467 276.285 570.467H289.731C309.061 570.467 324.731 586.137 324.731 605.467V702.72C324.731 722.05 309.061 737.72 289.731 737.72H276.474C214.267 737.72 163.936 787.249 163.936 848.052C163.936 908.854 214.267 958.199 276.474 958.199C321.149 958.199 359.982 932.51 378.078 895.178C383.897 883.033 387.66 869.422 388.622 855.257C388.629 855.154 388.714 855.075 388.817 855.075C388.924 855.075 389.011 854.987 389.011 854.88V827.907C389.011 812.904 401.174 800.74 416.178 800.74H532.275C614.841 800.74 681.949 734.763 681.949 654.001C681.949 573.239 614.841 507.447 532.275 507.447H424.011C404.681 507.447 389.011 491.777 389.011 472.447V447.824C389.011 428.494 404.681 412.824 424.011 412.824H842.178C926.251 412.824 994.679 345.738 994.679 263.312C994.679 180.887 926.251 113.801 842.178 113.801H513.048C456.685 113.801 405.977 138.196 371.48 176.821C342.451 209.348 324.731 251.854 324.731 298.426V314.804C324.731 334.133 309.061 349.804 289.731 349.804H276.285C246.07 349.804 218.584 361.56 198.34 380.648C190.048 388.468 188.451 400.561 190.752 411.725C193.156 423.392 194.417 435.46 194.417 447.814C194.417 466.11 191.649 483.783 186.502 500.451ZM-658.641 815.619H-651.552C-649.552 815.619 -649.457 817.243 -651.457 817.243C-659.279 817.243 -666.908 816.386 -674.259 814.76C-669.132 815.327 -663.921 815.619 -658.641 815.619ZM-651.457 661.059C-650.878 661.059 -650.302 661.07 -649.728 661.092C-641.111 661.421 -607.048 645.584 -607.048 636.96C-607.048 632.92 -610.323 629.645 -614.364 629.645H-658.641C-686.884 629.645 -710.011 652.319 -710.011 680.008C-710.011 690.777 -706.513 700.787 -700.576 709C-699.583 710.374 -697.466 709.5 -697.466 707.804V680.376C-697.466 669.606 -688.735 660.876 -677.966 660.876H-658.558C-658.507 660.876 -658.466 660.917 -658.466 660.968C-658.466 661.018 -658.425 661.059 -658.375 661.059H-651.457ZM-688.48 707.804C-688.48 709.246 -688.401 710.67 -688.248 712.069C-687.448 719.363 -682.132 725.338 -675.177 727.676C-669.982 729.423 -664.419 730.372 -658.641 730.372H-639.669C-628.471 730.372 -616.869 725.109 -615.106 714.051C-614.78 712.004 -614.615 709.916 -614.615 707.804C-614.615 687.09 -631.149 670.225 -651.457 670.042H-653.48C-672.81 670.042 -688.48 685.712 -688.48 705.042V707.804ZM-607.048 729.17C-607.048 729.834 -607.586 730.372 -608.25 730.372H-609.281C-610.191 730.372 -610.785 729.417 -610.387 728.598C-609.769 727.324 -607.048 727.754 -607.048 729.17ZM-877.411 589.2C-896.741 589.2 -912.411 573.53 -912.411 554.2V459.047C-912.411 418.352 -880.062 385.172 -840.164 385.172C-800.266 385.172 -767.736 418.352 -767.736 459.047V554.2C-767.736 573.53 -783.406 589.2 -802.736 589.2H-877.411ZM-658.419 1087.28C-686.661 1087.28 -709.789 1109.95 -709.789 1137.64C-709.789 1150.72 -704.229 1163.58 -694.667 1172.96C-684.882 1182.55 -671.984 1187.78 -658.419 1187.78C-630.176 1187.78 -607.271 1165.33 -607.271 1137.64V1122.28C-607.271 1102.95 -622.941 1087.28 -642.271 1087.28H-658.419ZM-356.646 1002.03C-304.164 1002.03 -261.466 960.168 -261.466 908.715C-261.466 857.261 -304.164 815.619 -356.646 815.619H-485.097C-504.427 815.619 -520.097 831.289 -520.097 850.619V967.029C-520.097 986.358 -504.427 1002.03 -485.097 1002.03H-356.646ZM8.95068 544.398C63.2119 544.398 107.466 501.011 107.466 447.814C107.466 394.616 63.2119 351.229 8.95068 351.229H-379.329C-456.94 351.229 -520.097 413.148 -520.097 489.238V509.398C-520.097 528.728 -504.427 544.398 -485.097 544.398H8.95068Z" fill="#5C00DB"/>
</g>
</svg>
