<svg width="1920" height="383" viewBox="0 0 1920 383" fill="none" xmlns="http://www.w3.org/2000/svg">
<path fill-rule="evenodd" clip-rule="evenodd" d="M55.0164 598.768C74.3464 598.768 90.0164 583.098 90.0164 563.768L90.0164 158.082C90.0164 110.787 52.2751 72.291 5.90721 72.291C-40.4607 72.291 -78.202 110.787 -78.202 158.082L-78.2019 478.148C-78.2019 544.691 -25.1844 598.768 40.0541 598.768H55.0164ZM81.0304 554.603C81.0304 573.932 65.3604 589.603 46.0304 589.603H40.0541C-20.1522 589.603 -69.2159 539.558 -69.2159 478.148L-69.2159 158.082C-69.2159 115.92 -35.4285 81.4567 5.90721 81.4567C47.2429 81.4567 81.0304 115.92 81.0304 158.082L81.0304 554.603Z" fill="#E8EEF8"/>
<path fill-rule="evenodd" clip-rule="evenodd" d="M243.318 708.39V696.278C243.318 676.948 227.648 661.278 208.318 661.278H186.301C166.971 661.278 151.301 676.948 151.301 696.278V708.39C151.301 734.237 171.969 755.318 197.31 755.318C222.65 755.318 243.318 734.237 243.318 708.39ZM234.332 708.39C234.332 729.288 217.798 746.153 197.31 746.153C176.821 746.153 160.287 729.288 160.287 708.39V705.444C160.287 686.114 175.957 670.444 195.287 670.444H199.332C218.662 670.444 234.332 686.114 234.332 705.444V708.39Z" fill="#E8EEF8"/>
<path fill-rule="evenodd" clip-rule="evenodd" d="M2068.18 350.206H1650.01C1630.68 350.206 1615.01 334.536 1615.01 315.206V298.829C1615.01 231.743 1670.62 177.224 1739.05 177.224H2068.18C2116.81 177.224 2156.4 216.034 2156.4 263.715C2156.4 311.396 2116.81 350.206 2068.18 350.206ZM1624.44 298.829V305.965C1624.44 325.295 1640.11 340.965 1659.44 340.965H2068.18C2111.53 340.965 2146.97 306.221 2146.97 263.715C2146.97 221.208 2111.53 186.464 2068.18 186.464H1739.05C1675.9 186.464 1624.44 236.917 1624.44 298.829Z" fill="#E8EEF8"/>
<path fill-rule="evenodd" clip-rule="evenodd" d="M1550.73 472.849C1550.73 492.179 1535.06 507.849 1515.73 507.849H1502.29C1475.71 507.849 1454.03 486.596 1454.03 460.538C1454.03 434.479 1475.71 413.226 1502.29 413.226H1515.73C1535.06 413.226 1550.73 428.896 1550.73 448.226V472.849ZM1463.45 460.538C1463.45 481.606 1480.8 498.608 1502.29 498.608H1506.31C1525.64 498.608 1541.31 482.938 1541.31 463.608V457.467C1541.31 438.137 1525.64 422.467 1506.31 422.467H1502.29C1480.8 422.467 1463.45 439.469 1463.45 460.538Z" fill="#E8EEF8"/>
<path fill-rule="evenodd" clip-rule="evenodd" d="M1758.28 738.122H1650.01C1630.68 738.122 1615.01 722.452 1615.01 703.122V605.869C1615.01 586.539 1630.68 570.869 1650.01 570.869H1758.28C1805.4 570.869 1843.67 608.201 1843.67 654.403C1843.67 700.606 1805.4 738.122 1758.28 738.122ZM1758.28 580.11H1659.44C1640.11 580.11 1624.44 595.78 1624.44 615.11V693.882C1624.44 713.212 1640.11 728.882 1659.44 728.882H1758.28C1800.12 728.882 1834.24 695.431 1834.24 654.403C1834.24 613.376 1800.12 580.11 1758.28 580.11Z" fill="#E8EEF8"/>
<path fill-rule="evenodd" clip-rule="evenodd" d="M1550.54 848.454C1550.54 874.328 1529.05 895.581 1502.47 895.581C1489.09 895.581 1477.03 890.221 1468.35 881.72C1459.68 873.219 1454.22 861.391 1454.22 848.454C1454.22 822.211 1475.71 801.143 1502.47 801.143H1530.68C1541.75 801.143 1550.73 810.12 1550.73 821.195V841.152C1550.73 841.204 1550.69 841.247 1550.64 841.247C1550.58 841.247 1550.54 841.289 1550.54 841.341V848.454ZM1474.95 875.252C1482.3 882.459 1492.11 886.34 1502.47 886.34C1523.77 886.34 1541.12 869.338 1541.31 848.454V845.383C1541.31 826.053 1525.64 810.383 1506.31 810.383H1502.47C1480.98 810.383 1463.64 827.386 1463.64 848.454C1463.64 858.619 1467.6 868.044 1474.95 875.252Z" fill="#E8EEF8"/>
<path fill-rule="evenodd" clip-rule="evenodd" d="M537.52 459.45V517.912C537.52 533.374 551.897 544.8 567.359 544.8H583.952C603.282 544.8 618.952 529.13 618.952 509.8V489.64C618.952 435.571 638.966 383.463 675.437 342.475C718.801 294.074 781.068 266.385 846.671 266.385H1234.95C1292.93 266.385 1344.76 292.576 1378.79 333.528C1395.77 353.956 1431.23 359.917 1455.85 349.955C1470.17 344.162 1485.85 340.965 1502.29 340.965H1506.31C1525.64 340.965 1541.31 325.295 1541.31 305.965V298.829C1541.31 251.887 1558.65 206.608 1590.32 171.125C1628.02 129.173 1682.12 104.963 1739.05 104.963H2068.18C2157.53 104.963 2230.1 176.115 2230.1 263.715C2230.1 351.315 2157.53 422.467 2068.18 422.467H1659.44C1640.11 422.467 1624.44 438.137 1624.44 457.467V463.608C1624.44 482.938 1640.11 498.608 1659.44 498.608H1758.28C1845.93 498.608 1917.37 568.467 1917.37 654.403C1917.37 740.34 1845.93 810.383 1758.28 810.383H1659.44C1640.11 810.383 1624.44 826.053 1624.44 845.383V855.477L1624.08 864.222C1624.07 864.499 1623.84 864.717 1623.56 864.717C1623.31 864.717 1623.09 864.906 1623.05 865.16C1621.33 876.845 1617.77 888.694 1612.56 899.462C1592.39 941.044 1549.22 967.841 1502.47 967.841C1435.18 967.841 1380.51 914.431 1380.51 848.454C1380.51 782.477 1435.18 728.882 1502.47 728.882H1506.31C1525.64 728.882 1541.31 713.212 1541.31 693.882V615.11C1541.31 595.78 1525.64 580.11 1506.31 580.11H1502.29C1481.77 580.11 1462.43 575.13 1445.46 566.339C1421.9 554.135 1386.09 556.719 1367.32 575.478C1333.64 609.14 1286.75 630.047 1234.95 630.047H740.903C721.573 630.047 705.903 645.717 705.903 665.047V695.774C705.903 715.104 721.573 730.774 740.903 730.774H869.354C969.871 730.774 1051.49 810.788 1051.49 909.117C1051.49 1007.45 969.871 1087.68 869.354 1087.68H737.953C720.252 1087.68 705.903 1102.03 705.903 1119.73V1151.31C705.903 1151.57 705.694 1151.78 705.436 1151.78C705.196 1151.78 704.995 1151.96 704.97 1152.2C703.375 1167.31 698.95 1182.21 692.56 1196.04C669.655 1243.13 620.731 1273.43 567.581 1273.43C491.304 1273.43 429.26 1212.61 429.26 1138.04C429.26 1063.48 491.304 1002.43 567.581 1002.43H583.952C603.282 1002.43 618.952 986.761 618.952 967.431V863.438C618.952 841.798 596.183 826.811 574.543 826.811C546.937 826.811 521.561 816.969 501.606 800.543C499.73 798.998 497.743 797.589 495.656 796.344C455.744 772.531 429.037 729.474 429.037 680.411C429.037 675.025 424.816 670.444 419.431 670.444H348.589C329.259 670.444 313.589 686.114 313.589 705.444V708.39C313.589 773.833 261.47 826.994 197.31 826.994C133.149 826.994 81.0304 773.833 81.0304 708.39V705.444C81.0304 686.114 65.3604 670.444 46.0304 670.444H40.0541C-5.59486 670.444 -49.6264 653.579 -84.1327 622.782C-124.929 586.12 -148.473 533.509 -148.473 478.148L-148.473 158.082C-148.473 71.1911 -79.2803 0.615238 5.90721 0.615234C91.0947 0.615231 160.287 71.1911 160.287 158.082V554.603C160.287 573.932 175.957 589.603 195.287 589.603H199.332C218.662 589.603 234.332 573.932 234.332 554.603V459.45C234.332 374.209 302.266 304.733 385.836 304.733C469.406 304.733 537.52 374.209 537.52 459.45ZM-139.487 158.082C-139.487 76.3238 -74.2481 9.78093 5.90721 9.78093C86.0625 9.78092 151.301 76.3238 151.301 158.082L151.301 563.768C151.301 583.098 166.971 598.768 186.301 598.768H208.318C227.648 598.768 243.318 583.098 243.318 563.768V459.45C243.318 379.158 307.298 313.899 385.836 313.899C464.374 313.899 528.534 379.158 528.534 459.45L528.534 533.32C528.534 543.335 521.579 552.05 512.366 555.978C493.822 563.885 467.25 551.759 467.25 531.6V459.45C467.25 413.621 430.766 376.409 385.836 376.409C340.906 376.409 304.603 413.621 304.603 459.45V563.768C304.603 583.098 320.273 598.768 339.603 598.768H408.803C428.464 598.768 440.814 622.23 434.989 641.009C431.502 652.249 421.676 661.278 409.907 661.278H339.603C320.273 661.278 304.603 676.948 304.603 696.278V708.39C304.603 768.7 256.438 817.828 197.31 817.828C138.182 817.828 90.0164 768.7 90.0164 708.39V696.278C90.0164 676.948 74.3464 661.278 55.0164 661.278H40.0541C-5.23541 661.278 -46.5711 644.047 -78.2019 615.816C-115.764 582.27 -139.487 532.959 -139.487 478.148L-139.487 158.082ZM1412.5 500.853C1409.13 511.768 1409.57 523.99 1417.12 532.561C1437.78 556.003 1468.31 570.869 1502.29 570.869H1515.73C1535.06 570.869 1550.73 586.539 1550.73 605.869V703.122C1550.73 722.452 1535.06 738.122 1515.73 738.122H1502.47C1440.27 738.122 1389.94 787.652 1389.94 848.454C1389.94 909.257 1440.27 958.601 1502.47 958.601C1547.15 958.601 1585.98 932.912 1604.08 895.581C1609.9 883.435 1613.66 869.824 1614.62 855.659C1614.63 855.557 1614.71 855.477 1614.82 855.477C1614.92 855.477 1615.01 855.39 1615.01 855.282V828.31C1615.01 813.306 1627.17 801.143 1642.18 801.143H1758.28C1840.84 801.143 1907.95 735.165 1907.95 654.403C1907.95 573.641 1840.84 507.849 1758.28 507.849H1650.01C1630.68 507.849 1615.01 492.179 1615.01 472.849V448.226C1615.01 428.896 1630.68 413.226 1650.01 413.226H2068.18C2152.25 413.226 2220.68 346.14 2220.68 263.715C2220.68 181.289 2152.25 114.203 2068.18 114.203H1739.05C1682.68 114.203 1631.98 138.598 1597.48 177.224C1568.45 209.75 1550.73 252.256 1550.73 298.829V315.206C1550.73 334.536 1535.06 350.206 1515.73 350.206H1502.29C1472.07 350.206 1444.58 361.962 1424.34 381.051C1416.05 388.87 1414.45 400.964 1416.75 412.127C1419.16 423.794 1420.42 435.863 1420.42 448.216C1420.42 466.513 1417.65 484.186 1412.5 500.853ZM567.359 816.021H574.448C576.448 816.021 576.543 817.645 574.543 817.645C566.721 817.645 559.092 816.789 551.741 815.162C556.868 815.73 562.079 816.021 567.359 816.021ZM574.543 661.462C575.122 661.462 575.698 661.473 576.272 661.495C584.889 661.824 618.952 645.986 618.952 637.362C618.952 633.322 615.677 630.047 611.636 630.047H567.359C539.116 630.047 515.989 652.722 515.989 680.411C515.989 691.179 519.487 701.19 525.424 709.403C526.417 710.777 528.534 709.902 528.534 708.207V680.778C528.534 670.009 537.265 661.278 548.034 661.278H567.442C567.493 661.278 567.534 661.319 567.534 661.37C567.534 661.421 567.575 661.462 567.625 661.462H574.543ZM537.52 708.207C537.52 709.649 537.599 711.072 537.752 712.471C538.552 719.765 543.868 725.741 550.823 728.079C556.018 729.825 561.581 730.774 567.359 730.774H586.331C597.529 730.774 609.131 725.511 610.894 714.453C611.22 712.406 611.385 710.319 611.385 708.207C611.385 687.492 594.851 670.627 574.543 670.444H572.52C553.19 670.444 537.52 686.114 537.52 705.444V708.207ZM618.952 729.573C618.952 730.236 618.414 730.774 617.75 730.774H616.719C615.809 730.774 615.215 729.819 615.613 729C616.231 727.726 618.952 728.156 618.952 729.573ZM348.589 589.603C329.259 589.603 313.589 573.932 313.589 554.603V459.45C313.589 418.754 345.938 385.574 385.836 385.574C425.734 385.574 458.264 418.754 458.264 459.45V554.603C458.264 573.932 442.594 589.603 423.264 589.603H348.589ZM567.581 1087.68C539.339 1087.68 516.211 1110.35 516.211 1138.04C516.211 1151.12 521.771 1163.99 531.333 1173.36C541.118 1182.95 554.016 1188.19 567.581 1188.19C595.824 1188.19 618.729 1165.73 618.729 1138.04V1122.68C618.729 1103.35 603.059 1087.68 583.729 1087.68H567.581ZM869.354 1002.43C921.836 1002.43 964.534 960.57 964.534 909.117C964.534 857.663 921.836 816.021 869.354 816.021H740.903C721.573 816.021 705.903 831.691 705.903 851.021V967.431C705.903 986.761 721.573 1002.43 740.903 1002.43H869.354ZM1234.95 544.8C1289.21 544.8 1333.47 501.414 1333.47 448.216C1333.47 395.018 1289.21 351.632 1234.95 351.632H846.671C769.06 351.632 705.903 413.55 705.903 489.64V509.8C705.903 529.13 721.573 544.8 740.903 544.8H1234.95Z" fill="#E8EEF8"/>
</svg>
